<svg width="210" height="82" viewBox="0 0 210 82" fill="none" xmlns="http://www.w3.org/2000/svg">
<g clip-path="url(#clip0_86_2022)">
<path d="M0.261719 42.75H97.9917L107.422 61.89L98.0217 81.15H0.271719L0.261719 42.75Z" fill="url(#paint0_linear_86_2022)"/>
<path d="M100.643 61.9009L93.793 47.9609H107.353L114.223 61.9109L107.383 75.9409H93.793L100.643 61.9009Z" fill="url(#paint1_linear_86_2022)"/>
<path d="M24.7805 54.6484C20.7505 54.6484 17.4805 57.9184 17.4805 61.9484C17.4805 65.9784 20.7505 69.2484 24.7805 69.2484C28.8105 69.2484 32.0805 65.9784 32.0805 61.9484C32.0805 57.9184 28.8105 54.6484 24.7805 54.6484ZM28.9305 63.9084V66.4784H20.3005L24.1505 60.0184H20.4105V57.4584H29.2205L25.3505 63.9084H28.9305Z" fill="white"/>
<path d="M22.8117 70.65C16.0017 70.05 10.7617 66.38 10.7617 61.95C10.7617 57.52 15.9917 53.85 22.8017 53.25C22.8017 53.25 22.8517 53.27 22.8517 53.3C22.8517 53.33 22.8417 53.34 22.8117 53.35C18.8817 54.24 15.9517 57.76 15.9517 61.96C15.9517 66.16 18.8817 69.67 22.8117 70.56C22.8317 70.56 22.8517 70.59 22.8517 70.61C22.8517 70.64 22.8317 70.66 22.8017 70.66" fill="white"/>
<path d="M26.7627 70.65C33.5727 70.05 38.8127 66.38 38.8127 61.95C38.8127 57.52 33.5827 53.85 26.7727 53.25C26.7727 53.25 26.7227 53.27 26.7227 53.3C26.7227 53.33 26.7427 53.34 26.7627 53.35C30.6927 54.24 33.6227 57.76 33.6227 61.96C33.6227 66.16 30.6927 69.67 26.7627 70.56C26.7427 70.56 26.7227 70.59 26.7227 70.61C26.7227 70.64 26.7427 70.66 26.7727 70.66" fill="white"/>
<path d="M45.1408 64.94L50.0908 56.75H41.4008V59.07H45.5208L40.5508 67.26H49.5508V64.94H45.1408Z" fill="white"/>
<path d="M55.2006 59.0502C56.8306 59.0502 58.1706 60.3802 58.1706 61.8202C58.1706 63.6302 56.8306 64.9502 55.2006 64.9502C53.5706 64.9502 52.2306 63.6302 52.2306 61.8202C52.2306 60.3702 53.5706 59.0502 55.2006 59.0502ZM55.2006 56.4102C52.1806 56.4102 49.3906 58.6402 49.3906 61.8102C49.3906 65.2102 51.8306 67.6102 55.2006 67.6102C58.5706 67.6102 61.0106 65.2102 61.0106 61.8102C61.0106 58.6402 58.2206 56.4102 55.2006 56.4102Z" fill="white"/>
<path d="M64.6206 58.84H64.8906C65.7806 58.84 66.7906 59.01 66.7906 60.15C66.7906 61.29 65.7906 61.46 64.8906 61.46H64.6206V58.84ZM67.3206 62.95C68.8106 62.68 69.6206 61.43 69.6206 59.98C69.6206 57.74 68.0506 56.75 65.9706 56.75H61.8906V67.25H64.6206V63.21H64.6506L67.2306 67.25H70.6306L67.3306 62.94L67.3206 62.95Z" fill="white"/>
<path d="M74.0933 56.75H71.3633V67.26H77.3633V64.94H74.0933V56.75Z" fill="white"/>
<path d="M84.3519 56.75V62.28C84.3519 63.65 84.2519 65.14 82.5019 65.14C80.7519 65.14 80.6519 63.65 80.6519 62.28V56.75H77.9219V62.65C77.9219 64 77.9819 65.34 79.0219 66.35C79.9019 67.21 81.2719 67.52 82.5019 67.52C83.7319 67.52 85.1019 67.21 85.9819 66.35C87.0219 65.33 87.0819 64 87.0819 62.65V56.75H84.3519Z" fill="white"/>
<path d="M51.3589 10.15H45.3689L39.0889 16.39V2.23C39.0889 1.11 38.1589 0 36.8589 0H34.6289V29.45H39.0889V22.02L39.7989 21.31L46.1789 29.45H51.9589L42.9589 18.26L51.3389 10.16L51.3589 10.15Z" fill="white"/>
<path d="M58.1402 10.1484H55.9102V29.4484H60.3702V12.3784C60.3702 11.2584 59.4302 10.1484 58.1402 10.1484Z" fill="white"/>
<path d="M86.9917 10.1484H84.7617V29.4484H89.2217V12.3784C89.2217 11.2584 88.2817 10.1484 86.9917 10.1484Z" fill="white"/>
<path d="M15.61 0C14.22 0 13.61 1.29 13.61 1.29L0 29.45H5.06L8.26 22.82H23.18L26.44 29.45H31.52L17.65 1.29C17.65 1.29 16.99 0 15.61 0ZM10.36 18.49L15.65 7.54L21.04 18.49H10.36Z" fill="white"/>
<path d="M67.8003 0H65.5703V29.45H70.0303V2.23C70.0303 1.11 69.0903 0 67.8003 0Z" fill="white"/>
<path d="M77.3394 0H75.1094V29.45H79.5694V2.23C79.5694 1.11 78.6294 0 77.3394 0Z" fill="white"/>
<path d="M128.161 5.08C128.161 3.54 128.161 2.45 128.161 2.23C128.151 1.11 127.221 0 125.921 0C124.631 0 123.691 0 123.691 0V0.28C123.691 1.56 123.691 7.13 123.711 11.88H110.841V0.02H106.371L106.411 29.47H110.871L110.851 16.21H123.721L123.741 29.45H128.201L128.171 5.07L128.161 5.08Z" fill="white"/>
<path d="M191.992 12.3816C190.212 10.5316 188.192 9.60156 185.952 9.60156C183.352 9.60156 181.182 10.5716 179.452 12.4916C177.722 14.4216 176.852 16.8316 176.852 19.7216C176.852 22.6116 177.722 25.1216 179.452 27.0916C181.192 29.0216 183.402 29.9816 186.062 29.9816C188.182 29.9816 190.152 29.1216 191.992 27.4116L192.032 27.4316C192.152 28.4716 193.032 29.4316 194.242 29.4316H196.472V10.1416H191.992V12.3716V12.3816ZM190.742 24.3016C189.722 25.4416 188.392 26.0116 186.742 26.0116C185.202 26.0116 183.912 25.4216 182.892 24.2516C181.902 23.0916 181.412 21.5816 181.412 19.7316C181.412 18.0016 181.922 16.5516 182.932 15.3716C183.962 14.2116 185.242 13.6316 186.772 13.6316C188.402 13.6316 189.722 14.2116 190.732 15.3516C191.742 16.5216 192.262 18.0216 192.262 19.8316C192.262 21.6416 191.752 23.1316 190.732 24.3116L190.742 24.3016Z" fill="white"/>
<path d="M206.55 10.1378V3.75781H202.09V27.1978C202.09 28.3178 203.03 29.4278 204.32 29.4278H206.55V14.2878H210.02V10.1278H206.55V10.1378Z" fill="white"/>
<path d="M152.069 24.5516C152.069 24.5516 152.069 24.5516 152.069 24.5416L152.049 10.1316H147.569V12.3716C145.779 10.5216 143.769 9.60156 141.519 9.60156C138.919 9.60156 136.749 10.5716 135.029 12.5016C133.299 14.4316 132.439 16.8416 132.449 19.7316C132.449 22.6816 133.319 25.1316 135.059 27.1016C136.799 29.0316 139.009 29.9916 141.679 29.9816C143.789 29.9816 145.769 29.1216 147.599 27.4016L147.639 27.4216C147.759 28.4616 148.649 29.4116 149.849 29.4116C151.139 29.4116 152.079 29.4116 152.079 29.4116V29.3316C152.079 28.8116 152.079 25.4516 152.079 24.5416L152.069 24.5516ZM146.339 24.2916C145.319 25.4316 143.989 26.0016 142.339 26.0016C140.799 26.0016 139.509 25.4216 138.499 24.2416C137.509 23.0816 137.009 21.5816 137.009 19.7316C137.009 18.0016 137.519 16.5516 138.529 15.3716C139.559 14.2116 140.839 13.6216 142.369 13.6216C143.999 13.6216 145.319 14.1916 146.339 15.3416C147.359 16.5116 147.869 18.0116 147.869 19.8216C147.869 21.6316 147.359 23.1216 146.349 24.3016L146.339 24.2916Z" fill="white"/>
<path d="M169.871 11.3716C169.731 11.6616 165.881 19.5416 165.701 19.9216L160.881 10.1216H155.781L163.161 25.1016L155.811 40.1616H160.881L168.241 25.0916L165.721 19.9616H170.791L175.571 10.1016C175.571 10.1016 172.551 10.1016 171.881 10.1016C171.211 10.1016 170.311 10.4816 169.871 11.3716Z" fill="white"/>
<path d="M123.121 71.8981L133.261 61.2681C134.811 59.6381 136.051 58.0181 136.051 56.2181C136.051 53.9581 134.111 52.4381 131.811 52.4381C129.801 52.4381 127.991 53.6781 127.151 56.1481L123.231 55.1181C124.361 51.2681 127.681 48.5781 131.921 48.5781C136.901 48.5781 140.151 51.9381 140.151 56.0681C140.151 59.2081 138.631 61.3281 135.701 64.2681L128.921 71.2281H140.331V74.9381H123.121V71.8981Z" fill="white"/>
<path d="M154.523 48.5781C161.413 48.5781 164.413 54.5481 164.413 61.9681C164.413 69.3881 161.413 75.3181 154.523 75.3181C147.633 75.3181 144.633 69.3481 144.633 61.9681C144.633 54.5881 147.633 48.5781 154.523 48.5781ZM154.523 71.4281C159.013 71.4281 160.283 67.0081 160.283 61.9581C160.283 56.9081 159.013 52.4581 154.523 52.4581C150.033 52.4581 148.763 56.9081 148.763 61.9581C148.763 67.0081 150.033 71.4281 154.523 71.4281Z" fill="white"/>
<path d="M174.479 59.7759H176.029C178.789 59.7759 180.799 58.0759 180.799 55.8559C180.799 53.6359 178.859 52.3259 176.599 52.3259C174.549 52.3259 172.999 53.2459 172.009 54.8359L168.689 52.8559C170.389 50.1759 173.179 48.5859 176.669 48.5859C181.619 48.5859 184.939 51.8759 184.939 55.7259C184.939 58.3059 183.669 60.1759 181.899 61.3059C183.879 62.4759 185.429 64.7359 185.429 67.4559C185.429 71.9459 181.619 75.3359 176.139 75.3359C172.219 75.3359 169.069 73.3959 167.449 70.4959L171.019 68.7959C171.939 70.5259 173.949 71.5559 176.069 71.5559C179.069 71.5559 181.259 69.8259 181.259 67.3159C181.259 64.8059 179.179 63.0759 175.819 63.0759H174.479V59.7859V59.7759Z" fill="white"/>
<path d="M200.12 48.5781C207.01 48.5781 210.01 54.5481 210.01 61.9681C210.01 69.3881 207.01 75.3181 200.12 75.3181C193.23 75.3181 190.23 69.3481 190.23 61.9681C190.23 54.5881 193.23 48.5781 200.12 48.5781ZM200.12 71.4281C204.61 71.4281 205.88 67.0081 205.88 61.9581C205.88 56.9081 204.61 52.4581 200.12 52.4581C195.63 52.4581 194.36 56.9081 194.36 61.9581C194.36 67.0081 195.63 71.4281 200.12 71.4281Z" fill="white"/>
</g>
<defs>
<linearGradient id="paint0_linear_86_2022" x1="53.8417" y1="42.86" x2="53.8417" y2="81.26" gradientUnits="userSpaceOnUse">
<stop stop-color="#ED1A3B"/>
<stop offset="0.24" stop-color="#E81A3F"/>
<stop offset="0.51" stop-color="#DA1C4A"/>
<stop offset="0.79" stop-color="#C3205E"/>
<stop offset="1" stop-color="#AE2471"/>
</linearGradient>
<linearGradient id="paint1_linear_86_2022" x1="104.003" y1="75.8209" x2="104.003" y2="47.9709" gradientUnits="userSpaceOnUse">
<stop stop-color="#ED1A3B"/>
<stop offset="0.24" stop-color="#E81A3F"/>
<stop offset="0.51" stop-color="#DA1C4A"/>
<stop offset="0.79" stop-color="#C3205E"/>
<stop offset="1" stop-color="#AE2471"/>
</linearGradient>
<clipPath id="clip0_86_2022">
<rect width="210.01" height="81.15" fill="white"/>
</clipPath>
</defs>
</svg>
