<svg width="170" height="170" viewBox="0 0 170 170" fill="none" xmlns="http://www.w3.org/2000/svg">
<g clip-path="url(#clip0_137_4819)">
<path d="M0.237265 0.00016189L0.000244141 169.754L169.754 169.991L169.991 0.237183L0.237265 0.00016189Z" fill="#477843"/>
<path d="M15.0539 21.1575C14.2328 21.5406 13.3843 21.8691 12.5085 22.1702C11.3863 22.5534 10.6746 22.7997 10.3735 22.9366V18.3109C11.5231 17.873 12.6179 17.3255 13.6854 16.7234C14.6981 16.2307 15.6287 15.5464 16.4225 14.7527H21.2671V47.1871H15.0539V21.1575Z" fill="white"/>
<path d="M26.4949 45.1892C25.0169 43.0543 24.3052 40.5088 24.4695 37.9359V36.8137H30.6279V37.8812C30.5732 39.1129 30.7648 40.3172 31.2301 41.4668C31.6406 42.2058 32.4344 42.6163 33.2829 42.5342C34.104 42.6437 34.8977 42.2058 35.2536 41.4394C35.6368 40.2898 35.801 39.0581 35.7462 37.8538C35.8284 36.5126 35.582 35.1988 34.9799 33.9945C34.3777 33.0913 33.3376 32.5986 32.2428 32.6807H31.1206V28.1645H32.1333C33.2281 28.274 34.2956 27.8635 35.0072 27.0423C35.6094 25.9201 35.9105 24.6337 35.801 23.3473C35.8557 22.3072 35.6641 21.2397 35.2262 20.2818C34.7883 19.5701 33.9945 19.1869 33.1734 19.269C32.3523 19.1869 31.5859 19.6249 31.2574 20.3639C30.8469 21.3766 30.6553 22.4714 30.6826 23.5663V24.9895H24.4695V23.2378C24.3052 20.8292 25.1264 18.4753 26.7139 16.6688C28.4382 15.0539 30.7648 14.2054 33.1186 14.3423C35.4999 14.2054 37.8264 14.9992 39.6055 16.5867C41.2204 18.3384 42.0415 20.665 41.8773 23.0462C41.932 24.6885 41.5215 26.3033 40.7004 27.7266C40.0982 28.9036 39.0034 29.7521 37.7443 30.1079C40.4814 31.1206 41.8773 33.6661 41.8773 37.7717C42.0415 40.3719 41.3025 42.9722 39.7971 45.1071C38.1549 47.023 35.7189 48.0357 33.2008 47.8442C30.6826 48.0357 28.1919 47.0504 26.4949 45.1892Z" fill="white"/>
<path d="M58.1629 27.2887C57.4239 27.3434 56.6575 27.1518 56.028 26.7686C55.5079 26.4128 55.1248 25.8928 54.9332 25.2906C54.7142 24.6063 54.6321 23.8673 54.6321 23.1557V18.749C54.6321 18.01 54.7142 17.2436 54.9332 16.5319C55.1248 15.9572 55.5079 15.4371 56.028 15.1087C56.6849 14.7255 57.4239 14.5612 58.1629 14.5886C58.8472 14.5886 59.5315 14.7255 60.161 15.0265C60.6263 15.3276 61.0095 15.7656 61.2011 16.2856C61.42 16.8878 61.5021 17.5447 61.5021 18.1742V19.2143H59.3399V18.0921C59.3399 17.7636 59.3399 17.4626 59.3399 17.1341C59.3399 16.8878 59.203 16.6414 59.0388 16.4498C58.5461 16.094 57.8618 16.094 57.3692 16.4498C57.1776 16.6414 57.0681 16.8878 57.0407 17.1615C57.0133 17.4899 57.0133 17.8457 57.0407 18.1742V23.6483C56.986 24.0042 56.986 24.3874 57.0407 24.7432C57.0681 25.0169 57.2049 25.2359 57.4239 25.4001C57.6429 25.5643 57.9166 25.6464 58.1903 25.619C58.4914 25.6464 58.7924 25.5643 59.0114 25.3727C59.1756 25.1537 59.2577 24.9074 59.2851 24.6611C59.3125 24.3326 59.3125 23.9768 59.2851 23.6483V22.5535H61.4474V23.5662C61.4474 24.2231 61.3653 24.88 61.1463 25.5096C60.9821 26.057 60.6263 26.5223 60.1336 26.8507C59.5315 27.1792 58.8472 27.3434 58.1629 27.2887Z" fill="white"/>
<path d="M62.6245 27.1243V14.7253H64.8963V25.6737H67.8797V27.2338L62.6245 27.1243Z" fill="white"/>
<path d="M68.646 27.1243V14.7253H70.8904V27.1243H68.646Z" fill="white"/>
<path d="M72.259 27.1243L72.478 14.7253H74.8045L76.5836 23.3198L78.4175 14.7253H80.6619L80.9082 27.1243H79.2112L79.047 18.5299L77.2679 27.1243H75.9267L74.1202 18.4751L73.956 27.1243H72.259Z" fill="white"/>
<path d="M81.6472 27.1243L84.138 14.7253H86.5466L89.0373 27.1243H86.9298L86.4371 24.3872H84.2748L83.7821 27.1243H81.6472ZM84.3843 22.8271H86.0539L85.2328 17.6266L84.3843 22.8271Z" fill="white"/>
<path d="M90.5427 27.1243V16.395H88.572V14.7253H94.7578V16.395H92.7324V27.1243H90.5427Z" fill="white"/>
<path d="M95.3599 27.1243V14.7253H100.56V16.3402H97.6043V19.8984H99.9308V21.4586H97.6043V25.5642H100.588V27.1243H95.3599Z" fill="white"/>
<path d="M54.1943 47.3787L56.6577 34.9797H59.0937L61.5571 47.3787H59.4769L58.9842 44.6416H56.8219L56.3293 47.3787H54.1943ZM56.9314 43.0815H58.6284L57.7799 37.881L56.9314 43.0815Z" fill="white"/>
<path d="M65.5531 47.543C64.814 47.5977 64.0477 47.4061 63.4181 46.9956C62.8981 46.6398 62.5149 46.1471 62.3233 45.5449C62.1043 44.8607 62.0222 44.1216 62.0222 43.41V39.0033C62.0222 38.2643 62.1043 37.4979 62.3233 36.7863C62.5149 36.2115 62.8981 35.6914 63.4181 35.363C64.0477 34.9798 64.814 34.7882 65.5531 34.8429C66.2373 34.8156 66.949 34.9524 67.5511 35.2809C68.0164 35.582 68.3996 36.0199 68.5912 36.5399C68.8102 37.1421 68.8923 37.7716 68.8923 38.4011V39.4412H66.73V37.4432C66.73 37.1968 66.5931 36.9505 66.4289 36.7589C66.21 36.5673 65.9089 36.4578 65.6078 36.4852C65.3067 36.4852 65.0056 36.5673 64.7593 36.7589C64.5677 36.9505 64.4582 37.1968 64.4309 37.4705C64.4035 37.8264 64.4035 38.1548 64.4309 38.5106V43.9848C64.3761 44.368 64.3761 44.7238 64.4309 45.107C64.4582 45.3807 64.5951 45.5997 64.814 45.7639C65.033 45.9281 65.3067 45.9829 65.5804 45.9829C65.8815 46.0102 66.1826 45.9281 66.4015 45.7091C66.5658 45.5176 66.6479 45.2438 66.6753 44.9975C66.7026 44.6691 66.7026 44.3406 66.6753 44.0122V42.7257H68.8375V43.7384C68.8375 44.3953 68.7281 45.0522 68.5365 45.6818C68.3722 46.2292 68.0164 46.6945 67.5237 46.9956C66.949 47.3788 66.2373 47.5704 65.5531 47.543Z" fill="white"/>
<path d="M71.3831 47.3787V36.6494H69.4124V34.9797H75.5982V36.6494H73.6548V47.3787H71.3831Z" fill="white"/>
<path d="M76.2004 47.3787V34.9797H78.4175V47.3787H76.2004Z" fill="white"/>
<path d="M83.2347 47.5431C82.4957 47.5705 81.7841 47.4062 81.1546 47.0504C80.6345 46.722 80.2513 46.2293 80.0324 45.6545C79.8134 44.9429 79.6765 44.2038 79.7039 43.4648V38.8392C79.7039 38.1002 79.786 37.3611 80.0324 36.6769C80.2513 36.1021 80.6345 35.6368 81.1546 35.3083C81.7841 34.9799 82.5231 34.8157 83.2347 34.843C83.9738 34.8157 84.7128 34.9799 85.3697 35.3083C85.8897 35.6368 86.2729 36.1021 86.4919 36.6769C86.7382 37.3611 86.8477 38.1002 86.8203 38.8392V43.4922C86.8203 44.2038 86.7382 44.9429 86.4919 45.6271C86.3003 46.2019 85.8897 46.722 85.3697 47.0504C84.7128 47.4062 83.9738 47.5705 83.2347 47.5431ZM83.2347 45.8735C83.5358 45.8735 83.8369 45.8187 84.0832 45.6271C84.2748 45.4355 84.3843 45.2166 84.4391 44.9702C84.4664 44.6418 84.4664 44.3407 84.4391 44.0122V38.3191C84.4664 38.018 84.4664 37.6896 84.4391 37.3885C84.3843 37.1422 84.2748 36.9232 84.0832 36.7316C83.8369 36.54 83.5358 36.4579 83.2347 36.4853C82.961 36.4853 82.66 36.54 82.441 36.7316C82.2494 36.8958 82.1125 37.1422 82.0578 37.3885C82.0304 37.6896 82.0304 38.018 82.0578 38.3191V44.0122C82.0304 44.3407 82.0304 44.6418 82.0578 44.9702C82.0852 45.2166 82.222 45.4629 82.4136 45.6271C82.66 45.7914 82.9337 45.9008 83.2347 45.8735Z" fill="white"/>
<path d="M88.0247 47.3787V34.9797H89.6122L92.6229 42.0414V34.9797H94.4842V47.3787H92.9788L89.968 39.9886V47.4061H88.0247V47.3787Z" fill="white"/>
<path d="M148.925 106.582C123.223 71.9303 74.2845 64.677 39.6331 90.3782C33.5294 94.9217 28.11 100.314 23.5664 106.417L23.0737 107.102L23.5664 107.813C49.2402 142.465 98.1518 149.745 132.803 124.072C138.934 119.528 144.381 114.109 148.925 108.005C149.308 107.841 149.499 107.403 149.363 107.02C149.28 106.828 149.144 106.664 148.925 106.582ZM65.17 90.8982C65.5258 90.4056 66.648 88.9823 66.7849 88.7907C67.1407 88.4622 67.606 88.2706 68.0713 88.2706C68.4545 88.2706 69.0019 88.4075 69.0567 88.7086C69.084 89.2834 68.9746 89.8855 68.7008 90.4056C67.9618 91.1446 67.0039 91.5825 65.9638 91.6372C65.3616 91.6372 65.1153 91.0898 65.2248 90.8982M63.8836 93.6353V93.4711C64.4857 93.0058 65.1974 92.7321 65.9638 92.7321C66.6207 92.5952 67.4965 92.951 67.5786 93.389C67.6608 93.8269 65.9364 94.5933 65.6079 94.8944C64.7047 95.7429 63.2814 97.4398 62.4603 97.6314C62.2413 97.7136 61.995 97.7136 61.776 97.6314C62.3234 96.2629 62.9804 94.9491 63.7467 93.7174M77.8427 122.785C77.6237 124.044 77.0489 125.194 76.2278 126.152C75.2425 127.055 73.956 127.548 72.6422 127.52C71.4379 127.52 71.2737 124.236 71.2737 122.594C71.2737 122.019 70.4799 123.716 70.0694 120.294C69.7957 118.105 68.3724 120.513 68.2903 119.035C68.2082 117.557 67.4692 117.886 66.7575 116.955C66.0459 116.025 65.0879 116.955 64.0204 117.503C62.953 118.05 63.4183 118.214 61.9403 117.749C60.5991 114.492 59.8874 111.016 59.8874 107.485C59.8874 106.582 59.8874 105.706 60.0243 104.748C60.079 104.666 60.1338 104.584 60.1885 104.502C61.5844 102.832 61.5571 102.449 61.5571 102.449L63.0898 101.929C64.5679 102.175 66.0185 102.531 67.4144 103.023C68.9472 103.598 71.3284 104.885 72.8886 104.31C73.9013 103.899 74.6677 103.352 74.5856 102.503C74.5035 101.655 73.655 101.19 72.6422 101.901C72.259 102.175 71.4653 100.314 70.8631 100.396C70.261 100.478 71.6295 102.586 71.0821 102.668C70.5347 102.75 69.4946 100.505 69.3304 100.122C69.1661 99.739 68.3177 98.8631 67.5786 99.5474C66.0459 101.025 63.5004 100.916 63.0077 101.299C61.4476 102.449 61.0644 100.916 61.0918 99.9853C61.1465 99.7664 61.2012 99.5748 61.2834 99.3558C62.1592 98.781 63.2541 98.6442 64.212 99.0274C64.8963 99.4927 65.389 99.0274 65.6627 98.6442C65.9364 98.261 65.8269 97.9325 65.6627 97.5767C65.4985 97.2209 65.9911 96.9198 66.347 96.8377C67.0312 96.4819 67.7155 96.0987 68.345 95.6607C69.6588 95.2502 71.0547 95.2502 72.3685 95.6607C73.2718 96.1808 74.4487 95.9618 75.1056 95.1407C75.6257 94.4838 76.2826 93.9638 77.0216 93.5532C77.4048 93.3616 76.0636 92.1299 74.9688 93.5532C73.8739 94.9765 73.3265 95.0038 72.8338 95.0038C72.3412 95.0038 69.2756 94.2648 68.8924 93.2795C68.5092 92.2941 69.8504 91.6099 70.9726 91.0625C72.6149 90.6793 74.2845 90.4603 75.9541 90.3782C77.5416 90.0224 79.5944 89.2286 80.6345 89.9129C81.6746 90.5971 76.3373 91.8288 78.0617 92.65C78.6912 93.0058 81.5104 91.0351 82.4683 90.5424C84.7401 89.3655 80.2787 88.9823 80.8535 86.601C81.4283 84.2198 75.3793 84.9588 72.3412 85.1777C76.5289 82.4954 81.3735 81.0721 86.3276 81.0447C98.5076 81.0447 109.1 89.4202 111.947 101.272C112.001 101.682 112.001 102.093 111.947 102.503C111.591 103.379 110.578 103.817 109.702 103.461C109.346 103.325 109.045 103.051 108.854 102.722C108.58 102.339 107.458 101.272 107.485 103.106C107.513 104.939 109.264 105.104 107.485 106.199C106.664 106.773 105.734 107.156 104.748 107.321C103.79 108.06 103.27 109.264 103.407 110.468C103.599 111.481 105.98 114.218 104.201 114.109C102.559 113.315 101.135 112.083 100.123 110.55C99.5751 109.1 98.9729 107.649 98.5624 106.554C98.3981 105.706 97.577 105.158 96.7285 105.323C96.4548 105.377 96.2359 105.487 96.0169 105.678C95.0863 106.308 96.2906 106.938 95.6063 108.416C94.9221 109.894 94.4568 110.988 93.4714 109.866C90.8986 106.91 87.1488 108.361 86.574 105.076C86.2455 103.297 84.7128 103.461 83.4537 102.339C82.1946 101.217 81.4556 100.806 81.2367 101.518C81.0177 102.23 85.2602 105.514 85.5613 106.363C85.9992 107.649 84.2748 108.771 83.0431 109.1C81.8115 109.428 81.2367 108.388 80.005 107.102C78.7733 105.815 78.2533 104.912 78.1711 105.925C78.2533 107.677 79.1565 109.291 80.5798 110.304C81.6472 110.961 82.8242 111.289 82.4957 112.384C82.1673 113.479 82.4957 112.85 81.2914 114.027C80.2513 114.738 79.7313 115.997 79.9502 117.229C79.9502 118.899 79.5944 118.981 79.3481 120.349C79.1017 121.718 78.4722 120.541 77.9522 122.539M106.254 112.056C107.129 112.056 108.471 113.233 107.951 113.698C107.129 114.109 106.171 114.027 105.432 113.479C104.776 112.959 105.843 112.111 106.254 112.056ZM105.131 111.262C104.858 111.262 104.611 110.879 104.392 110.222C104.228 109.948 104.338 109.592 104.611 109.428C104.803 109.319 105.049 109.346 105.241 109.483C105.788 109.757 106.5 110.55 106.5 110.988C106.5 111.426 105.432 111.372 105.131 111.262ZM93.4988 111.262C92.6777 111.645 91.7197 111.563 90.9807 111.016C90.3238 110.496 91.4186 109.647 91.8018 109.62C92.6777 109.62 94.0188 110.769 93.4988 111.262ZM82.7147 116.627C82.3315 117.229 81.3461 121.663 80.6893 121.143C80.0323 120.623 80.963 115.997 81.1546 115.669C82.1946 113.78 84.439 113.862 82.7147 116.654M86.2729 133.843C83.7548 133.843 81.264 133.487 78.8554 132.776C78.4722 132.474 78.3354 131.954 78.527 131.489C79.5397 129.573 81.5377 128.369 83.7 128.341C87.9699 127.931 93.5809 131.079 94.4841 130.613C95.3874 130.148 97.2212 127.876 99.9583 127.876C100.807 127.821 101.655 128.04 102.367 128.478C97.7686 132.009 92.1576 133.925 86.3824 133.952M104.967 126.316C104.693 126.234 104.42 126.124 104.146 125.988C102.695 125.276 102.887 126.426 102.175 126.179C101.464 125.933 102.969 124.263 100.834 125.659C98.6992 127.055 99.3014 125.44 98.3708 123.086C97.7686 120.787 98.9182 118.406 101.108 117.475C102.668 116.928 104.256 116.49 105.898 116.216C109.073 115.422 109.73 113.479 110.304 114.683L110.633 115.313C110.879 115.833 111.016 116.435 111.016 117.01C109.675 120.513 107.622 123.688 104.967 126.316ZM112.22 113.014C111.509 112.822 108.553 108.717 110.879 106.034C111.29 105.596 110.113 104.283 110.441 104.255C111.563 104.2 112.549 104.994 112.713 106.116V107.622C112.713 109.456 112.521 111.289 112.166 113.096" fill="white"/>
</g>
<defs>
<clipPath id="clip0_137_4819">
<rect width="170" height="170" fill="white"/>
</clipPath>
</defs>
</svg>
