<svg width="170" height="170" viewBox="0 0 170 170" fill="none" xmlns="http://www.w3.org/2000/svg">
<g clip-path="url(#clip0_137_4829)">
<path d="M170 0H0V170H170V0Z" fill="#CA9B38"/>
<path d="M13.6978 42.85L21.5486 30.7169L22.0152 30.0032C22.8387 28.768 23.6073 27.4778 24.2661 26.1602C24.7603 25.0896 24.9799 23.9367 24.9799 22.7838C25.0348 21.9328 24.8152 21.1093 24.3759 20.3956C23.9642 19.8741 23.3328 19.5721 22.674 19.5996C21.7407 19.4898 20.8349 19.9564 20.3682 20.7525C19.8741 21.8779 19.6819 23.0858 19.7368 24.2936V25.7484H13.6978V24.1563C13.5605 21.576 14.3017 19.0231 15.8389 16.9369C17.5134 15.0154 19.9839 13.9997 22.5368 14.1918C26.7367 13.6703 30.5797 16.6624 31.1013 20.8897C31.1836 21.4936 31.1836 22.125 31.1013 22.7289C31.1013 23.9093 30.9091 25.0622 30.5523 26.1876C30.1954 27.2033 29.7562 28.1915 29.2347 29.1248C28.7131 29.9758 27.917 31.1836 26.8739 32.7757L20.6153 42.1363H30.2778V47.0225H13.8076L13.6978 42.85Z" fill="white"/>
<path d="M44.3049 25.6935L47.6264 16.333H44.4696V14.7683H49.9597V15.9212L46.4461 25.6112H49.9323V27.1484H44.4422L44.3049 25.6935Z" fill="white"/>
<path d="M51.1399 14.7683H56.3555V16.3604H53.3085V19.929H55.6418V21.4936H53.3085V25.6112H56.3006V27.1484H51.1399V14.7683Z" fill="white"/>
<path d="M57.6182 14.7683H60.6103C61.6259 14.6859 62.669 14.9604 63.52 15.5094C64.2337 16.1683 64.5906 17.1016 64.4808 18.0623C64.4808 18.7211 64.3984 19.3799 64.1514 19.9839C63.9043 20.478 63.4925 20.8623 62.971 21.0544L64.7004 27.1484H62.422L60.9397 21.4662H59.8691V27.1484H57.6182V14.7683ZM60.5828 20.0662C61.0769 20.1211 61.571 19.9564 61.9553 19.627C62.2573 19.2152 62.422 18.6937 62.3671 18.1721C62.422 17.678 62.2847 17.1565 62.0102 16.7447C61.6808 16.4153 61.1867 16.2506 60.7201 16.3055H59.8691V20.0662H60.5828Z" fill="white"/>
<path d="M66.7592 26.2425C66.1553 25.3641 65.8534 24.2936 65.9357 23.223V18.5564C65.8534 17.5133 66.1553 16.4428 66.7592 15.5918C68.3513 14.2467 70.6572 14.2467 72.2493 15.5918C72.8532 16.4428 73.1551 17.5133 73.0728 18.5564V23.223C73.1277 24.2936 72.8532 25.3641 72.2493 26.2425C71.5356 26.9837 70.5199 27.368 69.5042 27.2582C68.4886 27.368 67.4729 26.9837 66.7592 26.2425ZM70.5199 25.1171C70.7121 24.6779 70.8219 24.2112 70.7944 23.7446V18.0074C70.7944 17.5408 70.7121 17.0741 70.5199 16.6624C70.3003 16.333 69.916 16.1408 69.5042 16.1957C69.0925 16.1408 68.7082 16.333 68.4886 16.6624C68.2964 17.0741 68.1866 17.5408 68.2141 18.0074V23.7171C68.2141 24.1838 68.2964 24.6504 68.4886 25.0896C68.9278 25.6386 69.7513 25.7484 70.3003 25.3092C70.3827 25.2543 70.465 25.172 70.5199 25.0896V25.1171Z" fill="white"/>
<path d="M44.7441 34.9993H46.9951V40.1874H49.5205V34.9993H51.7989V47.4068H49.5205V41.9168H46.9951V47.4068H44.7441V34.9993Z" fill="white"/>
<path d="M54.9006 47.0774C54.379 46.748 53.9947 46.2539 53.83 45.6775C53.6104 44.9363 53.5006 44.1677 53.5281 43.3991V34.9993H55.7241V43.6461C55.7241 44.1951 55.779 44.7716 55.9712 45.2931C56.3006 45.8696 57.0417 46.0618 57.6182 45.7324C57.8103 45.6226 57.9476 45.4853 58.0574 45.2931C58.2495 44.7716 58.3319 44.1951 58.3044 43.6461V34.9993H60.5005V43.3991C60.5005 44.1677 60.4181 44.9363 60.1985 45.6775C60.0064 46.2539 59.6221 46.748 59.1279 47.0774C57.7829 47.7362 56.2457 47.7362 54.9006 47.0774Z" fill="white"/>
<path d="M62.2026 34.9993H63.7672L66.7868 42.0815V34.9993H68.6534V47.4068H67.0338L64.0143 39.9952V47.4068H62.0928L62.2026 34.9993Z" fill="white"/>
<path d="M71.0414 46.4733C70.465 45.5126 70.2179 44.4146 70.2728 43.3165V39.1441C70.1905 38.0186 70.465 36.9206 71.0689 35.9599C71.7277 35.1363 72.7708 34.7246 73.8139 34.8618C74.8296 34.7246 75.8178 35.054 76.559 35.7677C77.1629 36.5638 77.4374 37.5245 77.355 38.5127V39.1441H75.2139V38.4578C75.2414 38.101 75.2414 37.7441 75.2139 37.3873C75.159 37.1402 75.0492 36.9206 74.857 36.7559C74.61 36.5912 74.3355 36.5089 74.0335 36.5363C73.7316 36.5363 73.4296 36.6187 73.21 36.8108C73.0179 37.003 72.9081 37.25 72.8532 37.5245C72.8257 37.9088 72.8257 38.2657 72.8532 38.65V43.8107C72.8257 44.3597 72.9081 44.8812 73.1277 45.3753C73.5669 45.9518 74.3904 46.089 74.9668 45.6498C75.0766 45.5675 75.159 45.4851 75.2414 45.3753C75.4884 44.8538 75.5982 44.3048 75.5433 43.7283V42.5754H74.2257V41.148H77.5746V47.4341H76.1198L75.9551 46.2263C75.6531 47.1047 74.8021 47.6537 73.8688 47.5988C72.7983 47.8184 71.6728 47.3792 71.0414 46.4733Z" fill="white"/>
<path d="M78.9473 34.9993H84.1354V36.5914H81.1982V40.1599H83.504V41.7521H81.1982V45.8422H84.1628V47.4068H78.9473V34.9993Z" fill="white"/>
<path d="M85.3979 34.9992H88.39C89.4332 34.9169 90.4488 35.1914 91.3272 35.7404C92.0409 36.3992 92.3703 37.3325 92.288 38.2933C92.3154 38.9521 92.2056 39.6109 91.9311 40.2148C91.6841 40.7089 91.2723 41.0932 90.7508 41.2854L92.4801 47.4068H90.2018L88.7194 41.7246H87.6489V47.4068H85.3979V34.9992ZM88.39 40.3246C88.8841 40.3795 89.3782 40.2148 89.7351 39.8854C90.0371 39.4737 90.2018 38.9521 90.1469 38.4305C90.2018 37.9364 90.0645 37.4149 89.79 37.0031C89.4606 36.6737 88.9665 36.509 88.4998 36.5639H87.6489V40.3246H88.39Z" fill="white"/>
<path d="M67.7201 144.718V147.244C67.7475 147.82 68.2416 148.314 68.8181 148.314H97.2292C97.8331 148.287 98.3272 147.793 98.3547 147.189V144.444C113.892 139.667 125.503 126.683 128.55 110.735V110.488C128.55 109.856 128.056 109.362 127.425 109.362H37.6619C37.0306 109.362 36.5365 109.829 36.509 110.46C36.509 110.46 36.509 110.46 36.509 110.488V111.009C39.7207 127.205 51.744 140.217 67.6377 144.718" fill="white"/>
<path d="M98.1899 71.0414C97.8056 71.563 89.1313 84.0529 98.382 94.1546C101.676 96.982 102.774 101.621 101.127 105.629H107.029C108.456 100.441 106.864 94.8683 102.939 91.19C96.1311 83.7509 102.939 73.6767 103.131 73.512C103.817 72.5238 103.598 71.1512 102.609 70.465C102.472 70.3826 102.335 70.3003 102.17 70.2179C100.853 69.5317 99.2055 69.8611 98.2722 71.0414" fill="white"/>
<path d="M83.1745 105.629H88.994C90.394 100.413 88.8018 94.8683 84.8764 91.19C78.0688 83.7509 84.8764 73.6767 85.0686 73.512C85.7549 72.5238 85.5353 71.1512 84.547 70.465C84.4098 70.3826 84.2725 70.3003 84.1078 70.2179C82.7902 69.5317 81.1432 69.8611 80.2099 71.0414C79.8256 71.563 71.1513 84.0529 80.402 94.1546C83.6961 96.982 84.7941 101.621 83.1471 105.629" fill="white"/>
<path d="M62.4496 71.0414C62.0653 71.563 53.391 84.0529 62.6418 94.1546C65.9358 96.982 67.0338 101.621 65.3868 105.629H71.3161C72.7435 100.413 71.1514 94.8683 67.1986 91.19C60.3909 83.7509 67.1985 73.6767 67.3907 73.512C68.077 72.5238 67.8574 71.1512 66.8691 70.465C66.7319 70.3826 66.5946 70.3003 66.4299 70.2179C65.1123 69.5317 63.4653 69.8611 62.532 71.0414" fill="white"/>
</g>
<defs>
<clipPath id="clip0_137_4829">
<rect width="170" height="170" fill="white"/>
</clipPath>
</defs>
</svg>
