<svg width="170" height="170" viewBox="0 0 170 170" fill="none" xmlns="http://www.w3.org/2000/svg">
<g clip-path="url(#clip0_137_4831)">
<path d="M170 0H0V170H170V0Z" fill="#0E81BC"/>
<path d="M14.5731 21.1746C13.7513 21.5581 12.9021 21.8868 12.0256 22.1881C10.9025 22.5442 10.1902 22.8181 9.88892 22.9277V18.3257C11.0394 17.8874 12.1351 17.3396 13.2035 16.7369C14.217 16.2439 15.1483 15.559 15.9427 14.7646H20.7913V47.1978H14.5731V21.1746Z" fill="white"/>
<path d="M33.2824 39.5004H23.5032V34.6245L32.0223 14.7646H38.8706V34.8162H42.1029V39.5004H38.8706V47.1978H33.392L33.2824 39.5004ZM33.2824 34.8162V21.1198L28.3517 34.8162H33.2824Z" fill="white"/>
<path d="M54.3474 27.1462V14.7646H56.6758V25.5848H59.689V27.1462H54.3474Z" fill="white"/>
<path d="M60.3191 27.1462V14.7646H62.5653V27.1462H60.3191Z" fill="white"/>
<path d="M64.0171 27.1462V14.7646H69.1122V16.326H66.3729V19.9145H68.7013V21.5033H66.3729V27.1462H64.0171Z" fill="white"/>
<path d="M69.8245 27.1462V14.7646H75.0291V16.3534H72.0981V19.9145H74.3991V21.4759H72.0981V25.5848H75.0565V27.1462H69.8245Z" fill="white"/>
<path d="M54.3474 47.3896V35.0081H57.388C57.8811 35.0081 58.3742 35.0355 58.8672 35.145C59.2781 35.2272 59.6616 35.419 60.0177 35.6655C60.3464 35.912 60.6204 36.2407 60.7573 36.6242C60.9491 37.1173 61.0587 37.6652 61.0313 38.1856C61.0313 38.6239 60.9491 39.0622 60.8121 39.4731C60.7026 39.8018 60.4834 40.1031 60.2095 40.3223C59.9082 40.514 59.5794 40.651 59.2233 40.7332C59.6616 40.7879 60.0725 40.9797 60.4286 41.2536C60.7573 41.5002 61.0039 41.8563 61.1408 42.2672C61.3052 42.7602 61.3874 43.2533 61.3874 43.7738C61.3874 44.2942 61.3326 44.8421 61.1682 45.3352C61.0587 45.7734 60.8121 46.1569 60.5108 46.4857C60.2095 46.787 59.826 47.0335 59.4151 47.1705C58.922 47.3348 58.4289 47.3896 57.9085 47.3896H54.3474ZM56.6758 39.9662H57.4428C57.7989 39.9662 58.155 39.9114 58.4837 39.7744C58.7303 39.6374 58.922 39.4183 59.0042 39.1718C59.0864 38.8431 59.1412 38.4869 59.1412 38.1308C59.1686 37.7747 59.0864 37.4186 58.922 37.1173C58.7851 36.8708 58.5385 36.679 58.2646 36.6242C57.8811 36.5147 57.4976 36.4873 57.1141 36.4873H56.6758V39.9662ZM56.6758 45.7187H57.5524C58.0728 45.7734 58.5659 45.6091 58.922 45.2256C59.1959 44.7599 59.3329 44.2394 59.3055 43.6916C59.3055 43.2807 59.2507 42.8424 59.1138 42.4589C59.0042 42.1576 58.8124 41.9111 58.5385 41.7741C58.2098 41.6097 57.8537 41.5002 57.4702 41.5276H56.6758V45.7187Z" fill="white"/>
<path d="M62.4009 47.3896V35.0081H67.6329V36.5968H64.7019V40.1579H67.0029V41.7193H64.7019V45.8282H67.6329V47.3896H62.4009Z" fill="white"/>
<path d="M68.4822 47.3896V35.0081H70.7558V45.8282H73.7416V47.3896H68.4822Z" fill="white"/>
<path d="M77.6861 47.5541C76.9465 47.5815 76.2069 47.4171 75.5769 47.061C75.0564 46.7323 74.6729 46.2392 74.4811 45.6639C74.2346 44.9791 74.0976 44.2395 74.125 43.4999V38.8431C74.125 38.1035 74.2346 37.3913 74.4811 36.7065C74.6729 36.1312 75.0564 35.6382 75.5769 35.3368C76.2343 34.9807 76.9465 34.8164 77.6861 34.8712C78.4257 34.8164 79.1379 34.9807 79.7954 35.3368C80.3158 35.6382 80.7267 36.1312 80.9185 36.7065C81.165 37.3913 81.2746 38.1035 81.2746 38.8431V43.4999C81.2746 44.2395 81.165 44.9791 80.9185 45.6639C80.6993 46.2392 80.3158 46.7323 79.7954 47.061C79.1653 47.4171 78.4257 47.6088 77.6861 47.5541ZM77.6861 45.8831C77.9874 45.9105 78.2887 45.8283 78.5079 45.6366C78.6996 45.4722 78.8366 45.2257 78.8914 44.9791C78.9188 44.6778 78.9188 44.3491 78.8914 44.0478V38.3227C78.9188 38.0213 78.9188 37.6926 78.8914 37.3913C78.7818 36.8435 78.2614 36.46 77.6861 36.5147C77.3848 36.5147 77.1109 36.5969 76.8643 36.7613C76.6726 36.9256 76.563 37.1448 76.5082 37.3913C76.4808 37.6926 76.4808 38.0213 76.5082 38.3227V44.0478C76.4808 44.3491 76.4808 44.6778 76.5082 44.9791C76.5356 45.2257 76.6726 45.4722 76.8643 45.6366C77.1109 45.8009 77.3848 45.9105 77.6861 45.8831Z" fill="white"/>
<path d="M83.7673 47.3896L82.0142 35.0081H83.9043L84.9452 43.0342L86.2327 35.0355H87.7667L89.0815 43.0342L90.095 35.0081H91.9578L90.232 47.3896H88.3967L87.027 39.1718L85.6574 47.3896H83.7673Z" fill="white"/>
<path d="M97.4362 47.3896L95.6831 35.0081H97.5732L98.5868 43.0342L99.8742 35.0355H101.436L102.75 43.0342L103.764 35.0081H105.627L103.901 47.3896H102.066L100.669 39.1718L99.3263 47.3896H97.4362Z" fill="white"/>
<path d="M105.572 47.3896L108.037 35.0081H110.448L112.941 47.3896H110.831L110.338 44.6503H108.202L107.681 47.3896H105.572ZM108.311 43.0889H110.01L109.16 37.8843L108.311 43.0889Z" fill="white"/>
<path d="M114.365 47.3896V36.6516H112.393V35.0081H118.584V36.6516H116.639V47.3896H114.365Z" fill="white"/>
<path d="M119.269 47.3896V35.0081H124.446V36.5968H121.515V40.1579H123.843V41.7193H121.515V45.8282H124.501V47.3896H119.269Z" fill="white"/>
<path d="M125.35 47.3896V35.0081H128.308C129.02 35.0081 129.76 35.0902 130.445 35.282C130.993 35.4737 131.458 35.8298 131.76 36.3229C132.088 36.9256 132.225 37.583 132.198 38.2678C132.253 38.7061 132.253 39.1718 132.198 39.6101C132.116 39.9936 131.979 40.3223 131.732 40.6236C131.513 40.9249 131.184 41.1714 130.828 41.281L132.554 47.3896H130.28L128.774 41.7193H127.76V47.3896H125.35ZM127.623 40.2949H128.308C128.664 40.2949 129.02 40.2401 129.349 40.1031C129.623 39.9936 129.815 39.7744 129.924 39.5005C130.034 39.1444 130.089 38.7883 130.089 38.4048C130.143 37.9117 130.006 37.4186 129.732 37.0077C129.404 36.6516 128.911 36.4873 128.445 36.5421H127.623V40.2949Z" fill="white"/>
<path d="M130.636 124.199C128.5 121.296 114.612 103.6 95.0257 103.6C78.1243 103.6 60.045 118.94 60.045 118.94C60.045 118.94 53.2516 105.024 39.3634 103.682H39.0073C38.706 103.682 38.4869 103.929 38.4595 104.23C38.5143 104.394 38.569 104.559 38.6786 104.723C47.1978 116.639 47.1978 132.609 38.6786 144.525V144.717C38.6786 144.717 38.6786 144.908 38.6786 145.018C38.6786 145.292 38.9252 145.538 39.1991 145.566H39.5004C53.4434 144.251 60.2642 130.308 60.2642 130.308C60.2642 130.308 78.3435 145.648 95.2448 145.648C114.694 145.648 128.582 127.952 130.856 125.048L131.02 124.857C131.102 124.72 131.102 124.555 131.02 124.418L130.856 124.227M106.202 126.966C103.052 126.966 100.504 124.446 100.477 121.296C100.477 118.145 102.997 115.598 106.147 115.571C109.297 115.571 111.845 118.091 111.872 121.241C111.872 124.364 109.325 126.911 106.202 126.939" fill="white"/>
<path d="M58.9769 87.7393V87.5749C58.9769 87.5749 59.196 87.5749 59.3056 87.5749C59.4425 87.5749 59.5795 87.6297 59.6891 87.7393C70.3175 97.8472 81.439 89.6568 83.7674 87.7393L83.9865 87.5201H84.4248L84.644 87.7393C86.9723 89.6568 98.0938 97.8472 108.695 87.7393C108.695 87.7393 108.941 87.5749 109.078 87.5749C109.188 87.5749 109.27 87.5749 109.38 87.5749C109.434 87.6297 109.489 87.6845 109.544 87.7393C111.599 89.7664 120.501 97.409 129.897 89.2459C130.006 89.1363 130.061 88.9994 130.061 88.835V84.9726C130.061 84.6439 129.815 84.3974 129.486 84.3974L129.212 84.5343C122.665 88.068 114.584 86.9723 109.215 81.795L108.969 81.5759C108.969 81.5759 108.832 81.5485 108.75 81.5759H108.722C108.722 81.5759 108.476 81.6855 108.421 81.795C106.01 83.6304 94.7245 91.1634 84.9727 81.932L84.8083 81.795C84.8083 81.795 84.5618 81.6307 84.4248 81.6307C84.2878 81.6307 84.1235 81.6855 84.0413 81.795L83.877 81.932C73.9607 91.1634 62.8392 83.6304 60.4013 81.795C60.3465 81.6855 60.2369 81.6033 60.1274 81.5759H59.963C59.963 81.5759 59.7986 81.5759 59.7165 81.5759L59.4699 81.795C54.1283 86.9723 46.0474 88.068 39.5005 84.5343L39.2266 84.3974C38.8979 84.3974 38.6514 84.6439 38.6514 84.9726V88.835C38.6514 88.9994 38.7062 89.1363 38.8157 89.2459C48.2115 97.4638 57.1141 89.7664 59.1686 87.7393" fill="white"/>
<path d="M39.1443 70.3175C38.843 70.3175 38.5965 70.5367 38.5691 70.838C38.5691 70.838 38.5691 70.838 38.5691 70.8654V74.7552C38.5691 74.8921 38.6239 75.0565 38.7335 75.1387C48.1292 83.3565 57.0319 75.6591 59.0863 73.632V73.4677C59.0863 73.4677 59.3055 73.4403 59.415 73.4677C59.552 73.4677 59.6616 73.5225 59.7712 73.6047C70.3996 83.74 81.5211 75.5222 83.8495 73.6047L84.0686 73.4129C84.0686 73.4129 84.2056 73.3855 84.2878 73.4129C84.3699 73.4129 84.4247 73.4129 84.5069 73.4129L84.726 73.6047C87.0544 75.5222 98.1759 83.74 108.777 73.6047C108.777 73.6047 109.023 73.4677 109.16 73.4677C109.27 73.4403 109.352 73.4403 109.462 73.4677L109.626 73.632C111.681 75.6591 120.583 83.3017 129.979 75.1387C130.034 75.0017 130.034 74.8921 129.979 74.7552V70.8654C129.979 70.5914 129.787 70.3449 129.486 70.3175C129.486 70.3175 129.459 70.3175 129.431 70.3175L129.157 70.4819C122.61 74.0155 114.529 72.8924 109.16 67.7426L108.914 67.5234H108.695C108.695 67.5234 108.476 67.6604 108.393 67.7426C105.983 69.6053 94.697 77.1383 84.9452 67.8795L84.7808 67.7426C84.7808 67.7426 84.5343 67.5782 84.3973 67.5782C84.2604 67.5782 84.1234 67.633 84.0138 67.7426L83.8495 67.8795C73.9333 77.1383 62.8118 69.6053 60.3738 67.7426C60.319 67.633 60.2094 67.5782 60.0999 67.5234H59.689L59.4698 67.7426C54.1008 72.8924 46.0199 74.0155 39.4731 70.4819L39.1991 70.3175" fill="white"/>
</g>
<defs>
<clipPath id="clip0_137_4831">
<rect width="170" height="170" fill="white"/>
</clipPath>
</defs>
</svg>
