<svg width="170" height="170" viewBox="0 0 170 170" fill="none" xmlns="http://www.w3.org/2000/svg">
<g clip-path="url(#clip0_137_4820)">
<path d="M170 0H0V170H170V0Z" fill="#32A154"/>
<path d="M15.512 45.2181C14.002 43.1041 13.2882 40.5508 13.4529 37.97V36.8444H19.6302V37.9151C19.5753 39.1231 19.7675 40.3586 20.2343 41.4843C20.6186 42.2255 21.4423 42.6648 22.2659 42.5824C23.0895 42.6648 23.8857 42.2255 24.2427 41.4568C24.627 40.3037 24.8192 39.0957 24.7368 37.8877C24.8192 36.5424 24.5721 35.2246 23.9956 34.0166C23.3641 33.138 22.3208 32.6438 21.2501 32.7262H20.1244V28.1687H21.1128C22.1561 28.2511 23.1719 27.8392 23.8583 27.043C24.4897 25.9723 24.7917 24.7368 24.7368 23.5014C24.8192 22.4306 24.5996 21.3874 24.1603 20.4264C23.721 19.7126 22.9248 19.3282 22.1012 19.4106C21.305 19.3282 20.5363 19.7675 20.1793 20.5088C19.7675 21.5246 19.6028 22.5954 19.6302 23.6936V25.1487H13.4529V23.2268C13.3156 20.8108 14.1393 18.4497 15.7317 16.6651C17.4339 15.0453 19.7401 14.1942 22.1012 14.3589C24.4623 14.1942 26.7959 14.9904 28.5805 16.5828C30.2003 18.3399 31.024 20.6735 30.8593 23.0346C30.9142 24.6819 30.5298 26.3018 29.7062 27.7294C29.1021 28.91 28.004 29.7611 26.741 30.118C29.4316 31.1887 30.7769 33.742 30.7769 37.7779C30.9416 40.3861 30.2003 42.9668 28.6903 45.1083C27.0705 47.0301 24.5996 48.0734 22.1012 47.8538C19.6028 48.0459 17.1868 47.085 15.512 45.2181Z" fill="white"/>
<path d="M45.3004 26.2468C44.7239 25.2859 44.4768 24.1877 44.5317 23.0895V18.9164C44.4493 17.7907 44.7513 16.6651 45.3279 15.7041C46.0142 14.908 47.0301 14.5236 48.0734 14.6334C49.0343 14.551 49.9952 14.8805 50.6816 15.5394C51.2856 16.3356 51.5601 17.2965 51.4777 18.2849V18.9164H49.3363V18.2025C49.3637 17.8456 49.3637 17.4887 49.3363 17.1318C49.2814 16.8847 49.1715 16.6925 48.9794 16.5278C48.7323 16.3631 48.4577 16.2807 48.1832 16.3082C47.5792 16.2532 47.0301 16.6925 46.9752 17.2965C46.9477 17.6809 46.9477 18.0378 46.9752 18.4222V23.5013C46.9477 24.0504 47.0301 24.5995 47.2497 25.0937C47.4693 25.4506 47.8812 25.6702 48.3204 25.6153C48.7597 25.6428 49.1715 25.4231 49.3912 25.0662C49.6108 24.5446 49.7206 23.9955 49.6932 23.4189V22.2384H48.3479V20.7558H51.7248V27.043H49.9952L49.8579 25.835C49.5285 26.7135 48.6774 27.2901 47.7439 27.2352C46.8104 27.3175 45.9044 26.9332 45.3004 26.2468Z" fill="white"/>
<path d="M53.8389 26.2469C53.2349 25.3683 52.9329 24.2976 53.0153 23.2268V18.5595C52.9329 17.5162 53.2349 16.473 53.8389 15.5944C55.4313 14.2491 57.7375 14.2491 59.3299 15.5944C59.9339 16.473 60.2359 17.5162 60.1535 18.5595V23.2268C60.2084 24.2976 59.9339 25.3683 59.3299 26.2469C58.6161 26.9881 57.6002 27.3725 56.5844 27.2901C55.5686 27.4 54.5528 27.0156 53.8389 26.2469ZM57.6002 25.1487C57.7924 24.7094 57.8748 24.2152 57.8473 23.7485V18.0104C57.8473 17.5437 57.7924 17.077 57.6002 16.6377C57.1061 16.0886 56.255 16.0062 55.7059 16.5004C55.651 16.5553 55.6235 16.5828 55.5686 16.6377C55.349 17.077 55.2666 17.5437 55.294 18.0104V23.6936C55.2666 24.1878 55.349 24.6545 55.5686 25.0938C55.7882 25.4232 56.1726 25.6154 56.5844 25.5605C56.9688 25.6429 57.3531 25.5056 57.6002 25.2036V25.1487Z" fill="white"/>
<path d="M62.3773 26.2469C61.7733 25.3683 61.4713 24.2976 61.5536 23.2268V18.5595C61.4713 17.5162 61.7733 16.473 62.3773 15.5944C63.9696 14.2491 66.2758 14.2491 67.8682 15.5944C68.4722 16.473 68.7742 17.5162 68.6919 18.5595V23.2268C68.7468 24.2976 68.4722 25.3683 67.8682 26.2469C67.1544 26.9881 66.1386 27.3725 65.1227 27.2901C64.1069 27.4 63.0911 27.0156 62.3773 26.2469ZM66.1386 25.1487C66.3308 24.7094 66.4131 24.2152 66.3857 23.7485V18.0104C66.3857 17.5437 66.3308 17.077 66.1386 16.6377C65.6444 16.0886 64.7933 16.0062 64.2442 16.5004C64.1893 16.5553 64.1618 16.5828 64.1069 16.6377C63.8873 17.077 63.8049 17.5437 63.8324 18.0104V23.6936C63.8049 24.1878 63.8873 24.6545 64.1069 25.0938C64.3266 25.4232 64.7109 25.6154 65.1227 25.5605C65.5071 25.6429 65.8915 25.5056 66.1386 25.2036V25.1487Z" fill="white"/>
<path d="M70.2842 14.7708H73.1944C73.9906 14.7433 74.8142 14.8806 75.5555 15.1826C76.1046 15.4297 76.5439 15.869 76.791 16.4181C77.0381 17.1319 77.1753 17.8732 77.1479 18.6144V23.1445C77.1479 23.9132 77.0381 24.6819 76.791 25.4232C76.5439 25.9723 76.132 26.439 75.583 26.741C74.8691 27.0431 74.0729 27.1803 73.3042 27.1529H70.2842V14.7708ZM73.2218 25.5879C73.6062 25.6154 73.9906 25.533 74.32 25.3409C74.5397 25.1487 74.7044 24.8741 74.7593 24.5996C74.7868 24.1328 74.7868 23.6936 74.7593 23.2268V18.4772C74.8142 18.0653 74.8142 17.6261 74.7593 17.2142C74.7044 16.9671 74.5397 16.7201 74.32 16.5828C73.9631 16.4181 73.6062 16.3631 73.2218 16.3906H72.5629V25.5879H73.2218Z" fill="white"/>
<path d="M82.3918 14.7708H84.6431V19.9323H87.169V14.7708H89.4477V27.1529H87.169V21.6619H84.6431V27.1529H82.3918V14.7708Z" fill="white"/>
<path d="M91.1772 14.7708H96.3937V16.3631H93.4285V19.9323H95.7622V21.4972H93.4285V25.6154H96.4211V27.1529H91.1772V14.7708Z" fill="white"/>
<path d="M99.5786 14.7708H101.995L104.493 27.1529H102.379L101.885 24.4074H99.7433L99.2217 27.1529H97.1077L99.5786 14.7708ZM101.638 23.0072L100.814 17.7908L99.963 23.0072H101.638Z" fill="white"/>
<path d="M105.646 14.7708H107.897V25.7527H110.917V27.2901H105.646V14.7708Z" fill="white"/>
<path d="M112.922 16.4455H110.835V14.7708H117.204V16.4455H115.173V27.1529H112.922V16.4455Z" fill="white"/>
<path d="M118.138 14.7708H120.389V19.9323H122.915V14.7708H125.194V27.1529H122.915V21.6619H120.389V27.1529H118.138V14.7708Z" fill="white"/>
<path d="M46.5907 35.0049H49.0067L51.4776 47.4144H49.3911L48.8969 44.669H46.7279L46.2338 47.4144H44.0923L46.5907 35.0049ZM48.6498 43.2413L47.7987 38.0524L46.9476 43.2413H48.6498Z" fill="white"/>
<path d="M52.7407 35.0049H54.3331L57.3257 42.0882V35.0049H59.1926V47.4144H57.71L54.5527 39.9742V47.387H52.7407V35.0049Z" fill="white"/>
<path d="M60.9771 35.0049H63.7225C64.5187 34.9774 65.3424 35.1147 66.0836 35.4167C66.6327 35.6638 67.0446 36.1031 67.2917 36.6522C67.5662 37.366 67.676 38.1073 67.6486 38.876V43.3786C67.676 44.1473 67.5662 44.9161 67.2917 45.6573C67.072 46.2339 66.6327 46.7006 66.0836 46.9752C65.3698 47.3046 64.6011 47.4694 63.8049 47.4145H60.9771V35.0049ZM63.9422 45.9868C64.3265 45.9868 64.6835 45.9044 65.0129 45.7123C65.26 45.5475 65.4247 45.3004 65.4522 44.9984C65.4796 44.5317 65.4796 44.065 65.4522 43.5982V38.7113C65.5071 38.2995 65.5071 37.8876 65.4522 37.4758C65.3973 37.2013 65.2325 36.9816 65.0129 36.8169C64.6835 36.6522 64.2991 36.5973 63.9422 36.6247H63.2558V45.8495L63.9422 45.9868Z" fill="white"/>
<path d="M72.5356 35.0049H74.43L75.4459 43.0491L76.7362 35.0598H78.2737L79.5915 43.0491L80.6074 35.0049H82.4743L80.7446 47.4144H78.9052L77.5324 39.178L76.1597 47.4144H74.2927L72.5356 35.0049Z" fill="white"/>
<path d="M83.8193 35.0049H89.0357V36.5973H86.0706V40.1664H88.4317V41.7588H86.0981V45.877H89.0907V47.4144H83.8468V35.0049H83.8193Z" fill="white"/>
<path d="M90.2988 35.0049H92.5501V45.9868H95.5702V47.5243H90.2988V35.0049Z" fill="white"/>
<path d="M96.6682 35.0049H98.9195V45.9868H101.94V47.5243H96.6682V35.0049Z" fill="white"/>
<path d="M102.955 41.6763H106.662V43.1039H102.955V41.6763Z" fill="white"/>
<path d="M108.391 35.0049H111.439C112.4 34.9225 113.361 35.1971 114.184 35.7187C114.871 36.3227 115.228 37.2287 115.118 38.1348C115.118 39.6722 114.541 40.5508 113.333 40.8802C114.761 41.1548 115.475 42.1706 115.475 43.9277C115.557 44.9161 115.255 45.9045 114.624 46.6732C113.882 47.387 112.894 47.7165 111.878 47.6066H108.309L108.391 35.0049ZM111.411 40.084C111.906 40.139 112.4 39.9742 112.757 39.6448C113.031 39.2329 113.169 38.7113 113.114 38.2171C113.169 37.7504 113.004 37.2562 112.647 36.9267C112.18 36.6522 111.631 36.5424 111.082 36.5973H110.643V39.9742L111.411 40.084ZM111.411 45.8221C111.933 45.877 112.427 45.7123 112.812 45.3554C113.086 44.8886 113.223 44.3395 113.196 43.7904C113.223 43.2139 113.086 42.6373 112.757 42.1432C112.4 41.7862 111.878 41.5941 111.357 41.649H110.56V45.8221H111.411Z" fill="white"/>
<path d="M116.82 35.0049H122.037V36.5973H119.071V40.1664H121.378V41.7588H119.044V45.877H122.037V47.4144H116.793V35.0049H116.82Z" fill="white"/>
<path d="M123.354 35.0049H125.606V47.4144H123.354V35.0049Z" fill="white"/>
<path d="M127.445 35.0049H129.01L132.03 42.0882V35.0049H133.897V47.4144H132.36L129.34 40.0017V47.4144H127.418V35.0049H127.445Z" fill="white"/>
<path d="M136.285 46.4811C135.709 45.5201 135.434 44.4219 135.489 43.3238V39.1506C135.434 38.025 135.709 36.9268 136.285 35.9659C137.796 34.5108 140.184 34.4284 141.776 35.8011C142.38 36.5973 142.655 37.5582 142.573 38.5466V39.1781H140.404V38.4917C140.431 38.1348 140.431 37.7779 140.404 37.421C140.376 37.1739 140.239 36.9542 140.047 36.7895C139.8 36.6522 139.525 36.5699 139.251 36.5973C138.949 36.5699 138.647 36.6522 138.427 36.8719C138.235 37.0641 138.098 37.2837 138.043 37.5583C138.015 37.9426 138.015 38.2995 138.043 38.6839V43.8179C138.015 44.367 138.125 44.8887 138.345 45.3829C138.564 45.7398 138.976 45.9594 139.388 45.9045C139.827 45.9594 140.239 45.7398 140.459 45.3554C140.678 44.8338 140.788 44.2847 140.761 43.7081V42.555H139.443V41.1274H142.792V47.4145H141.337L141.172 46.2065C140.87 47.0851 140.019 47.6342 139.086 47.5792C138.015 47.7989 136.917 47.3596 136.285 46.4811Z" fill="white"/>
<path d="M142.353 106.36C142.737 101.94 139.498 98.041 135.077 97.6566C134.913 97.6566 134.748 97.6566 134.611 97.6292C131.975 98.2057 129.614 99.6608 127.912 101.747C126.402 100.182 123.766 97.6292 121.432 97.6292C116.875 97.7664 113.306 101.583 113.471 106.113C113.471 106.195 113.471 106.25 113.471 106.332C113.471 108.639 114.377 110.835 115.969 112.482L127.939 124.48L139.882 112.482C141.474 110.835 142.353 108.639 142.353 106.36Z" fill="white"/>
<path d="M91.3969 144.083H91.1772C90.2712 144.028 89.5299 143.341 89.3652 142.463L83.2703 107.046L74.0729 124.123C73.5513 125.084 72.3433 125.413 71.3823 124.892C70.8607 124.59 70.4763 124.068 70.394 123.464L66.4954 96.0093L59.3297 112.098C59.0002 112.784 58.3139 113.251 57.5451 113.251H29.8158C28.7451 113.388 27.7567 112.592 27.6194 111.521C27.4821 110.451 28.2783 109.462 29.3491 109.325C29.5138 109.325 29.6511 109.325 29.8158 109.325H56.3371L65.7541 88.1847C66.111 87.3885 66.9621 86.9218 67.8132 87.0316C68.6918 87.1414 69.3781 87.8278 69.488 88.7064L73.5238 116.875L82.6113 100.045C82.9957 99.3039 83.8468 98.8921 84.6705 99.0294C85.4941 99.1666 86.153 99.8256 86.2903 100.649L91.9185 133.595L112.427 65.3973C112.674 64.6285 113.361 64.0794 114.157 64.0245C114.981 63.9421 115.749 64.3814 116.079 65.1227L126.868 87.4709C127.39 88.4318 127.033 89.6398 126.072 90.1615C126.017 90.1615 125.99 90.2164 125.935 90.2164C124.974 90.6831 123.794 90.2713 123.327 89.3104L114.706 71.4922L93.2363 142.875C92.9343 143.616 92.1931 144.11 91.3969 144.11V144.083Z" fill="white"/>
</g>
<defs>
<clipPath id="clip0_137_4820">
<rect width="170" height="170" fill="white"/>
</clipPath>
</defs>
</svg>
