<svg width="170" height="170" viewBox="0 0 170 170" fill="none" xmlns="http://www.w3.org/2000/svg">
<g clip-path="url(#clip0_137_4817)">
<path d="M170 0H0V170H170V0Z" fill="#EE323C"/>
<path d="M14.8203 21.1959C13.9789 21.5749 13.1374 21.8997 12.2689 22.1975C11.1288 22.5765 10.4231 22.8201 10.1245 22.9555V18.3536C11.2645 17.9204 12.3774 17.379 13.436 16.7564C14.4132 16.2421 15.3361 15.5653 16.1504 14.8074H21.0091V47.2915H14.7661L14.8203 21.1959Z" fill="white"/>
<path d="M34.6895 14.7803H36.2095L39.2224 21.8456V14.7803H41.0953V27.0701H39.6024L36.6166 19.7612V27.0701H34.6895V14.7803Z" fill="white"/>
<path d="M43.3754 26.3121C42.7511 25.4188 42.4525 24.3631 42.5339 23.2803V18.6242C42.4525 17.5685 42.7511 16.5128 43.3754 15.6465C44.0811 14.9156 45.0854 14.5367 46.0897 14.6449C47.094 14.5637 48.0983 14.9156 48.8041 15.6465C49.4012 16.5128 49.6998 17.5685 49.6184 18.6242V23.2803C49.6998 24.336 49.4012 25.4188 48.7769 26.2851C48.0983 27.043 47.094 27.422 46.0626 27.3408C45.0583 27.422 44.0811 27.043 43.3754 26.3121ZM47.0669 25.2023C47.2569 24.7692 47.3383 24.2819 47.3112 23.8217V18.1099C47.3112 17.6497 47.2569 17.1895 47.0669 16.7564C46.904 16.4316 46.5511 16.2962 46.0354 16.2962C45.6283 16.2421 45.2483 16.4045 45.0311 16.7564C44.814 17.1895 44.7325 17.6497 44.7597 18.1099V23.8217C44.7325 24.309 44.814 24.7692 45.0311 25.2023C45.2483 25.5271 45.6283 25.7166 46.0354 25.6625C46.4426 25.7166 46.8226 25.5271 47.0669 25.2023Z" fill="white"/>
<path d="M34.6895 35.0286H38.3267C40.4439 35.0286 41.5025 36.1926 41.5025 38.5477C41.7468 40.1719 40.6339 41.6607 39.0053 41.9044C38.7338 41.9314 38.4624 41.9585 38.191 41.9044H36.9424V47.3184H34.6895V35.0286ZM37.811 40.4426C38.2724 40.4967 38.7067 40.3614 39.0596 40.0636C39.331 39.6305 39.4396 39.1432 39.3853 38.656C39.4124 38.277 39.4124 37.9251 39.3853 37.5461C39.3581 37.2483 39.1681 36.9776 38.9238 36.8152C38.5981 36.6528 38.2453 36.5716 37.8924 36.5986H37.0238V40.3072L37.811 40.4426Z" fill="white"/>
<path d="M43.3212 46.5604C42.724 45.6671 42.4254 44.6114 42.4797 43.5286V38.8725C42.3983 37.8168 42.6969 36.7611 43.3212 35.8948C44.0269 35.1639 45.0312 34.785 46.0355 34.8932C47.0398 34.785 48.0441 35.1639 48.7499 35.8948C49.347 36.7611 49.6456 37.8168 49.5642 38.8725V43.5286C49.6456 44.5843 49.347 45.6401 48.7499 46.5334C47.2027 47.8869 44.8683 47.8869 43.3212 46.5334V46.5604ZM47.067 45.4506C47.257 45.0174 47.3655 44.5573 47.3384 44.07V38.3582C47.3655 37.898 47.2841 37.4378 47.067 37.0047C46.9041 36.6799 46.5784 36.5445 46.0627 36.5445C45.5469 36.5445 45.1941 36.5445 45.0312 37.0047C44.8141 37.4378 44.7326 37.898 44.7598 38.3582V44.07C44.7326 44.5573 44.8141 45.0174 45.0312 45.4506C45.2483 45.7754 45.6555 45.9649 46.0627 45.9107C46.4698 45.9649 46.8498 45.7754 47.067 45.4506Z" fill="white"/>
<path d="M50.677 35.0286H52.6585L54.3142 43.7993L55.8614 35.0286H57.9243L55.4271 47.3996H53.2014L50.677 35.0286Z" fill="white"/>
<path d="M59.0916 35.0286H64.3031V36.5986H61.3445V40.1719H63.6788V41.7419H61.3445V45.8566H64.3303V47.3996H59.0916V35.0286Z" fill="white"/>
<path d="M65.5789 35.0287H68.5646C69.5961 34.9474 70.6276 35.1911 71.4961 35.7595C72.2019 36.4092 72.5819 37.3567 72.4733 38.3041C72.5005 38.9538 72.3919 39.6306 72.1204 40.2261C71.8762 40.7404 71.4419 41.1194 70.9261 41.3089L72.6633 47.3997H70.4104L68.9175 41.742H67.8318V47.3997H65.5789V35.0287ZM68.5646 40.4427C69.0532 40.4968 69.569 40.3344 69.9218 39.9825C70.2204 39.5764 70.3833 39.0621 70.329 38.5478C70.3833 38.0334 70.2475 37.5462 69.9761 37.1131C69.6232 36.7882 69.1618 36.6258 68.6732 36.6799H67.8318V40.3344L68.5646 40.4427Z" fill="white"/>
<path d="M75.3234 36.6798H73.2605V35.0286H79.6392V36.6798H77.6035V47.5079H75.3506V36.6798H75.3234Z" fill="white"/>
<path d="M82.3535 42.6894L79.6392 35.0286H81.7564L83.3035 39.9282L84.7421 35.0286H86.8051L84.335 42.6894V47.3996H82.3535V42.6894Z" fill="white"/>
<path d="M131.212 81.2102C131.212 78.5844 133.329 76.4729 135.962 76.4729C138.595 76.4729 140.712 78.5844 140.712 81.2102C140.712 83.836 138.595 85.9474 135.962 85.9474C133.329 85.9474 131.212 83.836 131.212 81.2102Z" fill="white"/>
<path d="M141.554 87.6528C144.811 87.9506 147.281 90.6847 147.281 93.9331V107.035C147.417 108.037 146.684 108.957 145.679 109.092C144.675 109.228 143.752 108.497 143.616 107.495C143.616 107.36 143.616 107.197 143.616 107.062V95.8009C143.698 95.3407 143.372 94.9076 142.938 94.8264C142.884 94.8264 142.802 94.8264 142.721 94.8264C142.178 94.8264 142.069 95.3678 142.042 95.7468V129.476C141.689 130.938 140.196 131.804 138.758 131.452C137.781 131.209 137.021 130.451 136.776 129.476V110.04C136.803 109.634 136.505 109.282 136.098 109.255C136.071 109.255 136.043 109.255 136.016 109.255C135.609 109.255 135.283 109.553 135.256 109.959C135.256 109.986 135.256 110.013 135.256 110.04V129.476C135.256 130.965 134.035 132.183 132.542 132.183C131.049 132.183 129.828 130.965 129.828 129.476V95.7468C129.828 95.3678 129.828 94.8264 129.176 94.8264C128.525 94.8264 128.28 95.3949 128.28 95.8009V107.062C128.28 108.091 127.466 108.903 126.435 108.903C125.403 108.903 124.589 108.091 124.589 107.062V93.9602C124.589 90.6847 127.086 87.9777 130.343 87.6799H141.418" fill="white"/>
<path d="M103.064 83.5923C103.064 81.1289 101.055 79.1257 98.5854 79.1257C96.1153 79.1257 94.1067 81.1289 94.1067 83.5923C94.1067 86.0557 96.1153 88.0589 98.5854 88.0589C98.5854 88.0589 98.6125 88.0589 98.6397 88.0589C101.11 88.0589 103.118 86.0557 103.118 83.5923" fill="white"/>
<path d="M89.5465 93.7166L85.8007 105.844C85.8007 105.844 85.1492 108.064 87.0493 108.551C88.9493 109.038 89.4922 106.954 89.4922 106.954L92.5051 96.8297C92.5051 96.8297 92.668 96.0717 93.238 96.2342C93.808 96.3966 93.618 97.2357 93.618 97.2357L88.3793 116.185H93.2109V129.72C93.3466 131.019 94.5137 131.94 95.8166 131.804C96.9295 131.696 97.7981 130.803 97.9067 129.72V116.185H99.2367V129.72C99.1824 131.046 100.214 132.183 101.544 132.237C102.874 132.291 104.014 131.263 104.068 129.936V116.401H108.927L103.715 97.4523C103.715 97.4523 103.471 96.6131 104.068 96.4507C104.665 96.2883 104.828 97.0463 104.828 97.0463L107.814 107.17C107.814 107.17 108.411 109.336 110.284 108.768C112.157 108.199 111.506 106.061 111.506 106.061L107.76 93.9332C107.76 93.9332 106.43 90.4412 103.471 90.4412H93.9709C91.0122 90.4412 89.6822 93.9332 89.6822 93.9332" fill="white"/>
<path d="M76.1918 83.5925C76.1918 81.102 74.2103 79.0988 71.7131 79.0718C69.2159 79.0718 67.2073 81.0479 67.1802 83.5383C67.1802 86.0288 69.1617 88.032 71.6589 88.059C71.6589 88.059 71.686 88.059 71.7131 88.059C74.1832 88.059 76.1918 86.0559 76.1918 83.5925Z" fill="white"/>
<path d="M62.6473 93.7166L58.9286 105.844C58.9286 105.844 58.25 108.064 60.1501 108.551C62.0501 109.038 62.593 106.954 62.593 106.954L65.6059 96.8297C65.6059 96.8297 65.7688 96.0717 66.3659 96.2342C66.9631 96.3966 66.7188 97.2357 66.7188 97.2357L61.4801 116.185H66.3659V129.72C66.3659 130.992 67.4245 132.048 68.7003 132.048C69.976 132.048 71.0346 130.992 71.0346 129.72V116.185H72.3647V129.72C72.5818 130.992 73.7761 131.858 75.0519 131.642C75.9476 131.479 76.7076 130.83 76.9248 129.936V116.401H81.8106L76.5719 97.4523C76.5719 97.4523 76.3548 96.6131 76.9248 96.4507C77.4948 96.2883 77.6848 97.0463 77.6848 97.0463L80.6977 107.17C80.6977 107.17 81.2677 109.336 83.1406 108.768C85.0135 108.199 84.3621 106.061 84.3621 106.061L80.6434 93.9332C80.6434 93.9332 79.3134 90.4412 76.3548 90.4412H66.9359C64.0044 90.4412 62.6473 93.9332 62.6473 93.9332" fill="white"/>
<path d="M118.156 108.632C120.219 108.632 121.902 106.954 121.902 104.897C121.902 102.839 120.219 101.161 118.156 101.161C116.093 101.161 114.41 102.839 114.41 104.897C114.41 106.954 116.066 108.605 118.129 108.605C118.129 108.605 118.129 108.605 118.156 108.605" fill="white"/>
<path d="M109.198 120.218C108.873 120.841 109.09 121.626 109.741 121.978C110.339 122.248 111.044 122.032 111.343 121.463L113.379 114.994C113.379 114.994 113.731 114.561 113.731 114.994V130.207C113.731 131.263 114.573 132.102 115.631 132.102C115.631 132.102 115.631 132.102 115.659 132.102C116.717 132.102 117.559 131.263 117.559 130.207V124.225C117.559 124.225 117.559 123.385 118.156 123.385C118.753 123.385 118.726 124.225 118.726 124.225V130.234C118.726 131.29 119.567 132.129 120.626 132.129C120.626 132.129 120.626 132.129 120.653 132.129C121.712 132.129 122.553 131.29 122.553 130.234V115.021C122.553 114.561 122.797 115.021 122.797 115.021L124.399 119.46C124.616 120.164 124.915 120.868 125.295 121.518C126.027 121.815 126.842 121.49 127.14 120.76C127.385 120.326 127.385 119.812 127.14 119.379C127.14 119.379 124.779 113.532 124.426 112.72C123.585 110.256 122.065 110.283 120.599 110.256C119.133 110.229 118.237 110.256 118.237 110.256H115.333C113.379 110.256 112.781 111.312 110.61 116.834C110.311 117.619 109.28 120.191 109.253 120.354L109.198 120.218Z" fill="white"/>
<path d="M36.2095 81.2102C36.2095 78.5844 34.0923 76.4729 31.4593 76.4729C28.8264 76.4729 26.7092 78.5844 26.7092 81.2102C26.7092 83.836 28.8264 85.9474 31.4593 85.9474C34.0923 85.9474 36.2095 83.836 36.2095 81.2102Z" fill="white"/>
<path d="M25.8136 87.6528C22.5563 87.9506 20.0863 90.6847 20.0863 93.9331V107.035C19.9506 108.037 20.6834 108.957 21.6877 109.092C22.692 109.228 23.6149 108.497 23.7506 107.495C23.7506 107.36 23.7506 107.197 23.7506 107.062V95.8009C23.6692 95.3407 23.9949 94.9076 24.4292 94.8264C24.4835 94.8264 24.565 94.8264 24.6464 94.8264C25.1893 94.8264 25.2978 95.3678 25.325 95.7468V129.476C24.9721 130.938 25.8407 132.4 27.3065 132.752C28.7722 133.103 30.238 132.237 30.5908 130.775C30.6994 130.342 30.6994 129.882 30.5908 129.449V110.013C30.5637 109.607 30.8623 109.255 31.2694 109.228C31.2966 109.228 31.3237 109.228 31.3508 109.228C31.758 109.228 32.0837 109.525 32.1109 109.931C32.1109 109.959 32.1109 109.986 32.1109 110.013V129.449C32.1109 130.938 33.3323 132.156 34.8252 132.156C36.3181 132.156 37.5396 130.938 37.5396 129.449V95.7197C37.5396 95.3407 37.5396 94.7993 38.191 94.7993C38.8425 94.7993 39.0867 95.3678 39.0867 95.7739V107.035C39.0867 108.064 39.9011 108.876 40.9325 108.876C41.964 108.876 42.7783 108.064 42.7783 107.035V93.9331C42.7783 90.6576 40.2811 87.9506 37.0238 87.6528H25.8136Z" fill="white"/>
<path d="M17.4805 132.21H17.2091C16.6662 132.102 16.2862 131.587 16.3948 131.046L20.602 108.794C20.6835 108.253 21.2263 107.874 21.7692 107.982C21.7692 107.982 21.7692 107.982 21.7964 107.982C22.3392 108.064 22.6921 108.578 22.5835 109.119C22.5835 109.119 22.5835 109.119 22.5835 109.146L18.3763 131.398C18.2948 131.831 17.9148 132.156 17.4805 132.21Z" fill="white"/>
<path d="M44.8683 106.683C44.4611 106.061 43.6197 105.871 42.9954 106.277C42.6154 106.521 42.3711 106.954 42.3711 107.414C42.3711 107.631 42.4254 107.82 42.5068 108.01L46.2526 114.804C46.3883 115.075 46.4698 115.373 46.4969 115.697V130.288C46.4969 131.317 47.3112 132.129 48.3427 132.129C49.3741 132.129 50.1884 131.317 50.1884 130.288V124.522C50.1884 124.522 50.1884 123.683 50.7313 123.683C51.2742 123.683 51.3013 124.522 51.3013 124.522V130.261C51.3013 131.29 52.1156 132.102 53.1471 132.102C54.1785 132.102 54.9928 131.29 54.9928 130.261V115.697C54.9928 115.4 55.0743 115.075 55.21 114.804L58.6844 108.524C58.8744 108.172 59.0101 107.793 59.1187 107.414C59.1187 106.656 58.5215 106.061 57.7615 106.061C57.3 106.061 56.8657 106.304 56.5943 106.683C56.5943 106.683 54.7214 109.877 54.1514 110.446C53.88 110.798 53.4457 110.987 53.0114 110.987H48.4784C48.017 110.987 47.6098 110.798 47.3112 110.446C46.7412 109.877 45.004 106.764 44.8954 106.683H44.8683Z" fill="white"/>
<path d="M50.7313 108.632C52.7942 108.686 54.5042 107.035 54.5585 104.978C54.6128 102.92 52.957 101.215 50.8941 101.161C48.8312 101.107 47.1212 102.758 47.0669 104.815C47.0669 104.842 47.0669 104.896 47.0669 104.923C47.0669 106.981 48.7226 108.632 50.7856 108.632" fill="white"/>
<path d="M50.7584 113.884L54.9656 116.943L56.9743 124.306H50.7584H44.5154L46.524 116.943L50.7584 113.884Z" fill="white"/>
</g>
<defs>
<clipPath id="clip0_137_4817">
<rect width="170" height="170" fill="white"/>
</clipPath>
</defs>
</svg>
