<svg width="170" height="170" viewBox="0 0 170 170" fill="none" xmlns="http://www.w3.org/2000/svg">
<g clip-path="url(#clip0_137_4826)">
<path d="M170 0H0V170H170V0Z" fill="#C2293E"/>
<path d="M22.7565 39.5284H12.9841V34.6423L21.4388 14.7957H28.3563V34.8344H31.5955V39.5284H28.3563V47.2145H22.8663L22.7565 39.5284ZM22.7565 34.8344V21.1092L17.8154 34.8344H22.7565Z" fill="white"/>
<path d="M49.438 28.7132C48.9988 28.274 48.6145 27.8073 48.2576 27.3132H48.0106C46.9949 27.3956 45.9793 27.0113 45.2656 26.2701C44.6616 25.3917 44.3597 24.3211 44.442 23.2506V18.584C44.3597 17.5409 44.6616 16.4703 45.2656 15.6194C45.9793 14.8782 46.9949 14.4939 48.0106 14.6037C49.0263 14.4939 50.0419 14.8782 50.7556 15.6194C51.387 16.4703 51.6889 17.5134 51.6066 18.584V23.2506C51.8262 24.7054 51.1399 26.1603 49.8772 26.9289C50.2341 27.3681 50.6458 27.7799 51.1125 28.1093L50.7007 29.619C50.2341 29.3994 49.7949 29.07 49.438 28.7132ZM49.0263 25.1721C49.2184 24.7329 49.3282 24.2662 49.3008 23.7996V18.0075C49.3008 17.5409 49.2184 17.0742 49.0263 16.6625C48.8067 16.3331 48.4223 16.1409 48.0106 16.1958C47.5988 16.1409 47.2145 16.3331 46.9675 16.6625C46.7753 17.0742 46.693 17.5409 46.7204 18.0075V23.7172C46.7204 24.1839 46.7753 24.678 46.9675 25.1172C47.2145 25.4466 47.5988 25.6387 48.0106 25.5838C48.4223 25.6936 48.889 25.5289 49.1361 25.1721H49.0263Z" fill="white"/>
<path d="M54.5712 26.8465C54.0497 26.5171 53.6654 26.023 53.5007 25.4465C53.2811 24.7053 53.1713 23.9093 53.1987 23.1407V14.9056H55.3948V23.4975C55.3948 24.0465 55.4497 24.623 55.6418 25.1445C55.9987 25.721 56.7673 25.8857 57.3437 25.5288C57.5084 25.419 57.6182 25.3092 57.728 25.1445C57.9202 24.623 58.0025 24.0465 57.9751 23.4975V14.7683H60.1711V23.0034C60.1711 23.772 60.0888 24.5681 59.8692 25.3092C59.677 25.8857 59.2927 26.3798 58.7986 26.7092C57.4535 27.368 55.9163 27.368 54.5712 26.7092V26.8465Z" fill="white"/>
<path d="M63.7122 14.7683H66.1279L68.6258 27.1484H66.5122L66.0181 24.4034H63.8769L63.3554 27.1484H61.2417L63.7122 14.7683ZM65.771 23.0034L64.9475 17.7878L64.0965 23.0034H65.771Z" fill="white"/>
<path d="M69.7788 14.7683H72.0297V25.7485H75.0493V27.2857H69.7788V14.7683Z" fill="white"/>
<path d="M76.2021 14.7683H78.4256V27.1484H76.2021V14.7683Z" fill="white"/>
<path d="M81.4726 16.4428H79.4138V14.7683H85.7548V16.4428H83.7235V27.1484H81.4726V16.4428Z" fill="white"/>
<path d="M88.4175 22.427L85.8921 14.7683H88.0058L89.543 19.6819L90.9704 14.7683H93.0566L90.6135 22.427V27.1484H88.4724L88.4175 22.427Z" fill="white"/>
<path d="M44.7441 34.9993H49.9323V36.5914H46.9676V40.1599H49.4382V41.7521H47.1049V45.8696H50.097V47.4068H44.8814L44.7441 34.9993Z" fill="white"/>
<path d="M51.1948 34.9993H54.132C54.9281 34.9718 55.7516 35.1091 56.4927 35.411C57.0417 35.6581 57.4535 36.0973 57.7006 36.6463C57.9751 37.36 58.0849 38.1012 58.0574 38.8698V43.3716C58.0849 44.1402 57.9751 44.9089 57.7006 45.65C57.481 46.2265 57.0417 46.6931 56.4927 46.9676C55.779 47.297 55.0104 47.4617 54.2144 47.4068H51.1948V34.9993ZM54.1595 45.8147C54.5438 45.8422 54.9006 45.7598 55.23 45.5677C55.4771 45.403 55.6418 45.1559 55.6692 44.854C55.6967 44.3873 55.6967 43.9206 55.6692 43.454V38.7051C55.6967 38.2933 55.6967 37.8816 55.6692 37.4698C55.6143 37.1953 55.4496 36.9757 55.2026 36.811C54.8732 36.6463 54.4889 36.5914 54.132 36.6189H53.4458V45.8147H54.1595Z" fill="white"/>
<path d="M60.9397 47.0774C60.4181 46.748 60.0338 46.2539 59.8691 45.6775C59.6495 44.9363 59.5397 44.1677 59.5671 43.3991V34.9993H61.7632V43.6461C61.7632 44.2226 61.8181 44.7716 62.0102 45.3206C62.3671 45.8971 63.1357 46.0618 63.7121 45.7049C63.8768 45.5951 63.9866 45.4853 64.0964 45.3206C64.2886 44.7716 64.3709 44.2226 64.3435 43.6461V34.9993H66.5395V43.3991C66.5395 44.1677 66.4572 44.9363 66.2376 45.6775C66.0454 46.2539 65.6611 46.748 65.167 47.0774C64.5356 47.4343 63.7945 47.599 63.0533 47.5715C62.3122 47.6264 61.571 47.4343 60.9397 47.0774Z" fill="white"/>
<path d="M68.8454 46.501C68.2415 45.5951 67.967 44.5245 68.0219 43.454V39.007C67.9396 37.9365 68.2415 36.8384 68.818 35.9326C69.5042 35.164 70.5199 34.7522 71.563 34.862C72.5238 34.7797 73.4571 35.1091 74.1433 35.7953C74.7472 36.5914 75.0218 37.5522 74.912 38.5404V39.5835H72.7434V38.5129C72.7434 38.1835 72.7434 37.8267 72.7434 37.4972C72.7159 37.2502 72.6061 37.0306 72.414 36.8659C72.1944 36.7012 71.9199 36.6188 71.6454 36.6463C71.3434 36.6188 71.0415 36.7012 70.8218 36.8933C70.6297 37.058 70.4924 37.3051 70.465 37.5522C70.4101 37.909 70.4101 38.2933 70.465 38.6502V44.1402C70.465 44.6618 70.5199 45.1833 70.7395 45.65C70.9591 45.9794 71.3434 46.1716 71.7552 46.1167C72.0297 46.1167 72.3042 46.0618 72.5238 45.8696C72.6885 45.7049 72.8257 45.4853 72.8532 45.2382C72.8532 44.8814 72.8532 44.4971 72.8532 44.1402V42.7128H75.0218V43.701C75.0767 44.6618 74.8021 45.6226 74.2806 46.4461C73.6218 47.1598 72.661 47.5441 71.6728 47.4343C70.6297 47.6264 69.5591 47.2696 68.8454 46.501Z" fill="white"/>
<path d="M78.2611 34.9993H80.6767L83.1747 47.4068H81.061L80.5669 44.6618H78.4258L77.9042 47.4068H75.7905L78.2611 34.9993ZM80.3473 43.2344L79.6336 37.909L78.7826 43.0971L80.3473 43.2344Z" fill="white"/>
<path d="M85.1236 36.6737H83.0374V34.9993H89.4058V36.6737H87.3471V47.4068H85.1236V36.6737Z" fill="white"/>
<path d="M90.394 34.9993H92.645V47.4068H90.394V34.9993Z" fill="white"/>
<path d="M95.0881 46.5284C94.4842 45.65 94.1822 44.5794 94.2646 43.5089V38.8697C94.1822 37.7992 94.4842 36.7561 95.0881 35.8777C95.8018 35.1365 96.8174 34.7796 97.8331 34.862C98.8488 34.7522 99.8644 35.1365 100.578 35.8777C101.209 36.7561 101.511 37.7992 101.429 38.8697V43.5089C101.484 44.5794 101.182 45.65 100.578 46.5284C99.8644 47.297 98.8488 47.6813 97.8331 47.5715C96.8174 47.6539 95.8018 47.2696 95.0881 46.5284ZM98.8488 45.4578C99.0409 45.0186 99.1233 44.552 99.0958 44.0853V38.3482C99.0958 37.8815 99.0409 37.4149 98.8488 36.9757C98.3272 36.3992 97.4488 36.3718 96.8723 36.8933C96.8449 36.8933 96.8174 36.9482 96.79 36.9757C96.5978 37.3874 96.5155 37.8541 96.5429 38.3207V44.0304C96.5429 44.4971 96.5978 44.9637 96.79 45.4029C97.0096 45.7598 97.4213 45.9245 97.8331 45.8696C98.2174 45.9245 98.6017 45.7872 98.8488 45.4578Z" fill="white"/>
<path d="M103.021 34.9993H104.586L107.605 42.0815V34.9993H109.472V47.4068H107.962L104.943 39.9952V47.4068H103.021V34.9993Z" fill="white"/>
<path d="M75.3237 91.1901L44.7166 73.4846V130.719L75.3237 139.942V91.1901Z" fill="white"/>
<path d="M78.7002 91.2999V139.969L109.527 130.691V73.4846L78.7002 91.2999Z" fill="white"/>
<path d="M127.232 129.703H126.326L129.95 142.357L133.573 129.703H132.667H133.573V78.7825H132.667H131.762H130.801H129.017H128.111H127.232H126.326V129.703H127.232Z" fill="white"/>
<path d="M116.115 75.9552L112.821 73.3474V132.256L78.7825 143.263H77.2178H76.9159H75.3238L41.45 133.793V73.3474L38.156 75.9552V136.099L75.1865 146.338H76.9159H77.2178H78.9472L113.095 135.495L116.115 134.617V75.9552Z" fill="white"/>
<path d="M133.573 72.057C133.573 70.0532 131.954 68.4336 129.95 68.4336C127.946 68.4336 126.326 70.0532 126.326 72.057V75.955H133.573V72.057Z" fill="white"/>
</g>
<defs>
<clipPath id="clip0_137_4826">
<rect width="170" height="170" fill="white"/>
</clipPath>
</defs>
</svg>
