<svg width="170" height="170" viewBox="0 0 170 170" fill="none" xmlns="http://www.w3.org/2000/svg">
<g clip-path="url(#clip0_137_4832)">
<path d="M170 0H0V170H170V0Z" fill="#00B1D7"/>
<path d="M116.457 68.6544C116.319 68.5158 116.097 68.4326 115.903 68.4326H53.9307C53.7366 68.4326 53.5425 68.5158 53.3762 68.6544C53.2653 68.8485 53.2098 69.0426 53.2375 69.2645L63.6355 132.207C63.691 132.567 63.996 132.817 64.3564 132.817H77.139L77.9986 143.076H72.6194L85.1247 155.582L97.6854 143.049H92.3062L93.1658 132.817H106.17C106.531 132.817 106.836 132.567 106.891 132.207L116.624 69.2645C116.651 69.0426 116.596 68.8208 116.457 68.6544ZM92.528 119.064C88.2025 122.502 82.0469 122.502 77.7213 119.064C74.3108 115.404 73.7562 109.941 76.3626 105.671C77.3608 103.813 84.4869 93.1105 85.0969 92.1955C85.6792 93.1105 92.833 103.813 93.8312 105.671C96.4654 109.914 95.9386 115.404 92.528 119.064ZM112.159 81.9084C110.246 81.2429 108.139 81.3816 106.309 82.2689C98.6282 85.3744 93.3876 86.5112 85.3188 83.9603C80.2168 82.3798 75.4476 79.0524 69.8188 81.1875C66.2142 82.7402 62.3323 83.6275 58.3949 83.7662L55.9271 71.2609H113.934L112.159 81.9084Z" fill="white"/>
<path d="M25.4543 48.8013C31.6099 48.8013 33.9945 45.4462 33.9945 40.1224V35.0482C33.9945 29.5026 31.7485 26.5635 27.5893 26.5635C25.5929 26.4248 23.6797 27.534 22.8201 29.3363V21.9329C22.8201 19.8533 23.4856 18.3837 25.5929 18.3837C27.7003 18.3837 28.3657 19.6038 28.3657 21.7388V24.0125H33.6618V22.1825C33.6618 17.1083 31.9704 13.5591 25.5652 13.5591C19.1601 13.5591 17.2468 17.4687 17.2468 22.8479V39.5124C17.2468 44.8362 19.576 48.6904 25.5652 48.6904M22.7924 34.2164C22.7924 32.3032 23.7074 31.0831 25.5652 31.0831C27.423 31.0831 28.338 32.3032 28.338 34.5214V40.6215C28.338 42.8121 27.5339 44.0875 25.5652 44.0875C23.5965 44.0875 22.7924 42.7566 22.7924 40.6215V34.2164Z" fill="white"/>
<path d="M49.0506 25.0106V18.0232C48.7733 16.1654 50.0765 14.4185 51.962 14.169C52.1839 14.1413 52.4334 14.1135 52.6552 14.169C55.428 14.169 56.0935 15.6663 56.0935 17.7736V19.4927H53.8753V17.6072C53.8753 16.6922 53.5703 16.1931 52.7107 16.1931C51.8511 16.1931 51.4907 16.8031 51.4907 17.6904V25.3988C51.4907 26.2861 51.8511 26.8961 52.7107 26.8961C53.5703 26.8961 53.8753 26.3415 53.8753 25.482V22.9033H56.0935V25.3711C56.0935 27.4229 55.2339 28.9757 52.6552 28.9757C50.7697 29.1143 49.1338 27.7002 49.0229 25.8147C49.0229 25.5652 49.0229 25.2879 49.0506 25.0383V25.0106Z" fill="white"/>
<path d="M57.5078 14.3076H59.9201V26.7297H62.9148V28.6984H57.591L57.5078 14.3076Z" fill="white"/>
<path d="M63.9128 14.3076H69.708V16.304H66.3529V20.4078H68.7375V22.3764H66.3529V26.7297H69.708V28.6984H63.9128V14.3076Z" fill="white"/>
<path d="M70.5952 28.6984L73.368 14.3076H76.1408L78.9136 28.6984H76.4181L75.9744 26.092H73.4235L72.9798 28.6984H70.5952ZM73.6453 24.151H75.5862L74.6158 18.3836L73.6453 24.151Z" fill="white"/>
<path d="M81.853 19.6591V28.6984H79.8289V14.3076H82.3244L84.9585 22.626V14.3076H86.9549V28.6984H84.8476L81.853 19.6591Z" fill="white"/>
<path d="M97.0754 19.8255L95.7167 28.6984H93.4153L91.4744 14.3076H93.8035L94.9404 23.4578L96.1326 14.3076H98.1291L99.46 23.4578L100.541 14.3076H102.593L100.735 28.6984H98.4341L97.02 19.8255H97.0754Z" fill="white"/>
<path d="M102.482 28.6984L105.255 14.3076H108.028L110.801 28.6984H108.333L107.889 26.092H105.311L104.895 28.6984H102.482ZM105.505 24.151H107.446L106.503 18.3836L105.505 24.151Z" fill="white"/>
<path d="M110.357 14.3076H116.79V16.304H114.794V28.6984H112.354V16.304H110.357V14.3076Z" fill="white"/>
<path d="M117.899 14.3076H123.694V16.304H120.339V20.4078H122.724V22.3764H120.339V26.7297H123.694V28.6984H117.899V14.3076Z" fill="white"/>
<path d="M127.41 22.0992V28.6984H124.97V14.3076H128.491C130.931 14.3076 131.846 15.5276 131.846 17.5518V19.3818C131.846 20.9346 131.292 21.8496 129.905 22.1546L132.234 28.6984H129.711L127.41 22.0992ZM127.41 16.304V20.7682H128.214C128.796 20.8514 129.323 20.4632 129.406 19.8809C129.406 19.77 129.406 19.6868 129.406 19.5759V17.4686C129.406 16.6645 129.046 16.304 128.214 16.304H127.41Z" fill="white"/>
<path d="M48.8013 48.8843L51.5741 34.4658H54.3469L57.1197 48.8843H54.5964L54.1528 46.2502H51.6018L51.1581 48.8843H48.8013ZM51.8236 44.3092H53.7646L52.7941 38.5418L51.8236 44.3092Z" fill="white"/>
<path d="M60.1418 39.8173V48.8843H58.1177V34.4658H60.5023L63.1087 42.7842V34.4658H65.1051V48.8843H62.9146L60.1418 39.8173Z" fill="white"/>
<path d="M73.6176 38.3478V45.058C73.6176 47.2762 72.7026 48.9399 70.1239 48.9399H66.3806V34.5214H70.1239C72.7026 34.4659 73.6176 36.1296 73.6176 38.3478ZM69.8189 46.888C70.5121 46.9712 71.1221 46.4998 71.2053 45.8066C71.2053 45.6957 71.2053 45.5571 71.2053 45.4462V37.9042C71.3162 37.211 70.8448 36.5732 70.1793 36.4623C70.0684 36.4623 69.9298 36.4623 69.8189 36.4623H68.7929V46.888H69.8189Z" fill="white"/>
<path d="M78.5256 45.7788V43.8379H80.7715V45.8066C80.7715 46.6107 81.132 47.082 81.9638 47.082C82.7957 47.082 83.0452 46.5829 83.0452 45.8066V45.252C83.0452 44.4479 82.6293 43.6992 81.9638 43.2279L80.5497 41.8137C79.302 40.9264 78.5533 39.4846 78.5256 37.9595V37.4604C78.4424 35.7968 79.7179 34.3826 81.3816 34.2717C81.5757 34.2717 81.742 34.2717 81.9361 34.2717C84.3484 34.2717 85.3189 35.464 85.3189 37.5436V38.7082H83.1007V37.4604C83.1007 36.6286 82.7125 36.2404 81.9638 36.2404C81.3816 36.185 80.8547 36.6286 80.7993 37.2386C80.7993 37.2941 80.7993 37.3773 80.7993 37.4327V37.71C80.7993 38.5141 81.2429 38.9855 81.9638 39.6787L83.5166 41.2037C84.7089 42.091 85.4298 43.4774 85.4576 44.947V45.6402C85.5962 47.3593 84.3484 48.8844 82.6016 49.023C82.3798 49.023 82.1579 49.023 81.9361 49.023C80.3002 49.2725 78.7751 48.1357 78.5533 46.4998C78.5256 46.2502 78.5256 46.0006 78.5533 45.7511L78.5256 45.7788Z" fill="white"/>
<path d="M86.123 48.8843L88.8958 34.4658H91.6686L94.4414 48.8843H91.9459L91.5023 46.2502H88.9236L88.5077 48.8843H86.123ZM89.1731 44.3092H91.1141L90.1436 38.5418L89.1731 44.3092Z" fill="white"/>
<path d="M97.3806 39.8173V48.8843H95.3564V34.4658H97.7133L100.347 42.7842V34.4658H102.344V48.8843H100.237L97.3806 39.8173Z" fill="white"/>
<path d="M103.73 34.4658H106.143V48.8843H103.73V34.4658Z" fill="white"/>
<path d="M107.279 34.4658H113.712V36.4622H111.716V48.8843H109.276V36.4622H107.279V34.4658Z" fill="white"/>
<path d="M113.38 48.8843L116.152 34.4658H118.925L121.698 48.8843H119.203L118.759 46.2502H116.18L115.764 48.8843H113.38ZM116.43 44.3092H118.371L117.428 38.5418L116.43 44.3092Z" fill="white"/>
<path d="M121.143 34.4658H127.576V36.4622H125.58V48.8843H123.14V36.4622H121.143V34.4658Z" fill="white"/>
<path d="M128.824 34.4658H131.236V48.8843H128.824V34.4658Z" fill="white"/>
<path d="M132.65 45.058V38.2092C132.65 36.185 134.286 34.5491 136.31 34.5491C138.335 34.5491 139.971 36.185 139.971 38.2092V45.058C139.971 47.0821 138.335 48.718 136.31 48.718C134.286 48.718 132.65 47.0821 132.65 45.058ZM137.558 45.4184V37.821C137.558 36.9337 137.17 36.3237 136.283 36.3237C135.395 36.3237 135.063 36.9337 135.063 37.821V45.5293C135.063 46.4166 135.451 47.0266 136.283 47.0266C137.115 47.0266 137.558 46.4166 137.558 45.5293V45.4184Z" fill="white"/>
<path d="M143.326 39.8173V48.8843H141.274V34.4658H143.659L146.265 42.7842V34.4658H148.289V48.8843H146.182L143.326 39.8173Z" fill="white"/>
</g>
<defs>
<clipPath id="clip0_137_4832">
<rect width="170" height="170" fill="white"/>
</clipPath>
</defs>
</svg>
