<svg width="170" height="170" viewBox="0 0 170 170" fill="none" xmlns="http://www.w3.org/2000/svg">
<g clip-path="url(#clip0_137_4828)">
<path d="M170 0H0V170H170V0Z" fill="#005D8F"/>
<path d="M14.6004 21.2022C13.7513 21.5857 12.9021 21.9144 12.0255 22.1883C10.9024 22.5718 10.1902 22.8183 9.91626 22.9553V18.3533C11.0394 17.915 12.1351 17.3672 13.2034 16.7645C14.2169 16.2714 15.1483 15.5866 15.9427 14.7922H20.7912V47.2254H14.6004V21.2022Z" fill="white"/>
<path d="M26.3244 44.7598C24.7904 42.4862 24.0508 39.7469 24.1878 37.0076V25.4752C24.0234 22.599 24.6809 19.7501 26.1053 17.2574C27.6941 15.1755 30.269 14.0798 32.8713 14.3537C35.1449 14.1346 37.4185 14.8742 39.1169 16.3808C40.5413 18.1066 41.2261 20.3254 41.0892 22.5442V23.1194H35.1997C35.2819 22.0511 35.1175 20.9828 34.7614 19.9693C34.4053 19.3118 33.6657 18.9557 32.9261 19.0653C32.3509 19.0379 31.7756 19.2571 31.3921 19.6679C30.9538 20.2432 30.6799 20.9554 30.6251 21.6676C30.4608 22.9825 30.3786 24.3247 30.406 25.6396V29.0363C30.8169 28.4063 31.3921 27.9406 32.0769 27.6667C32.9535 27.3106 33.8849 27.1462 34.8162 27.1736C36.8707 27.0092 38.8704 27.968 40.0209 29.6663C41.2261 31.7208 41.8014 34.104 41.6644 36.4872C41.8288 39.3634 41.1166 42.2123 39.6648 44.705C38.076 46.8143 35.501 47.9374 32.8713 47.6634C30.3512 47.8278 27.8858 46.7595 26.3244 44.7598ZM34.8984 41.7192C35.2819 40.3222 35.4463 38.8977 35.3915 37.4459C35.4463 36.405 35.4463 35.3367 35.3915 34.2957C35.3367 33.6383 35.1175 33.0083 34.734 32.4878C34.2958 31.9399 33.5835 31.666 32.8713 31.7756C32.3235 31.7756 31.803 31.9125 31.3647 32.2139C30.9538 32.4878 30.6251 32.8439 30.3512 33.2548V38.432C30.3512 41.5 31.2004 43.034 32.9261 43.034C33.8027 43.1162 34.6245 42.5684 34.8984 41.7192Z" fill="white"/>
<path d="M54.3474 27.1736V14.7646H57.9907C58.6207 14.7646 59.2507 14.8742 59.7986 15.1755C60.2643 15.4495 60.6204 15.8878 60.8121 16.3808C61.0587 16.9835 61.1682 17.6409 61.1408 18.2983C61.1682 18.9831 61.0313 19.6406 60.7299 20.2432C60.4834 20.7089 60.0725 21.0924 59.5794 21.3115C59.0316 21.5581 58.4289 21.695 57.8263 21.6676H56.621V27.1462H54.3474V27.1736ZM56.621 20.0789H57.525C57.8537 20.0789 58.1824 20.0241 58.4837 19.8871C58.7029 19.7775 58.8672 19.5858 58.9494 19.3393C59.059 18.9831 59.0864 18.627 59.0864 18.2709C59.1412 17.9148 59.1412 17.5313 59.0864 17.1752C59.0316 16.9287 58.8946 16.7095 58.6755 16.5726C58.3468 16.4082 57.9907 16.326 57.6346 16.3534H56.7854L56.621 20.0789Z" fill="white"/>
<path d="M62.0447 27.1736V14.7646H67.2493V16.3534H64.3183V19.9419H66.6193V21.5033H64.3183V25.6122H67.2767V27.1736H62.0447Z" fill="white"/>
<path d="M67.6604 27.1736L70.1258 14.7646H72.5637L75.0291 27.1736H72.9472L72.4541 24.4343H70.2901L69.7696 27.1736H67.6604ZM70.3997 22.8729H72.098L71.2489 17.6683L70.3997 22.8729Z" fill="white"/>
<path d="M79.1652 27.3381C78.4256 27.3655 77.6586 27.1738 77.0286 26.7903C76.5081 26.4342 76.152 25.9411 75.9603 25.3385C75.7137 24.6536 75.6042 23.9414 75.6316 23.2018V18.7916C75.6316 18.052 75.7411 17.285 75.9603 16.5728C76.1246 15.9975 76.5081 15.477 77.0286 15.1483C77.6586 14.7648 78.4256 14.5731 79.1652 14.6279C79.85 14.6005 80.5349 14.7374 81.1649 15.0661C81.658 15.3401 82.0141 15.8058 82.2058 16.3262C82.425 16.9289 82.5345 17.5589 82.5072 18.1889V19.2299H80.3431V17.148C80.3431 16.9015 80.2335 16.6549 80.0418 16.4632C79.8227 16.2714 79.5213 16.1893 79.22 16.2166C78.9187 16.2166 78.6174 16.2714 78.3708 16.4632C78.2065 16.6823 78.0969 16.9289 78.0421 17.2028C78.0147 17.5315 78.0147 17.8876 78.0421 18.2163V23.6949C77.9873 24.0784 77.9873 24.4345 78.0421 24.818C78.0969 25.0645 78.2339 25.3111 78.4256 25.4754C78.6448 25.6124 78.9187 25.6946 79.1926 25.6946C79.4939 25.722 79.7953 25.6398 80.0144 25.4206C80.1788 25.2289 80.2883 24.9824 80.3157 24.7084V22.5992H82.4798V23.5579C82.4798 24.2154 82.3976 24.8728 82.2058 25.5028C82.0141 26.0507 81.658 26.5164 81.1649 26.8177C80.5623 27.2012 79.8774 27.3655 79.1652 27.3381Z" fill="white"/>
<path d="M83.7947 27.1736V14.7646H88.9993V16.3534H86.0409V19.9419H88.3693V21.5033H86.0409V25.6122H89.0267V27.1736H83.7947Z" fill="white"/>
<path d="M90.0677 29.2555L89.8486 28.4885C90.1225 28.4063 90.3691 28.242 90.5608 28.0502C90.7526 27.8037 90.8621 27.5024 90.8347 27.1737H89.739V25.0918H91.7661V26.9819C91.7935 27.5298 91.6565 28.0502 91.3552 28.5159C91.0265 28.8994 90.5608 29.1733 90.0677 29.2555Z" fill="white"/>
<path d="M95.6011 27.4751V25.8863H96.4229C96.5872 25.8589 96.779 25.7767 96.9159 25.6671C97.0529 25.5302 97.1351 25.3658 97.1625 25.1741C97.1899 24.9001 97.1899 24.6536 97.1625 24.3797V14.8196H99.4087V24.4619C99.4087 25.0371 99.3539 25.6398 99.1621 26.1876C99.0252 26.6259 98.7239 26.982 98.313 27.2011C97.7925 27.4477 97.1899 27.5573 96.6146 27.5299L95.6011 27.4751Z" fill="white"/>
<path d="M104.476 27.338C103.737 27.3927 102.997 27.201 102.34 26.8449C101.819 26.4888 101.463 25.9957 101.271 25.3931C101.052 24.6535 100.97 23.9139 100.97 23.1469V14.7646H103.189V23.5578C103.161 23.9139 103.161 24.2974 103.189 24.6535C103.216 24.9548 103.353 25.2287 103.545 25.4753C103.764 25.6944 104.093 25.804 104.394 25.7766C104.695 25.804 105.024 25.6944 105.243 25.4753C105.435 25.2287 105.572 24.9548 105.599 24.6535C105.627 24.2974 105.627 23.9139 105.599 23.5578V14.9016H107.791V23.2838C107.791 24.0508 107.709 24.7904 107.517 25.53C107.325 26.1327 106.969 26.6258 106.449 26.9819C105.846 27.2832 105.161 27.3927 104.476 27.338Z" fill="white"/>
<path d="M112.557 27.338C111.9 27.3654 111.27 27.201 110.694 26.8997C110.174 26.5984 109.791 26.1601 109.544 25.6122C109.27 24.9548 109.133 24.27 109.133 23.5578L111.078 23.1743C111.078 23.6126 111.133 24.0235 111.242 24.4343C111.325 24.7631 111.462 25.037 111.681 25.2835C111.9 25.5027 112.174 25.6122 112.475 25.5848C112.776 25.6122 113.05 25.5027 113.242 25.2561C113.406 25.0096 113.489 24.7357 113.489 24.4343C113.489 23.9687 113.379 23.4756 113.105 23.0921C112.831 22.7086 112.502 22.3525 112.146 22.0512L110.585 20.6815C110.174 20.3254 109.791 19.8871 109.517 19.4215C109.243 18.8736 109.106 18.2984 109.133 17.6957C109.078 16.8465 109.407 16.0247 110.01 15.4221C110.667 14.8742 111.489 14.5729 112.338 14.6277C112.831 14.6277 113.324 14.7099 113.79 14.9016C114.146 15.066 114.475 15.3399 114.721 15.6412C114.94 15.97 115.132 16.3535 115.242 16.737C115.351 17.1479 115.406 17.5587 115.433 17.997L113.516 18.3257C113.516 17.9696 113.461 17.6135 113.379 17.2848C113.352 17.0109 113.215 16.7644 113.023 16.5726C112.831 16.4082 112.557 16.2987 112.283 16.3261C111.982 16.3261 111.708 16.4356 111.516 16.6548C111.325 16.9013 111.242 17.1752 111.242 17.4766C111.242 17.8327 111.325 18.1888 111.516 18.4901C111.708 18.8188 111.982 19.0927 112.256 19.3393L113.817 20.7089C114.338 21.1198 114.776 21.6403 115.105 22.2155C115.488 22.8456 115.68 23.5578 115.653 24.2974C115.653 24.8452 115.516 25.3657 115.269 25.8588C114.995 26.3245 114.639 26.6806 114.173 26.9545C113.68 27.201 113.132 27.338 112.557 27.338Z" fill="white"/>
<path d="M117.926 27.1736V16.4356H115.954V14.7646H122.117V16.4356H120.2V27.1736H117.926Z" fill="white"/>
<path d="M123.021 27.1736V14.7646H125.24V27.1736H123.021Z" fill="white"/>
<path d="M130.198 27.3381C129.459 27.3655 128.692 27.1738 128.062 26.7903C127.541 26.4342 127.185 25.9411 126.993 25.3385C126.747 24.6536 126.637 23.9414 126.665 23.2018V18.7916C126.665 18.052 126.774 17.285 126.993 16.5728C127.158 15.9975 127.541 15.477 128.062 15.1483C128.692 14.7648 129.459 14.5731 130.198 14.6279C130.883 14.6005 131.568 14.7374 132.198 15.0661C132.691 15.3401 133.047 15.8058 133.239 16.3262C133.458 16.9289 133.54 17.5589 133.54 18.1889V19.2299H131.486V17.148C131.486 16.9015 131.376 16.6549 131.184 16.4632C130.965 16.2714 130.664 16.1893 130.363 16.2166C130.061 16.2166 129.76 16.2714 129.513 16.4632C129.349 16.6823 129.239 16.9289 129.185 17.2028C129.157 17.5315 129.157 17.8876 129.185 18.2163V23.6949C129.13 24.0784 129.13 24.4345 129.185 24.818C129.239 25.0645 129.376 25.3111 129.568 25.4754C129.787 25.6398 130.061 25.6946 130.335 25.6946C130.636 25.722 130.938 25.6398 131.157 25.4206C131.321 25.2289 131.431 24.9824 131.458 24.7084V22.5992H133.622V23.5579C133.622 24.2154 133.54 24.8728 133.348 25.5028C133.157 26.0507 132.773 26.489 132.307 26.8177C131.677 27.2012 130.938 27.3929 130.198 27.3381Z" fill="white"/>
<path d="M134.828 27.1736V14.7646H140.005V16.3534H136.964V19.9419H139.293V21.5033H136.964V25.6122H139.95V27.1736H134.828Z" fill="white"/>
<path d="M53.7173 47.417L56.1826 35.0081H58.6206L61.086 47.417H59.0041L58.511 44.5408H56.347L55.8539 47.417H53.7173ZM56.4566 43.1163H58.1549L57.3057 37.9117L56.4566 43.1163Z" fill="white"/>
<path d="M61.9626 47.417V35.0081H63.5514L66.5646 42.0754V35.0081H68.4821V47.417H66.9755L63.9349 40.0209V47.417H61.9626Z" fill="white"/>
<path d="M69.9888 47.417V35.0081H72.9198C73.7142 34.9807 74.536 35.1176 75.2756 35.419C75.8234 35.6929 76.2617 36.1312 76.4809 36.7064C76.7548 37.3912 76.8918 38.1308 76.8644 38.8705V43.4177C76.8644 44.1847 76.7548 44.9243 76.4809 45.6365C76.2617 46.2117 75.8508 46.7048 75.303 46.9787C74.5908 47.3074 73.7964 47.4718 73.002 47.417H69.9888ZM72.2624 45.8282H72.9472C73.3307 45.8556 73.7416 45.7734 74.0703 45.5543C74.3168 45.3626 74.4538 45.0612 74.4812 44.7599C74.5086 44.3216 74.5086 43.9107 74.4812 43.4725V38.7335C74.5086 38.3226 74.5086 37.9117 74.4812 37.5008C74.4264 37.2269 74.2621 37.0077 74.0429 36.8434C73.7142 36.679 73.3307 36.5968 72.9472 36.6242H72.2898V45.8282H72.2624Z" fill="white"/>
<path d="M84.7535 47.5814C84.0961 47.6088 83.466 47.4444 82.8908 47.1431C82.3703 46.8418 81.9868 46.4035 81.7403 45.8556C81.4664 45.1982 81.3294 44.5134 81.3294 43.8012L83.2743 43.4177C83.2743 43.856 83.3291 44.2669 83.4386 44.6778C83.5208 45.0065 83.6578 45.2804 83.8769 45.5269C84.0961 45.7461 84.37 45.8556 84.6713 45.8283C84.9726 45.8283 85.274 45.7187 85.4657 45.4995C85.6027 45.253 85.6849 44.9791 85.6849 44.6778C85.6849 44.2121 85.5753 43.719 85.3014 43.3355C85.0274 42.952 84.6987 42.5959 84.3426 42.2946L82.7812 40.9249C82.3703 40.5688 81.9868 40.1305 81.7129 39.6649C81.439 39.117 81.302 38.5418 81.3294 37.9391C81.2746 37.0899 81.6033 36.2682 82.206 35.6655C82.8634 35.1177 83.6852 34.8163 84.5344 34.8711C85.0274 34.8711 85.5205 34.9533 85.9862 35.145C86.3423 35.3094 86.671 35.5833 86.9175 35.8847C87.1367 36.2134 87.3284 36.5969 87.438 36.9804C87.5476 37.3913 87.6024 37.8022 87.6297 38.2404L85.7123 38.5965C85.7396 38.2404 85.7396 37.9117 85.7123 37.5556C85.6849 37.2817 85.5479 37.0078 85.3561 36.816C85.1644 36.6517 84.8905 36.5421 84.6165 36.5695C84.3152 36.5695 84.0413 36.679 83.8495 36.8982C83.6578 37.1447 83.5756 37.4187 83.5756 37.72C83.5756 38.0761 83.6578 38.4322 83.8495 38.7335C84.0413 39.0622 84.3152 39.3362 84.5891 39.5827L86.1505 40.9523C86.6436 41.3906 87.0819 41.8837 87.438 42.4589C87.8215 43.089 88.0132 43.8012 87.9859 44.5408C87.9859 45.0887 87.8489 45.6091 87.6024 46.1022C87.3284 46.5679 86.9723 46.924 86.5066 47.1979C85.9588 47.4718 85.3561 47.6088 84.7535 47.5814Z" fill="white"/>
<path d="M90.1224 47.417V36.679H88.1501V35.0081H94.3135V36.679H92.396V47.417H90.1224Z" fill="white"/>
<path d="M95.1628 47.417V35.0081H98.1213C98.8335 35.0081 99.5457 35.0902 100.231 35.3094C100.751 35.5011 101.217 35.8572 101.545 36.3229C101.874 36.9256 102.038 37.6104 102.011 38.2952C102.011 38.7335 101.956 39.1992 101.874 39.6374C101.792 40.0209 101.655 40.3497 101.408 40.651C101.162 40.9523 100.861 41.1714 100.504 41.3084L102.23 47.417H99.9566L98.45 41.7467H97.4091V47.417H95.1628ZM97.4091 40.3223H98.1213C98.4774 40.3223 98.8335 40.2675 99.1622 40.1305C99.4361 39.9936 99.6279 39.7744 99.7374 39.5005C99.847 39.1444 99.9018 38.7883 99.9018 38.4322C99.9566 37.9391 99.8196 37.446 99.5457 37.0351C99.217 36.679 98.7239 36.5147 98.2308 36.5695H97.4091V40.3223Z" fill="white"/>
<path d="M106.832 47.5814C106.093 47.6088 105.353 47.4444 104.723 47.0883C104.202 46.7596 103.819 46.2665 103.6 45.6913C103.381 44.9791 103.244 44.2395 103.271 43.4998V38.8705C103.271 38.1308 103.353 37.4186 103.6 36.7338C103.792 36.1586 104.202 35.6655 104.723 35.3642C105.353 35.0081 106.093 34.8437 106.832 34.8711C107.572 34.8437 108.311 35.0081 108.941 35.3642C109.462 35.6929 109.845 36.1586 110.064 36.7338C110.311 37.4186 110.421 38.1308 110.393 38.8705V43.5272C110.393 44.2395 110.311 44.9791 110.064 45.6639C109.873 46.2391 109.462 46.7596 108.941 47.0883C108.311 47.4444 107.572 47.6088 106.832 47.5814ZM106.832 45.9104C107.133 45.9104 107.407 45.8282 107.654 45.6639C107.846 45.4721 107.955 45.253 108.01 45.0065C108.037 44.7051 108.037 44.3764 108.01 44.0751V38.35C108.037 38.0487 108.037 37.72 108.01 37.4186C107.955 37.1721 107.846 36.953 107.654 36.7612C107.407 36.5968 107.133 36.5147 106.832 36.5421C106.531 36.5421 106.257 36.5968 106.01 36.7612C105.819 36.9256 105.682 37.1721 105.654 37.4186C105.599 37.72 105.599 38.0487 105.654 38.35V44.0751C105.627 44.3764 105.627 44.7051 105.654 45.0065C105.709 45.253 105.819 45.4721 106.01 45.6639C106.257 45.8282 106.531 45.9378 106.832 45.9104Z" fill="white"/>
<path d="M111.681 47.417V35.0081H113.242L116.283 42.0754V35.0081H118.145V47.417H116.639L113.598 40.0209V47.417H111.681Z" fill="white"/>
<path d="M122.83 47.5814C122.145 47.6362 121.46 47.4444 120.885 47.0609C120.392 46.6774 120.036 46.1843 119.844 45.5817C119.625 44.8421 119.515 44.1025 119.542 43.3355V39.1718C119.542 38.4048 119.625 37.6104 119.844 36.8708C120.008 36.2681 120.392 35.7477 120.912 35.3916C121.57 35.0081 122.309 34.8437 123.049 34.8711C123.761 34.8711 124.446 35.0081 125.076 35.3094C125.569 35.5833 125.952 36.0216 126.144 36.5421C126.391 37.1721 126.5 37.8295 126.473 38.4869V39.1444H124.309V38.4322C124.336 38.1034 124.336 37.7473 124.309 37.4186C124.281 37.1721 124.172 36.9256 123.98 36.7612C123.734 36.5968 123.46 36.5147 123.158 36.5421C122.857 36.5147 122.528 36.5968 122.309 36.816C122.117 37.0351 121.98 37.3091 121.953 37.583V43.8286C121.898 44.1847 121.898 44.5682 121.953 44.9243C121.98 45.1982 122.117 45.4721 122.337 45.6639C122.583 45.8282 122.857 45.9378 123.158 45.9104C123.46 45.9378 123.761 45.8282 124.008 45.6365C124.227 45.4173 124.364 45.1708 124.418 44.8695C124.473 44.486 124.473 44.1025 124.418 43.719V42.5411H123.268V41.1167H126.637V47.417H125.185L125.021 46.1843C124.857 46.5678 124.61 46.9239 124.281 47.1979C123.843 47.4992 123.35 47.6362 122.83 47.5814Z" fill="white"/>
<path d="M54.4021 67.6604V55.2515H56.6483V67.6604H54.4021Z" fill="white"/>
<path d="M58.2373 67.6604V55.2515H59.8261L62.8393 62.3462V55.2515H64.702V67.6604H63.1954L60.1822 60.2644V67.6604H58.2373Z" fill="white"/>
<path d="M69.4134 67.8248C68.756 67.8522 68.0986 67.6878 67.5233 67.3865C67.0302 67.0852 66.6193 66.6469 66.4002 66.1264C66.1263 65.469 65.9893 64.7568 65.9619 64.0446L67.9068 63.6611C67.9068 64.0994 67.989 64.5377 68.0986 64.9485C68.1807 65.2773 68.3177 65.5512 68.5368 65.7977C68.756 65.9895 69.0299 66.099 69.3312 66.0717C69.6326 66.099 69.9065 65.9895 70.0982 65.7429C70.2626 65.4964 70.3448 65.2225 70.3448 64.9212C70.3448 64.4555 70.2352 63.9624 69.9613 63.5789C69.66 63.1954 69.3312 62.8393 68.9751 62.538L67.4137 61.1683C67.0028 60.8122 66.6467 60.3739 66.3728 59.9083C66.0989 59.3604 65.9619 58.7852 65.9893 58.1825C65.9071 57.3333 66.2358 56.5115 66.8385 55.9363C67.4959 55.361 68.3451 55.0597 69.1943 55.1145C69.6873 55.1145 70.1804 55.1967 70.6461 55.3884C71.0022 55.5528 71.3309 55.8267 71.5775 56.128C71.7966 56.4568 71.961 56.8403 72.0705 57.2238C72.1801 57.6347 72.2623 58.0455 72.2897 58.4838L70.3722 58.8399C70.3722 58.4838 70.29 58.1551 70.2352 57.799C70.1804 57.5251 70.0708 57.2785 69.8791 57.0594C69.6873 56.895 69.4134 56.7855 69.1395 56.8129C68.8382 56.8129 68.5642 56.9224 68.3725 57.1416C68.1807 57.3607 68.0986 57.662 68.0986 57.9634C68.0986 58.3195 68.1807 58.703 68.3725 59.0043C68.5916 59.3056 68.8382 59.5795 69.1121 59.8261L70.6461 61.1957C71.1666 61.6066 71.6048 62.1271 71.961 62.7023C72.3445 63.3324 72.5362 64.0446 72.5088 64.7842C72.5088 65.332 72.3992 65.8799 72.1253 66.3456C71.8514 66.8113 71.4953 67.1674 71.0296 67.4413C70.5365 67.6878 69.9887 67.8248 69.4134 67.8248Z" fill="white"/>
<path d="M74.7823 67.6604V56.9224H72.8101V55.2515H78.9734V56.9224H77.0286V67.6604H74.7823Z" fill="white"/>
<path d="M79.8774 67.6604V55.2515H82.1784V67.6604H79.8774Z" fill="white"/>
<path d="M84.9178 67.6604V56.9224H82.9456V55.2515H89.1363V56.9224H87.1914V67.6604H84.9178Z" fill="white"/>
<path d="M93.3823 67.8248C92.6426 67.8796 91.903 67.6878 91.2456 67.3317C90.7252 66.9756 90.369 66.4825 90.1773 65.8799C89.9581 65.1677 89.876 64.4007 89.876 63.6611V55.2515H92.0948V63.9076C92.0674 64.2637 92.0674 64.6472 92.0948 65.0033C92.0948 65.3046 92.2591 65.606 92.4509 65.8251C92.67 66.0442 92.9714 66.1812 93.3001 66.1538C93.6288 66.1812 93.9301 66.0716 94.1493 65.8251C94.341 65.606 94.478 65.3046 94.5054 65.0033C94.5328 64.6472 94.5328 64.2637 94.5054 63.9076V55.2515H96.6968V63.6611C96.6968 64.4007 96.6146 65.1677 96.4229 65.8799C96.2311 66.4825 95.875 66.9756 95.3545 67.3317C94.7519 67.6604 94.0671 67.8522 93.3823 67.8248Z" fill="white"/>
<path d="M99.5729 67.6604V56.9224H97.6006V55.2515H103.791V56.9224H101.846V67.6604H99.5729Z" fill="white"/>
<path d="M104.668 67.6604V55.2515H106.832V67.6604H104.668Z" fill="white"/>
<path d="M111.872 67.8247C111.133 67.8521 110.42 67.6877 109.79 67.3316C109.27 67.0029 108.886 66.5098 108.667 65.9346C108.448 65.2498 108.339 64.5102 108.339 63.7705V59.1686C108.339 58.4563 108.421 57.7167 108.667 57.0319C108.859 56.4567 109.27 55.9636 109.79 55.6623C110.42 55.3062 111.133 55.1418 111.872 55.1692C112.612 55.1418 113.352 55.3062 114.009 55.6623C114.502 55.991 114.913 56.4567 115.105 57.0319C115.351 57.7167 115.488 58.4289 115.461 59.1686V63.8253C115.461 64.5649 115.351 65.3045 115.105 65.9894C114.913 66.5646 114.529 67.0577 114.009 67.3864C113.352 67.7425 112.612 67.8795 111.872 67.8247ZM111.872 66.1537C112.174 66.1537 112.475 66.0989 112.721 65.9072C112.913 65.7154 113.023 65.4963 113.078 65.2498C113.105 64.9484 113.105 64.6197 113.078 64.3184V58.5933C113.105 58.292 113.105 57.9633 113.078 57.6619C113.023 57.4154 112.913 57.1963 112.721 57.0045C112.475 56.8402 112.174 56.758 111.872 56.7854C111.598 56.7854 111.297 56.8402 111.078 57.0045C110.886 57.1689 110.749 57.4154 110.694 57.6619C110.667 57.9633 110.667 58.292 110.694 58.5933V64.3184C110.667 64.6197 110.667 64.9484 110.694 65.2498C110.722 65.4963 110.859 65.7428 111.051 65.9072C111.297 66.0715 111.571 66.1811 111.872 66.1537Z" fill="white"/>
<path d="M116.831 67.6604V55.2515H118.392L121.405 62.3462V55.2515H123.268V67.6604H121.789L118.748 60.2644V67.6604H116.831Z" fill="white"/>
<path d="M127.979 67.8248C127.295 67.8796 126.61 67.7152 126.007 67.3865C125.487 67.1126 125.103 66.6469 124.857 66.1264C124.583 65.469 124.446 64.7568 124.446 64.0446L126.391 63.6611C126.391 64.0994 126.445 64.5376 126.555 64.9485C126.637 65.2499 126.802 65.5512 126.993 65.7977C127.212 65.9895 127.486 66.099 127.788 66.0717C128.089 66.0717 128.39 65.9621 128.582 65.7429C128.719 65.4964 128.801 65.2225 128.801 64.9212C128.801 64.4555 128.692 63.9898 128.445 63.5789C128.144 63.1954 127.815 62.8393 127.459 62.538L125.898 61.1683C125.487 60.8122 125.131 60.4013 124.857 59.9083C124.555 59.3878 124.418 58.7852 124.446 58.1825C124.364 57.3333 124.692 56.5115 125.322 55.9363C125.952 55.361 126.802 55.0597 127.651 55.1145C128.144 55.1145 128.637 55.1967 129.103 55.3884C129.459 55.5528 129.787 55.7993 130.034 56.128C130.28 56.4568 130.445 56.8403 130.554 57.2238C130.664 57.6347 130.719 58.0455 130.746 58.4838L128.829 58.8399C128.829 58.4838 128.774 58.1277 128.692 57.799C128.664 57.5251 128.527 57.2512 128.336 57.0594C128.144 56.895 127.87 56.7855 127.596 56.8129C127.295 56.8129 127.021 56.9224 126.829 57.1416C126.637 57.3881 126.555 57.662 126.555 57.9634C126.555 58.3195 126.637 58.6756 126.829 59.0043C127.048 59.3056 127.295 59.5795 127.569 59.8261L129.13 61.1957C129.623 61.634 130.061 62.1271 130.417 62.7023C130.801 63.3324 130.993 64.0446 130.965 64.7842C130.993 65.332 130.856 65.8799 130.582 66.3456C130.335 66.8113 129.952 67.1948 129.486 67.4413C129.02 67.6878 128.5 67.8248 127.979 67.8248Z" fill="white"/>
<path d="M112.996 75.4399C112.064 76.6726 111.626 78.234 111.818 79.768C112.311 81.2472 113.379 82.4525 114.749 83.1921C115.68 81.9594 116.091 80.398 115.927 78.864C115.434 77.3848 114.365 76.1795 112.996 75.4399Z" fill="white"/>
<path d="M110.284 88.0132C112.092 86.0683 112.009 83.0277 110.065 81.1924C109.626 80.7815 109.106 80.4528 108.531 80.2336C107.599 81.4663 107.161 83.0277 107.353 84.5891C107.873 86.0683 108.914 87.2736 110.284 88.0132Z" fill="white"/>
<path d="M117.104 85.6573C118.118 86.6435 119.46 87.2187 120.857 87.2461C122.254 86.9448 123.487 86.1504 124.309 84.9999C123.323 84.0138 121.98 83.4385 120.583 83.4111C119.186 83.7125 117.954 84.5068 117.104 85.6573Z" fill="white"/>
<path d="M119.981 76.207C118.94 77.4944 118.447 79.138 118.584 80.7816C120.2 80.9185 121.816 80.3981 123.076 79.3845C124.09 78.0971 124.583 76.4535 124.446 74.8099C122.83 74.673 121.241 75.1934 119.981 76.207Z" fill="white"/>
<path d="M116.392 92.2043C117.817 92.2043 119.186 91.6839 120.255 90.7251C119.488 89.5472 118.282 88.7254 116.913 88.3967C115.488 88.3967 114.119 88.9172 113.05 89.8759C113.817 91.0538 115.023 91.8756 116.392 92.2043Z" fill="white"/>
<path d="M118.173 124.144H103.326C102.175 124.007 101.134 124.829 100.997 126.007C100.86 127.158 101.682 128.198 102.86 128.335C103.024 128.335 103.189 128.335 103.353 128.335H118.2C119.351 128.198 120.2 127.158 120.063 126.007C119.953 125.021 119.186 124.254 118.2 124.144" fill="white"/>
<path d="M118.173 147.291H103.326C102.175 147.154 101.134 147.976 100.997 149.154C100.86 150.304 101.682 151.345 102.86 151.482C103.024 151.482 103.189 151.482 103.353 151.482H118.2C119.351 151.345 120.2 150.304 120.063 149.154C119.953 148.168 119.186 147.401 118.2 147.291" fill="white"/>
<path d="M117.625 129.787H103.928C103.271 129.787 102.75 130.335 102.75 130.993V135.156L93.7656 136.142L80.6445 135.841V127.842C82.3976 127.623 84.1507 127.267 85.8491 126.774C98.5046 123.213 101.244 115.351 100.97 108.12C100.696 100.888 103.052 97.9021 106.449 96.6146C107.352 96.2859 108.256 96.0393 109.188 95.875C109.27 98.0664 109.681 100.23 110.393 102.285H111.297C110.557 100.203 110.119 98.039 110.064 95.8202C111.051 95.7106 112.064 95.7106 113.05 95.8202C112.091 95.2176 111.16 94.5601 110.311 93.7931C111.023 90.7251 112.694 87.9858 115.105 85.9862C116.365 84.7809 117.46 83.466 118.447 82.0416L117.707 81.5759C116.748 82.9456 115.653 84.2056 114.447 85.3561C112.064 87.3832 110.366 90.0951 109.544 93.1357C108.886 92.5331 108.147 91.7935 107.38 90.9717C104.284 87.4654 100.258 90.0403 94.5326 95.3545C88.8075 100.669 81.6306 100.833 74.5906 93.6836C65.3319 84.1782 57.251 84.233 51.6902 84.7809C55.4978 86.3971 56.8127 89.9307 58.7302 98.943C60.7573 108.394 65.8249 112.639 72.7553 113.269C69.5504 113.79 68.7286 114.228 63.5513 117.817C59.8807 119.816 55.5526 120.309 51.5259 119.186C55.7444 120.529 60.7572 124.966 65.2223 126.5C67.8794 127.404 70.6461 127.979 73.4401 128.171V135.841L48.54 135.321V140.662L93.8478 139.649L102.833 140.662V144.826C102.833 145.483 103.353 146.004 104.011 146.004H117.707C118.364 146.004 118.885 145.483 118.912 144.826V131.13C118.994 130.472 118.529 129.87 117.844 129.787C117.762 129.787 117.68 129.787 117.625 129.787ZM75.4398 128.116C76.426 128.171 77.4121 128.171 78.3982 128.116V135.869H75.4398V128.116Z" fill="white"/>
<path d="M47.0883 139.621C47.1704 140.662 46.376 141.566 45.3351 141.648H44.2942C43.2533 141.566 42.4589 140.662 42.5137 139.621V135.868C42.4315 134.8 43.2259 133.896 44.2942 133.814H45.3351C46.376 133.896 47.1704 134.8 47.0883 135.841C47.0883 135.841 47.0883 135.841 47.0883 135.868V139.621Z" fill="white"/>
</g>
<defs>
<clipPath id="clip0_137_4828">
<rect width="170" height="170" fill="white"/>
</clipPath>
</defs>
</svg>
