<svg width="170" height="170" viewBox="0 0 170 170" fill="none" xmlns="http://www.w3.org/2000/svg">
<g clip-path="url(#clip0_137_4834)">
<path d="M170 0H0V170H170V0Z" fill="#EEEDEE"/>
<path d="M39.4833 140.176C38.0605 141.79 36.1999 142.994 34.1477 143.678C31.7125 144.526 29.1405 144.937 26.5411 144.909C23.8596 144.964 21.2055 144.307 18.8524 142.994C16.6087 141.681 14.8302 139.738 13.7357 137.385C12.477 134.703 11.8477 131.776 11.8751 128.82V126.577C11.793 123.567 12.395 120.584 13.5989 117.821C14.6386 115.495 16.3624 113.552 18.524 112.212C20.7951 110.871 23.4218 110.187 26.0486 110.242C29.4141 110.023 32.7523 111.008 35.4337 113.033C37.8142 115.167 39.2644 118.177 39.456 121.378H32.6428C32.4787 119.764 31.7672 118.286 30.5907 117.164C29.3594 116.179 27.7998 115.687 26.2128 115.769C24.0785 115.659 22.0264 116.672 20.7951 118.423C19.3996 120.831 18.7703 123.567 18.9345 126.33V128.492C18.7429 131.31 19.4543 134.129 20.9593 136.537C22.3547 138.37 24.571 139.382 26.8694 139.245C29.4962 139.245 31.3568 138.698 32.4787 137.576V131.803H26.1307V126.659H39.4286V140.148L39.4833 140.176Z" fill="#009FDB"/>
<path d="M96.9983 137.494H84.7948L82.4691 144.499H75.054L87.6678 110.707H94.1253L106.739 144.499H99.324L96.9709 137.494H96.9983ZM86.6828 131.885H95.0829L90.8692 119.271L86.6554 131.885H86.6828Z" fill="#009FDB"/>
<path d="M115.823 138.862H130.599V144.472H108.846V110.652H115.851L115.796 138.862H115.823Z" fill="#009FDB"/>
<path d="M151.093 135.606C151.148 134.43 150.628 133.28 149.697 132.569C148.138 131.584 146.469 130.818 144.69 130.353C142.72 129.751 140.805 128.985 138.944 128.027C135.114 125.947 133.171 123.157 133.171 119.627C133.171 117.876 133.691 116.152 134.703 114.729C135.852 113.224 137.385 112.048 139.136 111.391C141.188 110.57 143.404 110.16 145.621 110.187C147.837 110.132 150.053 110.597 152.078 111.5C153.884 112.294 155.389 113.58 156.483 115.194C157.55 116.809 158.098 118.697 158.043 120.612H151.038C151.12 119.271 150.6 117.93 149.643 117C148.494 116.07 147.016 115.605 145.538 115.714C144.143 115.632 142.748 116.015 141.571 116.781C140.668 117.438 140.148 118.478 140.175 119.572C140.175 120.749 140.805 121.816 141.817 122.363C143.349 123.293 144.991 124.005 146.715 124.443C149.916 125.236 152.871 126.741 155.361 128.875C157.167 130.599 158.152 132.979 158.07 135.469C158.18 138.178 156.921 140.75 154.759 142.365C152.133 144.143 148.986 145.019 145.839 144.855C143.404 144.882 140.969 144.417 138.725 143.459C136.755 142.638 135.059 141.298 133.855 139.546C132.733 137.85 132.131 135.825 132.186 133.773H139.19C139.19 137.522 141.407 139.382 145.867 139.382C147.235 139.464 148.576 139.109 149.725 138.37C150.628 137.713 151.12 136.646 151.066 135.552L151.093 135.606Z" fill="#009FDB"/>
<path d="M50.9206 123.02C51.3036 122.308 51.7688 121.652 52.316 121.05L47.2814 115.522C45.9954 116.754 44.9283 118.177 44.0801 119.736L50.9206 123.02Z" fill="#61BC58"/>
<path d="M63.2061 119.107C63.9722 119.463 64.6836 119.9 65.3129 120.42L70.3475 114.921C69.0068 113.771 67.5019 112.814 65.8875 112.13L63.2061 119.134V119.107Z" fill="#CA9B38"/>
<path d="M74.753 120.749L68.0493 124.087C68.3777 124.853 68.5966 125.619 68.7334 126.44L76.1758 125.728C75.9569 124.005 75.4918 122.308 74.753 120.721" fill="#C2293E"/>
<path d="M67.6113 123.156L74.315 119.818C73.4942 118.259 72.427 116.836 71.1684 115.604L66.1338 121.104C66.7084 121.706 67.2009 122.363 67.6113 123.102" fill="#32A154"/>
<path d="M49.5252 127.89V127.452L42.0554 126.768V127.89C42.0554 129.313 42.2196 130.708 42.5479 132.104L49.7441 130.052C49.58 129.34 49.4979 128.629 49.4979 127.918" fill="#477843"/>
<path d="M66.6538 134.019C66.1066 134.676 65.5046 135.251 64.8206 135.743L68.7607 142.118C70.2109 141.133 71.5242 139.902 72.6187 138.534L66.6538 134.019Z" fill="#FCB531"/>
<path d="M68.8427 127.89C68.8427 128.574 68.7606 129.286 68.6238 129.942L75.82 131.94C76.1483 130.599 76.3125 129.204 76.3125 127.808V126.768L68.87 127.48V127.835" fill="#F0503A"/>
<path d="M51.8236 134.156L45.8586 138.698C46.9531 140.066 48.2665 141.27 49.744 142.228L53.7115 135.852C53.0275 135.36 52.3982 134.813 51.8509 134.156" fill="#F99C37"/>
<path d="M49.6346 126.358C49.7714 125.537 50.0177 124.716 50.346 123.95L43.6697 120.612C42.9036 122.226 42.411 123.923 42.1921 125.701L49.662 126.358H49.6346Z" fill="#0E81BC"/>
<path d="M67.8577 142.693L63.9175 136.318C63.2061 136.728 62.44 137.029 61.6191 137.248L63.0146 144.636C64.711 144.225 66.3528 143.596 67.8577 142.693Z" fill="#8B173E"/>
<path d="M68.3503 131.01C68.0767 131.776 67.7483 132.487 67.3105 133.171L73.3575 137.686C74.3426 136.263 75.1087 134.731 75.6286 133.089L68.3777 131.01H68.3503Z" fill="#00B1D7"/>
<path d="M60.5795 137.467C60.1144 137.522 59.6492 137.549 59.184 137.576C58.801 137.576 58.4453 137.576 58.0622 137.494L56.6667 144.855C58.4179 145.128 60.2238 145.128 61.975 144.855L60.6069 137.467H60.5795Z" fill="#F47635"/>
<path d="M59.8133 118.259C60.6341 118.313 61.4276 118.478 62.1937 118.724L64.8752 111.719C63.2335 111.145 61.5371 110.816 59.7859 110.761V118.259H59.8133Z" fill="#EE323C"/>
<path d="M56.9949 137.33C56.1741 137.138 55.3806 136.837 54.6144 136.427L50.6743 142.802C52.2066 143.678 53.8757 144.335 55.5995 144.69L56.9949 137.33Z" fill="#E22B90"/>
<path d="M56.2835 118.669C57.077 118.423 57.8979 118.286 58.7188 118.231V110.734C56.9676 110.789 55.2438 111.09 53.5747 111.664L56.2835 118.642V118.669Z" fill="#193D6C"/>
<path d="M51.1669 133.363C50.7018 132.651 50.3187 131.885 50.0177 131.064L42.8215 133.116C43.3688 134.813 44.1623 136.427 45.202 137.877L51.1669 133.335V133.363Z" fill="#C88937"/>
<path d="M53.1916 120.311C53.8209 119.818 54.5323 119.381 55.2711 119.052L52.5623 112.048C50.9479 112.732 49.443 113.635 48.1296 114.784L53.219 120.311H53.1916Z" fill="#005D8F"/>
<path d="M20.6035 81.019C20.6035 80.5265 20.4119 80.0339 20.0015 79.733C19.3722 79.2952 18.6881 78.9942 17.9767 78.7753C17.1558 78.5017 16.3623 78.2007 15.5688 77.8176C13.8177 77.2157 12.6138 75.6013 12.5317 73.7407C12.5317 72.9198 12.7779 72.1263 13.2978 71.4696C13.845 70.7856 14.5838 70.2384 15.432 69.9647C16.3897 69.5817 17.4295 69.3901 18.4692 69.3901C19.509 69.3901 20.5487 69.5817 21.5064 69.9921C22.3546 70.3478 23.066 70.9498 23.5585 71.6885C24.0511 72.4273 24.2973 73.3029 24.2973 74.2058H20.6035C20.6582 73.6312 20.4393 73.084 20.0289 72.7009C19.5911 72.3452 19.0712 72.1537 18.5239 72.1811C17.9767 72.1811 17.4568 72.3179 17.019 72.6189C16.636 72.8651 16.4444 73.3029 16.4444 73.7407C16.4444 74.1785 16.718 74.5889 17.0738 74.8078C17.7578 75.273 18.5239 75.6013 19.3174 75.8202C20.193 76.1485 21.0412 76.559 21.8347 77.0515C23.367 77.7903 24.3247 79.3499 24.352 81.0463C24.4068 82.305 23.8322 83.5089 22.8471 84.2477C21.6158 85.0959 20.1383 85.5063 18.6334 85.4243C17.4568 85.4243 16.2803 85.2054 15.2131 84.7402C14.2828 84.3571 13.462 83.7278 12.9147 82.8796C12.3949 82.0587 12.1212 81.1284 12.1486 80.1708H15.9246C15.8698 80.8548 16.0887 81.5115 16.5539 82.004C17.1558 82.4692 17.922 82.6607 18.6608 82.606C19.208 82.6607 19.7279 82.5239 20.1657 82.2229C20.5214 81.9219 20.7129 81.4841 20.6582 81.019H20.6035Z" fill="#009FDB"/>
<path d="M38.6625 69.6091V79.7878C38.6898 80.8549 38.4436 81.8947 37.9237 82.825C37.4312 83.6732 36.6924 84.3299 35.7895 84.7403C34.7771 85.2055 33.6552 85.4244 32.5334 85.397C30.919 85.4791 29.3047 84.9318 28.0734 83.8921C26.9516 82.8523 26.3496 81.3748 26.4043 79.8425V69.6091H30.1803V79.9246C30.1803 81.621 30.9738 82.4693 32.5608 82.4693C33.2174 82.524 33.8468 82.2777 34.3119 81.8399C34.7497 81.238 34.9686 80.4992 34.9139 79.7604V69.6091H38.6625Z" fill="#009FDB"/>
<path d="M49.224 81.019C49.224 80.5265 49.0325 80.0613 48.6494 79.733C48.0201 79.2952 47.336 78.9942 46.6246 78.7753C45.8038 78.5017 45.0103 78.2007 44.2168 77.8176C42.4656 77.2157 41.2617 75.6013 41.1796 73.7407C41.1796 72.9198 41.4258 72.1263 41.9457 71.4696C42.493 70.7856 43.2317 70.2384 44.08 69.9647C45.0376 69.5817 46.0774 69.3901 47.1171 69.3901C48.1569 69.3901 49.1966 69.5817 50.1543 69.9921C51.0025 70.3478 51.7139 70.9498 52.2065 71.6885C52.699 72.4273 52.9452 73.3029 52.9452 74.2058H49.224C49.2787 73.6312 49.0598 73.084 48.6494 72.7009C48.2116 72.3452 47.6917 72.1537 47.1445 72.1811C46.5972 72.1811 46.0774 72.3179 45.6396 72.6189C45.2565 72.8651 45.0376 73.3029 45.0376 73.7407C45.065 74.1785 45.3112 74.5889 45.6943 74.8078C46.3784 75.273 47.1445 75.6013 47.938 75.8202C48.8683 76.0938 49.7439 76.4769 50.5921 76.942C52.1244 77.6808 53.1094 79.2404 53.1094 80.9369C53.1641 82.1955 52.5895 83.3995 51.6045 84.1382C50.3732 84.9865 48.8683 85.3969 47.3907 85.3148C46.2142 85.3148 45.065 85.0959 43.9705 84.6308C43.0128 84.2751 42.192 83.6457 41.6174 82.7975C41.0975 81.9766 40.8239 81.0463 40.8512 80.0887H44.6272C44.5725 80.7727 44.7914 81.4294 45.2565 81.9219C45.8585 82.3597 46.5972 82.5786 47.3634 82.5239C47.9106 82.5786 48.4305 82.4418 48.8683 82.1408C49.1966 81.8672 49.3608 81.4294 49.3061 81.019H49.224Z" fill="#009FDB"/>
<path d="M67.3377 72.5095H62.6315V85.1508H58.9103V72.5095H54.3682V69.5818H67.3651V72.5095H67.3377Z" fill="#009FDB"/>
<path d="M76.6407 82.2504H71.524L70.6211 85.1507H66.6262L72.3449 69.6091H75.8746L81.6206 85.1507H77.5984L76.6954 82.2504H76.6407ZM72.427 79.35H75.7651L74.096 74.0418L72.427 79.35Z" fill="#009FDB"/>
<path d="M86.929 85.1507H83.2078V69.6091H86.929V85.1507Z" fill="#009FDB"/>
<path d="M102.717 85.1508H98.9956L93.4959 75.5467V85.2055H89.7747V69.5818H93.4959L98.9956 79.2406V69.5818H102.717V85.1234V85.1508Z" fill="#009FDB"/>
<path d="M114.4 82.2504H109.284L108.353 85.1507H104.358L110.05 69.6091H113.579L119.325 85.1507H115.303L114.428 82.2504H114.4ZM110.159 79.35H113.497L111.746 74.0418L110.159 79.35Z" fill="#009FDB"/>
<path d="M120.612 85.1506V69.609H126.193C127.78 69.4995 129.367 69.91 130.735 70.7035C131.748 71.4422 132.322 72.6462 132.24 73.8775C132.24 74.6162 132.076 75.3277 131.666 75.9296C131.283 76.5042 130.708 76.942 130.051 77.1883C130.79 77.3524 131.447 77.7629 131.912 78.3648C132.35 78.9942 132.569 79.7329 132.569 80.4991C132.651 81.8124 132.076 83.0985 131.064 83.9193C129.805 84.7675 128.3 85.178 126.795 85.0959H120.612V85.1506ZM124.333 76.0391H126.303C126.932 76.0938 127.534 75.9296 128.054 75.5739C128.437 75.2456 128.629 74.7804 128.574 74.2879C128.629 73.7407 128.41 73.2208 127.999 72.8651C127.452 72.5367 126.823 72.3726 126.166 72.4273H124.333V76.0117V76.0391ZM124.333 78.5016V82.2229H126.795C127.343 82.2229 127.862 82.0861 128.3 81.7577C128.656 81.4294 128.875 80.9369 128.82 80.4443C128.902 79.514 128.191 78.6658 127.261 78.5837C127.151 78.5837 127.042 78.5837 126.932 78.5837L124.305 78.5016H124.333Z" fill="#009FDB"/>
<path d="M138.67 82.2504H145.21V85.1234H134.949V69.5818H138.67V82.2504Z" fill="#009FDB"/>
<path d="M156.593 78.5839H150.71V82.2777H157.66V85.1508H147.043V69.5818H157.769V72.5095H150.792V75.793H156.675L156.593 78.5839Z" fill="#009FDB"/>
<path d="M11.9024 106.11V91.2251H16.6907C17.922 91.2251 19.1533 91.4987 20.2204 92.128C21.2602 92.7026 22.1357 93.5782 22.683 94.6453C23.2849 95.7672 23.5859 97.0258 23.5859 98.3119V98.9959C23.5859 100.282 23.3123 101.513 22.7103 102.662C22.1631 103.73 21.3149 104.605 20.2751 105.207C19.208 105.809 18.0041 106.137 16.7728 106.137H11.875L11.9024 106.11ZM15.4868 93.9887V103.346H16.7181C17.6484 103.401 18.524 102.991 19.0986 102.252C19.7005 101.267 20.0015 100.145 19.9194 98.9959V98.3392C20.0015 97.19 19.7005 96.0682 19.0986 95.0831C18.524 94.3444 17.621 93.9339 16.6907 93.9887H15.4868Z" fill="#009FDB"/>
<path d="M34.6675 99.8441H29.031V103.401H35.7073V106.165H25.4465V91.2798H35.7346V94.0433H29.0583V97.19H34.6949V99.8441H34.6675Z" fill="#009FDB"/>
<path d="M43.8339 102.06L46.8711 91.2524H50.8659L45.8861 106.137H41.9459L36.9934 91.2524H40.9609L43.8339 102.06Z" fill="#009FDB"/>
<path d="M61.1265 99.8441H55.4899V103.401H62.1662V106.165H51.9329V91.2798H62.221V94.0433H55.5173V97.19H61.1539V99.8441H61.1265Z" fill="#009FDB"/>
<path d="M67.2009 103.346H73.4121V106.11H63.5891V91.2251H67.1735V103.346H67.2009Z" fill="#009FDB"/>
<path d="M86.4637 98.9958C86.4911 100.337 86.2174 101.65 85.6702 102.854C85.1777 103.921 84.3842 104.824 83.3718 105.426C82.3594 106.028 81.1828 106.356 79.9789 106.329C78.8023 106.329 77.6258 106.055 76.6134 105.453C75.6283 104.851 74.8075 104.003 74.315 102.936C73.713 101.787 73.412 100.501 73.412 99.2147V98.3118C73.3847 96.971 73.6583 95.6577 74.2055 94.4537C74.698 93.3866 75.4915 92.4837 76.5039 91.8817C78.6108 90.6778 81.1828 90.6778 83.2897 91.8817C84.2747 92.511 85.0956 93.3866 85.5881 94.4537C86.1901 95.6577 86.4637 96.971 86.4637 98.3118V98.9684V98.9958ZM82.8245 98.3118C82.9066 97.1352 82.633 95.986 82.0858 94.9462C81.648 94.2075 80.8271 93.7697 79.9789 93.797C78.173 93.797 77.2153 95.1378 77.1333 97.8466V98.9411C77.0785 100.118 77.3248 101.267 77.872 102.307C78.3098 103.073 79.158 103.511 80.0336 103.483C80.8818 103.511 81.7027 103.073 82.1405 102.334C82.6877 101.322 82.9614 100.172 82.8793 99.0232V98.3391L82.8245 98.3118Z" fill="#009FDB"/>
<path d="M91.9089 101.075V106.137H88.3245V91.2524H94.262C95.3018 91.2524 96.3415 91.444 97.2992 91.8818C98.1201 92.2648 98.8315 92.8942 99.324 93.6603C99.7891 94.4538 100.035 95.3567 100.035 96.287C100.09 97.6278 99.5429 98.9138 98.5305 99.7894C97.2992 100.72 95.7943 101.157 94.262 101.075H91.9089ZM91.9089 98.3118H94.262C94.8093 98.3118 95.3565 98.1477 95.7669 97.792C96.15 97.3815 96.3689 96.8343 96.3142 96.287C96.3415 95.6851 96.15 95.0831 95.7396 94.618C95.3565 94.2075 94.7819 93.9613 94.2346 93.9886H91.8542L91.9089 98.3392V98.3118Z" fill="#009FDB"/>
<path d="M106.411 91.2524L109.721 101.595L113.032 91.2524H117.766V106.137H114.181V102.662L114.537 95.5483L110.953 106.165H108.572L104.96 95.5483L105.316 102.662V106.137H101.732V91.2524H106.465H106.411Z" fill="#009FDB"/>
<path d="M128.929 99.8441H123.293V103.401H129.969V106.165H119.736V91.2798H130.024V94.0433H123.32V97.19H128.957V99.8441H128.929Z" fill="#009FDB"/>
<path d="M143.732 106.11H140.203L134.894 96.7794V106.028H131.31V91.1428H134.894L140.148 100.391V91.1428H143.732V106.082V106.11Z" fill="#009FDB"/>
<path d="M157.578 94.016H153.036V106.165H149.451V94.016H145.073V91.2524H157.523L157.605 94.016H157.578Z" fill="#009FDB"/>
<path d="M99.5154 62.2486C98.6398 63.1515 97.5727 63.7808 96.3961 64.1366C95.6026 64.3554 94.7544 64.4102 93.9336 64.3007C92.6749 64.1366 91.4436 63.6714 90.4039 62.9326L88.5159 61.7287C87.8045 61.2635 86.9562 61.0994 86.1354 61.2909C85.6702 61.2909 86.0259 61.5372 86.1354 61.5919C87.2846 62.1391 88.3517 62.8232 89.3641 63.5893C90.0208 64.1092 90.6501 64.6564 91.2521 65.2584L90.3491 66.0245C90.3491 66.0245 89.6377 65.2584 89.3367 64.9574C88.1055 63.6714 86.71 62.5769 85.1504 61.7287C85.0956 61.674 85.0136 61.6466 84.9315 61.6466C84.8494 61.6466 84.7947 61.674 84.7399 61.7287C83.2077 62.5769 81.7848 63.6714 80.5809 64.9574C80.2799 65.2584 79.5685 66.0245 79.5685 66.0245L78.6656 65.2584C79.2675 64.6564 79.8969 64.1092 80.5535 63.5893C81.5386 62.8232 82.6331 62.1391 83.7549 61.5919C83.7549 61.5919 84.1927 61.3456 83.7549 61.2909C82.934 61.0994 82.0585 61.2635 81.3744 61.7287L79.4591 63.0147C78.4193 63.7535 77.2154 64.2186 75.9567 64.3828C75.1359 64.4923 74.2877 64.4375 73.4668 64.2186C72.2629 63.8629 71.1958 63.2336 70.3202 62.358L70.5117 62.4401C71.7977 63.0694 73.2753 63.261 74.6981 62.9326C75.6831 62.7137 76.6134 62.3854 77.5164 61.9476C78.1731 61.674 78.8297 61.3456 79.4864 61.1541C81.2102 60.6069 83.0435 60.5521 84.7947 61.0446H84.9862C86.7374 60.5795 88.5706 60.6069 90.2944 61.1541C90.9785 61.373 91.6078 61.674 92.2918 61.9476C93.1948 62.3854 94.1251 62.7137 95.1101 62.9326C96.5329 63.261 98.0105 63.0968 99.2965 62.4401L99.5428 62.2486H99.5154ZM103.702 58.4179C103.127 58.8831 102.498 59.2114 101.814 59.4303C100.829 59.7313 99.8164 59.8681 98.7766 59.8681C97.4632 59.9502 96.2046 60.0049 94.9186 60.1964C94.9186 60.1964 94.8091 60.1964 94.8365 60.1964C95.9583 59.7313 96.8613 58.8831 97.3812 57.7612C97.7916 56.9677 98.4483 55.4628 98.6398 55.2165C98.6398 55.2165 97.2991 56.311 96.7245 56.8583C96.1499 57.4055 95.329 58.2264 94.6176 58.8831C93.6599 59.7039 92.5381 60.3059 91.3068 60.5795C91.772 60.6889 93.058 60.9626 93.742 61.1541C94.7544 61.4551 95.8215 61.6466 96.8613 61.7287C98.0105 61.8108 99.1597 61.674 100.254 61.2909C101.704 60.7163 102.936 59.7313 103.839 58.4726C103.839 58.4726 103.784 58.4179 103.757 58.4179H103.702ZM107.642 52.3709C106.985 53.137 106.219 53.7937 105.371 54.341C104.632 54.8335 103.866 55.2439 103.072 55.5996C102.06 56.0374 101.102 56.5846 100.227 57.2687L100.063 57.3781C101.048 56.1742 101.65 54.6967 101.814 53.137C101.869 52.1246 102.033 51.0849 102.279 50.0999M102.252 50.0178C101.321 51.1943 100.61 52.5077 100.117 53.9032C99.8711 54.6693 99.5975 55.4081 99.3239 56.1742C98.9955 57.214 98.4483 58.1716 97.6821 58.9651V59.0472H97.9284C98.804 58.8557 99.6796 58.6642 100.583 58.5273C102.033 58.3084 103.373 57.7338 104.55 56.8309C105.754 55.9553 106.739 54.8061 107.396 53.4654C107.587 53.1097 107.724 52.754 107.833 52.3709L102.252 50.0178ZM109.366 45.5851C108.955 46.8164 108.244 47.9109 107.314 48.8138C106.219 49.881 105.207 51.0028 104.276 52.2067C104.632 50.9754 104.742 49.6621 104.55 48.3761C104.386 47.3089 103.921 46.105 103.784 44.7916V44.9011C103.51 45.7493 103.319 46.6249 103.237 47.5278C103.237 48.5949 103.373 49.9904 103.237 51.0849C103.237 52.3709 102.963 53.6296 102.47 54.8061V54.8882C102.936 54.5872 104.276 53.7937 105.152 53.1918C106.274 52.4803 107.231 51.55 107.998 50.4829C108.983 49.1148 109.53 47.4457 109.503 45.7493V45.5851L109.338 45.5304L109.366 45.5851ZM106.52 46.3239C106.547 45.9682 106.547 45.5851 106.52 45.2294C106.301 43.9981 105.781 42.8489 105.015 41.8639C104.55 41.1798 104.167 40.4411 103.811 39.7023V40.4411C104.057 42.247 104.523 44.0529 105.179 45.7493C105.59 46.8164 105.754 47.9656 105.644 49.1148V49.2516C106.055 48.677 106.848 47.8288 107.341 47.2542C109.311 45.12 110.022 42.1102 109.229 39.3192C109.174 39.1277 109.092 38.9635 109.01 38.7994C109.01 41.8365 107.505 43.1773 106.931 45.2568C106.684 45.7219 106.602 46.0776 106.52 46.406V46.3513V46.3239ZM104.194 36.8293C103.592 36.2821 103.045 35.6801 102.58 35.0234H102.443C102.443 35.0234 102.908 36.5283 103.155 37.1303C103.592 38.0059 104.14 38.8267 104.769 39.5655C104.796 39.6202 104.851 39.6749 104.878 39.7297C105.617 40.7694 106.219 41.8913 106.657 43.0952C106.657 42.7942 107.122 41.5903 107.396 40.7694C107.669 39.9486 107.888 39.1003 108.052 38.2521C108.326 36.1179 107.779 33.9289 106.547 32.1778V32.3693C106.547 32.3693 106.547 32.5335 106.547 32.6155C106.766 33.71 106.766 34.8592 106.547 35.9537C106.383 36.8293 106.301 37.7322 106.301 38.6352C106.301 38.7994 106.411 39.8665 106.383 39.9212C106.383 39.9212 106.219 39.5108 106.082 39.1824L105.918 38.7994C105.48 38.0332 104.878 37.3765 104.167 36.8293V36.7746L104.194 36.8293ZM102.908 28.6754C103.291 29.0311 103.565 29.4689 103.784 29.9341C104.057 30.837 104.276 31.7673 104.413 32.6976C104.523 33.2175 104.605 33.6006 104.796 34.2025C104.14 33.3817 103.291 32.6976 102.361 32.2051C101.786 31.8221 101.267 31.3295 100.856 30.7823L100.61 30.454C100.61 30.454 100.61 30.536 100.61 30.5908C100.829 31.6032 101.294 32.5335 101.978 33.2996C102.553 33.8468 103.182 34.312 103.811 34.8045C104.577 35.4612 105.289 36.2273 105.945 37.0208V33.409C105.945 32.6976 105.781 31.9862 105.48 31.3569C105.015 30.2351 104.194 29.3321 103.1 28.7575L102.881 28.6754C102.881 28.6754 102.881 28.7301 102.881 28.7575V28.6481L102.908 28.6754ZM98.2841 26.5412C98.9134 27.1158 99.4607 27.7998 99.9258 28.5113C100.336 29.2227 100.856 29.852 101.431 30.4266C101.869 30.8644 103.072 31.7947 103.373 32.0409C103.1 30.454 102.306 28.9764 101.13 27.8546C100.227 27.1158 99.1597 26.5959 98.0105 26.3497L98.2567 26.5412H98.2841ZM73.0016 61.7287C74.0688 61.6466 75.1085 61.4551 76.1483 61.1541C76.805 60.9626 78.1183 60.6889 78.5561 60.5795C77.3248 60.2785 76.203 59.7039 75.2727 58.8831C74.5339 58.2264 73.8772 57.515 73.1658 56.8583C72.5365 56.2837 71.9072 55.7364 71.2231 55.2165C71.4146 55.4628 72.0713 56.9677 72.4818 57.7612C72.9743 58.8557 73.8772 59.7313 74.9991 60.1964H74.917C73.631 60.0049 72.3723 59.9502 71.0589 59.8681C70.0192 59.8681 69.0068 59.7039 68.0218 59.4303C67.3377 59.2114 66.7084 58.8831 66.1338 58.4179C66.1064 58.4179 66.0791 58.4179 66.0517 58.4179C66.9546 59.6765 68.1859 60.6616 69.6361 61.2362C70.7306 61.6466 71.8798 61.8108 73.029 61.7287H73.0016ZM71.9892 59.0746H72.2355V58.9925C71.4694 58.199 70.8948 57.2413 70.5391 56.1742C70.2654 55.4354 70.0192 54.6693 69.7456 53.9032C69.253 52.5077 68.5143 51.1943 67.6113 50.0178C67.6113 50.0178 67.6113 50.0725 67.6113 50.0999C67.8849 51.0849 68.0218 52.0973 68.1038 53.137C68.2407 54.6967 68.87 56.1742 69.855 57.3781L69.6908 57.2687C68.7879 56.612 67.7755 56.0648 66.7357 55.6543C65.9422 55.2986 65.1761 54.8608 64.4647 54.3683C63.6165 53.8211 62.8503 53.1644 62.1937 52.3983C62.3031 52.7813 62.4399 53.137 62.6314 53.4927C63.3155 54.8335 64.2732 55.9827 65.4771 56.8583C66.6263 57.7612 67.9944 58.3358 69.4446 58.5547C70.2107 58.7189 71.0863 58.8831 71.9619 59.0746H71.9892ZM64.7383 53.2465C65.6139 53.8484 66.9546 54.6146 67.4198 54.9429V54.8608C66.9273 53.6843 66.6537 52.4256 66.6537 51.1396C66.6537 50.0451 66.7631 48.6497 66.6537 47.5826C66.5716 46.6796 66.38 45.804 66.1064 44.9558C66.1064 44.9284 66.1064 44.8737 66.1064 44.8464C65.997 46.1597 65.5045 47.3637 65.3403 48.4308C65.1487 49.7168 65.2308 51.0302 65.6139 52.2615C64.6836 51.0575 63.6712 49.9083 62.5767 48.8686C61.6464 47.9656 60.935 46.8711 60.5246 45.6399V45.804C60.5246 47.5005 61.0718 49.1422 62.0295 50.5376C62.7409 51.6048 63.6712 52.5351 64.711 53.2738L64.7383 53.2465ZM64.2732 49.2516V49.1148C64.1637 47.9656 64.3279 46.8164 64.7383 45.7493C65.395 44.0529 65.8602 42.247 66.1064 40.4411V39.7023C65.7507 40.4684 65.3403 41.1798 64.9025 41.8639C64.1364 42.8489 63.6165 43.9981 63.3976 45.2294C63.3702 45.5851 63.3702 45.9682 63.3976 46.3239C63.3976 45.9956 63.2334 45.6399 63.0966 45.2568C62.4673 43.1499 60.9897 41.8639 61.0171 38.7994C60.935 38.9635 60.8529 39.1551 60.7982 39.3192C60.0047 42.1102 60.7161 45.12 62.6862 47.2542C63.0692 47.8015 63.8627 48.6223 64.2732 49.2243V49.2516ZM62.3578 40.7968C62.6588 41.6176 63.0145 42.8216 63.0966 43.1226C63.5344 41.9186 64.109 40.7968 64.8751 39.757L64.9846 39.5929C65.6139 38.8541 66.1611 38.0332 66.5989 37.1576C66.8726 36.5283 67.3103 35.1876 67.3377 35.0508H67.2009C66.7357 35.7075 66.1885 36.3368 65.5865 36.8567C64.8204 37.4039 64.2184 38.1427 63.7806 38.9909L63.6165 39.374C63.4797 39.7023 63.3155 40.1127 63.3155 40.1127C63.3155 40.1127 63.3155 38.9635 63.3976 38.8267C63.3976 37.9238 63.3155 37.0482 63.1513 36.1452C62.9324 35.0508 62.9324 33.9016 63.1513 32.8071C63.1513 32.725 63.2061 32.6429 63.2334 32.5608V32.3693C61.9748 34.1205 61.4549 36.3094 61.7285 38.4437C61.8927 39.2371 62.1116 40.0306 62.3852 40.8241L62.3578 40.7968ZM64.0269 36.3641V37.0756C64.6562 36.2821 65.3676 35.5433 66.1611 34.8592C66.7631 34.3667 67.3924 33.8742 67.967 33.3543C68.6784 32.5882 69.1436 31.6579 69.3625 30.6455C69.3625 30.5908 69.3625 30.5634 69.3625 30.5087L69.1436 30.837C68.7058 31.4116 68.1586 31.8768 67.5566 32.2598C66.6263 32.7524 65.8054 33.4364 65.1487 34.2573C65.3403 33.6553 65.395 33.2996 65.5318 32.7524C65.6413 31.8221 65.8054 30.9191 66.0517 30.0162C66.2432 29.551 66.5442 29.1132 66.9273 28.7575C66.9273 28.7575 66.9273 28.7028 66.9273 28.6754L66.7084 28.7575C65.6413 29.3321 64.8204 30.2898 64.3826 31.439C64.109 32.123 63.9722 32.8618 63.9995 33.6006V34.3394C64.0543 34.8592 64.0816 35.7622 64.0816 36.4189L64.0269 36.3641ZM66.3527 32.123C66.6537 31.9041 67.8576 30.9465 68.2954 30.5087C68.87 29.9341 69.3899 29.2774 69.8003 28.5933C70.2654 27.8819 70.8127 27.1979 71.442 26.6233L71.5788 26.5138C70.4296 26.7874 69.3625 27.3073 68.4596 28.0187C67.283 29.1406 66.5169 30.6181 66.2159 32.2051L66.3253 32.123H66.3527ZM84.4663 46.105C84.6031 45.9135 84.2748 45.804 84.1927 46.105C84.1106 46.406 84.3569 46.2965 84.4663 46.105ZM87.9139 38.17C87.9139 38.17 87.2846 38.7173 87.3667 38.8267C87.5856 38.6352 87.7771 38.4163 87.9139 38.17ZM88.0234 38.0879C88.0234 38.0879 88.4338 37.9238 88.3791 37.8964C88.3243 37.8691 87.9139 37.6775 87.9139 37.787C87.9139 37.8964 87.9413 38.0606 88.0234 38.1153V38.0879ZM94.0704 43.3688C93.9062 43.3688 93.742 43.5877 93.7967 43.5877C93.8515 43.5877 93.9883 43.6698 94.0977 43.6698C94.2072 43.6698 94.2072 43.3414 94.043 43.3688H94.0704ZM91.8267 37.6775C91.8267 37.6775 91.6625 37.8417 91.8267 37.8964C91.9361 37.9511 92.0456 37.9511 92.155 37.8964C92.2371 37.8964 92.3466 37.787 92.3466 37.6502C92.3466 37.5133 92.1277 37.3218 92.2371 37.2397C92.3466 37.1576 92.456 37.2397 92.5655 37.2397C92.6749 37.2397 92.6749 37.1303 92.6749 37.0208C92.6749 36.9114 92.6749 36.6651 92.4286 36.6651C92.1824 36.6651 92.0729 37.0208 92.0456 37.0482C92.0182 37.1576 92.0182 37.2671 92.0456 37.3492C92.155 37.5133 92.1277 37.7049 91.8267 37.7049V37.6775ZM94.8639 37.6775C94.8639 37.6775 95.0828 38.3342 95.1101 38.471C95.1375 38.6078 95.1101 39.1003 95.3017 39.0456C95.4932 38.9909 95.3017 38.7173 95.3017 38.6078C95.2469 38.2795 95.1922 37.9511 95.0828 37.6228C95.0828 37.4313 94.7271 36.7746 94.645 36.8293C94.5629 36.884 94.7818 37.2944 94.8365 37.4313C94.8912 37.5681 94.8639 37.5954 94.8639 37.6775ZM93.3316 29.9888C93.4958 29.9888 93.4958 29.7699 93.2495 29.5784C93.0033 29.3868 92.6749 29.4689 92.757 29.5784C92.9485 29.7425 93.1401 29.8794 93.359 30.0162L93.3316 29.9888ZM86.5732 28.0735C86.2722 27.8819 86.5732 27.6083 86.2996 27.4441C86.0533 27.362 85.7523 27.4168 85.5608 27.6083C85.3693 27.8546 85.807 27.7725 85.9986 27.8546C86.1901 27.9367 86.5732 28.2924 86.6553 28.2103C86.7374 28.1282 86.5732 28.1555 86.5185 28.1282H86.6005L86.5732 28.0735ZM88.3791 27.1705C87.996 26.979 86.4911 27.0063 86.5185 27.3894C86.5458 27.7725 87.394 27.3894 87.5856 27.3894C87.7771 27.3894 88.6253 27.3894 88.297 27.1979H88.3791V27.1705ZM84.0285 44.518C84.0285 44.518 83.8643 44.518 83.9191 44.518C83.9738 44.518 83.9191 44.6548 83.9191 44.7369C84.0285 44.819 84.1927 44.819 84.2748 44.7369C84.3295 44.6822 84.3295 44.6001 84.2748 44.5454C84.2748 44.5454 83.9738 44.6275 83.9464 44.5454H84.0285V44.518ZM83.4539 41.5629C83.4539 41.5629 83.5634 41.4808 83.6454 41.4808C83.7275 41.4808 83.6455 41.5629 83.7823 41.5629C83.9191 41.5629 84.0285 41.2346 83.6454 41.2346C83.2624 41.2346 83.2897 41.5629 83.3992 41.5903H83.4813L83.4539 41.5629ZM83.9738 41.8913C83.7275 41.8913 83.7823 41.9733 83.6181 42.0007C83.4539 42.0281 83.6181 41.8092 83.4539 41.6997C83.2897 41.5903 83.2624 41.8639 83.235 42.0007C83.2077 42.1375 83.235 42.3017 83.3171 42.3017C83.3992 42.3017 83.9738 42.3838 84.1653 42.4111C84.3569 42.4385 84.0832 42.0007 83.8643 41.9186H83.9464L83.9738 41.8913ZM81.2102 44.9284C81.2102 44.9284 81.347 44.6822 81.2923 44.5454C81.2376 44.4086 80.9913 44.5454 80.964 44.5454C80.9366 44.5454 81.0461 44.9011 81.1829 44.9011L81.2102 44.9284ZM77.5985 44.9284V44.4086C77.5985 44.4086 77.5984 44.4086 77.4616 44.4086C77.3248 44.4086 77.4616 44.2444 77.3796 44.2444C77.2975 44.2444 77.3796 44.518 77.3796 44.6822C77.3796 44.8464 77.5164 45.0653 77.5437 44.9011L77.6258 44.9558L77.5985 44.9284ZM77.489 44.0802C77.5711 43.8066 77.6258 43.533 77.6258 43.2594C77.6258 43.0405 77.489 42.8216 77.4616 42.8489C77.4343 42.8763 77.4616 43.0131 77.4616 43.2046C77.4616 43.4235 77.4069 43.6698 77.3248 43.8887C77.2701 43.9434 77.3522 44.1349 77.4069 44.0255L77.489 44.0802ZM67.7755 42.0007C67.7755 32.5335 75.4916 24.8995 84.9315 24.9268C94.3713 24.9542 102.033 32.6429 102.005 42.0828C102.005 51.55 94.2893 59.184 84.8494 59.1567C80.3073 59.1567 75.9841 57.3508 72.7827 54.1494C69.554 50.9207 67.7481 46.5702 67.7755 42.0007ZM73.0564 53.3559L74.917 51.4953C74.5613 51.1122 74.2056 50.7018 73.8772 50.2914C73.7404 50.2367 73.6036 50.1546 73.4942 50.0178C73.33 49.8262 73.2479 49.5253 73.1658 49.5253C73.0837 49.5253 73.1658 49.7168 72.9743 49.7442C72.7827 49.7715 72.3997 49.1969 72.2902 49.0054C72.1808 48.8138 71.9072 48.7591 71.7703 48.5129C71.6335 48.2666 71.6609 48.2392 71.5788 48.3487C71.4967 48.4581 71.0042 47.9109 70.8948 47.9656C70.7853 48.0203 70.8948 48.1572 70.8948 48.1845C70.8948 48.2119 70.4023 47.692 70.2654 47.7467C70.1286 47.8015 70.1013 47.9109 70.1013 48.0477C70.1013 48.1845 70.2928 48.6497 70.2107 48.677C69.9371 48.2666 69.7456 47.8015 69.6908 47.3089H69.8003C69.8003 47.3089 69.8003 47.1721 69.7182 47.008C69.6361 46.8438 69.554 46.8438 69.5267 46.6796C69.4993 46.5154 69.7729 46.5702 69.7456 46.4881C69.7456 46.406 69.7729 46.3239 69.8277 46.2418C69.8277 46.2418 70.1013 46.2418 70.1286 46.0229C70.156 45.804 70.2654 46.0229 70.2928 46.1597C70.3202 46.2965 70.758 46.3786 70.7853 46.2418C70.8127 46.105 70.5938 46.1597 70.5938 46.105C70.5938 46.0503 70.84 46.105 71.0316 46.105C71.2231 46.105 71.2231 45.9956 71.3873 46.105C71.5241 46.1871 71.6609 46.2418 71.8251 46.2692C71.4146 45.0105 71.1684 43.6971 71.141 42.3564H68.5143C68.569 46.4607 70.156 50.4008 73.0016 53.3833L73.0564 53.3559ZM83.8917 38.17C83.8917 38.17 83.7002 38.3889 83.6181 38.5531C83.9191 38.4437 84.2474 38.3616 84.5484 38.3342V35.7075C83.1256 35.7622 81.7848 36.3094 80.6904 37.2124L82.551 39.073C82.7699 38.8814 82.9888 38.7446 83.235 38.6078L83.4266 38.5257C83.5634 38.3616 83.837 38.1427 83.8643 38.17H83.8917ZM77.3796 48.0751C77.3796 48.0751 77.3796 48.1845 77.3796 48.2392L77.79 48.7318L79.678 46.7891C78.775 45.804 78.2004 44.5727 77.9542 43.2594C77.8994 43.2867 77.8721 43.2867 77.8173 43.2594C77.8173 43.2594 77.8173 43.1225 77.8994 43.0678C77.8994 42.8763 77.8994 42.6574 77.8994 42.4659H76.6134C76.6134 42.6574 76.6955 42.9584 76.6134 43.0678C76.5313 43.1773 76.3672 43.0678 76.2577 43.0678C76.1483 43.0678 75.9567 43.3962 76.0388 43.5877C76.0935 43.6972 76.1209 43.834 76.1209 43.9708C76.1209 44.1076 76.0388 44.1897 76.2304 44.3265C76.4219 44.4633 76.7229 44.819 76.6955 44.9011C76.6681 44.9832 76.4766 44.819 76.4492 44.9832C76.4219 45.1473 76.7502 44.9832 76.7229 45.2841C76.7229 45.4757 76.7229 45.6399 76.805 45.804C76.9418 46.0229 77.0238 46.2965 77.0512 46.5702C76.9965 46.8164 76.9965 47.09 77.0512 47.3637C77.1333 47.5552 77.3522 47.7467 77.3522 48.1298L77.3796 48.0751ZM75.8746 43.6424C75.7105 43.4509 75.9567 42.9857 76.0115 42.8763C76.0662 42.7668 76.2851 42.6574 76.3398 42.4932H75.2453C75.2453 43.0678 75.3274 43.6424 75.4642 44.1897C75.7105 44.217 76.2304 43.9981 75.8473 43.533V43.6424H75.8746ZM75.1359 50.6471L75.4369 50.9754L75.6557 50.7565C75.4642 50.6471 75.2727 50.565 75.1359 50.6471ZM79.678 37.2944L77.8173 35.4338C76.2304 37.1303 75.3274 39.3466 75.2453 41.645H76.5313C76.7502 41.2893 76.6955 41.0157 76.7502 40.8241C76.8323 40.6326 76.9144 40.4411 77.0512 40.2769C77.1333 40.1127 77.2427 39.9486 77.4343 39.9486C77.8721 39.9486 77.9542 39.7297 78.2278 39.5929C78.5014 39.456 78.9666 39.4013 78.9118 39.2645C78.8571 39.1277 77.9268 39.5381 77.8994 39.4834C77.8721 39.4287 78.2004 39.374 78.3372 39.2371H78.4193C78.7203 38.5257 79.1307 37.869 79.6506 37.2671L79.678 37.2944ZM79.3496 39.0456C79.6232 38.9088 79.9516 38.8814 80.2526 38.9635C80.4988 39.1003 80.7177 39.2645 80.9093 39.4287L81.265 39.3466C81.6207 39.2645 81.4018 39.456 81.5659 39.456H81.7301L80.1158 37.8417C79.8148 38.2248 79.5412 38.6078 79.3223 39.0456H79.3496ZM77.5164 41.043C77.2975 41.043 77.1059 41.1251 76.9965 41.2893C76.9418 41.4261 76.9418 41.5629 76.9965 41.6724H77.9268C77.9268 41.5082 77.9268 41.3167 77.9268 41.1525C77.79 41.0978 77.6532 41.0704 77.489 41.043H77.5164ZM80.1978 46.2692L82.0585 44.4086C81.9216 44.217 81.7848 44.0255 81.648 43.8066V43.916C81.648 43.916 81.648 44.2718 81.5386 44.4086C81.4291 44.5454 80.9913 44.0529 80.8819 44.0255C80.7998 43.9981 80.6904 44.0255 80.6356 44.1349C80.6356 44.1349 80.6356 44.1897 80.6356 44.217V44.4359C80.6356 44.4359 80.2799 44.2444 80.4167 44.1897C80.5535 44.1349 80.4167 43.9981 80.3073 43.9434C80.1978 43.8887 80.0063 43.9434 79.9242 43.834C79.8421 43.7245 79.7327 43.6424 79.5959 43.5877C79.4864 43.533 79.3496 43.533 79.2402 43.5877C79.1581 43.5877 79.0486 43.5877 78.9939 43.4783L78.8845 43.3688C79.0486 44.4633 79.5138 45.4757 80.2252 46.3513L80.1978 46.2692ZM82.0585 43.0678C82.0585 43.0678 82.1132 43.0678 82.1405 43.0678H82.3594C82.3594 43.0678 82.4962 43.0678 82.5236 42.9857C82.5236 42.9584 82.5236 42.9037 82.5236 42.8763H82.2226C82.2226 42.8763 82.1405 42.8763 82.1132 42.8763C82.1132 42.8763 82.0037 42.7668 81.9216 42.7121H81.648C81.648 42.7121 81.4565 42.7121 81.3744 42.7942C81.3744 42.7942 81.3744 42.9037 81.3744 42.9857C81.1555 43.5603 80.9093 43.3688 80.9366 43.5877C80.964 43.8066 80.9366 43.5877 81.1008 43.5877H81.8669C81.8669 43.5877 81.9764 43.5877 82.0311 43.5877C82.0858 43.5877 82.1405 43.6424 82.1679 43.6972C82.0311 43.5056 81.9764 43.2867 82.0585 43.0678ZM84.5758 34.9687V32.3419C82.25 32.424 80.061 33.327 78.3646 34.914L80.2252 36.7746C81.4291 35.6801 82.9614 35.0508 84.5758 34.9687ZM84.5758 31.6032V28.9764C81.3744 29.0585 78.3099 30.3445 75.9841 32.5335L77.8173 34.3941C79.6506 32.6703 82.0311 31.6852 84.5484 31.5758L84.5758 31.6032ZM75.4642 33.1354C73.2479 35.4612 71.9892 38.5257 71.9072 41.7271H74.5339C74.616 39.2098 75.6284 36.8293 77.3522 34.996L75.4916 33.1354H75.4642ZM71.9072 42.4385C71.9345 43.7792 72.1808 45.0926 72.6186 46.3513C72.8922 46.3513 73.1658 46.3513 73.4121 46.2145C73.6583 46.0229 73.4121 45.3115 73.6036 45.0105C73.7951 44.7095 74.315 43.7792 74.4518 43.7519C74.5886 43.7245 74.5613 43.8613 74.6434 43.8613C74.5613 43.3962 74.5065 42.9037 74.4792 42.4385H71.9072ZM84.5758 55.8732C81.1829 55.7911 77.9268 54.4504 75.4642 52.0973L73.6036 53.9305C76.5587 56.7762 80.4715 58.3905 84.5758 58.4726V55.8732ZM84.5758 52.5077C82.2773 52.4256 80.061 51.6048 78.2825 50.0999L78.3919 50.2367C78.5014 50.4556 78.9392 50.866 78.6656 51.0302C78.3919 51.1943 78.0636 51.0302 77.8721 51.0302C77.6805 51.0302 77.3248 51.3585 77.1333 51.4132C76.9144 51.4406 76.6955 51.4132 76.504 51.3311L76.2851 51.2217L75.9841 51.5227C78.3099 53.739 81.3744 54.9976 84.5758 55.0797V52.5077ZM84.5758 51.5774C84.2201 51.6321 83.8643 51.6321 83.5086 51.5774C83.235 51.3859 82.9067 51.1943 82.8793 51.0575C82.852 50.9207 82.4415 50.5924 82.4415 50.3461C82.4415 50.0999 82.8246 49.9904 82.7151 49.6894C82.6057 49.3884 82.852 49.1969 83.235 49.0054C82.1132 48.7318 81.0734 48.1572 80.1978 47.391L78.3372 49.2516C80.0337 50.8386 82.25 51.7416 84.5484 51.8237V51.5774H84.5758ZM85.1504 48.0751C85.4513 48.0751 85.725 47.9656 85.9986 47.9109C86.2722 47.8562 85.9986 48.2666 86.1628 48.294C86.3269 48.3213 87.1751 48.4581 87.2299 48.294C87.2846 48.1298 87.2299 48.0751 87.4488 48.0477C87.7497 48.0477 88.0507 47.9383 88.3243 47.7741C88.4064 47.692 88.6253 47.6646 88.6801 47.5552C88.7348 47.4457 88.6801 46.8985 88.4338 46.9806C88.1875 47.0627 88.2149 47.1721 87.996 47.2816C87.7771 47.391 87.6677 47.4184 87.5308 47.2816C87.394 47.1448 87.5308 46.9806 87.695 46.8985C87.8592 46.8164 87.996 46.5428 88.1602 46.5428C88.3244 46.5428 88.598 46.3786 88.5432 46.2145C88.4885 46.0503 88.0781 46.2145 87.996 46.2145C87.9139 46.2145 87.996 45.9956 87.996 45.9682C87.996 45.9408 87.8045 46.1597 87.9139 46.2692C88.0234 46.3786 87.8045 46.4881 87.6403 46.3786C87.4761 46.2692 87.4488 46.7891 87.4761 46.8711C87.5035 46.9532 87.6677 46.8711 87.4761 47.09C87.2846 47.3089 87.312 47.09 87.2025 47.1995C87.0931 47.3089 87.0657 47.3363 87.2025 47.5005C87.3393 47.6646 87.2025 47.8288 87.0931 47.6099C86.9836 47.391 86.7921 47.5278 86.7374 47.3637C86.6826 47.1995 86.4364 47.2268 86.1628 47.0627C85.8891 46.8985 85.9712 47.2816 86.3269 47.3637C86.6826 47.4457 86.6279 47.4731 86.5185 47.6646C86.409 47.8562 86.5185 47.5552 86.108 47.4457C85.6976 47.3363 85.8618 47.2542 85.6702 47.2542C85.4787 47.2542 85.5334 47.4184 85.3419 47.3637C85.1504 47.3089 85.1504 47.5278 85.0135 47.5826C84.8767 47.6373 84.8494 47.9656 84.6852 48.0477C84.521 48.1298 83.9191 48.0477 83.9464 47.8288C83.9738 47.6099 83.9464 47.391 84.138 47.3089C84.3295 47.2268 84.4663 47.4731 84.6578 47.3089C84.8494 47.1448 84.7947 47.0079 84.6578 46.8985C84.521 46.7891 84.4937 46.7891 84.4937 46.7343C84.4937 46.6796 84.7673 46.6522 84.9041 46.5702C85.0135 46.4607 85.123 46.3239 85.2324 46.1871C85.3145 46.1871 85.4513 46.1871 85.4513 46.0776C85.4513 45.9682 85.3693 45.8861 85.4513 45.804C85.5334 45.7219 85.4513 45.6399 85.5334 45.6672C85.6155 45.6946 85.6976 45.8587 85.6429 45.8861C85.5881 45.9135 85.6429 46.0229 85.7523 45.9956C85.9165 45.9135 86.0807 45.8587 86.2448 45.804C86.3543 45.804 86.2448 45.4757 86.2448 45.4483C86.2448 45.421 86.2448 45.4483 86.3543 45.4483C86.4637 45.4483 86.2722 45.3662 86.3543 45.2568C86.4364 45.1473 86.71 45.0926 86.6005 45.0379C86.4911 44.9832 86.3816 45.1473 86.3269 45.1747C86.2722 45.2021 86.0807 45.0653 86.0807 44.9284C86.0807 44.7916 86.1627 44.6275 86.0807 44.6001C85.9986 44.5727 85.9712 44.819 85.9439 44.8464C85.8618 44.9832 85.8618 45.12 85.9439 45.2568C86.0259 45.3662 85.9439 45.7767 85.8618 45.8314C85.7797 45.8861 85.6702 45.6399 85.6155 45.5304V45.7219C85.6155 45.7219 85.5608 45.804 85.5334 45.804H84.9588C84.9588 45.804 84.9862 45.9682 85.0409 46.0229C85.0409 46.1597 85.2598 46.2692 85.2324 46.3786C85.2051 46.4881 84.7947 46.5702 84.7399 46.4881C84.6852 46.406 84.8494 46.2145 84.8494 46.1324C84.8494 46.0503 84.7399 45.8861 84.7673 45.7767C84.0285 45.7219 83.3445 45.421 82.7699 44.9558L80.9093 46.8164C81.8396 47.6373 83.0161 48.1845 84.2748 48.3213C84.4389 48.2119 84.521 48.0203 84.6578 48.1298C84.7947 48.2392 84.8494 47.993 85.0135 47.993H85.0409L85.1504 48.0751ZM85.3145 52.5077V55.1345C86.3543 55.1071 87.3667 54.9429 88.3517 54.6693C88.1602 54.4778 88.0507 54.2042 87.8045 54.1221C87.5582 54.04 87.2299 53.7116 87.4761 53.3286C87.7224 52.9455 87.4761 53.0276 87.394 52.8087C87.2572 52.5898 87.0383 52.4256 86.7921 52.3435C86.2722 52.4256 85.7797 52.453 85.2598 52.453V52.5077H85.3145ZM86.5732 51.6321C86.5732 51.6321 86.2996 51.5774 86.1901 51.6321C85.7523 51.7416 85.8891 51.4132 85.3145 51.4953V51.8237C85.725 51.7689 86.1354 51.6869 86.5458 51.5774V51.6321H86.5732ZM96.2867 53.9579L94.4261 52.0973C93.4684 53.0276 92.3739 53.7937 91.17 54.3957C90.7869 54.6693 90.3765 54.8882 89.9387 55.0797C89.7745 55.1618 89.6104 55.2165 89.4462 55.2439C89.3915 55.2439 89.3367 55.2439 89.282 55.2439C87.996 55.6817 86.6279 55.9006 85.2872 55.9553V58.5821C89.3915 58.4726 93.3042 56.8309 96.232 53.9579V54.0126L96.2867 53.9579ZM92.6202 34.9687C93.058 35.4338 93.441 35.9537 93.7967 36.4736C93.7967 36.4736 93.7967 36.3915 93.9062 36.4736C94.0156 36.5557 93.8241 36.7746 94.0977 36.7198C94.3713 36.6651 94.2345 36.9114 94.0977 37.0208C94.1798 37.185 94.2619 37.3218 94.344 37.486C94.4261 37.5133 94.4808 37.5681 94.5355 37.6502C94.5902 37.8417 94.645 38.0332 94.6997 38.2521C94.8365 38.5805 94.946 38.9088 95.0554 39.2645C95.1922 39.1551 95.3564 39.2645 95.3564 39.4013C95.3564 39.5929 95.329 39.8117 95.2196 39.9759C95.3564 40.5505 95.4111 41.1251 95.4385 41.7271H98.0652C98.0105 40.0306 97.6548 38.3616 96.9707 36.8019C96.8886 36.8293 96.8066 36.884 96.7518 36.9661C96.615 37.1303 96.3961 36.9661 96.2867 36.7746C96.1772 36.583 95.5479 35.7348 95.3017 35.7075C95.0554 35.6801 94.9733 35.4065 94.7544 35.3791C94.5355 35.3517 94.2893 35.2149 94.2619 35.0234C94.2619 34.8319 94.0977 34.6677 93.9062 34.6677C93.6599 34.6403 93.441 34.5035 93.3042 34.3394L92.6749 34.9687H92.6202ZM94.2893 50.8934L94.4534 51.0575C96.6698 48.7318 97.9284 45.6672 98.0105 42.4385H95.3837C95.3017 44.9558 94.3166 47.3637 92.5928 49.1969L93.5231 50.1272C93.5505 49.963 93.5505 49.7715 93.5231 49.6073C93.5231 49.5253 93.9062 49.5253 93.9062 49.6894C93.9609 49.881 94.043 50.0999 94.1251 50.2914C94.2072 50.4556 94.2619 50.6471 94.2345 50.866V50.9207L94.2893 50.8934ZM92.2918 52.5351C92.2918 52.6992 91.854 53.0002 91.9361 53.1097C92.6475 52.6719 93.3042 52.152 93.9336 51.6048L92.0729 49.7442L91.6625 50.0999C91.6625 50.3188 91.6625 50.4829 91.9088 50.565C92.155 50.6471 92.6749 50.9481 92.5655 51.2217C92.4013 51.5227 92.2371 51.7963 92.0456 52.0973C91.9088 52.2341 92.3466 52.3162 92.2645 52.5351V52.5898L92.2918 52.5351ZM92.7296 41.6997H94.6723C94.6723 41.4261 94.6723 41.1525 94.6723 40.8789V40.961C94.5355 41.2619 94.5082 41.0704 94.5082 40.961C94.5082 40.7968 94.5902 40.6326 94.645 40.4684V40.1948C94.645 40.1948 94.4808 40.359 94.3713 40.4137C94.2893 40.4137 94.2072 40.66 94.1798 40.7421C94.1524 40.8241 93.9336 40.7421 93.742 40.7421C93.5505 40.7421 93.1127 40.9062 93.359 41.2346C93.6052 41.5629 92.7844 41.4261 92.7023 41.6724V41.7271L92.7296 41.6997ZM92.0729 35.4886L90.2123 37.3492C90.5407 37.7049 90.8143 38.0879 91.0605 38.4984C91.3342 38.5257 91.5804 38.6625 91.772 38.8541C91.9088 39.0456 92.2918 39.374 92.2371 39.5381C92.2371 39.6476 92.2645 39.757 92.3739 39.8391C92.5107 39.9212 92.6202 39.9212 92.7023 39.8391C92.8391 39.6476 92.8664 39.4287 93.0306 39.2645C93.1948 39.1003 93.7147 39.6202 93.7147 39.7023C93.7147 39.7844 93.6052 39.8117 93.5505 40.0033C93.4958 40.1948 93.3042 40.5232 93.5505 40.6052C93.7967 40.6873 93.9336 40.6052 94.0977 40.359C94.2619 40.1127 94.0977 40.058 94.2345 39.9759C94.3713 39.8938 94.344 39.8938 94.4261 39.8391C94.3166 39.3192 94.1525 38.8267 93.9336 38.3342C93.8788 38.2795 93.8241 38.2521 93.742 38.2248C93.6326 38.2248 93.742 38.0606 93.5231 38.0332C93.3042 38.0059 93.2769 37.9238 93.2769 37.5954C93.2769 37.2671 93.4958 37.6775 93.5505 37.5954C93.1401 36.8293 92.6475 36.1179 92.0456 35.4612V35.5159L92.0729 35.4886ZM89.8019 38.0059C89.8019 38.0059 89.6377 38.0059 89.583 38.0059L88.981 38.6078H89.3641C89.5283 38.6078 89.4462 38.1427 89.6924 38.1974C89.9387 38.2521 90.0208 38.4163 89.8019 38.4984C89.583 38.5805 89.8019 38.6899 89.6377 38.772C89.4735 38.8541 89.8019 38.9909 89.8019 39.073C89.8019 39.1551 89.5556 39.2098 89.9113 39.3192C90.267 39.4287 89.9113 39.0183 89.9113 38.9635C89.9113 38.9088 90.185 39.073 90.2397 38.9635L90.3218 38.7994C90.1576 38.4984 89.9661 38.2248 89.7472 37.9511V38.0059H89.8019ZM88.7895 47.7194C88.7895 47.7194 88.6801 47.7194 88.6253 47.7194C89.0084 47.9656 89.3915 48.1572 89.8293 48.294C90.0755 48.3487 90.3218 48.3487 90.568 48.294H91.0332C91.0332 48.294 91.3342 48.0477 91.4163 47.9109C91.5257 47.7467 91.6351 47.5826 91.7172 47.4184C91.7993 47.3363 92.0729 47.9383 92.0456 48.294V48.4581C93.6326 46.7617 94.5355 44.5454 94.6176 42.2196H92.6202C92.757 42.3838 92.8391 42.5753 92.9485 42.7395C93.058 42.931 93.1127 43.2594 93.2769 43.2867C93.441 43.3141 93.8241 43.533 93.8515 43.7245C93.8788 43.916 92.6475 44.217 92.4834 44.1623C92.3192 44.1076 92.2645 44.1623 92.2371 44.3265C92.2097 44.4907 91.7993 44.5727 91.6352 44.7095C91.471 44.8464 91.4163 45.1747 91.2794 45.3662C91.0879 45.6125 90.869 45.8314 90.6228 46.0229C90.3218 46.2145 89.7745 46.2418 90.0208 46.3786C90.2671 46.5154 90.6228 46.5154 90.568 46.3786C90.5133 46.2418 90.568 46.2692 90.6775 46.3786C90.7869 46.4881 90.9237 46.3786 90.9237 46.1871C90.9237 45.9956 90.9237 45.8587 91.0058 45.8587C91.0879 45.8587 91.3615 45.6399 91.471 45.6672C91.5804 45.6946 91.7172 45.9135 91.6078 46.5975C91.5257 47.09 91.3342 47.5552 91.0332 47.9656C90.8964 48.1845 90.7596 47.9656 90.568 47.9656C90.2944 47.8835 89.9934 47.8014 89.7198 47.7741C89.6377 47.8562 88.8716 47.5826 88.8716 47.692L88.7895 47.7194ZM101.294 42.4111H98.6672C98.5851 45.804 97.217 49.0601 94.8912 51.5227L96.7518 53.3833C99.5975 50.4282 101.239 46.5154 101.321 42.4111H101.294ZM96.7518 30.7002L94.8639 32.6429C95.1375 33.0807 95.4658 33.4638 95.8489 33.8195C96.0404 34.011 96.232 34.2025 96.4235 34.3941C96.615 34.5856 97.6548 35.899 97.4359 36.0632C98.2567 37.8143 98.7219 39.7023 98.7766 41.645H101.403C101.294 37.5407 99.6522 33.6553 96.8066 30.7276H96.7518V30.7002ZM85.2324 28.265C87.4214 28.2924 89.5556 28.867 91.471 29.8794C91.6351 29.8794 91.772 29.8246 91.9361 29.7699C92.1824 29.6605 92.6475 29.9067 92.8391 30.0435C93.0306 30.1803 93.1948 30.3445 93.441 30.454C93.7694 30.6455 93.9883 30.9465 94.0977 31.3295C94.0977 31.6852 94.4261 31.6852 94.2893 31.8221C94.1524 31.9589 94.2893 31.9041 94.4261 31.9862L96.2593 30.153C93.3042 27.3073 89.3641 25.693 85.2598 25.6109L85.2051 28.265H85.2324ZM85.2324 31.6032C87.394 31.6852 89.4736 32.424 91.17 33.7374C90.9785 33.4911 90.7869 33.2449 90.7048 33.1354C90.6228 33.026 89.9387 32.7524 89.9934 32.6429C90.0482 32.5335 90.5954 32.9713 90.6775 32.8892C90.7596 32.8071 90.4039 32.2872 90.4312 32.2872C90.7322 32.5061 90.9785 32.7797 91.1426 33.0807C91.2247 33.2175 91.4983 33.0807 91.6625 33.2722C91.8267 33.4638 91.854 33.6006 91.9909 33.71C92.1277 33.8195 92.3192 33.9016 92.155 33.8742C91.9909 33.8468 92.0456 33.7648 91.9635 33.8742C91.8814 33.9836 91.9635 34.0931 92.0729 34.312L92.9485 33.4364C92.8117 33.1902 92.5655 32.8344 92.4013 32.7797C92.2371 32.725 92.1003 32.8892 91.9635 32.9986C91.8267 33.1081 91.6899 33.1354 91.6625 32.9986C91.6625 32.8892 91.6625 32.7524 91.6625 32.6429C91.6351 32.5608 91.5804 32.4514 91.5531 32.3693C91.5531 32.1504 91.5531 31.8768 91.4436 31.74C91.3068 31.5484 91.17 31.3569 91.0605 31.138C90.869 30.8917 90.7596 30.6181 90.6775 30.3445C88.9537 29.4689 87.0657 29.0038 85.1504 28.949V31.6032H85.2324ZM85.2324 34.9687C86.8468 35.0508 88.4064 35.6801 89.6104 36.7746L91.471 34.914C89.7745 33.327 87.5582 32.424 85.2598 32.3419V34.9687H85.2324ZM85.2324 38.3342C85.4787 38.3342 85.725 38.4163 85.9712 38.4984C85.9712 38.3342 86.1901 38.2795 86.3269 38.17C86.4637 38.0606 86.5732 37.9511 86.5458 38.17C86.5458 38.3342 86.4637 38.471 86.3543 38.5531C86.6005 38.6625 86.8468 38.8267 87.0931 38.9909L87.2572 39.1003L87.5035 38.8541C87.5035 38.8541 87.7224 38.5257 87.9686 38.4437L88.7895 37.6228C88.7895 37.6228 88.5159 37.8417 88.4064 37.787C88.297 37.7322 88.7621 37.2944 88.981 37.3765H89.0631L89.1726 37.2671C88.1055 36.3368 86.7374 35.8169 85.3145 35.7622L85.2598 38.3616L85.2324 38.3342ZM84.8767 39.0456C84.5758 39.0456 84.2748 39.1003 83.9738 39.1824V39.2919C83.9738 39.2919 84.2748 39.1824 84.3021 39.374C84.3295 39.5655 84.0559 39.374 84.0832 39.5381C84.1106 39.7023 84.3021 39.5381 84.3021 39.7023C84.3021 39.8391 84.2201 39.9759 84.1106 40.0854C84.0012 40.1675 83.3718 40.2495 83.3171 40.3864C83.2624 40.5232 83.1803 40.6326 83.0982 40.7421C82.9888 40.8515 82.4962 41.1525 82.4962 41.2346C82.4962 41.3167 82.7425 41.2346 82.7972 41.1251C82.852 41.0157 83.0435 41.0157 83.235 40.9336C83.4266 40.8515 83.536 41.2619 83.235 41.2619C82.934 41.2619 82.9614 41.6997 82.7425 41.6176C82.5236 41.5356 82.5236 41.5082 82.4689 41.6176C82.4142 41.7271 82.8246 41.7271 82.934 41.8365C83.0435 41.946 82.7425 42.0554 82.7425 42.0554C82.7425 42.0554 82.7425 42.2196 82.7425 42.1649C82.7425 42.1102 83.0161 42.0007 83.0708 42.1649C83.1256 42.3291 82.6331 43.3688 82.4962 43.2594C82.3594 43.1499 82.3321 43.2594 82.25 43.2594C82.3594 43.4783 82.4689 43.6698 82.6331 43.8613C82.7425 43.6972 82.9067 43.4509 82.9614 43.4509C83.0161 43.4509 82.9614 43.3688 83.0708 43.2867C83.1803 43.2046 83.235 43.2867 83.235 43.1773C83.235 43.0678 83.536 42.9037 83.5634 42.7395C83.5907 42.5753 83.4813 42.5479 83.5634 42.4932C83.6455 42.4385 83.6455 42.4111 83.7275 42.3838C83.8096 42.3564 83.9191 42.4932 83.9464 42.3838C83.9738 42.2743 84.1927 42.3838 84.3569 42.4659C84.521 42.5479 84.5758 42.4659 84.6578 42.5753C84.7399 42.6848 84.6578 42.7668 84.6578 42.7942C84.6578 42.8216 84.7399 42.7942 84.7673 42.7942C84.7947 42.7942 84.4663 43.0952 84.521 43.1773C84.4389 43.4783 84.3021 43.7519 84.0832 43.9708C83.9464 44.0802 83.7275 43.9708 83.6454 43.9708C83.5634 43.9708 83.536 44.0802 83.3992 44.0529C83.2624 44.0529 83.1529 44.0529 83.0435 44.1349C83.5907 44.6275 84.2748 44.8737 85.0135 44.8737H85.4787C85.4787 44.8737 85.6429 44.6001 85.6429 44.4359C85.6429 44.3538 85.6429 44.2444 85.6429 44.1623C85.6429 44.1623 85.9165 43.8066 86.0259 43.8066C86.1354 43.8066 86.1628 43.8887 86.2722 43.8066C86.3816 43.7245 86.6553 43.8066 86.6553 43.8887C86.6553 43.9708 86.3543 43.9981 86.3543 44.0802C86.3543 44.1623 86.5732 44.2444 86.6553 44.0802C86.7374 43.9708 86.7374 43.8066 86.6553 43.6972C86.5732 43.5877 86.5732 43.533 86.6553 43.5877C86.7374 43.6424 86.7374 43.2867 86.8194 43.1499C86.9015 43.0131 86.6279 43.1499 86.4911 43.1499C86.3543 43.1499 86.2722 42.9037 86.2722 42.8216C86.2722 42.7395 86.4911 43.0405 86.6279 43.0678C86.7921 43.0678 86.9015 42.931 86.9289 42.7942C86.9289 42.6848 86.6826 42.6848 86.6279 42.5479C86.5732 42.4111 86.8468 42.5479 86.8194 42.4659C86.7921 42.3838 86.8194 42.247 86.71 42.1649C86.6005 42.0828 86.409 41.645 86.3269 41.5903C86.2448 41.5356 86.1354 41.6997 86.0807 41.7545C86.0259 41.8092 85.9165 41.7544 85.9712 41.6724C86.0807 41.5903 86.1628 41.4535 86.2448 41.344C86.2448 41.1525 86.5732 41.344 86.5185 41.0704C86.4637 40.7968 86.2175 40.8241 86.3269 40.6873C86.409 40.6052 86.409 40.4684 86.3269 40.3864C86.2722 40.3316 86.1901 40.3316 86.1354 40.3316C86.0259 40.3316 85.8891 40.1675 85.8891 40.0033C85.8891 39.8391 85.6155 39.9212 85.6429 39.8391C85.6702 39.757 85.3693 39.6202 85.2051 39.6476C84.9862 39.5929 84.7947 39.4834 84.6578 39.3192C84.6578 39.2371 84.3569 39.3192 84.4663 39.1277C84.5758 38.9362 84.7947 39.1277 84.8767 39.1277C84.9315 39.073 84.9315 38.9635 84.8767 38.9088L84.9588 39.1003L84.8767 39.0456ZM73.6036 30.1803L75.4642 32.0409C77.9268 29.7152 81.1829 28.3471 84.5758 28.265V25.6382C80.4715 25.7203 76.5587 27.362 73.631 30.1803H73.6036ZM68.5416 41.6724H71.1684C71.2505 38.2795 72.6186 35.0234 74.9443 32.5608L73.0837 30.7002C70.2381 33.6553 68.5964 37.5681 68.4869 41.645H68.5143L68.5416 41.6724Z" fill="#009FDB"/>
</g>
<defs>
<clipPath id="clip0_137_4834">
<rect width="170" height="170" fill="white"/>
</clipPath>
</defs>
</svg>
