<svg width="170" height="170" viewBox="0 0 170 170" fill="none" xmlns="http://www.w3.org/2000/svg">
<g clip-path="url(#clip0_137_4830)">
<path d="M170 0H0V170H170V0Z" fill="#8B173E"/>
<path d="M13.3038 41.3321C13.2765 39.693 13.6043 38.0813 14.26 36.6061C14.8336 35.3495 15.7898 34.3114 16.9918 33.6558C15.981 32.8909 15.1614 31.9074 14.6151 30.7601C13.9595 29.3668 13.6316 27.8643 13.6863 26.3345C13.5497 24.0671 14.3146 21.8271 15.7898 20.106C17.4288 18.5762 19.6416 17.7567 21.8817 17.8933C24.1218 17.7294 26.3072 18.5216 27.919 20.0787C29.3941 21.7724 30.159 23.9579 30.0224 26.1979C30.0771 27.7551 29.7766 29.3395 29.121 30.7601C28.6019 31.9074 27.7824 32.9182 26.7716 33.6558C28.0009 34.3387 28.957 35.4041 29.5034 36.6881C30.159 38.2452 30.4869 39.9116 30.4595 41.6053C30.6234 44.1186 29.8859 46.6318 28.3834 48.6533C26.6623 50.4563 24.231 51.3851 21.7724 51.1666C16.1176 51.1666 13.3038 47.8884 13.3038 41.3321ZM24.231 45.1566C24.6135 44.0093 24.8047 42.8073 24.7774 41.578C24.832 40.294 24.6408 39.0101 24.231 37.7808C23.9305 36.8793 23.0837 36.2783 22.1275 36.3602C21.1714 36.3056 20.3246 36.8793 20.0241 37.7808C19.6143 39.0101 19.4504 40.294 19.4777 41.578C19.4504 42.8073 19.6416 44.0093 20.0241 45.1566C20.4885 46.3313 21.7997 46.8777 22.9744 46.4133C23.5481 46.1947 24.0125 45.7303 24.231 45.1566ZM24.4223 26.3345C24.4496 25.3784 24.2583 24.4496 23.8486 23.6027C23.5208 22.9471 22.8651 22.5373 22.1275 22.5646C21.39 22.5646 20.707 22.9471 20.3792 23.6027C19.9421 24.4496 19.7509 25.3784 19.7782 26.3345C19.7782 29.6673 20.5431 31.3337 22.1275 31.3337C23.712 31.3337 24.2857 29.6673 24.2857 26.3345H24.4223Z" fill="white"/>
<path d="M42.8621 18.2485H45.7851C46.5773 18.2212 47.3969 18.3578 48.1344 18.6583C48.6808 18.9042 49.1179 19.3413 49.3364 19.9149C49.6096 20.5979 49.7462 21.3628 49.7189 22.1004V26.6352C49.7189 27.4001 49.6096 28.1923 49.3364 28.9026C49.1179 29.4762 48.6808 29.9406 48.1344 30.2138C47.4242 30.5416 46.6593 30.7055 45.867 30.6509H42.8621V18.2485ZM45.8124 29.1757C46.1949 29.1757 46.5773 29.1211 46.9051 28.9299C47.1237 28.7387 47.2876 28.4928 47.3149 28.1923C47.3695 27.7279 47.3695 27.2635 47.3149 26.7991V21.9091C47.3422 21.4994 47.3422 21.0623 47.3149 20.6525C47.2603 20.3793 47.0964 20.1608 46.8505 20.0242C46.5227 19.8603 46.1402 19.7783 45.7851 19.8057H45.0202V29.0118L45.8124 29.1757Z" fill="white"/>
<path d="M50.9753 18.2485H56.1658V19.8603H53.2154V23.4116H55.5648V24.9961H53.2154V29.0938H56.2204V30.6509H50.9753V18.2485Z" fill="white"/>
<path d="M57.723 29.7494C57.1493 28.8479 56.8762 27.7552 56.9308 26.6898V22.2642C56.8488 21.1715 57.1493 20.1061 57.723 19.1773C59.2255 17.8114 61.4929 17.7568 63.05 19.0407C63.6237 19.8329 63.8969 20.7891 63.8149 21.7725V22.8106H61.6295V21.7452C61.6568 21.3901 61.6568 21.0622 61.6295 20.7071C61.6295 20.4612 61.4929 20.2427 61.329 20.0788C61.1104 19.9149 60.8099 19.8329 60.5368 19.8602C60.2363 19.8329 59.9358 19.9149 59.7172 20.1061C59.526 20.2973 59.3894 20.5159 59.3348 20.7891C59.3075 21.1442 59.3075 21.5266 59.3348 21.8818V27.3454C59.3075 27.8644 59.3894 28.3835 59.608 28.8752C59.8265 29.203 60.209 29.3942 60.6187 29.3396C60.8919 29.3396 61.1651 29.285 61.3836 29.0937C61.5475 28.9025 61.6568 28.684 61.7114 28.4381C61.7388 28.083 61.7388 27.7278 61.7114 27.3727V26.2527H63.8969V27.2361C63.9515 28.1922 63.6783 29.1484 63.1593 29.9679C62.4763 30.7328 61.4383 31.0879 60.4275 30.9514C59.3894 31.006 58.3786 30.5689 57.723 29.7494Z" fill="white"/>
<path d="M64.9895 18.2485H70.2072V19.8603H67.2296V23.4116H69.6062V24.9961H67.2569V29.0938H70.2619V30.6509H65.0168V18.2485H64.9895Z" fill="white"/>
<path d="M71.1362 18.2485H72.7207L75.7257 25.3239V18.2485H77.6106V30.6509H76.1081L73.0758 23.2477V30.6509H71.1362V18.2485Z" fill="white"/>
<path d="M80.2876 19.9149H78.2388V18.2485H84.5765V19.9149H82.555V30.6509H80.2876V19.9149Z" fill="white"/>
<path d="M88.0459 18.2485H89.9308L90.9689 26.28L92.2529 18.2759H93.7827L95.094 26.28L96.1047 18.2485H97.9897L96.2413 30.6509H94.411L93.0451 22.4555L91.6792 30.6509H89.7942L88.0459 18.2485Z" fill="white"/>
<path d="M99.6561 29.7768C99.0551 28.9026 98.7546 27.8372 98.8365 26.7718V22.1004C98.7819 21.0623 99.0551 20.0242 99.6561 19.1774C100.366 18.4671 101.377 18.0846 102.388 18.1666C103.399 18.0573 104.409 18.4398 105.12 19.1774C105.748 20.0515 106.048 21.0896 105.967 22.155V26.8264C106.021 27.8918 105.721 28.9572 105.12 29.8314C103.563 31.1973 101.213 31.1973 99.6561 29.8314V29.7768ZM103.426 28.684C103.617 28.2469 103.726 27.7825 103.699 27.2908V21.5813C103.726 21.1169 103.644 20.6525 103.426 20.2428C103.262 19.9149 102.934 19.7784 102.415 19.7784C101.896 19.7784 101.568 19.9149 101.404 20.2428C101.186 20.6525 101.104 21.1169 101.131 21.5813V27.3728C101.104 27.8645 101.186 28.3289 101.404 28.766C101.623 29.0938 102.005 29.285 102.415 29.2304C102.798 29.2304 103.125 29.0118 103.317 28.684H103.426Z" fill="white"/>
<path d="M107.141 18.2484H110.119C111.157 18.1665 112.168 18.4397 113.042 18.986C113.752 19.6417 114.135 20.5978 114.026 21.5539C114.026 22.2096 113.916 22.8652 113.67 23.4662C113.425 23.9579 113.015 24.3404 112.496 24.5316L114.217 30.6508H111.949L110.474 24.9687H109.381V30.6508H107.141V18.2484ZM110.119 23.712C110.611 23.7667 111.102 23.5755 111.485 23.2476C111.813 22.8379 111.949 22.3188 111.895 21.7998C111.922 21.3081 111.813 20.8163 111.54 20.3792C111.184 20.0514 110.72 19.8875 110.228 19.9422H109.381V23.712H110.119Z" fill="white"/>
<path d="M115.337 18.2485H117.577V23.7121L120.035 18.2485H122.193L119.817 23.7121L122.549 30.5963H120.309L118.232 24.9688L117.686 25.8976V30.5963H115.446L115.337 18.2485Z" fill="white"/>
<path d="M128.258 18.2485H130.662L133.148 30.6509H131.045L130.553 27.9191H128.395L127.903 30.6509H125.772L128.258 18.2485ZM130.307 26.4439L129.46 21.2262L128.641 26.4439H130.307Z" fill="white"/>
<path d="M133.995 18.2485H135.552L138.584 25.3239V18.2485H140.442V30.6509H138.939L135.907 23.2477V30.6509H133.995V18.2485Z" fill="white"/>
<path d="M141.917 18.2485H144.84C145.632 18.2212 146.452 18.3578 147.189 18.6583C147.736 18.9042 148.173 19.3686 148.419 19.9149C148.692 20.6252 148.801 21.3628 148.774 22.1004V26.6352C148.801 27.4001 148.692 28.165 148.419 28.9026C148.2 29.4762 147.763 29.9406 147.217 30.2138C146.506 30.5416 145.742 30.6782 144.949 30.6509H141.917V18.2485ZM144.867 29.1757C145.25 29.2031 145.632 29.1211 145.96 28.9299C146.179 28.7387 146.343 28.4928 146.397 28.1923C146.424 27.7279 146.424 27.2635 146.397 26.7991V21.9091C146.452 21.4994 146.452 21.0623 146.397 20.6525C146.343 20.3793 146.179 20.1608 145.96 20.0242C145.632 19.8603 145.25 19.7783 144.867 19.8057H144.212V29.0118L144.867 29.1757Z" fill="white"/>
<path d="M42.8621 38.491H48.0525V40.1027H45.0202V43.7633H47.3422V45.3478H45.0202V49.2269H47.9978V50.7841H42.8621V38.491Z" fill="white"/>
<path d="M49.6915 49.992C49.1178 49.0905 48.8447 47.9978 48.8993 46.9324V42.5069C48.8173 41.4141 49.1178 40.3487 49.6915 39.4199C50.3745 38.655 51.3852 38.2452 52.4233 38.3545C53.4341 38.2179 54.4449 38.5731 55.1551 39.2833C55.7288 40.0756 56.002 41.0317 55.92 42.0151V43.0532H53.7346V41.9878C53.7619 41.6327 53.7619 41.3049 53.7346 40.9497C53.7346 40.7039 53.598 40.4853 53.4341 40.3214C53.2155 40.1575 52.915 40.0756 52.6419 40.1029C52.0682 40.0482 51.5218 40.458 51.4399 41.0317C51.4126 41.3868 51.4126 41.7693 51.4399 42.1244V47.588C51.4126 48.107 51.4945 48.6261 51.7131 49.1178C51.9316 49.4456 52.314 49.6369 52.7238 49.5822C52.915 49.5276 53.0789 49.391 53.2155 49.2271C53.3794 49.0359 53.4887 48.8173 53.5434 48.5715C53.5707 48.2163 53.5707 47.8612 53.5434 47.5061V46.386H55.7288V47.3695C55.7834 48.3529 55.5103 49.309 54.9639 50.1013C54.2809 50.8662 53.2429 51.2486 52.2321 51.0847C51.276 51.112 50.3198 50.7296 49.6915 49.992Z" fill="white"/>
<path d="M57.6683 50.0194C57.0673 49.1452 56.7668 48.0798 56.8487 47.0144V42.343C56.7668 41.2776 57.0673 40.2395 57.6683 39.3654C58.3785 38.6551 59.3893 38.2726 60.4001 38.3546C61.4108 38.2453 62.4216 38.6278 63.1319 39.3654C63.7602 40.2395 64.0607 41.2776 63.9787 42.343V47.0144C64.0607 48.0798 63.7602 49.1452 63.1319 50.0194C61.5747 51.3853 59.2254 51.3853 57.6683 50.0194ZM61.4382 48.9267C61.6567 48.4896 61.7386 48.0252 61.7113 47.5334V41.824C61.7386 41.3596 61.6567 40.8952 61.4382 40.4854C61.2742 40.1576 60.9464 40.021 60.4274 40.021C60.0176 39.9663 59.6352 40.1576 59.4166 40.4854C59.1981 40.8952 59.1161 41.3596 59.1434 41.824V47.5334C59.1161 48.0252 59.1981 48.4896 59.4166 48.9267C59.6352 49.2545 60.0176 49.4457 60.4274 49.3911C60.8098 49.4457 61.1923 49.2545 61.4108 48.9267H61.4382Z" fill="white"/>
<path d="M65.372 38.491H66.8745L69.9068 45.5663V38.491H71.7644V50.8933H70.2619L67.2296 43.4902V50.8933H65.3174L65.372 38.491Z" fill="white"/>
<path d="M74.0317 50.0194C73.4034 49.1452 73.1029 48.0798 73.1849 47.0144V42.343C73.1029 41.2776 73.4034 40.2395 74.0317 39.3654C74.742 38.6278 75.7528 38.2453 76.7635 38.3546C77.7743 38.2726 78.7851 38.6551 79.4953 39.3654C80.0963 40.2395 80.3968 41.2776 80.3149 42.343V47.0144C80.3968 48.0798 80.0963 49.1452 79.468 50.0194C78.7577 50.7843 77.747 51.1667 76.7362 51.0575C75.7254 51.1667 74.7147 50.7843 74.0317 50.0194ZM77.7743 48.9267C77.9928 48.4896 78.0748 48.0252 78.0475 47.5334V41.824C78.0748 41.3596 77.9928 40.8952 77.8016 40.4854C77.3099 39.9117 76.4357 39.8571 75.862 40.3761C75.8074 40.4034 75.7801 40.4581 75.7528 40.4854C75.5615 40.8952 75.4523 41.3596 75.4796 41.824V47.5334C75.4796 48.0252 75.5615 48.4896 75.7528 48.9267C75.9713 49.2545 76.3538 49.4457 76.7635 49.3911C77.1733 49.4457 77.5831 49.2818 77.8016 48.9267H77.7743Z" fill="white"/>
<path d="M81.872 38.491H84.2213L85.997 47.0961L87.8 38.491H90.0947L90.3133 50.8933H88.7288L88.5649 42.2882L86.7892 50.8933H85.4233L83.6477 42.2609L83.4838 50.8933H81.79L81.872 38.491Z" fill="white"/>
<path d="M91.8977 38.491H94.1924V50.8933H91.9523L91.8977 38.491Z" fill="white"/>
<path d="M96.3506 49.9921C95.777 49.0906 95.4765 47.9979 95.5584 46.9325V42.5069C95.4765 41.4142 95.7496 40.3215 96.3506 39.42C97.0336 38.6551 98.0444 38.2453 99.0824 38.3546C100.039 38.2727 100.995 38.6005 101.678 39.2834C102.251 40.0756 102.525 41.0318 102.443 42.0152V43.0533H100.257V41.9879C100.257 41.6328 100.257 41.305 100.257 40.9498C100.23 40.704 100.093 40.4854 99.9293 40.3215C99.7108 40.1576 99.4376 40.0756 99.1644 40.103C98.5907 40.021 98.0717 40.4035 97.9624 40.9498C97.9624 40.9498 97.9624 41.0045 97.9624 41.0318C97.9351 41.3869 97.9351 41.7694 97.9624 42.1245V47.5881C97.9078 48.1071 98.017 48.6535 98.2356 49.1179C98.4541 49.4457 98.8366 49.6369 99.2464 49.5823C99.5195 49.5823 99.7927 49.5277 100.011 49.3364C100.175 49.1452 100.284 48.9267 100.339 48.6808C100.339 48.3257 100.339 47.9705 100.339 47.6154V46.4954H102.525V47.4788C102.579 48.435 102.306 49.3911 101.76 50.2106C101.104 50.9209 100.148 51.3033 99.1644 51.1941C98.0717 51.3033 97.0336 50.8389 96.3506 49.9921Z" fill="white"/>
<path d="M107.688 49.9647C107.114 49.0085 106.841 47.9158 106.923 46.7958V42.6434C106.841 41.5234 107.114 40.4034 107.715 39.4472C108.398 38.655 109.409 38.2452 110.447 38.3545C111.458 38.2179 112.468 38.5731 113.179 39.2833C113.78 40.0482 114.08 41.0317 113.998 42.0151V42.6708H111.84V41.9605C111.867 41.6054 111.867 41.2502 111.84 40.8951C111.785 40.6765 111.649 40.458 111.485 40.2941C111.239 40.1302 110.966 40.0482 110.665 40.0756C110.365 40.0482 110.064 40.1575 109.818 40.3487C109.627 40.54 109.518 40.7858 109.463 41.059C109.436 41.4415 109.436 41.7966 109.463 42.179V47.3421C109.436 47.8885 109.545 48.4349 109.764 48.9266C109.955 49.309 110.392 49.5003 110.802 49.4456C111.239 49.4729 111.649 49.2817 111.867 48.8993C112.113 48.3802 112.222 47.8066 112.168 47.2329V46.0855H110.583V44.665H113.943V50.9481H112.468L112.304 49.7461C112.004 50.6203 111.157 51.1667 110.228 51.112C109.245 51.194 108.289 50.7569 107.688 49.9647Z" fill="white"/>
<path d="M115.364 38.4911H118.342C119.38 38.4091 120.418 38.6823 121.265 39.256C121.975 39.9116 122.33 40.8404 122.221 41.7966C122.221 42.4522 122.139 43.1078 121.893 43.7088C121.647 44.2005 121.21 44.6103 120.691 44.8015L122.439 50.8935H120.172L118.669 45.2113H117.604V50.8935H115.364V38.4911ZM118.342 43.9547C118.833 44.0093 119.325 43.8181 119.708 43.4903C120.035 43.0805 120.172 42.5615 120.117 42.0424C120.145 41.5507 120.008 41.0317 119.735 40.6219C119.407 40.2667 118.915 40.1302 118.451 40.1848H117.604V43.7635L118.342 43.9547Z" fill="white"/>
<path d="M124.242 50.0193C123.641 49.1451 123.341 48.0797 123.423 47.0143V42.3429C123.341 41.2775 123.641 40.2394 124.242 39.3653C125.827 38.0267 128.121 38.0267 129.706 39.3653C130.307 40.2394 130.607 41.2775 130.525 42.3429V47.0143C130.607 48.0797 130.307 49.1451 129.706 50.0193C128.996 50.7569 127.985 51.1393 126.974 51.0574C125.963 51.1666 124.953 50.7842 124.242 50.0193ZM128.012 48.9266C128.203 48.4895 128.285 47.9978 128.258 47.5333V41.8239C128.285 41.3595 128.203 40.8951 128.012 40.4853C127.794 40.1302 127.411 39.9663 127.001 40.0209C126.592 39.9663 126.209 40.1575 125.963 40.4853C125.772 40.8951 125.69 41.3595 125.717 41.8239V47.5333C125.717 47.9978 125.772 48.4895 125.963 48.9266C126.209 49.2544 126.592 49.4456 127.001 49.391C127.411 49.4456 127.821 49.2544 128.039 48.9266H128.012Z" fill="white"/>
<path d="M131.509 38.491H133.394L134.405 46.5225L135.688 38.5183H137.218L138.557 46.5225L139.568 38.491H141.425L139.704 50.8933H137.901L136.508 42.6979L135.169 50.8933H133.284L131.509 38.491Z" fill="white"/>
<path d="M143.747 40.1574H141.698V38.491H148.036V40.1574H146.097V50.8933H143.829L143.747 40.1574Z" fill="white"/>
<path d="M148.829 38.491H151.069V43.7633H153.582V38.5729H155.849V50.9753H153.582V45.3751H151.069V50.9753H148.829V38.491Z" fill="white"/>
<path d="M117.413 87.1172L100.039 103.508C99.3009 104.109 98.9458 105.038 99.0551 105.967V152.243C99.0551 152.79 99.4922 153.227 100.039 153.254H117.986C118.533 153.254 118.97 152.79 118.97 152.243V87.4723C118.97 86.9259 118.533 85.9425 117.413 87.0625" fill="white"/>
<path d="M67.3934 108.644L50.0465 125.035C49.3089 125.636 48.9538 126.564 49.0357 127.521V152.271C49.0357 152.817 49.5001 153.254 50.0465 153.281H67.9671C68.5135 153.281 68.9506 152.817 68.9506 152.271V109.054C68.9506 108.507 68.5135 107.496 67.3934 108.644Z" fill="white"/>
<path d="M125.28 67.093C125.28 67.093 125.335 66.8198 125.28 66.7106C125.171 66.6286 125.062 66.6013 124.953 66.574H124.734L111.43 69.579H110.938C110.747 69.7975 110.747 70.098 110.938 70.3165V70.4531L113.971 73.4854L83.9209 103.535L70.016 89.6031C69.8521 89.4665 69.6063 89.4665 69.4424 89.6031L65.6725 93.4003L43.3537 115.692C43.2171 115.856 43.2171 116.102 43.3537 116.265L47.0962 120.254C47.2328 120.418 47.4514 120.418 47.588 120.309C47.588 120.309 47.6153 120.281 47.6426 120.254L69.6063 98.3995L79.7139 108.507L83.4838 112.277C83.6204 112.441 83.8663 112.441 84.0302 112.304C84.0302 112.304 84.0302 112.304 84.0575 112.277L118.232 78.1022L121.51 81.1891C121.702 81.3803 122.03 81.3803 122.221 81.1891C122.248 81.0798 122.248 80.9706 122.221 80.8613L125.144 67.2023L125.28 67.093Z" fill="white"/>
<path d="M92.4989 111.539L84.085 120.008C83.9484 120.145 83.7025 120.145 83.5659 120.008L75.9442 112.25C74.551 110.857 74.2505 111.977 74.2505 112.523V152.407C74.2505 152.954 74.6876 153.391 75.2339 153.418H93.1819C93.7282 153.418 94.1653 152.954 94.1653 152.407V111.84C94.1653 111.294 93.7282 110.31 92.4989 111.539Z" fill="white"/>
</g>
<defs>
<clipPath id="clip0_137_4830">
<rect width="170" height="170" fill="white"/>
</clipPath>
</defs>
</svg>
