<svg width="170" height="170" viewBox="0 0 170 170" fill="none" xmlns="http://www.w3.org/2000/svg">
<g clip-path="url(#clip0_137_4825)">
<path d="M170 0H0V170H170V0Z" fill="#193D6C"/>
<path d="M14.8029 21.1781C14.5019 21.3423 13.6537 21.6706 12.2309 22.1905L10.124 22.9566V18.3598C11.2459 17.8947 12.3403 17.3474 13.4075 16.7455C14.4199 16.2256 15.3502 15.5689 16.1437 14.7754H20.932V47.1993H14.7208L14.8029 21.1781Z" fill="white"/>
<path d="M33.491 19.509H24.6804V14.7754H39.538V18.825L32.6975 47.1993H26.6778L33.491 19.509Z" fill="white"/>
<path d="M54.3135 14.748H57.9527C60.0869 14.748 61.1266 15.9246 61.1266 18.2777C61.3729 19.8921 60.2511 21.397 58.6367 21.6433C58.3631 21.6706 58.0895 21.698 57.8158 21.6433H56.5025V27.1157H54.2588L54.3135 14.748ZM57.4328 20.0563C57.8979 20.111 58.3357 19.9742 58.6914 19.6732C58.9377 19.2354 59.0198 18.7703 58.9924 18.2777C59.0471 17.8947 59.0471 17.5116 58.9924 17.1285C58.9377 16.8823 58.8009 16.6907 58.582 16.5539C58.2536 16.3898 57.8979 16.335 57.5422 16.3624H56.5025V20.0563H57.4328Z" fill="white"/>
<path d="M63.2883 14.748H65.6961L68.1861 27.143H66.0792L65.5867 24.4068H63.4525L62.9326 27.143H60.7983L63.2883 14.748ZM65.3678 22.9566L64.5196 17.7579L63.6713 22.9566H65.3678Z" fill="white"/>
<path d="M69.0891 14.7482H72.0716C73.1113 14.6934 74.1237 14.9397 74.9993 15.5143C75.7107 16.171 76.0391 17.1013 75.957 18.059C75.9843 18.7157 75.8749 19.3723 75.6013 19.9743C75.3824 20.4668 74.9446 20.8772 74.4247 21.0414L76.1485 27.1431H73.9048L72.3999 21.4792H71.3328V27.1431H69.0891V14.7482ZM72.0442 20.2206C72.5367 20.2753 73.0566 20.1111 73.4123 19.7554C73.7407 19.345 73.8775 18.8251 73.8227 18.3052C73.8775 17.8127 73.7407 17.2928 73.467 16.8824C73.1387 16.5541 72.6462 16.3899 72.181 16.4446H71.3328V20.2206H72.0442Z" fill="white"/>
<path d="M78.5563 16.4171H76.4768V14.748H82.8248V16.4171H80.8V27.143H78.5563V16.4171Z" fill="white"/>
<path d="M83.4814 14.748H85.0684L88.0783 21.8348V14.748H89.9389V27.143H88.434L85.4241 19.7553V27.143H83.4814V14.748Z" fill="white"/>
<path d="M91.4985 14.748H96.6973V16.3624H93.7422V19.9195H96.068V21.5065H93.7422V25.6108H96.7247V27.143H91.4985V14.748Z" fill="white"/>
<path d="M97.7097 14.7482H100.692C101.732 14.6934 102.744 14.9397 103.62 15.5143C104.331 16.171 104.66 17.1013 104.578 18.059C104.605 18.7157 104.495 19.3723 104.222 19.9743C103.976 20.4668 103.565 20.8499 103.045 21.0414L104.769 27.1431H102.498L101.021 21.4792H99.9534V27.1431H97.7097V14.7482ZM100.665 20.2206C101.157 20.2753 101.677 20.1111 102.033 19.7554C102.361 19.345 102.498 18.8251 102.443 18.3052C102.498 17.8127 102.361 17.2928 102.088 16.8824C101.759 16.5541 101.267 16.3899 100.802 16.4446H99.9534V20.2206H100.665Z" fill="white"/>
<path d="M106.548 26.3495C105.973 25.556 105.645 24.5983 105.645 23.6133L107.587 23.2302C107.587 23.8596 107.724 24.4615 107.97 25.0361C108.162 25.4192 108.545 25.6928 108.983 25.6655C109.284 25.6655 109.585 25.556 109.776 25.3371C109.94 25.0909 110.05 24.7899 110.022 24.4889C110.022 24.0511 109.913 23.6133 109.694 23.2576C109.393 22.8472 109.037 22.4641 108.654 22.1358L107.095 20.7677C106.657 20.3846 106.301 19.9468 106.028 19.4543C105.754 18.9344 105.617 18.3598 105.645 17.7578C105.59 16.9096 105.918 16.0888 106.52 15.5142C107.177 14.9396 108.025 14.6386 108.873 14.6933C109.749 14.6112 110.597 14.9669 111.172 15.6236C111.664 16.335 111.938 17.1832 111.965 18.0588L110.022 18.4145C110.022 17.8947 109.913 17.3748 109.749 16.8823C109.585 16.5266 109.256 16.335 108.873 16.3624C108.572 16.3624 108.271 16.4718 108.08 16.6907C107.861 16.9096 107.751 17.238 107.779 17.5389C107.779 17.8947 107.861 18.223 108.025 18.524C108.244 18.8523 108.49 19.1533 108.791 19.3996L110.323 20.7677C110.843 21.2328 111.309 21.7801 111.692 22.382C112.02 22.984 112.184 23.668 112.184 24.3521C112.184 24.8993 112.047 25.4466 111.774 25.9391C111.527 26.4042 111.144 26.7873 110.679 27.0062C110.187 27.2798 109.639 27.4166 109.065 27.4166C108.107 27.444 107.177 27.0609 106.548 26.3495Z" fill="white"/>
<path d="M113.197 14.748H115.44V19.9195H117.985V14.748H120.229V27.143H117.985V21.6706H115.44V27.143H113.197V14.748Z" fill="white"/>
<path d="M121.87 14.748H124.087V27.143H121.87V14.748Z" fill="white"/>
<path d="M125.674 14.748H129.313C131.42 14.748 132.487 15.9246 132.487 18.2777C132.733 19.8921 131.611 21.397 129.997 21.6433C129.723 21.698 129.422 21.698 129.149 21.6433H127.917V27.1157H125.674V14.748ZM128.793 20.0563C129.231 20.111 129.696 19.9742 130.024 19.6732C130.27 19.2628 130.407 18.7703 130.352 18.2777C130.407 17.8947 130.407 17.5116 130.352 17.1285C130.298 16.8823 130.134 16.6907 129.915 16.5539C129.614 16.3898 129.258 16.335 128.902 16.3624H128.027V20.0563H128.793Z" fill="white"/>
<path d="M133.992 26.3496C133.417 25.5561 133.089 24.5984 133.089 23.6134L135.031 23.2303C135.031 23.8596 135.168 24.4616 135.414 25.0362C135.606 25.4466 136.016 25.6929 136.454 25.6655C136.755 25.6655 137.029 25.5561 137.22 25.3372C137.384 25.0909 137.494 24.7899 137.467 24.489C137.467 24.0512 137.357 23.6134 137.138 23.2577C136.837 22.8472 136.482 22.4642 136.098 22.1358L134.539 20.7677C134.128 20.3847 133.773 19.9469 133.472 19.4543C133.225 18.9345 133.089 18.3325 133.116 17.7579C133.061 16.9097 133.362 16.1162 133.964 15.5142C134.621 14.9396 135.469 14.6386 136.345 14.6934C137.193 14.6386 138.041 14.967 138.616 15.6237C139.108 16.3351 139.409 17.1833 139.409 18.0589L137.467 18.4146C137.467 17.8947 137.384 17.3748 137.193 16.8823C137.056 16.554 136.7 16.3351 136.345 16.3624C136.044 16.3624 135.743 16.4719 135.524 16.6908C135.332 16.937 135.223 17.238 135.223 17.539C135.223 17.8947 135.305 18.2231 135.469 18.524C135.688 18.8524 135.934 19.1534 136.235 19.3996L137.768 20.7677C138.315 21.2329 138.78 21.7801 139.136 22.3821C139.464 22.984 139.628 23.6681 139.628 24.3521C139.628 24.8994 139.491 25.4466 139.245 25.9391C138.999 26.4043 138.616 26.76 138.151 27.0063C137.658 27.2799 137.083 27.4441 136.509 27.4167C135.551 27.4441 134.621 27.061 133.992 26.3496Z" fill="white"/>
<path d="M54.3135 34.9961H59.4302V36.5557H56.5025V40.1675H58.8282V41.7545H56.5025V47.3911H54.2588L54.3135 34.9961Z" fill="white"/>
<path d="M60.7983 46.5428C60.1963 45.6399 59.8953 44.5728 59.9774 43.5056V38.8541C59.8953 37.787 60.1963 36.7472 60.7983 35.8716C61.5097 35.1602 62.5221 34.7772 63.5345 34.8593C64.5469 34.7498 65.5592 35.1329 66.2707 35.8716C66.8726 36.7472 67.1736 37.787 67.0915 38.8541V43.5056C67.1736 44.5728 66.8726 45.6399 66.2707 46.5155C65.5866 47.2816 64.5742 47.692 63.5345 47.5826C62.5221 47.6647 61.5097 47.2816 60.7983 46.5428ZM64.711 45.5031C64.9026 45.0653 64.9846 44.6001 64.9573 44.135V38.4163C64.9846 37.9512 64.9026 37.486 64.711 37.0756C64.5469 36.7472 64.2185 36.6104 63.6986 36.6104C63.1788 36.6104 62.8504 36.7472 62.6862 37.0756C62.4673 37.486 62.3853 37.9512 62.4126 38.4163V44.135C62.3853 44.6001 62.4673 45.0653 62.6862 45.5031C62.9051 45.8588 63.2882 46.0503 63.6986 45.9956C64.1091 46.0503 64.4921 45.8588 64.711 45.5031Z" fill="white"/>
<path d="M68.3503 34.996H71.3328C72.3452 34.9139 73.3849 35.1875 74.2332 35.7621C74.9446 36.3914 75.3277 37.3491 75.2182 38.3068C75.2182 38.9635 75.1088 39.6202 74.8625 40.2221C74.6162 40.7146 74.2058 41.0977 73.6859 41.2892L75.4097 47.391H73.1387L71.6611 41.727H70.594V47.391H68.3503V34.996ZM71.3054 40.3042C71.798 40.3589 72.2905 40.1948 72.6735 39.8664C72.9745 39.456 73.1387 38.9361 73.084 38.4162C73.1387 37.9237 73.0019 37.4038 72.7283 36.9934C72.3999 36.6651 71.9074 36.5009 71.4423 36.5556H70.594V40.3042H71.3054Z" fill="white"/>
<path d="M80.9367 36.6652H78.8572V34.9961H85.2052V36.6652H83.1804V47.3911H80.9367V36.6652Z" fill="white"/>
<path d="M85.7798 34.9961H88.0235V40.1675H90.5681V34.9961H92.8118V47.3911H90.5681V41.9187H88.0235V47.3911H85.7798V34.9961Z" fill="white"/>
<path d="M94.262 34.9961H99.4607V36.6105H96.5056V40.1675H98.8314V41.7271H96.5056V45.8588H99.4881V47.3911H94.262V34.9961Z" fill="white"/>
<path d="M104.195 46.4881C103.62 45.5304 103.346 44.4359 103.401 43.3141V39.1551C103.319 38.0332 103.62 36.9114 104.195 35.9537C104.879 35.1602 105.891 34.7498 106.931 34.8593C107.943 34.7498 108.956 35.0781 109.667 35.7896C110.269 36.5831 110.542 37.5407 110.46 38.5258V39.1824H108.299V38.471C108.326 38.1153 108.326 37.7596 108.299 37.4039C108.244 37.1577 108.135 36.9661 107.943 36.802C107.724 36.6378 107.423 36.5557 107.15 36.5831C106.849 36.5557 106.548 36.6651 106.301 36.8567C106.11 37.0482 105.973 37.2945 105.946 37.5681C105.918 37.9238 105.918 38.3069 105.946 38.6626V43.8613C105.918 44.4086 106 44.9558 106.219 45.4483C106.63 46.0503 107.451 46.1597 108.053 45.7493C108.162 45.6672 108.271 45.5578 108.354 45.4483C108.572 44.9285 108.682 44.3812 108.655 43.8066V42.6574H107.314V41.2346H110.679V47.5005H109.202L109.065 46.2966C108.764 47.1721 107.888 47.7467 106.958 47.692C105.891 47.8836 104.796 47.4184 104.195 46.4881Z" fill="white"/>
<path d="M112.321 46.5428C111.719 45.6399 111.418 44.5728 111.5 43.5056V38.8541C111.418 37.787 111.719 36.7472 112.321 35.8716C113.032 35.1329 114.045 34.7772 115.057 34.8593C116.07 34.7498 117.082 35.1329 117.793 35.8716C118.395 36.7472 118.696 37.787 118.614 38.8541V43.5056C118.696 44.5728 118.395 45.6399 117.793 46.5155C117.109 47.2816 116.097 47.6647 115.057 47.5826C114.045 47.6647 113.032 47.2816 112.321 46.5428ZM116.097 45.421C116.288 44.9832 116.371 44.518 116.343 44.0529V38.3342C116.371 37.8691 116.288 37.4039 116.097 36.9935C115.933 36.6651 115.604 36.5283 115.085 36.5283C114.674 36.4736 114.264 36.6378 114.045 36.9935C113.853 37.4039 113.771 37.8691 113.799 38.3342V44.0529C113.799 44.518 113.853 44.9832 114.045 45.421C114.264 45.7767 114.674 45.9682 115.085 45.9135C115.468 45.9682 115.851 45.8314 116.097 45.5031V45.421Z" fill="white"/>
<path d="M121.706 34.9961H124.114L126.604 47.3911H124.497L124.032 44.6549H121.87L121.35 47.3911H119.243L121.706 34.9961ZM123.786 43.2047L122.937 38.0059L122.089 43.2047H123.786Z" fill="white"/>
<path d="M127.397 34.9961H129.641V45.9409H132.651V47.4732H127.397V34.9961Z" fill="white"/>
<path d="M133.964 46.6247C133.39 45.8312 133.061 44.8736 133.061 43.8885L135.004 43.5055C135.004 44.1348 135.141 44.7367 135.387 45.3114C135.579 45.7218 135.989 45.968 136.427 45.9407C136.728 45.9407 137.001 45.8312 137.193 45.6123C137.357 45.3661 137.467 45.0651 137.439 44.7641C137.439 44.3263 137.33 43.8885 137.111 43.5328C136.81 43.1224 136.454 42.7393 136.071 42.411L134.511 41.0429C134.074 40.6598 133.718 40.222 133.444 39.7021C133.198 39.1823 133.061 38.6077 133.089 38.0331C133.034 37.1848 133.335 36.364 133.937 35.762C134.594 35.2148 135.442 34.9138 136.317 34.9685C137.166 34.9138 138.014 35.2421 138.588 35.8988C139.081 36.6102 139.355 37.4585 139.382 38.334L137.439 38.6898C137.439 38.1699 137.357 37.65 137.166 37.1575C137.029 36.8291 136.673 36.6102 136.317 36.6376C136.016 36.6376 135.715 36.7471 135.496 36.9659C135.278 37.1848 135.168 37.5132 135.196 37.8142C135.196 38.1699 135.278 38.4982 135.442 38.7992C135.661 39.1275 135.907 39.4285 136.208 39.6748L137.74 41.0429C138.26 41.508 138.725 42.0553 139.108 42.6572C139.437 43.2592 139.601 43.9433 139.601 44.6273C139.601 45.1745 139.464 45.7218 139.218 46.2143C138.971 46.6795 138.588 47.0352 138.123 47.2814C136.755 47.9928 135.086 47.7739 133.964 46.7342V46.6247Z" fill="white"/>
<path d="M128.382 103.182C128.382 91.2249 118.915 81.4019 106.958 80.9641C102.854 69.39 90.1577 63.3157 78.5562 67.42C72.2083 69.6636 67.2284 74.6435 65.0121 80.9641C52.7539 81.4019 43.1498 91.69 43.5876 103.948C43.8339 110.542 46.9532 116.672 52.1793 120.721C51.6047 122.719 51.3037 124.825 51.3037 126.905C51.3037 139.19 61.2908 149.15 73.5764 149.123C78.0364 149.123 82.4143 147.755 86.1082 145.237C89.7473 147.7 94.0431 149.013 98.4484 148.986C110.707 148.986 120.666 139.054 120.694 126.795C120.694 124.743 120.42 122.691 119.845 120.694C125.236 116.48 128.382 110.023 128.382 103.182ZM103.757 88.3792C103.757 97.1624 97.2992 104.605 88.6255 105.918C88.4613 105.015 88.3792 104.112 88.3792 103.182C88.3792 94.3989 94.8366 86.929 103.538 85.643C103.675 86.546 103.757 87.4763 103.757 88.3792ZM86.0808 139.464C79.0488 132.651 78.8572 121.433 85.6704 114.4C85.7524 114.318 85.8345 114.236 85.9166 114.154C92.9487 120.967 93.1402 132.186 86.327 139.218C86.245 139.3 86.1629 139.382 86.0808 139.464ZM68.4597 85.643C77.1608 86.929 83.6182 94.3989 83.6182 103.182C83.6182 104.112 83.5361 105.015 83.372 105.918C73.7132 104.523 67.0095 95.5481 68.4323 85.8893C68.4323 85.8072 68.4323 85.7251 68.4597 85.643ZM81.7029 111.144C78.6931 117.137 72.5366 120.94 65.8329 120.94C62.9873 120.94 60.169 120.283 57.6243 118.943C60.6341 112.923 66.7632 109.12 73.4943 109.12C76.3673 109.12 79.1856 109.804 81.7029 111.144ZM90.2125 111.008C98.8862 106.466 109.612 109.804 114.154 118.477C114.236 118.614 114.318 118.778 114.373 118.915C105.699 123.457 94.9734 120.119 90.4314 111.445C90.3493 111.309 90.2672 111.144 90.2125 111.008ZM85.9987 70.5939C93.1128 70.5392 99.5976 74.753 102.416 81.2925C95.2197 82.5238 89.0906 87.1753 85.9987 93.7695C82.9068 87.23 76.8598 82.5785 69.7183 81.2925C72.5366 74.8077 78.912 70.5939 85.9987 70.5939ZM48.075 103.182C48.075 94.1252 54.9429 86.5186 63.945 85.5336C63.8081 86.4365 63.7534 87.3668 63.7534 88.2698C63.7534 94.5357 66.3802 100.501 71.0317 104.687C63.8081 105.535 57.4328 109.831 53.9578 116.234C50.2092 112.868 48.075 108.107 48.075 103.073M55.7911 126.795C55.7911 125.564 55.9279 124.306 56.1741 123.102C59.184 124.552 62.4948 125.318 65.8329 125.318C69.5815 125.318 73.3027 124.388 76.5862 122.582C75.2454 129.668 77.4618 136.974 82.4964 142.146C74.0415 147.098 63.1788 144.28 58.2263 135.825C56.6119 133.089 55.7911 129.997 55.7911 126.823M116.206 126.659C116.206 136.454 108.244 144.389 98.4484 144.417C95.3839 144.417 92.3467 143.623 89.6926 142.091C93.6053 137.959 95.7943 132.514 95.7943 126.823C95.7943 125.4 95.6575 123.95 95.3839 122.554C98.6673 124.36 102.389 125.318 106.137 125.291C109.503 125.291 112.841 124.524 115.851 123.047C116.097 124.223 116.206 125.4 116.206 126.604M101.103 104.523C105.699 100.309 108.271 94.3441 108.244 88.1056C108.244 87.2027 108.162 86.2724 108.052 85.3694C117.793 86.4092 124.853 95.1376 123.813 104.879C123.348 109.202 121.296 113.224 118.067 116.152C114.647 109.749 108.326 105.398 101.103 104.495" fill="white"/>
</g>
<defs>
<clipPath id="clip0_137_4825">
<rect width="170" height="170" fill="white"/>
</clipPath>
</defs>
</svg>
