<svg width="170" height="170" viewBox="0 0 170 170" fill="none" xmlns="http://www.w3.org/2000/svg">
<g clip-path="url(#clip0_137_4823)">
<path d="M170 0H0V170H170V0Z" fill="#F0503A"/>
<path d="M17.044 46.5412C15.8345 45.7715 14.9273 44.5619 14.5149 43.1874C14.0201 41.4005 13.8002 39.5312 13.8552 37.6893H19.8481C19.7656 39.0638 19.958 40.4383 20.3704 41.7579C20.6728 42.5826 21.525 43.1049 22.4047 43.0224C23.0919 43.0774 23.7517 42.775 24.164 42.2252C24.5764 41.5654 24.8238 40.8232 24.8788 40.0535C24.8788 39.1188 25.0162 37.7993 25.0162 36.0674C25.0712 34.5829 24.9063 33.0709 24.4664 31.6414C24.164 30.6793 23.2294 30.0745 22.2397 30.1845C20.8102 30.1845 19.8755 31.1466 19.4907 33.0984H14.1576L14.5974 14.6799H29.5246V20.0955H19.6831L19.3257 27.2705C19.8481 26.7207 20.5078 26.3083 21.2501 26.1159C22.1847 25.8135 23.1744 25.6486 24.164 25.6486C26.2258 25.5661 28.1501 26.6107 29.1673 28.3976C30.4043 30.7068 31.0091 33.3184 30.8442 35.9299C30.8992 38.0742 30.6517 40.2184 30.1569 42.3077C29.7721 43.9021 28.8924 45.3041 27.6003 46.2938C25.9784 47.3934 24.0541 47.8882 22.1023 47.7508C20.3429 47.8057 18.5835 47.3934 17.044 46.5412Z" fill="white"/>
<path d="M45.3314 26.1433C44.7541 25.1811 44.5067 24.0815 44.5617 22.9819V18.8859C44.4792 17.7588 44.7541 16.6591 45.3589 15.697C46.0462 14.8998 47.0633 14.4874 48.1079 14.5974C49.1251 14.4599 50.1422 14.8173 50.857 15.532C51.4617 16.3293 51.7367 17.2914 51.6542 18.2811V18.9134H49.4824V18.1711C49.5099 17.8137 49.5099 17.4564 49.4824 17.099C49.455 16.8516 49.3175 16.6317 49.1251 16.4667C48.8777 16.3293 48.6028 16.2468 48.3279 16.2743C48.0255 16.2468 47.7231 16.3568 47.5031 16.5492C47.3107 16.7416 47.1733 16.9615 47.1458 17.2364C47.1183 17.6213 47.1183 17.9787 47.1458 18.3635V23.5592C47.1458 24.109 47.2282 24.6313 47.4482 25.1262C47.6681 25.4835 48.0804 25.7035 48.4928 25.6485C48.9326 25.676 49.345 25.4835 49.5649 25.0987C49.7848 24.5764 49.8948 24.0265 49.8673 23.4492V22.2672H48.5478V20.8652H51.7092V27.1329H50.2522L50.0872 25.9234C49.7848 26.8031 48.9326 27.3529 47.998 27.2979C46.9533 27.4628 45.9362 26.9955 45.3314 26.1433Z" fill="white"/>
<path d="M53.2212 14.7622H58.4169V16.3292H55.4754V19.9029H57.8121V21.4698H55.4754V25.5934H58.4443V27.1328H53.2212V14.7622Z" fill="white"/>
<path d="M59.709 14.7622H61.2759L64.2999 21.8272V14.7622H66.1417V27.1328H64.6572L61.6333 19.738V27.1328H59.709V14.7622Z" fill="white"/>
<path d="M67.9561 14.7624H70.9525C71.7497 14.7074 72.5744 14.8448 73.3167 15.1472C73.8665 15.3946 74.3063 15.8345 74.5262 16.3843C74.8011 17.099 74.9386 17.8413 74.9111 18.611V23.1194C74.9111 23.8891 74.8011 24.6863 74.5262 25.4011C74.3063 25.9784 73.894 26.4182 73.3442 26.6931C72.6294 27.023 71.8597 27.1605 71.0625 27.133H68.0385L67.9561 14.7624ZM70.9525 25.566C71.3374 25.5935 71.6947 25.5111 72.0246 25.3186C72.2445 25.1262 72.4095 24.8513 72.4645 24.5764C72.492 24.1091 72.492 23.6692 72.4645 23.2019V18.4461C72.5194 18.0337 72.5194 17.6213 72.4645 17.209C72.4095 16.9341 72.272 16.6867 72.0246 16.5492C71.6672 16.3843 71.3099 16.3293 70.925 16.3568H70.2652V25.566H70.9525Z" fill="white"/>
<path d="M76.4504 14.7622H81.6736V16.3292H78.6497V19.9029H80.9863V21.4698H78.6497V25.5934H81.6461V27.1328H76.4504V14.7622Z" fill="white"/>
<path d="M82.8833 14.7622H85.8523C86.8969 14.6797 87.914 14.9546 88.7937 15.5044C89.5085 16.1367 89.8658 17.0989 89.7559 18.0336C89.7834 18.6933 89.6734 19.3531 89.3985 19.9579C89.1511 20.4527 88.7387 20.8376 88.2164 21.03L89.9483 27.1328H87.6941L86.2096 21.4698H85.1375V27.1328H82.8833V14.7622ZM85.8523 20.0678C86.3471 20.0953 86.8419 19.9579 87.2268 19.628C87.5017 19.1881 87.6391 18.6933 87.6116 18.171C87.6666 17.6762 87.5292 17.1539 87.2543 16.7415C86.9244 16.3841 86.4296 16.2467 85.9622 16.3017H85.1375V20.0678H85.8523Z" fill="white"/>
<path d="M44.7542 34.9951H49.9498V36.5896H47.0084V40.1633H49.3175V41.7302H47.0084V45.8538H49.9773V47.3932H44.7542V34.9951Z" fill="white"/>
<path d="M56.0251 48.9327C55.5853 48.5203 55.2004 48.053 54.8705 47.5307H54.5956C53.5785 47.6406 52.5614 47.2558 51.8466 46.486C51.2418 45.6063 50.9394 44.5342 51.0219 43.4621V38.8437C50.9394 37.7991 51.2418 36.727 51.8466 35.8748C53.4411 34.5277 55.7502 34.5277 57.3447 35.8748C57.9495 36.727 58.2519 37.7991 58.1694 38.8437V43.4896C58.1694 45.4139 57.5921 46.6235 56.465 47.1733C56.7949 47.6406 57.2347 48.053 57.702 48.3554L57.2622 49.8673C56.7949 49.6199 56.3825 49.3175 56.0251 48.9327ZM55.6403 45.3864C55.8327 44.9466 55.9152 44.4792 55.8877 44.0119V38.3214C55.8877 37.8541 55.8327 37.3867 55.6403 36.9744C55.3929 36.6445 55.008 36.4521 54.5956 36.507C54.1833 36.4521 53.7984 36.6445 53.5785 36.9744C53.3861 37.3867 53.2761 37.8541 53.3036 38.3214V44.0394C53.3036 44.5067 53.3861 44.9741 53.5785 45.4139C53.7984 45.7438 54.1833 45.9362 54.5956 45.8812C55.008 45.9087 55.4204 45.7438 55.6403 45.3864Z" fill="white"/>
<path d="M61.0559 47.0634C60.5611 46.7335 60.1762 46.2387 59.9838 45.6614C59.7639 44.9191 59.6539 44.1494 59.6814 43.3797V35.1326H61.8806V43.7645C61.8806 44.3418 61.9356 44.8916 62.128 45.4414C62.4854 46.0187 63.2551 46.1837 63.8324 45.8263C63.9974 45.7163 64.1073 45.6064 64.2173 45.4414C64.4097 44.8916 64.4922 44.3418 64.4647 43.7645V34.9951H66.6639V43.2422C66.6639 44.0119 66.5815 44.7817 66.3615 45.5239C66.1691 46.1012 65.7842 46.596 65.2894 46.9259C63.9424 47.5857 62.4029 47.5857 61.0559 46.9259V47.0634Z" fill="white"/>
<path d="M70.2102 34.9951H72.6294L75.1035 47.3932H73.0142L72.5194 44.6442H70.3752L69.8528 47.3932H67.7361L70.2102 34.9951ZM72.272 43.0773L71.4473 37.8816L70.5951 43.0773H72.272Z" fill="white"/>
<path d="M76.2581 34.9951H78.5123V45.9912H81.5362V47.5307H76.2581V34.9951Z" fill="white"/>
<path d="M82.6909 34.9951H84.9176V47.3932H82.6909V34.9951Z" fill="white"/>
<path d="M87.969 36.672H85.9072V34.9951H92.2575V36.672H90.1957V47.3932H87.9415V36.672H87.969Z" fill="white"/>
<path d="M94.8964 42.6376L92.3948 34.9678H94.5115L96.051 39.8885L97.4805 34.9678H99.5423L97.0681 42.6376V47.3659H94.8964V42.6376Z" fill="white"/>
<path d="M124.009 64.2173H102.786C102.621 64.2173 102.511 64.3272 102.511 64.4922V71.5297C102.511 71.6946 102.621 71.8046 102.786 71.8046H111.253L101.852 81.1238C89.7283 71.6946 72.272 73.8664 62.8428 85.9896C53.4136 98.1128 55.5854 115.569 67.7086 124.998C71.6122 128.022 76.2306 129.974 81.1239 130.606V138.853H72.8768C72.7118 138.853 72.6019 138.963 72.6019 139.128V146.688C72.6019 146.853 72.7118 146.963 72.8768 146.963H81.1239V154.963C81.1239 155.1 81.2613 155.21 81.3988 155.21H88.9586C89.096 155.21 89.206 155.1 89.2335 154.963V146.963H97.4806C97.6455 146.963 97.7555 146.853 97.7555 146.688V139.128C97.7555 138.963 97.6455 138.853 97.4806 138.853H89.2335V130.606C104.381 128.105 114.635 113.81 112.133 98.6626C111.446 94.5391 109.851 90.608 107.432 87.1717L116.696 77.9349V85.8247C116.696 85.9896 116.806 86.0996 116.971 86.0996H124.009C124.174 86.0996 124.284 85.9896 124.284 85.8247V64.6296C124.284 64.6296 124.201 64.3822 124.064 64.3547C124.064 64.3547 124.036 64.3547 124.009 64.3547M84.6976 123.514C73.3991 123.514 64.2448 114.332 64.2723 103.034C64.2723 91.7351 73.4541 82.5808 84.7526 82.6083C96.0511 82.6083 105.205 91.7901 105.178 103.089C105.123 114.36 95.9686 123.486 84.6976 123.486" fill="white"/>
<path d="M97.2057 94.6491H72.4645C72.4645 94.6491 72.217 94.759 72.217 94.8965V100.917C72.217 100.917 72.327 101.164 72.4645 101.164H97.2057C97.2057 101.164 97.4531 101.082 97.4806 100.944C97.4806 100.944 97.4806 100.944 97.4806 100.917V94.869C97.4806 94.869 97.3707 94.6216 97.2332 94.6216C97.2332 94.6216 97.2332 94.6216 97.2057 94.6216" fill="white"/>
<path d="M97.2057 105.398H72.4645C72.4645 105.398 72.217 105.508 72.217 105.645V111.638C72.217 111.638 72.327 111.885 72.4645 111.885H97.2057C97.2057 111.885 97.4531 111.803 97.4806 111.665C97.4806 111.665 97.4806 111.665 97.4806 111.638V105.645C97.4806 105.645 97.3707 105.398 97.2332 105.398C97.2332 105.398 97.2332 105.398 97.2057 105.398Z" fill="white"/>
</g>
<defs>
<clipPath id="clip0_137_4823">
<rect width="170" height="170" fill="white"/>
</clipPath>
</defs>
</svg>
