<svg width="170" height="170" viewBox="0 0 170 170" fill="none" xmlns="http://www.w3.org/2000/svg">
<g clip-path="url(#clip0_137_4821)">
<path d="M170 0H0V170H170V0Z" fill="#F47635"/>
<path d="M15.777 45.5716C14.3752 43.8125 13.6881 41.6136 13.8255 39.3598V38.865H19.68C19.5975 39.937 19.7625 40.9814 20.1198 41.9984C20.5321 42.6581 21.2742 43.0154 22.0438 42.9055C22.5935 42.9604 23.1432 42.7131 23.528 42.3008C23.9403 41.7236 24.1877 41.0364 24.2426 40.3218C24.3801 39.0025 24.435 37.6831 24.435 36.3638V33.0655C24.0502 33.6702 23.473 34.165 22.7859 34.4398C21.9613 34.7971 21.0818 34.962 20.2022 34.962C18.0858 35.0995 16.0519 34.0275 14.9524 32.2135C13.7705 30.0971 13.1933 27.6783 13.3033 25.2321C13.3033 17.8933 16.2168 14.2377 22.0438 14.2377C24.545 14.0453 27.0187 15.0623 28.6404 16.9863C30.1521 19.2127 30.8942 21.8788 30.7568 24.5724V36.3913C30.9217 39.2773 30.262 42.1359 28.8053 44.6371C27.2111 46.781 24.5725 47.9354 21.9063 47.633C19.6525 47.8254 17.4536 47.0833 15.777 45.5716ZM24.435 28.7502V23.5829C24.49 22.4285 24.2976 21.3016 23.9128 20.2296C23.638 19.46 22.8684 18.9653 22.0438 18.9928C21.1642 18.9378 20.3671 19.4875 20.1198 20.3121C19.735 21.6864 19.57 23.1431 19.625 24.5724C19.625 25.6443 19.6525 26.6888 19.7625 27.7608C19.7625 28.4204 20.0098 29.0251 20.4221 29.5473C20.8344 30.0146 21.4391 30.2895 22.0713 30.2345C23.0608 30.207 23.9678 29.6298 24.435 28.7502Z" fill="white"/>
<path d="M37.958 27.0187V14.6226H40.1844V27.0187H37.958Z" fill="white"/>
<path d="M41.3113 27.0187V14.6226H42.878L45.9014 21.6864V14.6226H47.7705V27.0187H46.2862L43.2353 19.5975V27.0187H41.3113Z" fill="white"/>
<path d="M48.8699 27.0187V14.6226H51.7834C52.5805 14.5951 53.405 14.7325 54.1472 15.0349C54.6969 15.2822 55.1366 15.7495 55.3565 16.2992C55.6314 16.9864 55.7413 17.7285 55.7138 18.4706V23.0058C55.7138 23.7754 55.6314 24.5175 55.3565 25.2321C55.1366 25.8093 54.7244 26.2766 54.1746 26.5789C53.46 26.9088 52.6629 27.0462 51.8658 27.0187H48.8699ZM51.1237 25.4245H51.8109C52.1957 25.452 52.6079 25.3695 52.9378 25.1497C53.1852 24.9573 53.3226 24.6549 53.3501 24.3526C53.3776 23.9128 53.3776 23.5005 53.3501 23.0607V18.2232C53.3776 17.8109 53.3776 17.4261 53.3501 17.0138C53.2951 16.739 53.1302 16.4916 52.8828 16.3542C52.553 16.1893 52.1682 16.1068 51.8109 16.1343H51.1512V25.4245H51.1237Z" fill="white"/>
<path d="M59.9741 27.0186C59.232 27.0735 58.4624 26.8811 57.8302 26.4963C57.3355 26.1665 56.9507 25.6443 56.7857 25.0671C56.5659 24.3524 56.4834 23.5828 56.4834 22.8407V14.595H58.7098V24.325C58.7647 24.6273 58.8747 24.9022 59.0671 25.1495C59.287 25.3694 59.5893 25.5069 59.9191 25.4794C60.249 25.5069 60.5788 25.3969 60.7987 25.1495C60.9911 24.9022 61.101 24.6273 61.156 24.325C61.1835 23.9676 61.1835 23.5828 61.156 23.2255V14.595H63.3274V22.8407C63.3274 23.5828 63.2449 24.3524 63.0525 25.0671C62.8876 25.6443 62.5028 26.1665 62.0081 26.4963C61.4034 26.8537 60.6887 27.0461 59.9741 27.0186Z" fill="white"/>
<path d="M67.5601 27.0186C66.928 27.0186 66.2958 26.8812 65.7186 26.5788C65.1963 26.2765 64.8115 25.8367 64.5642 25.287C64.2893 24.6273 64.1519 23.9402 64.1519 23.2255L66.0759 22.8407C66.0759 23.2805 66.1584 23.7203 66.2683 24.1326C66.3233 24.4349 66.4882 24.7373 66.7081 24.9571C66.928 25.177 67.2028 25.287 67.5052 25.2595C67.8075 25.287 68.0824 25.177 68.2748 24.9297C68.4397 24.6823 68.5221 24.4074 68.4946 24.1051C68.5221 23.6378 68.3847 23.1706 68.1373 22.7858C67.8625 22.401 67.5326 22.0436 67.1478 21.7413L65.6086 20.367C65.1963 20.0097 64.839 19.5974 64.5642 19.1027C64.2618 18.5804 64.1244 17.9757 64.1519 17.3711C64.0694 16.519 64.3993 15.6944 65.0314 15.1172C65.6636 14.54 66.5157 14.2651 67.3677 14.3201C67.8625 14.3201 68.3572 14.4026 68.8245 14.5675C69.1818 14.7324 69.4841 14.9798 69.7315 15.3096C69.9789 15.6394 70.1438 16.0242 70.2537 16.409C70.3637 16.8213 70.4461 17.2336 70.4736 17.6734L68.5496 18.0032C68.5496 17.6734 68.4672 17.3161 68.4122 16.9862C68.3572 16.7114 68.2198 16.464 68.0549 16.2441C67.8625 16.0792 67.5876 15.9693 67.3128 15.9968C67.0104 15.9968 66.7356 16.1067 66.5432 16.3266C66.3508 16.5465 66.2683 16.8488 66.2683 17.1512C66.2683 17.5085 66.3508 17.8658 66.5432 18.1681C66.7356 18.498 67.0104 18.7728 67.2853 19.0202L68.8245 20.367C69.3467 20.8068 69.7865 21.3015 70.1438 21.8787C70.5286 22.5109 70.721 23.2255 70.6935 23.9677C70.6935 24.5174 70.5561 25.0671 70.2812 25.5343C70.0339 26.0016 69.6765 26.3864 69.2093 26.6338C68.6871 26.9086 68.1373 27.0186 67.5601 27.0186Z" fill="white"/>
<path d="M72.4526 27.0187V16.2717H70.4736V14.6226H76.658V16.2717H74.7065V27.0187H72.4526Z" fill="white"/>
<path d="M76.8779 27.0187V14.6226H79.8464C80.561 14.5951 81.3032 14.705 81.9903 14.9249C82.54 15.0898 82.9798 15.4471 83.2821 15.9419C83.612 16.5466 83.7769 17.2062 83.7494 17.8934C83.8044 18.3331 83.8044 18.8004 83.7494 19.2402C83.6669 19.5975 83.502 19.9548 83.2821 20.2572C83.0348 20.5595 82.7324 20.7794 82.3751 20.9168L84.1067 27.0187H81.8254L80.3411 21.3291H79.2967V27.0187H76.8779ZM79.1593 19.8998H79.8464C80.2037 19.8998 80.5885 19.8449 80.9184 19.7074C81.1657 19.5975 81.3581 19.3776 81.4681 19.1028C81.578 18.7454 81.633 18.3881 81.633 18.0308C81.688 17.5361 81.5505 17.0413 81.2757 16.629C80.9458 16.2717 80.4511 16.1068 79.9838 16.1618H79.1593V19.8998Z" fill="white"/>
<path d="M86.3606 27.0187V22.2911L83.8594 14.6226H85.9758L87.4875 19.515L88.9443 14.6226H91.0057L88.532 22.2911V27.0187H86.3606Z" fill="white"/>
<path d="M91.1156 28.9975L90.9232 28.2554C91.198 28.173 91.4179 28.008 91.6103 27.8156C91.8027 27.5683 91.9127 27.2659 91.9127 26.9361H90.8132V24.8472H92.8472V26.7437C92.8472 27.2934 92.7097 27.8431 92.4074 28.2829C92.0776 28.6677 91.6103 28.9151 91.1156 28.9975Z" fill="white"/>
<path d="M96.5303 27.0187V14.6226H98.8666V27.0187H96.5303Z" fill="white"/>
<path d="M99.8835 27.0186V14.6224H101.615L104.364 21.5214V14.4575H106.233V27.0186H104.749L101.698 19.5974V27.0186H99.8835Z" fill="white"/>
<path d="M107.442 27.0187V14.6226H109.009L112.032 21.6864V14.6226H113.901V27.0187H112.39L109.366 19.5975V27.0187H107.442Z" fill="white"/>
<path d="M118.354 27.0186C117.612 27.0461 116.87 26.8811 116.238 26.5238C115.715 26.194 115.331 25.6992 115.138 25.122C114.918 24.4349 114.808 23.6928 114.808 22.9507V18.3056C114.808 17.5634 114.891 16.8488 115.138 16.1617C115.331 15.5845 115.743 15.1172 116.238 14.7874C117.584 14.1552 119.124 14.1552 120.47 14.7874C120.993 15.0897 121.377 15.5845 121.57 16.1617C121.817 16.8488 121.955 17.5634 121.927 18.3056V22.9507C121.927 23.6928 121.817 24.4074 121.57 25.0946C121.377 25.6718 120.993 26.194 120.47 26.5238C119.838 26.8811 119.096 27.0461 118.354 27.0186ZM118.354 25.3419C118.656 25.3419 118.931 25.287 119.179 25.0946C119.371 24.9296 119.508 24.6823 119.536 24.4349C119.563 24.1326 119.563 23.8027 119.536 23.5004V17.7833C119.563 17.481 119.563 17.1511 119.536 16.8488C119.508 16.6014 119.371 16.3541 119.179 16.1891C118.931 16.0242 118.656 15.9418 118.354 15.9693C118.052 15.9693 117.777 16.0242 117.529 16.1891C117.337 16.3815 117.227 16.6014 117.172 16.8488C117.145 17.1511 117.145 17.481 117.172 17.7833V23.5004C117.145 23.8027 117.145 24.1326 117.172 24.4349C117.2 24.6823 117.337 24.9296 117.529 25.0946C117.749 25.3144 118.052 25.4244 118.354 25.4244V25.3419Z" fill="white"/>
<path d="M124.648 27.0187L122.147 14.6226H124.154L125.775 23.3905L127.315 14.6226H129.376L126.875 27.0187H124.648Z" fill="white"/>
<path d="M128.744 27.0187L131.217 14.6226H133.636L136.137 27.0187H134.021L133.554 24.2701H131.382L130.888 27.0187H128.744ZM131.492 22.7034H133.196L132.344 17.5086L131.492 22.7034Z" fill="white"/>
<path d="M137.347 27.0187V16.2717H135.368V14.6226H141.552V16.2717H139.601V27.0187H137.347Z" fill="white"/>
<path d="M141.827 27.0187V14.6226H144.081V27.0187H141.827Z" fill="white"/>
<path d="M148.561 27.0186C147.819 27.0461 147.077 26.8811 146.445 26.5238C145.922 26.194 145.538 25.6992 145.345 25.122C145.125 24.4349 145.015 23.6928 145.015 22.9507V18.3056C145.015 17.5634 145.098 16.8488 145.345 16.1617C145.538 15.5845 145.95 15.1172 146.445 14.7874C147.791 14.1552 149.331 14.1552 150.677 14.7874C151.2 15.0897 151.585 15.5845 151.777 16.1617C152.024 16.8488 152.162 17.5634 152.134 18.3056V22.9507C152.134 23.6928 152.024 24.4074 151.777 25.0946C151.585 25.6718 151.2 26.194 150.677 26.5238C150.045 26.8811 149.303 27.0461 148.561 27.0186ZM148.561 25.3419C148.863 25.3419 149.138 25.287 149.386 25.0946C149.578 24.9296 149.715 24.6823 149.743 24.4349C149.77 24.1326 149.77 23.8027 149.743 23.5004V17.7833C149.77 17.481 149.77 17.1511 149.743 16.8488C149.715 16.6014 149.578 16.3541 149.386 16.1891C149.138 16.0242 148.863 15.9418 148.561 15.9693C148.259 15.9693 147.984 16.0242 147.736 16.1891C147.544 16.3815 147.434 16.6014 147.379 16.8488C147.352 17.1511 147.352 17.481 147.379 17.7833V23.5004C147.352 23.8027 147.352 24.1326 147.379 24.4349C147.407 24.6823 147.544 24.9296 147.736 25.0946C147.956 25.3144 148.259 25.4244 148.561 25.4244V25.3419Z" fill="white"/>
<path d="M153.014 27.0187V14.6226H154.58L157.604 21.6864V14.6226H159.473V27.0187H157.961L154.938 19.5975V27.0187H153.014Z" fill="white"/>
<path d="M37.2708 47.1657L39.7445 34.7695H42.1632L44.6644 47.1657H42.548L42.0533 44.4171H39.9094L39.4146 47.1657H37.2708ZM40.0193 42.8779H41.7235L40.8714 37.683L40.0193 42.8779Z" fill="white"/>
<path d="M45.2417 47.1657V34.7695H46.8084L49.8318 41.8334V34.7695H51.7009V47.1657H50.1892L47.1657 39.772V47.1657H45.2417Z" fill="white"/>
<path d="M52.9653 47.1657V34.7695H55.9063C56.7034 34.7421 57.528 34.8795 58.2701 35.1818C58.8198 35.4567 59.2321 35.924 59.4795 36.4737C59.7268 37.1608 59.8643 37.9029 59.8368 38.6451V43.1527C59.8368 43.9223 59.7268 44.6919 59.4795 45.4066C59.2596 45.9838 58.8198 46.451 58.2701 46.7259C57.5555 47.0557 56.7859 47.2206 55.9888 47.1657H52.9653ZM55.2467 45.599H55.9338C56.3186 45.6265 56.7034 45.544 57.0332 45.3241C57.2806 45.1317 57.418 44.8294 57.4455 44.527C57.473 44.0873 57.473 43.675 57.4455 43.2352V38.4801C57.5005 38.0679 57.5005 37.6831 57.4455 37.2708C57.3906 36.9959 57.2531 36.7485 57.0058 36.6111C56.6759 36.4187 56.3186 36.3637 55.9338 36.3912H55.2741V45.599H55.2467Z" fill="white"/>
<path d="M64.0969 47.1657V34.7695H66.3233V47.1657H64.0969Z" fill="white"/>
<path d="M67.6426 47.1657V34.7695H69.2093L72.2327 41.8334V34.7695H74.1292V47.1657H72.6175L69.5941 39.772V47.1657H67.6426Z" fill="white"/>
<path d="M75.3662 47.1657V34.7695H80.4786V36.3362H77.73V39.9369H80.0388V41.5311H77.73V47.1657H75.3662Z" fill="white"/>
<path d="M81.0557 47.1657V34.7695H84.0241C84.7388 34.7695 85.4534 34.852 86.1406 35.0719C86.6903 35.2368 87.1575 35.5941 87.4599 36.0889C87.7897 36.6935 87.9271 37.3532 87.8996 38.0403C87.9546 38.4801 87.9546 38.9474 87.8996 39.3872C87.8172 39.772 87.6798 40.1018 87.4324 40.4041C87.2125 40.7065 86.8827 40.9538 86.5254 41.0638L88.257 47.1657H86.0031L84.4914 41.5036H83.4469V47.1657H81.0557ZM83.3095 40.0743H84.0241C84.3815 40.0743 84.7388 40.0193 85.0686 39.8819C85.316 39.772 85.5084 39.5521 85.6183 39.2772C85.7557 38.9199 85.8107 38.5626 85.8107 38.1778C85.8107 37.683 85.7008 37.1883 85.4534 36.776C85.0961 36.4187 84.6288 36.2538 84.1341 36.3362H83.3095V40.0743Z" fill="white"/>
<path d="M88.4219 47.1657L90.8956 34.7695H93.3693L95.8431 47.1657H93.7541L93.2594 44.4171H91.1155L90.5933 47.1657H88.4219ZM91.1705 42.8779H92.8471L91.995 37.683L91.1705 42.8779Z" fill="white"/>
<path d="M99.4987 47.3308C98.8391 47.3308 98.2069 47.2208 97.6297 46.9185C97.1349 46.6161 96.7226 46.1764 96.5028 45.6266C96.2279 44.967 96.0905 44.2249 96.118 43.5102L98.0694 43.1254C98.0694 43.5377 98.1519 43.9775 98.2344 44.3898C98.3168 44.7196 98.4543 44.9945 98.6741 45.2418C98.894 45.4342 99.1689 45.5442 99.4712 45.5442C99.7736 45.5717 100.048 45.4617 100.241 45.2143C100.406 44.967 100.488 44.6921 100.488 44.3898C100.488 43.9225 100.378 43.4278 100.103 43.043C99.8285 42.6582 99.4987 42.3008 99.1414 41.9985L97.5747 40.6242C97.1624 40.2669 96.8051 39.8546 96.5302 39.3599C96.2554 38.8376 96.1179 38.2604 96.1454 37.6557C96.0905 36.8037 96.3928 35.9791 96.9975 35.3744C97.6572 34.8247 98.4817 34.5498 99.3338 34.5773C99.8285 34.5773 100.323 34.6598 100.791 34.8522C101.148 35.0171 101.478 35.2919 101.725 35.5943C101.945 35.9241 102.11 36.2814 102.22 36.6662C102.33 37.0785 102.412 37.5183 102.44 37.9581L100.516 38.2879C100.516 37.9306 100.461 37.5733 100.378 37.2434C100.323 36.9686 100.213 36.7212 100.021 36.5288C99.8285 36.3639 99.5537 36.254 99.2788 36.2814C99.004 36.2814 98.7016 36.3914 98.5092 36.5838C98.3443 36.8312 98.2618 37.106 98.2618 37.4084C98.2618 37.7657 98.3443 38.123 98.5092 38.4528C98.7016 38.7552 98.949 39.0575 99.2513 39.2774L100.791 40.6517C101.313 41.064 101.753 41.5862 102.11 42.1634C102.495 42.7956 102.687 43.5102 102.66 44.2523C102.66 44.8021 102.522 45.3243 102.275 45.819C102.027 46.2863 101.643 46.6436 101.175 46.891C100.681 47.1933 100.076 47.3308 99.4987 47.3308Z" fill="white"/>
<path d="M104.584 47.1657V36.4462H102.605V34.7695H108.789V36.4462H106.838V47.1657H104.584Z" fill="white"/>
<path d="M109.311 47.1657V34.7695H112.28C112.994 34.7695 113.709 34.852 114.396 35.0719C114.946 35.2368 115.413 35.5941 115.715 36.0889C116.045 36.6935 116.21 37.3532 116.183 38.0403C116.183 38.4801 116.128 38.9474 116.045 39.3872C115.963 39.7445 115.798 40.1018 115.578 40.4041C115.358 40.7065 115.028 40.9538 114.671 41.0638L116.375 47.1657H114.121L112.61 41.5036H111.593V47.1657H109.311ZM111.593 40.0743H112.28C112.637 40.0743 112.994 40.0193 113.324 39.8819C113.599 39.772 113.791 39.5521 113.901 39.2772C114.011 38.9199 114.066 38.5626 114.066 38.1778C114.094 37.683 113.984 37.1883 113.709 36.776C113.379 36.4187 112.884 36.2813 112.417 36.3362H111.593V40.0743Z" fill="white"/>
<path d="M120.663 47.3306C119.921 47.3855 119.179 47.1931 118.519 46.8358C117.997 46.506 117.612 45.9838 117.447 45.4066C117.255 44.6644 117.145 43.9223 117.172 43.1527V34.7695H119.371V43.51C119.344 43.8673 119.344 44.2522 119.371 44.6095C119.399 44.9118 119.536 45.1867 119.728 45.434C119.948 45.6539 120.278 45.7639 120.58 45.7364C120.883 45.7364 121.213 45.6539 121.432 45.434C121.625 45.1867 121.762 44.9118 121.79 44.6095C121.817 44.2522 121.817 43.8673 121.79 43.51V34.852H123.989V43.2352C123.989 44.0048 123.906 44.7469 123.686 45.489C123.494 46.0662 123.137 46.561 122.642 46.9183C122.037 47.2206 121.35 47.3581 120.663 47.3306Z" fill="white"/>
<path d="M128.661 47.3307C127.919 47.3857 127.15 47.1933 126.517 46.8085C125.995 46.4512 125.638 45.9565 125.445 45.3518C125.226 44.6646 125.143 43.9225 125.143 43.2079V38.7826C125.143 38.0405 125.226 37.2984 125.445 36.5838C125.61 36.0066 125.995 35.4843 126.517 35.1545C127.15 34.7697 127.919 34.5773 128.661 34.6323C129.348 34.6048 130.036 34.7422 130.668 35.0721C131.135 35.3744 131.52 35.8142 131.712 36.3364C131.932 36.9411 132.015 37.5733 132.015 38.2054V39.2499H129.843V37.216C129.843 36.9686 129.706 36.7212 129.541 36.5563C129.321 36.3364 129.046 36.2539 128.744 36.2814C128.441 36.2814 128.139 36.3639 127.892 36.5563C127.699 36.7487 127.562 36.9961 127.534 37.2709C127.507 37.6008 127.507 37.9581 127.534 38.2879V43.7851C127.507 44.1699 127.507 44.5272 127.534 44.912C127.617 45.1594 127.727 45.3793 127.919 45.5717C128.167 45.7366 128.441 45.7915 128.716 45.7915C129.019 45.7915 129.293 45.7091 129.513 45.5167C129.678 45.2968 129.761 45.0494 129.816 44.802V42.6856H131.987V43.5102C131.987 44.1699 131.905 44.8295 131.685 45.4617C131.52 46.0114 131.162 46.4787 130.668 46.8085C130.063 47.1658 129.376 47.3582 128.661 47.3307Z" fill="white"/>
<path d="M134.241 47.1657V36.4462H132.262V34.7695H138.446V36.4462H136.495V47.1657H134.241Z" fill="white"/>
<path d="M142.377 47.3306C141.635 47.3855 140.892 47.1931 140.233 46.8358C139.711 46.506 139.326 45.9838 139.161 45.4066C138.968 44.6644 138.859 43.9223 138.886 43.1527V34.7695H141.085V43.51C141.057 43.8673 141.057 44.2522 141.085 44.6095C141.112 44.9118 141.25 45.1867 141.442 45.434C141.662 45.6539 141.992 45.7639 142.294 45.7364C142.597 45.7364 142.926 45.6539 143.146 45.434C143.339 45.1867 143.476 44.9118 143.504 44.6095C143.531 44.2522 143.531 43.8673 143.504 43.51V34.852H145.702V43.2352C145.702 44.0048 145.62 44.7469 145.4 45.489C145.208 46.0662 144.85 46.561 144.356 46.9183C143.751 47.2206 143.064 47.3581 142.377 47.3306Z" fill="white"/>
<path d="M147.049 47.1657V34.7695H150.018C150.732 34.7695 151.447 34.852 152.134 35.0719C152.684 35.2368 153.151 35.5941 153.454 36.0889C153.783 36.6935 153.921 37.3532 153.893 38.0403C153.893 38.4801 153.838 38.9474 153.756 39.3872C153.673 39.772 153.536 40.1018 153.289 40.4041C153.069 40.7065 152.739 40.9538 152.382 41.0638L154.113 47.1657H151.832L150.348 41.5036H149.303V47.1657H147.049ZM149.303 40.0743H150.018C150.375 40.0743 150.732 40.0193 151.062 39.8819C151.31 39.7445 151.502 39.5246 151.612 39.2772C151.722 38.9199 151.777 38.5626 151.777 38.1778C151.804 37.683 151.694 37.1883 151.447 36.776C151.09 36.4462 150.622 36.2813 150.128 36.3362H149.303V40.0743Z" fill="white"/>
<path d="M154.993 47.1657V34.7695H160.188V36.3637H157.247V39.9369H159.583V41.5036H157.247V45.599H160.215V47.1657H154.993Z" fill="white"/>
<path d="M128.634 111.867L108.322 100.131V76.7129C108.322 76.2182 108.074 75.7509 107.635 75.5036L86.6355 63.3823C86.2232 63.1349 85.6735 63.1349 85.2612 63.3823L64.262 75.5036C63.8497 75.7509 63.5749 76.2182 63.5749 76.7129V100.131L43.2628 111.867C42.8505 112.115 42.5757 112.555 42.5757 113.049V137.292C42.5757 137.787 42.8505 138.254 43.2628 138.501L64.262 150.622C64.7018 150.87 65.224 150.87 65.6638 150.622L85.9484 138.913L106.26 150.622C106.48 150.732 106.7 150.815 106.948 150.815C107.195 150.815 107.415 150.732 107.635 150.622L128.634 138.501C129.046 138.254 129.321 137.787 129.321 137.292V113.049C129.321 112.555 129.046 112.115 128.634 111.867ZM84.6565 134.901L67.8077 125.171L84.6565 115.468V134.901ZM104.254 100.928L87.4051 110.658V91.2255L104.254 100.928ZM84.6565 110.658L67.8077 100.928L84.6565 91.2255V110.658ZM88.8069 113.049L107.03 102.55L125.253 113.049L107.03 123.576L88.8069 113.049ZM105.628 98.5367L88.8069 88.8067L105.628 79.1042V98.5367ZM83.2547 88.8067L66.3509 98.4818V79.2416L83.2547 88.8067ZM63.6573 147.022L45.4342 136.495V115.468L63.6573 125.968V147.022ZM66.4059 147.022V127.589L83.2273 137.292L66.4059 147.022ZM126.6 136.495L108.377 147.022V125.968L126.6 115.468V136.495Z" fill="white"/>
</g>
<defs>
<clipPath id="clip0_137_4821">
<rect width="170" height="170" fill="white"/>
</clipPath>
</defs>
</svg>
