<svg width="170" height="170" viewBox="0 0 170 170" fill="none" xmlns="http://www.w3.org/2000/svg">
<g clip-path="url(#clip0_137_4818)">
<path d="M170 0H0V170H170V0Z" fill="#FCB531"/>
<path d="M22.7781 19.4888H13.9519V14.7742H28.8084V18.9406L21.9558 47.3379H15.8432L22.7781 19.4888Z" fill="white"/>
<path d="M44.4873 14.7468H46.8994L49.3663 27.1364H47.2831L46.7898 24.3953H44.6243L44.1309 27.1364H41.9929L44.4873 14.7468ZM46.5431 22.8329L45.6933 17.6523L44.871 22.8329H46.5431Z" fill="white"/>
<path d="M50.2983 14.7468H55.3967V16.1996H52.6556V19.8178H54.9855V21.3802H52.6556V27.1638H50.408L50.2983 14.7468Z" fill="white"/>
<path d="M56.3286 14.7468H61.427V16.1996H58.6859V19.8178H61.0158V21.3802H58.6859V27.1638H56.4383L56.3286 14.7468Z" fill="white"/>
<path d="M62.9619 26.2867C62.3588 25.3821 62.0573 24.3131 62.1395 23.2441V18.6117C62.0573 17.5427 62.3588 16.5011 62.9619 15.624C63.6745 14.8839 64.6887 14.5001 65.7029 14.6098C66.7171 14.5001 67.7313 14.8839 68.444 15.624C69.0744 16.5011 69.3759 17.5427 69.2937 18.6117V23.2441C69.3485 24.3131 69.047 25.3821 68.444 26.2592C67.7587 27.0267 66.7171 27.4105 65.7029 27.3008C64.6887 27.4105 63.6745 27.0267 62.9619 26.2867ZM66.7171 25.1628C66.9364 24.7243 67.0186 24.2583 66.9912 23.7923V18.0909C66.9912 17.6249 66.9364 17.159 66.7445 16.7204C66.4978 16.3915 66.1141 16.1996 65.7029 16.2544C65.2917 16.1996 64.908 16.3915 64.6887 16.7204C64.4968 17.159 64.4146 17.6249 64.442 18.0909V23.7923C64.442 24.2583 64.4968 24.7243 64.6887 25.1628C64.908 25.5192 65.2917 25.711 65.7029 25.6562C66.1141 25.711 66.4978 25.5192 66.7171 25.1628Z" fill="white"/>
<path d="M70.6643 14.7468H73.6521C74.6936 14.6646 75.7078 14.9387 76.585 15.4869C77.2976 16.1447 77.6266 17.0767 77.5443 18.036C77.5718 18.6939 77.4621 19.3517 77.188 19.9548C76.9413 20.4482 76.5301 20.8593 76.0093 21.0512L77.7362 27.1363H75.4611L73.981 21.4624H72.912V27.1637H70.6643V14.7468ZM73.6246 20.0644C74.118 20.1192 74.6114 19.9548 74.9952 19.6259C75.2967 19.2147 75.4611 18.6939 75.4063 18.1731C75.4611 17.6797 75.3241 17.1589 75.05 16.7478C74.7211 16.3914 74.2277 16.227 73.7617 16.2818H72.912V20.0644H73.6246Z" fill="white"/>
<path d="M78.8875 14.7468H81.8204C82.6153 14.7194 83.4376 14.8565 84.1777 15.158C84.7259 15.4047 85.137 15.8433 85.3837 16.3915C85.6578 17.1041 85.7675 17.8442 85.7401 18.6117V23.107C85.7675 23.9019 85.6578 24.6694 85.3837 25.4095C85.1645 25.9851 84.7259 26.4237 84.1777 26.6978C83.465 27.0267 82.6975 27.1912 81.9026 27.1364H78.8875V14.7468ZM81.8478 25.574C82.2315 25.6014 82.6153 25.5192 82.9442 25.2999C83.1635 25.1354 83.328 24.8613 83.3554 24.5872C83.3828 24.1212 83.3828 23.6553 83.3554 23.1893V18.4473C83.3828 18.0361 83.3828 17.5975 83.3554 17.1864C83.3005 16.9123 83.1361 16.693 82.8894 16.5559C82.5605 16.3915 82.1767 16.3366 81.8204 16.3641H81.1351V25.574H81.8478Z" fill="white"/>
<path d="M88.81 14.7468H91.2221L93.7164 27.1364H91.6058L91.1399 24.3953H88.9744L88.4536 27.1364H86.343L88.81 14.7468ZM90.8932 22.8329L90.0434 17.6523L89.1937 22.8329H90.8932Z" fill="white"/>
<path d="M94.6484 14.7468H97.7184C98.6778 14.6919 99.6372 14.9386 100.459 15.4594C101.145 16.0625 101.501 16.9396 101.391 17.8441C101.391 19.4065 100.788 20.2837 99.6097 20.5852C101.035 20.8593 101.748 21.8735 101.748 23.6552C101.83 24.6419 101.528 25.6287 100.871 26.3962C100.185 27.0541 99.2534 27.383 98.294 27.3008H94.6484V14.7468ZM97.6636 19.8177C98.157 19.8725 98.6504 19.7355 99.0067 19.3791C99.2808 18.968 99.4179 18.4472 99.363 17.9538C99.4179 17.4604 99.2534 16.9944 98.8971 16.6655C98.4311 16.4188 97.8829 16.2817 97.3621 16.3366H96.8961V19.8177H97.6636ZM97.6636 25.5465C98.157 25.6013 98.6778 25.4369 99.0341 25.0805C99.3082 24.6145 99.4453 24.0663 99.4179 23.5181C99.4727 22.9425 99.3082 22.3669 99.0067 21.9009C98.623 21.5172 98.1022 21.3253 97.5814 21.3801H96.7865V25.5465H97.6636Z" fill="white"/>
<path d="M102.872 14.7468H105.119V25.711H108.134V27.1638H102.872V14.7468Z" fill="white"/>
<path d="M109.039 14.7468H114.22V16.3366H111.259V19.9H113.562V21.4898H111.259V25.6014H114.22V27.1638H109.039V14.7468Z" fill="white"/>
<path d="M120.497 14.7468H122.909L125.485 27.1638H123.293L122.744 24.4227H120.579L120.058 27.1638H117.948L120.497 14.7468ZM122.58 22.8329L121.73 17.6523L120.88 22.8329H122.58Z" fill="white"/>
<path d="M126.335 14.7468H127.897L130.913 21.8187V14.7468H132.804V27.1638H131.296L128.226 19.7355V27.1638H126.308V14.7468H126.335Z" fill="white"/>
<path d="M134.366 14.7468H137.299C138.094 14.7194 138.916 14.8565 139.656 15.158C140.205 15.4047 140.616 15.8433 140.863 16.3915C141.137 17.1041 141.246 17.8442 141.219 18.6117V23.107C141.246 23.9019 141.137 24.6694 140.863 25.4095C140.643 25.9851 140.205 26.4237 139.656 26.6978C138.944 27.0267 138.176 27.1912 137.381 27.1364H134.366V14.7468ZM137.327 25.574C137.71 25.6014 138.094 25.5192 138.396 25.2999C138.642 25.1354 138.807 24.8887 138.834 24.5872C138.862 24.1212 138.862 23.6553 138.834 23.1893V18.4473C138.889 18.0361 138.889 17.5975 138.834 17.1864C138.779 16.9123 138.615 16.693 138.396 16.5559C138.067 16.3915 137.683 16.3366 137.327 16.3641H136.641V25.574H137.327Z" fill="white"/>
<path d="M43.2538 46.4881C42.6782 45.5836 42.4041 44.4872 42.4589 43.4182V39.0051C42.3767 37.9086 42.6782 36.8396 43.2538 35.9077C44.7614 34.5646 47.0091 34.5097 48.5715 35.7706C49.1471 36.5655 49.4212 37.5249 49.339 38.5117V39.5533H47.1735V38.4843C47.1735 38.1279 47.1735 37.799 47.1735 37.4427C47.1187 37.2234 47.0091 37.0041 46.8446 36.8396C46.6253 36.6478 46.3238 36.5655 46.0497 36.5929C45.7482 36.5929 45.4741 36.6752 45.2274 36.8396C45.0355 37.0315 44.9259 37.2782 44.871 37.5249C44.8436 37.8812 44.8436 38.265 44.871 38.6213V44.1034C44.8436 44.6242 44.9259 45.145 45.1451 45.611C45.3644 45.9399 45.7482 46.1044 46.1319 46.077C46.406 46.077 46.7075 46.0222 46.9268 45.8303C47.0913 45.6658 47.2009 45.4191 47.2283 45.1724C47.2558 44.8161 47.2558 44.4598 47.2283 44.1034V42.9796H49.3938V43.9938C49.4486 44.9531 49.1745 45.9125 48.6537 46.7348C47.9684 47.5023 46.9268 47.8861 45.9126 47.7216C44.871 47.749 43.8843 47.3104 43.2538 46.4881Z" fill="white"/>
<path d="M50.5725 35.0032H52.8202V45.8303H55.8353V47.3927H50.5725V35.0032Z" fill="white"/>
<path d="M56.7124 35.0032H61.9204V36.593H58.9601V40.1563H61.29V41.7187H58.9601V45.8303H61.9478V47.3927H56.7124V35.0032Z" fill="white"/>
<path d="M64.8259 35.0032H67.238L69.7049 47.3927H67.6217L67.1284 44.6517H64.9629L64.4695 47.3927H62.4412L64.8259 35.0032ZM66.8817 43.0893L66.0319 37.8813L65.1822 43.0893H66.8817Z" fill="white"/>
<path d="M70.6643 35.0032H72.2541L75.2693 42.0751V35.0032H77.1332V47.3927H75.5982L72.583 39.9919V47.3927H70.6643V35.0032Z" fill="white"/>
<path d="M82.0945 35.0032H87.2751V36.593H84.3696V40.1563H86.6994V41.7187H84.3696V45.8303H87.3573V47.3927H82.0945V35.0032Z" fill="white"/>
<path d="M88.3168 35.0032H89.8518L92.8669 42.0751V35.0032H94.7308V47.3927H93.2233L90.2081 39.9919V47.3927H88.262L88.3168 35.0032Z" fill="white"/>
<path d="M96.3479 35.0032H101.556V36.593H98.623V40.1563H100.816V41.7187H98.623V45.8303H101.583V47.3927H96.3479V35.0032Z" fill="white"/>
<path d="M102.598 35.0031H105.585C106.627 34.9209 107.641 35.195 108.518 35.7432C109.231 36.4011 109.56 37.333 109.478 38.2924C109.505 38.9502 109.395 39.6081 109.121 40.2111C108.875 40.7045 108.464 41.0883 107.943 41.2801L109.67 47.3927H107.422L105.914 41.7187H104.845V47.3927H102.598V35.0031ZM105.585 40.2934C106.079 40.3482 106.572 40.1837 106.929 39.8548C107.23 39.4436 107.394 38.9228 107.34 38.402C107.394 37.9086 107.257 37.3878 106.983 36.9767C106.654 36.6478 106.161 36.4833 105.695 36.5381H104.845V40.2934H105.585Z" fill="white"/>
<path d="M111.451 46.3512C110.876 45.3919 110.629 44.2954 110.684 43.199V39.0326C110.602 37.9088 110.903 36.7849 111.479 35.8256C112.164 35.0581 113.178 34.6469 114.22 34.7566C115.234 34.6195 116.221 34.9484 116.961 35.6611C117.564 36.456 117.838 37.4154 117.756 38.4022V39.06H115.59V38.3473C115.618 37.991 115.618 37.6347 115.59 37.2783C115.563 37.0316 115.426 36.8124 115.234 36.6753C115.015 36.5108 114.713 36.4286 114.439 36.456C114.137 36.4286 113.836 36.5383 113.589 36.7301C113.397 36.922 113.288 37.1687 113.233 37.4428C113.206 37.7991 113.206 38.1829 113.233 38.5392V43.7472C113.233 44.268 113.315 44.8162 113.507 45.3096C113.726 45.666 114.137 45.8852 114.576 45.8304C115.015 45.8578 115.426 45.666 115.645 45.2822C115.864 44.7614 115.974 44.2132 115.947 43.6376V42.4589H114.603V41.0336H117.975V47.338H116.522L116.358 46.1319C116.029 46.9817 115.206 47.5573 114.275 47.5025C113.178 47.6943 112.082 47.2558 111.451 46.3512Z" fill="white"/>
<path d="M120.771 42.6507L118.249 35.0032H120.36L121.895 39.9097L123.347 35.0032H125.485L122.991 42.6507V47.3927H120.853L120.771 42.6507Z" fill="white"/>
<path d="M85.0822 82.8071C71.2673 82.8071 60.0564 94.018 60.0564 107.833C60.0564 121.648 71.2673 132.859 85.0822 132.859C98.8971 132.859 110.108 121.648 110.108 107.833C110.108 94.018 98.8971 82.8071 85.0822 82.8071ZM83.2183 92.7023C83.3005 91.7155 84.0954 90.9481 85.0822 90.9481C86.069 90.9481 86.8639 91.7155 86.9461 92.7023V101.172C86.8639 102.159 86.069 102.899 85.0822 102.926C84.0954 102.926 83.3005 102.159 83.2183 101.172V92.7023ZM85.0822 120.661C77.9006 120.661 72.0348 114.877 72.0348 107.668C72.0348 101.94 75.7626 96.8687 81.2173 95.1967V100.048C76.9961 102.186 75.2966 107.312 77.4347 111.533C79.5727 115.755 84.6984 117.454 88.9197 115.316C93.1409 113.178 94.8403 108.052 92.7023 103.831C91.88 102.186 90.5643 100.871 88.9197 100.048V95.1967C95.7997 97.3073 99.6372 104.598 97.5266 111.479C95.8545 116.933 90.7836 120.661 85.0822 120.661Z" fill="white"/>
<path d="M56.3285 107.614C56.3285 106.545 55.4788 105.64 54.4098 105.558H43.4456C42.3766 105.668 41.5543 106.545 41.5269 107.614C41.5269 108.683 42.3766 109.587 43.4456 109.669H54.4098C55.4788 109.587 56.3285 108.71 56.3285 107.614Z" fill="white"/>
<path d="M128.637 107.614C128.637 106.545 127.788 105.668 126.719 105.558H115.755C114.631 105.558 113.699 106.49 113.699 107.614C113.699 108.737 114.631 109.669 115.755 109.669H126.719C127.788 109.587 128.637 108.683 128.637 107.614Z" fill="white"/>
<path d="M85.0822 151.169C86.1512 151.169 87.0557 150.319 87.1379 149.25V138.286C87.0283 137.217 86.1512 136.395 85.0822 136.367C84.0131 136.367 83.1086 137.217 83.0264 138.286V149.25C83.1086 150.319 83.9857 151.169 85.0822 151.169Z" fill="white"/>
<path d="M122.881 129.241C123.43 128.309 123.128 127.103 122.223 126.5L112.712 121.017C111.698 120.524 110.464 120.963 109.971 122.004C109.532 122.936 109.834 124.033 110.684 124.581L120.195 130.063C121.182 130.529 122.388 130.173 122.936 129.213" fill="white"/>
<path d="M63.4554 145.413C64.3874 145.961 65.5935 145.687 66.1965 144.782L71.6786 135.271C72.2542 134.284 71.8979 133.023 70.9111 132.475C69.9243 131.899 68.6634 132.256 68.1152 133.215L62.6331 142.727C62.1397 143.713 62.5235 144.919 63.4828 145.468" fill="white"/>
<path d="M106.791 145.385C107.751 144.837 108.107 143.631 107.614 142.644L102.132 133.133C101.501 132.256 100.35 131.982 99.3905 132.475C98.4586 133.051 98.1022 134.229 98.5956 135.216L104.078 144.7C104.681 145.577 105.859 145.879 106.819 145.358" fill="white"/>
<path d="M47.3107 129.35C47.8589 130.31 49.0649 130.639 50.0517 130.145L59.5632 124.663C60.5499 124.087 60.8789 122.827 60.3306 121.84C59.755 120.853 58.4941 120.524 57.5074 121.1L48.0233 126.582C47.1462 127.212 46.8721 128.363 47.3655 129.323" fill="white"/>
<path d="M85.0822 78.8875C86.1512 78.8875 87.0283 78.0377 87.1379 76.9687V66.0045C87.1379 64.8807 86.206 63.9487 85.0822 63.9487C83.9583 63.9487 83.0264 64.8807 83.0264 66.0045V76.9687C83.1086 78.0377 84.0131 78.8875 85.0822 78.8875Z" fill="white"/>
<path d="M60.1387 93.3329C60.6595 92.3735 60.3853 91.1948 59.4808 90.5918L49.9693 85.1097C48.9552 84.6163 47.7217 85.0549 47.2283 86.0965C46.7897 87.0284 47.0912 88.1249 47.941 88.6731L57.4524 94.1552C58.4392 94.6211 59.6453 94.2648 60.1935 93.3055" fill="white"/>
<path d="M99.3631 82.6701C100.295 83.2183 101.501 82.9442 102.104 82.0396L107.586 72.5282C108.162 71.5414 107.805 70.2805 106.819 69.7323C105.832 69.1567 104.571 69.513 104.023 70.4724L98.5407 79.9838C98.0748 80.9706 98.4311 82.1767 99.3905 82.7249" fill="white"/>
<path d="M70.6643 82.6974C71.6237 82.1492 71.98 80.9431 71.4867 79.9564L66.0046 70.4723C65.3741 69.5404 64.0858 69.2663 63.1539 69.9241C62.3041 70.4997 62.0026 71.5962 62.4412 72.5007L67.9233 81.9847C68.5263 82.8619 69.7324 83.136 70.6643 82.6152" fill="white"/>
<path d="M109.998 93.3055C110.547 94.2648 111.753 94.6212 112.739 94.1278L122.223 88.6457C123.155 88.0152 123.429 86.7269 122.772 85.795C122.196 84.9452 121.1 84.6437 120.195 85.0823L110.684 90.5644C109.806 91.1674 109.532 92.3735 110.053 93.3055" fill="white"/>
</g>
<defs>
<clipPath id="clip0_137_4818">
<rect width="170" height="170" fill="white"/>
</clipPath>
</defs>
</svg>
