<svg width="170" height="170" viewBox="0 0 170 170" fill="none" xmlns="http://www.w3.org/2000/svg">
<g clip-path="url(#clip0_137_4824)">
<path d="M170 0H0V170H170V0Z" fill="#F99C37"/>
<path d="M14.8219 21.178C14.5205 21.3424 13.6712 21.6712 12.2466 22.1917C10.8219 22.7123 10.4383 22.8219 10.137 22.9315V18.3561C11.2603 17.8904 12.3561 17.3424 13.4246 16.7397C14.4383 16.2465 15.3698 15.589 16.1644 14.7671H21.0137V47.2054H14.8219V21.178Z" fill="white"/>
<path d="M28.5206 21.178C28.2193 21.3424 27.3699 21.6712 25.9453 22.1917C24.5206 22.7123 24.1371 22.8219 23.8357 22.9315V18.3561C24.959 17.8904 26.0823 17.3424 27.1508 16.7397C28.1645 16.2191 29.096 15.5616 29.8905 14.7671H34.7124V47.2054H28.5206V21.178Z" fill="white"/>
<path d="M48.9862 27.2055C48.3287 27.2329 47.6712 27.0685 47.0958 26.7671C46.6027 26.4657 46.1917 26.0274 45.9725 25.5068C45.6986 24.8493 45.5616 24.137 45.5616 23.4246L47.4794 23.0411C47.4794 23.4794 47.5616 23.9178 47.6712 24.3288C47.7534 24.6575 47.8904 24.9315 48.1095 25.1781C48.3287 25.3699 48.6027 25.4794 48.9041 25.452C49.2054 25.4794 49.4794 25.3699 49.6712 25.1233C49.8356 24.8767 49.9178 24.6027 49.9178 24.3014C49.9178 23.8356 49.8082 23.3425 49.5342 22.9589C49.2328 22.5753 48.9315 22.2466 48.5753 21.9178L47.0136 20.5479C46.6027 20.1918 46.2191 19.7534 45.9452 19.2877C45.6712 18.7397 45.5342 18.1644 45.5616 17.5616C45.5068 16.7397 45.8356 15.9178 46.4109 15.3151C47.0684 14.7397 47.9178 14.4657 48.7671 14.5205C49.2602 14.5205 49.7534 14.6027 50.2191 14.7671C50.5753 14.9315 50.9041 15.2055 51.1506 15.5068C51.3698 15.8356 51.5342 16.2192 51.6438 16.6027C51.7534 17.0137 51.8356 17.4246 51.863 17.863L49.9451 18.2192C49.9451 17.863 49.863 17.5342 49.8082 17.1781C49.7534 16.9041 49.6438 16.6575 49.452 16.4383C49.2602 16.274 48.9862 16.1644 48.7123 16.1918C48.4109 16.1918 48.1369 16.3014 47.9452 16.5205C47.7534 16.7397 47.6438 17.0411 47.6712 17.3425C47.6712 17.6986 47.7534 18.0822 47.9452 18.3836C48.1643 18.6849 48.4109 18.9589 48.6849 19.2055L50.2191 20.5753C50.7397 20.9863 51.178 21.5068 51.5342 22.0822C51.9178 22.7123 52.1095 23.4246 52.0821 24.1644C52.0821 24.7123 51.9452 25.2603 51.6986 25.7534C51.4246 26.1918 51.041 26.5479 50.6027 26.8219C50.1095 27.0685 49.5616 27.2055 48.9862 27.2055Z" fill="white"/>
<path d="M56.1917 27.2054C55.4519 27.2602 54.6848 27.0684 54.0273 26.7123C53.5341 26.3561 53.1506 25.8356 52.9862 25.2602C52.767 24.5479 52.6848 23.7808 52.6848 23.041V14.6575H54.904V23.2876C54.8766 23.6438 54.8766 24.0273 54.904 24.3835C54.904 24.6849 55.041 24.9862 55.2602 25.2054C55.4793 25.4246 55.7807 25.5616 56.1095 25.5342C56.4382 25.5616 56.7396 25.452 56.9588 25.2054C57.1506 24.9862 57.2876 24.6849 57.315 24.3835C57.3423 24.0273 57.3423 23.6438 57.315 23.2876V14.6575H59.5067V23.041C59.5067 23.7808 59.4245 24.5479 59.2054 25.2602C59.041 25.863 58.6848 26.3561 58.1643 26.7123C57.5615 27.041 56.8766 27.2328 56.1917 27.2054Z" fill="white"/>
<path d="M63.9452 27.2055C63.2877 27.2329 62.6575 27.0685 62.0822 26.7671C61.5617 26.4931 61.1781 26.0274 60.9315 25.5068C60.6575 24.8493 60.5206 24.137 60.5206 23.4246L62.4658 23.0411C62.4658 23.4794 62.5206 23.9178 62.6302 24.3288C62.7123 24.6301 62.8767 24.9315 63.0685 25.1781C63.2877 25.3699 63.5617 25.4794 63.863 25.452C64.1644 25.452 64.4658 25.3425 64.6575 25.1233C64.7945 24.8767 64.8767 24.6027 64.8767 24.3014C64.8767 23.8356 64.7671 23.3699 64.5206 22.9589C64.2192 22.5753 63.8904 22.2192 63.5343 21.9178L61.9726 20.5479C61.5617 20.1918 61.2055 19.7808 60.9315 19.2877C60.6301 18.7671 60.4932 18.1644 60.5206 17.5616C60.4658 16.7123 60.7945 15.8904 61.3973 15.3151C62.0274 14.7397 62.8767 14.4657 63.726 14.5205C64.2192 14.5205 64.7123 14.6027 65.1781 14.7671C65.5343 14.9315 65.863 15.1781 66.1096 15.5068C66.3288 15.8356 66.5206 16.2192 66.6301 16.6027C66.7397 17.0137 66.7945 17.4246 66.8219 17.863L64.9041 18.2192C64.9315 17.863 64.9315 17.5342 64.9041 17.1781C64.8767 16.9041 64.7397 16.6301 64.548 16.4383C64.3562 16.274 64.0822 16.1644 63.8082 16.1918C63.5069 16.1918 63.2329 16.3014 63.0411 16.5205C62.8493 16.7671 62.7671 17.0411 62.7671 17.3425C62.7671 17.6986 62.8493 18.0548 63.0411 18.3836C63.2603 18.6849 63.5069 18.9589 63.7808 19.2055L65.3425 20.5753C65.8356 21.0137 66.274 21.5068 66.6301 22.0822C67.0137 22.7123 67.2055 23.4246 67.1781 24.1644C67.1781 24.7123 67.0411 25.2603 66.7945 25.7534C66.5206 26.1918 66.137 26.5479 65.6986 26.8219C65.1507 27.0959 64.548 27.2329 63.9452 27.2055Z" fill="white"/>
<path d="M68.9863 27.2056V16.4659H67.0137V14.822H73.2055V16.4659H71.2602V27.2056H68.9863Z" fill="white"/>
<path d="M72.7671 27.2056L75.2602 14.822H77.6712L80.137 27.2056H78.0548L77.5616 24.4659H75.3972L74.9041 27.2056H72.7671ZM75.6438 22.9042H77.315L76.4657 17.6987L75.6438 22.9042Z" fill="white"/>
<path d="M80.7671 27.2056V14.822H82.9863V27.2056H80.7671Z" fill="white"/>
<path d="M84.2739 27.2054V14.8219H85.863L88.7945 21.726V14.6575H90.6575V27.2054H89.1506L86.1095 19.8082V27.2054H84.2739Z" fill="white"/>
<path d="M91.3699 27.2056L93.8356 14.822H96.2466L98.7397 27.2056H96.6302L96.1644 24.4659H94L93.4795 27.2056H91.3699ZM94.1096 22.9042H95.8082L94.9589 17.6987L94.1096 22.9042Z" fill="white"/>
<path d="M99.2876 27.2054V14.8219H102.329C102.822 14.7671 103.342 14.7671 103.836 14.8219C104.247 14.904 104.63 15.0958 104.986 15.3424C105.288 15.6164 105.562 15.9177 105.726 16.3013C105.918 16.7945 106 17.3424 105.973 17.863C105.973 18.3013 105.918 18.7397 105.781 19.1506C105.644 19.4794 105.425 19.7808 105.151 19.9999C104.849 20.2191 104.52 20.3561 104.164 20.4109C105.041 20.4931 105.808 21.0958 106.11 21.9451C106.274 22.4383 106.356 22.9314 106.329 23.452C106.329 23.9725 106.274 24.5205 106.11 25.0136C105.863 25.863 105.233 26.5479 104.383 26.8493C103.89 26.9862 103.37 27.0684 102.849 27.0684L99.2876 27.2054ZM101.562 19.863H102.329C102.685 19.863 103.041 19.8082 103.37 19.6712C103.616 19.5342 103.781 19.315 103.863 19.0684C103.973 18.7397 104.027 18.3835 104.027 18.0273C104.027 17.6712 103.973 17.315 103.781 17.0136C103.644 16.7671 103.397 16.5753 103.123 16.5205C102.767 16.4109 102.383 16.3835 102 16.3835H101.562V19.863ZM101.562 25.6164H102.493C103.014 25.6712 103.534 25.5068 103.89 25.1232C104.164 24.6575 104.274 24.1369 104.246 23.589C104.246 23.178 104.192 22.7671 104.082 22.3561C103.973 22.0821 103.753 21.8356 103.507 21.6712C103.178 21.4794 102.794 21.3972 102.411 21.4246H101.644L101.562 25.6164Z" fill="white"/>
<path d="M107.178 27.2056V14.822H109.452V25.6439H112.438V27.2056H107.178Z" fill="white"/>
<path d="M112.931 27.2056V14.822H118.137V16.2467H115.205V19.8083H117.507V21.37H115.205V25.4796H118.164V27.2056H112.931Z" fill="white"/>
<path d="M125.288 27.2054C124.548 27.2602 123.781 27.0685 123.151 26.6849C122.63 26.3287 122.247 25.8082 122.082 25.2054C121.836 24.5205 121.726 23.8082 121.753 23.0685V18.6575C121.753 17.9178 121.863 17.1507 122.082 16.4383C122.247 15.863 122.63 15.3424 123.151 15.0137C123.808 14.6575 124.548 14.4931 125.288 14.5205C125.973 14.4931 126.657 14.6301 127.288 14.9315C127.781 15.2054 128.137 15.6712 128.329 16.1917C128.548 16.7945 128.657 17.452 128.63 18.0822V19.1233H126.466V18.0548C126.466 17.726 126.466 17.4246 126.466 17.0959C126.466 16.8493 126.329 16.6027 126.164 16.4109C125.945 16.2191 125.644 16.137 125.342 16.1644C125.041 16.137 124.74 16.2465 124.493 16.4383C124.301 16.6301 124.192 16.8767 124.164 17.1507C124.137 17.4794 124.137 17.8356 124.164 18.1644V23.6438C124.11 24 124.11 24.3835 124.164 24.7397C124.219 24.9863 124.356 25.2328 124.548 25.3972C124.767 25.5616 125.041 25.6438 125.315 25.6164C125.616 25.6438 125.918 25.5616 126.137 25.3424C126.301 25.1507 126.411 24.9041 126.438 24.6575V22.5205H128.603V23.5342C128.603 24.1917 128.521 24.8493 128.329 25.4794C128.137 26.0274 127.781 26.4931 127.288 26.8219C126.657 27.1233 125.973 27.2602 125.288 27.2054Z" fill="white"/>
<path d="M129.644 27.2056V14.822H131.89V27.2056H129.644Z" fill="white"/>
<path d="M134.411 27.2056V16.4659H132.438V14.822H138.603V16.4659H136.658V27.2056H134.411Z" fill="white"/>
<path d="M139.178 27.2056V14.822H141.425V27.2056H139.178Z" fill="white"/>
<path d="M142.712 27.2056V14.822H147.89V16.2467H144.959V19.8083H147.288V21.37H144.959V25.4796H147.945V27.2056H142.712Z" fill="white"/>
<path d="M151.808 27.2055C151.151 27.2329 150.493 27.0685 149.918 26.7671C149.425 26.4657 149.014 26.0274 148.795 25.5068C148.521 24.8493 148.384 24.137 148.356 23.4246L150.301 23.0411C150.301 23.4794 150.384 23.9178 150.493 24.3288C150.575 24.6575 150.712 24.9315 150.932 25.1781C151.151 25.3699 151.425 25.4794 151.726 25.452C152.027 25.4794 152.301 25.3699 152.493 25.1233C152.658 24.8767 152.74 24.6027 152.74 24.3014C152.74 23.8356 152.63 23.3425 152.356 22.9589C152.055 22.5753 151.753 22.2466 151.397 21.9178L149.836 20.5479C149.425 20.1918 149.041 19.7534 148.767 19.2877C148.493 18.7397 148.356 18.1644 148.384 17.5616C148.329 16.7123 148.63 15.9178 149.233 15.3151C149.89 14.7397 150.74 14.4657 151.589 14.5205C152.082 14.5205 152.575 14.6027 153.041 14.7671C153.397 14.9315 153.726 15.2055 153.973 15.5068C154.192 15.8356 154.356 16.2192 154.466 16.6027C154.575 17.0137 154.658 17.4246 154.685 17.863L152.767 18.2192C152.767 17.863 152.685 17.5342 152.63 17.1781C152.575 16.9041 152.466 16.6575 152.274 16.4383C152.082 16.274 151.808 16.1644 151.534 16.1918C151.233 16.1918 150.959 16.3014 150.767 16.5205C150.575 16.7397 150.466 17.0411 150.493 17.3425C150.493 17.6986 150.575 18.0822 150.767 18.3836C150.986 18.6849 151.233 18.9589 151.507 19.2055L153.041 20.5753C153.562 20.9863 154 21.5068 154.356 22.0822C154.74 22.7123 154.932 23.4246 154.904 24.1644C154.904 24.7123 154.767 25.2603 154.521 25.7534C154.247 26.1918 153.863 26.5479 153.425 26.8219C152.932 27.0685 152.384 27.2055 151.808 27.2055Z" fill="white"/>
<path d="M45.2329 47.3972L47.6987 35.0137H50.137L52.6028 47.3972H50.4384L49.9726 44.6575H47.8083L47.2877 47.3972H45.2329ZM47.9726 43.0959H49.6713L48.8219 37.8904L47.9726 43.0959Z" fill="white"/>
<path d="M53.178 47.3972V35.0137H54.767L57.7807 42.0822V35.0137H59.6437V47.3972H58.1369L55.0958 40V47.3972H53.178Z" fill="white"/>
<path d="M60.8767 47.3972V35.0137H63.7808C64.6027 34.9863 65.3973 35.1233 66.1644 35.4246C66.7123 35.6712 67.1233 36.137 67.3699 36.6849C67.6164 37.3698 67.7534 38.1096 67.726 38.8493V43.3972C67.726 44.1644 67.6164 44.9041 67.3699 45.6164C67.1233 46.1918 66.7123 46.6575 66.1644 46.9589C65.4521 47.2877 64.6849 47.452 63.8904 47.3972H60.8767ZM63.1233 45.8082H63.8082C64.1918 45.8356 64.6027 45.7534 64.9315 45.5342C65.1781 45.3424 65.3151 45.0411 65.3425 44.7397C65.3699 44.3014 65.3699 43.8904 65.3425 43.452V38.7123C65.3973 38.3014 65.3973 37.9178 65.3425 37.5068C65.3151 37.2329 65.1507 36.9863 64.9041 36.8219C64.5753 36.6575 64.1918 36.5753 63.8082 36.6027H63.1507V45.8082H63.1233Z" fill="white"/>
<path d="M75.096 47.5616C74.3562 47.6164 73.5891 47.4247 72.959 47.0411C72.4658 46.6849 72.0823 46.1644 71.8905 45.5616C71.6713 44.8767 71.5891 44.137 71.5891 43.4247V39.0137C71.5891 38.274 71.6713 37.5069 71.8905 36.7945C72.0823 36.2192 72.4658 35.726 72.959 35.3699C73.6165 35.0137 74.3562 34.8493 75.096 34.8767C75.8083 34.8493 76.4932 34.9863 77.1234 35.2877C77.5891 35.589 77.9453 36.0274 78.1645 36.548C78.3836 37.1507 78.4658 37.8082 78.4658 38.4384V39.4795H76.274V38.411C76.3014 38.0822 76.3014 37.7808 76.274 37.4521C76.274 37.2055 76.1645 36.9589 76.0001 36.7671C75.7809 36.5753 75.4795 36.4932 75.1782 36.5206C74.8768 36.4932 74.548 36.5753 74.3288 36.7945C74.1371 36.9863 74.0001 37.2329 73.9727 37.5069C73.9453 37.8356 73.9453 38.1918 73.9727 38.5206V44C73.9453 44.3562 73.9453 44.7397 73.9727 45.0959C74.0275 45.3425 74.1645 45.589 74.3836 45.7534C74.6028 45.9178 74.8768 46 75.1508 45.9726C75.4521 46 75.7261 45.9178 75.9453 45.6986C76.1371 45.5069 76.2192 45.2603 76.2466 44.9863C76.274 44.6575 76.274 44.3288 76.2466 44V42.8767H78.4384V43.8904C78.4384 44.548 78.3562 45.2055 78.1371 45.8356C77.9727 46.3836 77.6165 46.8493 77.1234 47.1781C76.4932 47.4795 75.7809 47.6164 75.096 47.5616Z" fill="white"/>
<path d="M82.8492 47.5617C82.1095 47.5891 81.3972 47.4247 80.767 47.0686C80.2465 46.7398 79.8629 46.2466 79.6438 45.6713C79.4246 44.9864 79.2876 44.2466 79.315 43.5069V38.8494C79.315 38.1371 79.3972 37.3973 79.6438 36.7124C79.8355 36.1371 80.2465 35.6439 80.767 35.3425C81.3972 34.9864 82.1369 34.822 82.8492 34.8768C83.589 34.822 84.3287 34.9864 84.9862 35.3425C85.4794 35.6713 85.8903 36.1371 86.0821 36.7124C86.3287 37.3973 86.4657 38.1097 86.4383 38.8494V43.6439C86.4383 44.3836 86.3287 45.1234 86.0821 45.8083C85.8903 46.3836 85.5068 46.8768 84.9862 47.2056C84.3287 47.5069 83.589 47.6439 82.8492 47.5617ZM82.8492 45.8905C83.1506 45.8905 83.452 45.8357 83.6986 45.6439C83.8903 45.4521 83.9999 45.2329 84.0547 44.9864C84.0821 44.685 84.0821 44.3562 84.0547 44.0549V38.3288C84.0821 38.0275 84.0821 37.6987 84.0547 37.3973C83.9999 37.1508 83.8903 36.9316 83.6986 36.7672C83.452 36.5754 83.1506 36.4932 82.8492 36.5206C82.5753 36.5206 82.2739 36.5754 82.0547 36.7672C81.8629 36.9316 81.726 37.1508 81.6712 37.3973C81.6438 37.6987 81.6438 38.0275 81.6712 38.3288V44.0549C81.6438 44.3562 81.6438 44.685 81.6712 44.9864C81.6986 45.2329 81.8355 45.4795 82.0273 45.6439C82.2739 45.8083 82.5479 45.9179 82.8492 45.8905Z" fill="white"/>
<path d="M87.4521 47.3972L87.6713 35.0137H90.0001L91.7535 43.589L93.5891 35.0137H95.8631L96.0823 47.3972H94.411L94.2193 38.7945L92.4658 47.3972H91.096L89.3152 38.7397L89.1508 47.3972H87.4521Z" fill="white"/>
<path d="M97.2603 47.3972L97.4794 35.0137H99.7534L101.507 43.589L103.342 35.0137H105.589L105.836 47.3972H104.137L103.973 38.7945L102.192 47.3972H100.849L99.0411 38.7397L98.8767 47.3972H97.2603Z" fill="white"/>
<path d="M110.52 47.5616C109.781 47.6164 109.041 47.4246 108.384 47.0685C107.863 46.7123 107.507 46.2191 107.315 45.6164C107.123 44.9041 107.014 44.137 107.041 43.3972V35.0137H109.233V43.6438C109.205 44 109.205 44.3835 109.233 44.7397C109.233 45.0411 109.397 45.3424 109.589 45.5616C109.808 45.7808 110.11 45.9178 110.438 45.8904C110.767 45.8904 111.096 45.7808 111.315 45.5616C111.507 45.315 111.616 45.0411 111.644 44.7397C111.671 44.3835 111.671 44 111.644 43.6438V35.0137H113.836V43.3972C113.836 44.137 113.753 44.9041 113.562 45.6164C113.37 46.2191 113.014 46.7123 112.493 47.0685C111.89 47.3972 111.205 47.589 110.52 47.5616Z" fill="white"/>
<path d="M115.151 47.3972V35.0137H116.74L119.753 42.0822V35.0137H121.671V47.3972H120.164L117.151 40V47.3972H115.151Z" fill="white"/>
<path d="M122.931 47.3972V35.0137H125.151V47.3972H122.931Z" fill="white"/>
<path d="M127.699 47.3972V36.6575H125.726V35.0137H131.89V36.6575H129.89V47.3972H127.699Z" fill="white"/>
<path d="M132.466 47.3972V35.0137H134.685V47.3972H132.466Z" fill="white"/>
<path d="M135.973 47.3972V35.0137H141.178V36.6027H138.247V40.1644H140.548V41.726H138.247V45.8356H141.206V47.3972H135.973Z" fill="white"/>
<path d="M145.014 47.5617C144.356 47.5617 143.726 47.4247 143.151 47.1233C142.658 46.8219 142.247 46.3836 142.027 45.863C141.753 45.2055 141.617 44.4932 141.589 43.7808L143.534 43.3973C143.534 43.8356 143.617 44.274 143.726 44.685C143.808 45.0137 143.945 45.2877 144.164 45.5343C144.384 45.7261 144.658 45.8356 144.959 45.8082C145.26 45.8356 145.534 45.7261 145.726 45.4795C145.89 45.2329 145.973 44.9589 145.945 44.6576C145.945 44.1918 145.836 43.7261 145.589 43.3151C145.288 42.9315 144.959 42.5754 144.603 42.274L143.041 40.9041C142.63 40.548 142.274 40.1096 142 39.6439C141.726 39.0959 141.589 38.5206 141.617 37.9178C141.534 37.0685 141.863 36.2466 142.466 35.6713C143.123 35.0959 143.973 34.8219 144.822 34.8767C145.315 34.8767 145.808 34.9589 146.274 35.1233C146.63 35.2877 146.932 35.5343 147.178 35.863C147.425 36.1918 147.589 36.5754 147.699 36.9589C147.808 37.3699 147.89 37.7808 147.918 38.2192L146 38.5754C146 38.2192 145.918 37.8904 145.863 37.5343C145.808 37.2603 145.671 37.0137 145.507 36.7945C145.315 36.6302 145.041 36.5206 144.767 36.548C144.466 36.548 144.192 36.6576 144 36.8767C143.808 37.0959 143.699 37.3973 143.726 37.6987C143.726 38.0548 143.808 38.411 143.973 38.7398C144.192 39.0411 144.466 39.3151 144.74 39.5617L146.274 40.9315C146.795 41.3425 147.233 41.863 147.589 42.4384C147.973 43.0685 148.164 43.7808 148.137 44.5206C148.137 45.0685 148.027 45.6165 147.753 46.0822C147.48 46.548 147.123 46.9041 146.658 47.1781C146.137 47.4521 145.589 47.5617 145.014 47.5617Z" fill="white"/>
<path d="M28.9862 129.616H54.6849C55.041 129.616 55.315 129.342 55.315 128.986C55.315 128.822 55.2602 128.685 55.1506 128.575L42.2191 112.137C42.2191 112.137 41.9177 111.945 41.7534 111.945C41.6164 111.918 41.452 111.918 41.315 111.945V112.082L28.8492 128.52L28.5205 128.575C28.5205 128.575 28.4931 128.822 28.5205 128.931C28.4931 129.233 28.6849 129.534 28.9862 129.616Z" fill="white"/>
<path d="M54.6027 131.945H28.8767C28.5206 131.945 28.2466 132.219 28.2466 132.575V152.74C28.2466 153.096 28.5206 153.37 28.8767 153.37H37.0959V140.685C37.0959 140.329 37.3699 140.055 37.726 140.055H45.4247C45.7808 140.055 46.0548 140.329 46.0548 140.685V153.37H54.548C54.9041 153.37 55.1781 153.096 55.1781 152.74V132.575C55.1781 132.247 54.9315 131.973 54.6027 131.945Z" fill="white"/>
<path d="M143.589 126.685H118.11C117.781 126.685 117.507 126.959 117.507 127.288V153.014C117.507 153.343 117.781 153.617 118.11 153.617H143.589C143.918 153.617 144.192 153.37 144.219 153.041C144.219 153.041 144.219 153.041 144.219 153.014V127.288C144.219 126.959 143.945 126.685 143.616 126.685C143.616 126.685 143.616 126.685 143.589 126.685ZM129.644 143.48C129.644 143.808 129.37 144.082 129.041 144.082H121.397C121.068 144.082 120.795 143.836 120.767 143.507C120.767 143.507 120.767 143.507 120.767 143.48V138.849C120.767 138.521 121.041 138.247 121.37 138.247C121.37 138.247 121.37 138.247 121.397 138.247H129.014C129.342 138.247 129.616 138.521 129.616 138.849V143.48H129.644ZM129.644 134.932C129.644 135.26 129.37 135.534 129.041 135.534H121.397C121.068 135.534 120.795 135.288 120.767 134.959C120.767 134.959 120.767 134.959 120.767 134.932V130.301C120.767 129.973 121.041 129.699 121.37 129.699C121.37 129.699 121.37 129.699 121.397 129.699H129.014C129.342 129.699 129.616 129.973 129.616 130.301V134.932H129.644ZM141.288 143.48C141.288 143.808 141.014 144.082 140.685 144.082C140.685 144.082 140.685 144.082 140.658 144.082H133.068C132.74 144.082 132.466 143.836 132.438 143.507C132.438 143.507 132.438 143.507 132.438 143.48V138.849C132.438 138.521 132.712 138.247 133.041 138.247C133.041 138.247 133.041 138.247 133.068 138.247H140.658C140.986 138.247 141.26 138.493 141.288 138.822C141.288 138.822 141.288 138.822 141.288 138.849V143.48ZM141.288 134.932C141.288 135.26 141.014 135.534 140.685 135.534C140.685 135.534 140.685 135.534 140.658 135.534H133.068C132.74 135.534 132.466 135.288 132.438 134.959C132.438 134.959 132.438 134.959 132.438 134.932V130.301C132.438 129.973 132.712 129.699 133.041 129.699C133.041 129.699 133.041 129.699 133.068 129.699H140.658C140.986 129.699 141.26 129.945 141.288 130.274C141.288 130.274 141.288 130.274 141.288 130.301V134.932Z" fill="white"/>
<path d="M84.3561 66.959H59.4246C59.0684 66.959 58.7944 67.233 58.7944 67.5891V152.795C58.7944 153.123 59.0684 153.397 59.3972 153.397C59.3972 153.397 59.3972 153.397 59.4246 153.397H84.3561C84.6849 153.397 84.9588 153.123 84.9588 152.795V67.5891C84.9588 67.2604 84.7122 66.9864 84.3835 66.959C84.3835 66.959 84.3835 66.959 84.3561 66.959ZM69.5068 143.671C69.5068 143.863 69.3698 144 69.178 144H63.4794C63.2876 144 63.1506 143.863 63.1506 143.671V137.288C63.1506 137.123 63.2876 136.986 63.452 136.986C63.452 136.986 63.452 136.986 63.4794 136.986H69.178C69.3424 136.986 69.4794 137.096 69.5068 137.26C69.5068 137.26 69.5068 137.26 69.5068 137.288V143.671ZM69.5068 129.041C69.5068 129.233 69.3698 129.37 69.178 129.37H63.4794C63.2876 129.37 63.1506 129.233 63.1506 129.041V122.685C63.1506 122.493 63.2876 122.356 63.4794 122.356H69.178C69.3698 122.356 69.5068 122.493 69.5068 122.685V129.041ZM69.5068 114.438C69.5068 114.63 69.3698 114.767 69.178 114.767H63.4794C63.2876 114.767 63.1506 114.63 63.1506 114.438V108.082C63.1506 107.89 63.2876 107.754 63.4794 107.754H69.178C69.3698 107.754 69.5068 107.89 69.5068 108.082V114.438ZM69.5068 99.8357C69.5068 100.027 69.3698 100.164 69.178 100.164H63.4794C63.2876 100.164 63.1506 100.027 63.1506 99.8357V93.5069C63.1506 93.3151 63.2876 93.1782 63.4794 93.1782H69.178C69.3698 93.1782 69.5068 93.3151 69.5068 93.5069V99.8357ZM69.5068 85.233C69.5068 85.4247 69.3698 85.5617 69.178 85.5617H63.4794C63.2876 85.5617 63.1506 85.4247 63.1506 85.233V78.8494C63.1506 78.6576 63.2876 78.5206 63.4794 78.5206H69.178C69.3698 78.5206 69.5068 78.6576 69.5068 78.8494V85.233ZM80.7122 143.671C80.7122 143.863 80.5753 144 80.3835 144H74.6849C74.4931 144 74.3561 143.863 74.3561 143.671V137.288C74.3561 137.123 74.4931 136.986 74.6575 136.986C74.6575 136.986 74.6575 136.986 74.6849 136.986H80.3835C80.5479 136.986 80.6848 137.096 80.7122 137.26C80.7122 137.26 80.7122 137.26 80.7122 137.288V143.671ZM80.7122 129.041C80.7122 129.233 80.5753 129.37 80.3835 129.37H74.6849C74.4931 129.37 74.3561 129.233 74.3561 129.041V122.685C74.3561 122.493 74.4931 122.356 74.6849 122.356H80.3835C80.5753 122.356 80.7122 122.493 80.7122 122.685V129.041ZM80.7122 114.438C80.7122 114.63 80.5753 114.767 80.3835 114.767H74.6849C74.4931 114.767 74.3561 114.63 74.3561 114.438V108.082C74.3561 107.89 74.4931 107.754 74.6849 107.754H80.3835C80.5753 107.754 80.7122 107.89 80.7122 108.082V114.438ZM80.7122 99.8357C80.7122 100.027 80.5753 100.164 80.3835 100.164H74.6849C74.4931 100.164 74.3561 100.027 74.3561 99.8357V93.5069C74.3561 93.3151 74.4931 93.1782 74.6849 93.1782H80.3835C80.5753 93.1782 80.7122 93.3151 80.7122 93.5069V99.8357ZM80.7122 85.233C80.7122 85.4247 80.5753 85.5617 80.3835 85.5617H74.6849C74.4931 85.5617 74.3561 85.4247 74.3561 85.233V78.8494C74.3561 78.6576 74.4931 78.5206 74.6849 78.5206H80.3835C80.5753 78.5206 80.7122 78.6576 80.7122 78.8494V85.233Z" fill="white"/>
<path d="M143.644 118.466H118.027C117.74 118.466 117.507 118.699 117.507 118.986V124.11C117.507 124.397 117.74 124.63 118.027 124.63H143.644C143.931 124.63 144.164 124.397 144.164 124.11V118.986C144.164 118.699 143.931 118.466 143.644 118.466Z" fill="white"/>
<path d="M114.466 83.0684C114.384 82.7944 114.137 82.5752 113.836 82.5752C113.726 82.5478 113.589 82.5478 113.48 82.5752L113.288 82.8218L88.7946 114.082C88.6576 114.219 88.5754 114.383 88.5754 114.575V152.767C88.5754 153.123 88.8494 153.397 89.2056 153.397H114.11C114.438 153.397 114.712 153.123 114.712 152.794C114.712 152.794 114.712 152.794 114.712 152.767V83.178C114.712 83.178 114.548 83.0958 114.466 83.0684ZM104.137 99.9451L104.329 99.7259C106 97.5615 108.822 94.0821 110.192 92.4109L110.384 92.1917C110.521 92.0273 110.712 91.9177 110.932 91.9177C111.26 91.9177 111.534 92.1643 111.617 92.493V100.356C111.617 100.74 111.315 101.041 110.932 101.068H104.685C104.301 101.068 104 100.74 104 100.356C104 100.219 104.055 100.055 104.137 99.9451ZM100.274 143.479C100.274 143.808 100 144.082 99.6713 144.082C99.6713 144.082 99.6713 144.082 99.6439 144.082H92.2193C91.8905 144.082 91.6165 143.808 91.6165 143.479V138.822C91.6165 138.493 91.8905 138.219 92.2193 138.219H99.7535C100.082 138.219 100.356 138.466 100.384 138.794C100.384 138.794 100.384 138.794 100.384 138.822L100.274 143.479ZM100.274 134.877C100.274 135.205 100 135.479 99.6713 135.479C99.6713 135.479 99.6713 135.479 99.6439 135.479H92.2193C91.8905 135.479 91.6165 135.205 91.6165 134.877V130.219C91.6165 129.89 91.8905 129.616 92.2193 129.616H99.7535C100.082 129.616 100.356 129.863 100.384 130.192C100.384 130.192 100.384 130.192 100.384 130.219L100.274 134.877ZM100.274 126.274C100.274 126.63 100 126.904 99.6439 126.904H92.2193C91.8905 126.904 91.6165 126.63 91.6165 126.301C91.6165 126.301 91.6165 126.301 91.6165 126.274V121.644C91.6165 121.315 91.8631 121.041 92.1919 121.014C92.1919 121.014 92.1919 121.014 92.2193 121.014H99.7535C100.11 121.014 100.384 121.288 100.384 121.644L100.274 126.274ZM100.274 107.452V117.616C100.274 117.945 100 118.219 99.6713 118.219H92.2467C91.9179 118.274 91.6165 118.055 91.5343 117.726C91.5343 117.699 91.5343 117.644 91.5343 117.616V116.329C91.5343 116.329 91.5343 116.192 91.5343 116.109C92.4932 114.767 96.7672 109.479 98.5754 107.288L98.7672 107.068C99.0138 106.767 99.4248 106.74 99.7261 106.959C99.8631 107.068 99.9453 107.205 99.9727 107.37L100.274 107.452ZM111.617 143.479C111.617 143.808 111.343 144.082 111.014 144.082H103.589C103.26 144.082 102.986 143.808 102.986 143.479V138.822C102.986 138.493 103.26 138.219 103.589 138.219H111.014C111.343 138.219 111.617 138.493 111.617 138.822V143.479ZM111.617 134.877C111.617 135.205 111.343 135.479 111.014 135.479H103.589C103.26 135.479 102.986 135.205 102.986 134.877V130.219C102.986 129.89 103.26 129.616 103.589 129.616H111.014C111.343 129.616 111.617 129.89 111.617 130.219V134.877ZM111.617 126.274C111.617 126.603 111.37 126.877 111.041 126.904C111.041 126.904 111.041 126.904 111.014 126.904H103.589C103.26 126.904 102.986 126.63 102.986 126.301C102.986 126.301 102.986 126.301 102.986 126.274V121.644C102.986 121.315 103.233 121.041 103.562 121.014C103.562 121.014 103.562 121.014 103.589 121.014H111.014C111.343 121.014 111.617 121.288 111.617 121.616C111.617 121.616 111.617 121.616 111.617 121.644V126.274ZM111.617 117.699C111.617 118.027 111.343 118.301 111.014 118.301H103.589C103.26 118.301 102.986 118.027 102.986 117.699V113.041C102.986 112.712 103.26 112.438 103.589 112.438H111.014C111.343 112.438 111.617 112.712 111.617 113.041V117.699ZM111.617 109.096C111.617 109.425 111.343 109.699 111.014 109.699H103.589C103.26 109.699 102.986 109.425 102.986 109.096V104.438C102.986 104.109 103.26 103.836 103.589 103.836H111.014C111.343 103.836 111.617 104.109 111.617 104.438V109.096Z" fill="white"/>
</g>
<defs>
<clipPath id="clip0_137_4824">
<rect width="170" height="170" fill="white"/>
</clipPath>
</defs>
</svg>
