<svg width="170" height="170" viewBox="0 0 170 170" fill="none" xmlns="http://www.w3.org/2000/svg">
<g clip-path="url(#clip0_137_4833)">
<path d="M170 0H0V170H170V0Z" fill="#C88937"/>
<path d="M14.5958 21.1678C14.2945 21.3321 13.4456 21.6607 12.0217 22.181C10.5977 22.7013 10.1869 22.8109 9.91309 22.9478V18.3473C11.0358 17.8817 12.1312 17.3341 13.1992 16.7316C14.2124 16.2387 15.1161 15.5815 15.9376 14.7874H20.7845V47.1826H14.5958V21.1678Z" fill="white"/>
<path d="M24.2349 42.8287L32.0667 30.6976L32.5596 29.9856C33.3811 28.7533 34.1479 27.4663 34.8051 26.1518C35.298 25.0839 35.5171 23.9337 35.5171 22.7836C35.5718 21.9347 35.3528 21.1132 34.9146 20.4012C34.5039 19.8535 33.874 19.5523 33.1894 19.5797C32.231 19.4975 31.2999 20.0178 30.8618 20.8667C30.4237 22.0169 30.232 23.2491 30.3415 24.4814V25.9602H24.3444V24.3719C24.2075 21.7978 24.9468 19.2237 26.4804 17.1425C28.1782 15.253 30.6427 14.2398 33.1894 14.4041C37.3792 13.8838 41.213 16.8687 41.7333 21.0858C41.8154 21.6883 41.8154 22.3181 41.7333 22.9205C41.7333 24.098 41.5689 25.2756 41.1856 26.3983C40.8296 27.4115 40.3914 28.3973 39.8711 29.3284C39.3508 30.1773 38.5567 31.4096 37.5161 32.9705L31.2726 42.3358H40.9117V47.2102H24.3444L24.2349 42.8287Z" fill="white"/>
<path d="M54.1108 27.2196V14.842H57.0683C57.7803 14.8146 58.4923 14.9242 59.1769 15.1433C59.7246 15.3076 60.1901 15.6635 60.4913 16.1565C60.8199 16.7589 60.9842 17.4161 60.9568 18.1007C60.9568 18.5389 60.9021 19.0044 60.8199 19.4425C60.7378 19.8259 60.5735 20.1819 60.3544 20.4831C60.1079 20.7844 59.8067 21.0034 59.4507 21.113L61.1759 27.2196H58.903L57.3969 21.5511H56.3563V27.2196H54.1108ZM56.3563 20.1271H57.0683C57.4243 20.1271 57.7803 20.0724 58.1089 19.9355C58.3827 19.8259 58.5744 19.6068 58.684 19.333C58.7935 18.977 58.8483 18.621 58.8483 18.2376C58.8757 17.7447 58.7661 17.2518 58.4923 16.8411C58.1637 16.4851 57.6708 16.3208 57.2052 16.3755H56.3563V20.1271Z" fill="white"/>
<path d="M62.1892 27.2196V14.842H67.3922V16.266H64.4621V19.8259H66.7623V21.3868H64.4621V25.4944H67.4196V27.2196H62.1892Z" fill="white"/>
<path d="M71.4174 27.2196C70.7602 27.247 70.103 27.0827 69.5279 26.7815C69.035 26.4802 68.6243 26.0421 68.4052 25.5218C68.1313 24.8646 67.9944 24.1526 67.967 23.4406L69.9113 23.0572C69.9113 23.4954 69.9935 23.9335 70.103 24.3443C70.1578 24.6729 70.3221 24.9467 70.5411 25.1932C70.7602 25.3849 71.0341 25.4944 71.3353 25.4944C71.6365 25.5218 71.9103 25.4123 72.102 25.1658C72.2663 24.9193 72.3759 24.6181 72.3485 24.3169C72.3485 23.8514 72.239 23.3858 71.9651 23.0025C71.6913 22.6191 71.3627 22.2631 70.9793 21.9619L69.4184 20.5653C69.0076 20.2093 68.6516 19.7711 68.3778 19.3056C68.104 18.7579 67.967 18.1829 67.9944 17.5804C67.9397 16.7315 68.2409 15.9374 68.8433 15.3349C69.5005 14.7599 70.3495 14.486 71.1984 14.5408C71.6913 14.5408 72.1842 14.6229 72.6497 14.7873C73.0057 14.9516 73.3343 15.2254 73.5808 15.554C73.7998 15.8826 73.9641 16.2386 74.0737 16.622C74.1832 17.0327 74.2654 17.4709 74.2928 17.909L72.3759 18.2376C72.3759 17.8816 72.2937 17.553 72.2389 17.197C72.1842 16.9232 72.0746 16.6768 71.883 16.4851C71.4722 16.0743 70.7876 16.0743 70.3768 16.4851C70.1852 16.7041 70.0756 17.0054 70.103 17.3066C70.103 17.6626 70.1852 18.046 70.3768 18.3472C70.5685 18.6484 70.815 18.9496 71.1162 19.1687L72.6497 20.5379C73.17 20.976 73.6082 21.469 73.9641 22.044C74.3475 22.6739 74.5392 23.3858 74.5118 24.1252C74.5118 24.6729 74.3749 25.2206 74.1284 25.7135C73.8546 26.1516 73.4986 26.535 73.0331 26.7815C72.5402 27.0827 71.9925 27.2196 71.4174 27.2196Z" fill="white"/>
<path d="M75.2512 27.2196V14.842H78.8933C79.5231 14.8147 80.153 14.9516 80.728 15.2528C81.1936 15.5266 81.5496 15.9648 81.7412 16.4577C81.9877 17.0602 82.0972 17.69 82.0698 18.3472C82.0972 19.0318 81.9603 19.689 81.6591 20.2915C81.4126 20.7844 81.0019 21.1678 80.509 21.3868C79.9613 21.6059 79.3588 21.7154 78.7564 21.7154H77.5241V27.1922H75.2512V27.2196ZM77.5241 20.1272H78.373C78.7016 20.1272 79.0302 20.0998 79.3314 19.9629C79.5505 19.8259 79.7422 19.6342 79.8244 19.3878C79.8791 19.0318 79.8791 18.7032 79.8244 18.3472C79.8517 17.9912 79.8517 17.6078 79.8244 17.2518C79.7696 16.978 79.6053 16.7589 79.3862 16.622C79.0576 16.4577 78.7016 16.4029 78.3456 16.4303H77.4967V20.1272H77.5241Z" fill="white"/>
<path d="M86.2323 27.2196C85.493 27.247 84.7536 27.0827 84.1238 26.7267C83.6035 26.3981 83.2201 25.9052 83.0284 25.3301C82.7819 24.6455 82.645 23.9062 82.6724 23.1668V18.5115C82.6724 17.7722 82.7819 17.0602 83.0284 16.3756C83.2201 15.8005 83.6035 15.3076 84.1238 15.0064C84.781 14.6504 85.493 14.4861 86.2323 14.5408C86.9717 14.4861 87.6837 14.6504 88.3409 15.0064C88.8612 15.3076 89.2719 15.8005 89.4636 16.3756C89.7101 17.0602 89.847 17.7722 89.8196 18.5115V23.1668C89.8196 23.9062 89.7101 24.6455 89.4636 25.3301C89.2446 25.9052 88.8612 26.3981 88.3409 26.7267C87.7111 27.0827 86.9717 27.2744 86.2323 27.2196ZM86.2323 25.5492C86.5335 25.5492 86.8074 25.4944 87.0538 25.3301C87.2455 25.1385 87.3825 24.9194 87.4372 24.6455C87.4646 24.3443 87.4646 24.0157 87.4372 23.7145V17.9912C87.4646 17.69 87.4646 17.3614 87.4372 17.0602C87.3277 16.5125 86.8074 16.1291 86.2323 16.1839C85.9311 16.1839 85.6573 16.266 85.4108 16.4303C85.2191 16.5946 85.1096 16.8137 85.0548 17.0602C85.0274 17.3614 85.0274 17.69 85.0548 17.9912V23.7145C85.0274 24.0157 85.0274 24.3443 85.0548 24.6455C85.0822 24.9194 85.2191 25.1385 85.4108 25.3301C85.6573 25.5218 85.9311 25.6314 86.2323 25.6314V25.5492Z" fill="white"/>
<path d="M91.0244 27.2196V14.842H92.5853L95.5975 21.9071V14.842H97.487V27.2196H96.0631L93.0234 19.8259V27.2196H91.0244Z" fill="white"/>
<path d="M102.033 27.2196C101.376 27.247 100.718 27.0827 100.143 26.7815C99.6505 26.4802 99.2397 26.0421 99.0207 25.5218C98.7468 24.8646 98.6099 24.1526 98.5825 23.4406L100.527 23.0572C100.527 23.4954 100.609 23.9335 100.718 24.3443C100.773 24.6729 100.938 24.9467 101.157 25.1932C101.376 25.3849 101.65 25.4944 101.951 25.4944C102.252 25.5218 102.526 25.4123 102.718 25.1658C102.882 24.9193 102.991 24.6181 102.964 24.3169C102.964 23.8514 102.854 23.3858 102.581 23.0025C102.307 22.6191 101.978 22.2631 101.595 21.9619L100.034 20.5653C99.6231 20.2093 99.2671 19.7711 98.9933 19.3056C98.7194 18.7579 98.5825 18.1829 98.6099 17.5804C98.5551 16.7315 98.8564 15.9374 99.4588 15.3349C100.116 14.7599 100.965 14.486 101.814 14.5408C102.307 14.5408 102.8 14.6229 103.265 14.7873C103.621 14.9516 103.95 15.2254 104.196 15.554C104.415 15.8826 104.58 16.2386 104.689 16.622C104.799 17.0327 104.881 17.4709 104.908 17.909L102.991 18.2376C102.991 17.8816 102.991 17.553 102.991 17.197C102.937 16.9232 102.827 16.6768 102.635 16.4851C102.225 16.0743 101.54 16.0743 101.129 16.4851C100.938 16.7041 100.828 17.0054 100.855 17.3066C100.855 17.6626 100.938 18.046 101.129 18.3472C101.321 18.6484 101.567 18.9496 101.869 19.1687L103.402 20.5379C103.922 20.976 104.361 21.469 104.717 22.044C105.1 22.6739 105.292 23.3858 105.264 24.1252C105.264 24.6729 105.127 25.2206 104.881 25.7135C104.607 26.1516 104.251 26.535 103.785 26.7815C103.265 27.0827 102.635 27.247 102.033 27.2196Z" fill="white"/>
<path d="M105.949 27.2196V14.842H108.167V27.2196H105.949Z" fill="white"/>
<path d="M109.755 27.2196V14.842H112.795C113.288 14.842 113.808 14.8968 114.301 14.979C114.712 15.0611 115.095 15.2528 115.451 15.4993C115.78 15.7457 116.026 16.0743 116.19 16.4577C116.382 16.9506 116.464 17.4983 116.437 18.0186C116.437 18.4567 116.382 18.8949 116.245 19.3056C116.108 19.6342 115.917 19.9355 115.643 20.1545C115.341 20.3736 114.985 20.5105 114.629 20.5653C115.068 20.6201 115.506 20.8118 115.862 21.0856C116.19 21.3594 116.437 21.688 116.574 22.0988C116.738 22.5917 116.82 23.0846 116.82 23.6049C116.82 24.1526 116.738 24.6729 116.601 25.1932C116.464 25.604 116.245 25.9873 115.944 26.3159C115.643 26.6172 115.259 26.8636 114.849 27.0005C114.356 27.1648 113.835 27.2196 113.315 27.2196H109.755ZM112.028 19.9081H112.795C113.151 19.9081 113.507 19.8533 113.835 19.689C114.082 19.5521 114.273 19.333 114.356 19.0866C114.438 18.758 114.493 18.402 114.493 18.046C114.493 17.69 114.438 17.334 114.273 17.0328C114.109 16.7863 113.863 16.622 113.589 16.5398C113.206 16.4851 112.85 16.4851 112.466 16.5398H112.028V19.9081ZM112.028 25.6313H112.877C113.397 25.6861 113.917 25.5218 114.273 25.1384C114.547 24.6729 114.657 24.1526 114.629 23.6049C114.629 23.1942 114.575 22.7834 114.465 22.3726C114.356 22.0714 114.164 21.8524 113.89 21.688C113.562 21.5237 113.178 21.4416 112.795 21.469H112.028V25.6313Z" fill="white"/>
<path d="M117.697 27.2196V14.842H119.942V25.7956H122.954V27.2196H117.697Z" fill="white"/>
<path d="M123.612 27.2196V14.842H128.924V16.266H125.994V19.8259H128.294V21.3868H125.994V25.4944H128.924V27.2196H123.612Z" fill="white"/>
<path d="M57.4243 47.566C56.685 47.5934 55.9456 47.4017 55.3158 47.0183C54.7955 46.6623 54.4121 46.142 54.2204 45.567C54.0013 44.8824 53.9192 44.143 53.9192 43.431V38.9948C53.9192 38.2555 54.0013 37.5161 54.2204 36.8041C54.4121 36.2016 54.7955 35.7087 55.3158 35.3527C56.6302 34.7229 58.1363 34.7229 59.4508 35.3527C59.9163 35.6266 60.2997 36.0647 60.4914 36.585C60.7104 37.1875 60.7926 37.8447 60.7926 38.4745V39.5151H58.6019V37.4887C58.5745 37.2422 58.4649 36.9958 58.3006 36.8041C57.8077 36.4481 57.1231 36.4481 56.6302 36.8041C56.4385 36.9958 56.3016 37.2422 56.2742 37.5161V44.0061C56.2194 44.3895 56.2194 44.7455 56.2742 45.1288C56.329 45.3753 56.4659 45.6218 56.6576 45.7861C56.8767 45.9504 57.1505 46.0051 57.4243 46.0051C57.7256 46.0325 57.9994 45.923 58.2185 45.7313C58.3828 45.5396 58.4923 45.2931 58.5197 45.0193C58.5471 44.6907 58.5471 44.3621 58.5197 44.0335V42.9107H60.7104V43.8966C60.7104 44.5538 60.6283 45.211 60.4092 45.8408C60.2449 46.3885 59.8889 46.854 59.396 47.1826C58.7935 47.4839 58.1089 47.6208 57.4243 47.566Z" fill="white"/>
<path d="M65.2835 47.5661C64.5441 47.5934 63.8048 47.4291 63.1749 47.0731C62.6546 46.7445 62.2439 46.2242 62.0522 45.6492C61.8057 44.9646 61.6962 44.2252 61.7236 43.4858V38.8579C61.7236 38.1186 61.8057 37.3792 62.0522 36.6946C62.2713 36.1195 62.6546 35.654 63.1749 35.3254C63.8322 34.9968 64.5441 34.8325 65.2835 34.8599C66.0229 34.8325 66.7349 34.9968 67.3921 35.3254C67.9124 35.654 68.2958 36.1195 68.5148 36.6946C68.7613 37.3792 68.8708 38.1186 68.8434 38.8579V43.6501C68.8434 44.3621 68.7613 45.1015 68.5148 45.7861C68.2958 46.3612 67.9124 46.8541 67.3921 47.1827C66.7349 47.5113 65.9955 47.6482 65.2835 47.5661ZM65.2835 45.8956C65.5847 45.8956 65.8586 45.8135 66.105 45.6492C66.2967 45.4575 66.4063 45.211 66.461 44.9646C66.4884 44.6634 66.4884 44.3347 66.461 44.0335V38.3376C66.4884 38.0364 66.4884 37.7078 66.461 37.4066C66.4063 37.1601 66.2967 36.9411 66.105 36.7494C65.8586 36.5851 65.5847 36.4755 65.2835 36.5029C64.9823 36.5029 64.7084 36.5577 64.462 36.7494C64.2703 36.9137 64.1334 37.1601 64.106 37.4066C64.0512 37.7078 64.0512 38.0364 64.106 38.3376V44.0335C64.0786 44.3347 64.0786 44.6634 64.106 44.9646C64.1608 45.5396 64.6537 45.9504 65.2287 45.8956C65.2287 45.8956 65.2835 45.8956 65.3109 45.8956H65.2835Z" fill="white"/>
<path d="M70.0483 47.3744V34.9968H71.6366L74.6489 42.0619V34.9968H76.511V47.3744H75.0048L71.9926 39.9807V47.3744H70.0483Z" fill="white"/>
<path d="M81.0568 47.566C80.3996 47.566 79.7697 47.429 79.1947 47.1278C78.7018 46.8266 78.291 46.3885 78.0719 45.8408C77.7707 45.1836 77.6338 44.499 77.6338 43.787L79.5781 43.4036C79.5781 43.8144 79.6602 44.2525 79.7424 44.6633C79.8245 44.9919 79.9888 45.2657 80.2079 45.5122C80.3996 45.7039 80.7008 45.8134 80.9746 45.8134C81.2759 45.8408 81.5771 45.7312 81.7688 45.4848C81.9331 45.2383 81.9878 44.9371 81.9878 44.6359C81.9878 44.1703 81.8783 43.7048 81.6319 43.3214C81.358 42.9381 81.0294 42.5821 80.646 42.2808L79.0851 40.9116C78.6744 40.5557 78.3184 40.1175 78.0445 39.6246C77.7707 39.1043 77.6338 38.5292 77.6612 37.9268C77.6064 37.0779 77.9076 36.2564 78.5101 35.6539C79.1673 35.1062 79.9888 34.8324 80.8377 34.8598C81.3306 34.8598 81.8235 34.9419 82.2891 35.1336C82.6724 35.2705 83.0011 35.5444 83.2201 35.873C83.4666 36.1742 83.6583 36.5576 83.7404 36.941C83.85 37.3517 83.9321 37.7899 83.9595 38.228L82.0152 38.5566C82.0426 38.2006 82.0426 37.872 82.0152 37.516C81.9605 37.2422 81.8235 36.9957 81.6592 36.804C81.4675 36.6124 81.1937 36.5028 80.9199 36.5302C80.6186 36.5302 80.3174 36.6397 80.1257 36.8588C79.9614 37.1053 79.8793 37.3791 79.8793 37.6803C79.8793 38.0363 79.9614 38.3923 80.1257 38.7209C80.3448 39.0222 80.5913 39.3234 80.8925 39.5424L82.426 40.9116C82.9463 41.3498 83.3844 41.8427 83.7404 42.4178C84.1238 43.0476 84.3155 43.7596 84.2881 44.499C84.2881 45.0466 84.1512 45.5943 83.8773 46.0872C83.6309 46.5528 83.2749 46.9087 82.8094 47.1552C82.2891 47.4564 81.6592 47.5934 81.0568 47.566Z" fill="white"/>
<path d="M88.4231 47.5661C87.6837 47.5935 86.9443 47.4292 86.2871 47.0458C85.7942 46.6898 85.4382 46.1969 85.2465 45.6218C85.0275 44.8825 84.9453 44.1431 84.9453 43.3763V34.9968H87.136V43.6502C87.1086 44.0062 87.1086 44.3895 87.136 44.7455C87.1908 45.0468 87.3003 45.3206 87.492 45.5671C87.7111 45.7861 88.0397 45.8957 88.3409 45.8683C88.6695 45.8683 88.9708 45.7861 89.2172 45.5671C89.4089 45.3206 89.5458 45.0468 89.5732 44.7455C89.6006 44.3895 89.6006 44.0062 89.5732 43.6502V34.9968H91.7639V43.3763C91.7639 44.1431 91.6818 44.8825 91.4627 45.6218C91.271 46.1969 90.915 46.6898 90.4221 47.0458C89.8197 47.4018 89.1351 47.5661 88.4231 47.5661Z" fill="white"/>
<path d="M93.3247 47.3744L93.5438 34.9968H95.8714L97.624 43.568L99.4587 34.9968H101.54L101.759 47.3744H100.089L99.8969 38.7758L98.1443 47.3744H96.7751L94.9951 38.7484L94.8308 47.3744H93.3247Z" fill="white"/>
<path d="M103.128 47.3744V34.9968H106.77C107.4 34.9694 108.03 35.1064 108.605 35.4076C109.043 35.7088 109.399 36.1196 109.618 36.6125C109.865 37.2149 109.974 37.8448 109.947 38.502C109.974 39.1866 109.837 39.8712 109.536 40.4736C109.29 40.9392 108.879 41.3225 108.386 41.5416C107.838 41.7607 107.236 41.8702 106.633 41.8702H105.401V47.347H103.128V47.3744ZM105.401 40.2819H106.25C106.579 40.2819 106.907 40.2546 107.208 40.1176C107.455 40.0081 107.619 39.789 107.701 39.5426C107.756 39.1866 107.756 38.858 107.701 38.502C107.729 38.146 107.729 37.7626 107.701 37.4066C107.647 37.1602 107.482 36.9137 107.263 36.7768C106.935 36.6125 106.579 36.5577 106.223 36.5851H105.374V40.2819H105.401Z" fill="white"/>
<path d="M111.973 47.3744V36.6673H110.002V34.9968H116.191V36.6673H114.246V47.3744H111.973Z" fill="white"/>
<path d="M116.93 47.3744V34.9968H119.148V47.3744H116.93Z" fill="white"/>
<path d="M123.968 47.5661C123.228 47.5934 122.516 47.4291 121.886 47.0731C121.366 46.7445 120.955 46.2242 120.764 45.6492C120.517 44.9646 120.408 44.2252 120.435 43.4858V38.8579C120.435 38.1186 120.517 37.3792 120.764 36.6946C120.983 36.1195 121.366 35.654 121.886 35.3254C122.516 34.9968 123.256 34.8325 123.968 34.8599C124.707 34.8325 125.446 34.9968 126.104 35.3254C126.596 35.654 127.007 36.1195 127.199 36.6946C127.445 37.3792 127.582 38.1186 127.555 38.8579V43.6501C127.555 44.3895 127.445 45.1015 127.199 45.7861C127.007 46.3612 126.624 46.8541 126.104 47.1827C125.446 47.5113 124.707 47.6482 123.968 47.5661ZM123.968 45.8956C124.543 45.9778 125.063 45.5944 125.172 45.0467C125.172 45.0467 125.172 44.992 125.172 44.9646C125.2 44.6634 125.2 44.3347 125.172 44.0335V38.3376C125.2 38.0364 125.2 37.7078 125.172 37.4066C125.118 37.1601 125.008 36.9411 124.816 36.7494C124.57 36.5577 124.269 36.4755 123.968 36.5029C123.694 36.5029 123.392 36.5577 123.173 36.7494C122.982 36.9137 122.845 37.1601 122.79 37.4066C122.763 37.7078 122.763 38.0364 122.79 38.3376V44.0335C122.763 44.3347 122.763 44.6634 122.79 44.9646C122.817 45.2384 122.954 45.4849 123.146 45.6492C123.392 45.8135 123.666 45.923 123.968 45.8956Z" fill="white"/>
<path d="M128.76 47.3744V34.9968H130.348L133.36 42.0619V34.9968H135.222V47.3744H133.716L130.704 39.9807V47.3744H128.76Z" fill="white"/>
<path d="M53.481 67.6386L55.9455 55.2336H58.3827L60.8473 67.6386H58.7661L58.2732 64.9002H56.1098L55.5895 67.6386H53.481ZM56.2194 63.3393H57.9172L57.0683 58.1363L56.2194 63.3393Z" fill="white"/>
<path d="M61.5593 67.6386V55.2336H63.2024L66.2146 62.2987V55.2336H68.0767V67.6386H66.5706L63.5584 60.2175V67.6386H61.5593Z" fill="white"/>
<path d="M69.4458 67.6386V55.2336H72.3759C73.17 55.2063 73.9915 55.3432 74.7309 55.6444C75.2786 55.9182 75.7167 56.3564 75.9358 56.9315C76.2096 57.6161 76.3192 58.3554 76.2918 59.0948V63.6132C76.2918 64.3799 76.2096 65.1467 75.9358 65.8586C75.7167 66.4337 75.306 66.8992 74.7583 67.2005C74.0463 67.5291 73.2522 67.666 72.458 67.6386H69.4458ZM71.7187 66.0503H72.4033C72.7866 66.0777 73.1974 65.9956 73.526 65.7765C73.7451 65.5848 73.9094 65.2836 73.9368 64.9824C73.9642 64.5442 73.9642 64.1335 73.9368 63.6953V58.9305C73.9642 58.5197 73.9642 58.1364 73.9368 57.7256C73.882 57.4518 73.7177 57.2053 73.4712 57.0684C73.1426 56.8767 72.7866 56.8219 72.4033 56.8493H71.7461V66.0503H71.7187Z" fill="white"/>
<path d="M80.783 67.6386V55.2336H84.3976C85.0275 55.2063 85.6573 55.3432 86.2324 55.6444C86.6979 55.9182 87.0539 56.3564 87.2456 56.8493C87.492 57.4518 87.6016 58.109 87.5742 58.7662C87.6016 59.4508 87.4647 60.108 87.1634 60.7105C86.917 61.176 86.5062 61.5594 86.0133 61.7784C85.4656 62.0249 84.8632 62.1344 84.2607 62.1344H83.0284V67.6112H80.783V67.6386ZM83.0284 60.5188H83.8774C84.206 60.5188 84.5346 60.4914 84.8358 60.3545C85.0822 60.2449 85.2466 60.0259 85.3287 59.7794C85.3835 59.4234 85.3835 59.0948 85.3287 58.7388C85.3561 58.3828 85.3561 57.9994 85.3287 57.6434C85.2739 57.397 85.1096 57.1505 84.8906 57.0136C84.562 56.8767 84.206 56.7945 83.85 56.8219H83.0011V60.5188H83.0284Z" fill="white"/>
<path d="M88.3135 67.6386V55.2336H91.271C91.9829 55.2336 92.7223 55.3158 93.4069 55.5349C93.9546 55.6992 94.4201 56.0552 94.7213 56.5481C95.0499 57.1505 95.1869 57.8351 95.1595 58.5197C95.1595 58.9579 95.1321 59.4234 95.0226 59.8615C94.9404 60.2175 94.7761 60.5735 94.557 60.8748C94.3106 61.176 94.0094 61.395 93.6534 61.532L95.3786 67.6386H93.1057L91.6269 61.9427H90.5864V67.6386H88.3135ZM90.5864 60.5188H91.271C91.6269 60.5188 92.0103 60.464 92.3389 60.3271C92.5854 60.2175 92.7771 59.9985 92.8866 59.7246C92.9961 59.3686 93.0509 59.0126 93.0509 58.6566C93.0783 58.1637 92.9688 57.6708 92.7223 57.2601C92.3937 56.9041 91.9008 56.7398 91.4079 56.7945H90.5864V60.5188Z" fill="white"/>
<path d="M99.7325 67.8029C98.9932 67.8303 98.2812 67.666 97.6514 67.31C97.1311 66.9814 96.7477 66.4884 96.5286 65.9134C96.3095 65.2014 96.1726 64.462 96.2 63.7227V59.0948C96.2 58.3554 96.2822 57.616 96.5286 56.9314C96.7477 56.3564 97.1311 55.8908 97.6514 55.5622C98.2812 55.2336 99.0206 55.0693 99.7325 55.0967C100.472 55.0693 101.211 55.2336 101.868 55.5622C102.361 55.8908 102.772 56.3564 102.964 56.9314C103.21 57.616 103.347 58.3554 103.32 59.0948V63.75C103.32 64.4894 103.21 65.2014 102.964 65.886C102.772 66.4611 102.389 66.9814 101.868 67.31C101.211 67.666 100.472 67.8303 99.7325 67.8029ZM99.7325 66.1324C100.308 66.2146 100.828 65.8312 100.937 65.2835C100.937 65.2835 100.937 65.2288 100.937 65.2014C100.965 64.9002 100.965 64.5716 100.937 64.2703V58.5745C100.965 58.2732 100.965 57.9446 100.937 57.6434C100.883 57.3969 100.773 57.1779 100.581 56.9862C100.335 56.7945 100.034 56.7123 99.7325 56.7397C99.4587 56.7397 99.1575 56.7945 98.9384 56.9862C98.7467 57.1505 98.6098 57.3969 98.555 57.6434C98.5276 57.9446 98.5276 58.2732 98.555 58.5745V64.2703C98.5276 64.5716 98.5276 64.9002 98.555 65.2014C98.5824 65.4752 98.7193 65.7217 98.911 65.886C99.1575 66.0503 99.4313 66.1598 99.7325 66.1324Z" fill="white"/>
<path d="M104.525 67.6386V55.2336H107.455C108.249 55.2063 109.071 55.3432 109.81 55.6444C110.358 55.8909 110.796 56.3564 111.015 56.9315C111.289 57.6161 111.398 58.3554 111.371 59.0948V63.6132C111.371 64.3799 111.289 65.1467 111.015 65.8586C110.796 66.4337 110.385 66.9266 109.837 67.2005C109.125 67.5291 108.331 67.666 107.537 67.6386H104.525ZM106.798 66.0503H107.482C107.866 66.0777 108.277 65.9956 108.605 65.7765C108.824 65.5848 108.989 65.2836 109.016 64.9824C109.043 64.5442 109.043 64.1335 109.016 63.6953V58.9305C109.043 58.5197 109.043 58.1364 109.016 57.7256C108.961 57.4518 108.797 57.2327 108.578 57.0684C108.249 56.9041 107.866 56.8219 107.482 56.8493H106.825V66.0503H106.798Z" fill="white"/>
<path d="M115.999 67.8029C115.232 67.8577 114.493 67.666 113.835 67.2826C113.343 66.954 112.959 66.4337 112.795 65.8586C112.576 65.1193 112.494 64.3799 112.494 63.6132V55.2336H114.712V63.887C114.684 64.243 114.684 64.6264 114.712 64.9824C114.712 65.2836 114.876 65.5848 115.068 65.8039C115.287 66.0229 115.615 66.1325 115.917 66.1051C116.218 66.1325 116.546 66.0229 116.766 65.8039C116.957 65.5574 117.094 65.2836 117.122 64.9824C117.149 64.6264 117.149 64.243 117.122 63.887V55.2336H119.312V63.6132C119.312 64.3799 119.23 65.1193 119.011 65.8586C118.847 66.4611 118.491 66.954 117.97 67.2826C117.368 67.6386 116.683 67.8303 115.999 67.8029Z" fill="white"/>
<path d="M124.132 67.8028C123.392 67.8302 122.626 67.6385 121.996 67.2551C121.475 66.8991 121.119 66.4062 120.928 65.8038C120.709 65.1192 120.599 64.3798 120.599 63.6678V59.259C120.599 58.5196 120.709 57.7529 120.928 57.0409C121.092 56.4384 121.475 55.9455 121.996 55.6169C123.31 54.9871 124.816 54.9871 126.131 55.6169C126.624 55.8907 126.98 56.3563 127.171 56.8766C127.39 57.479 127.5 58.1089 127.473 58.7387V59.7793H125.309V57.7802C125.309 57.5338 125.2 57.2873 125.008 57.0956C124.789 56.8766 124.488 56.7944 124.186 56.8218C123.885 56.8218 123.584 56.904 123.338 57.0956C123.173 57.2873 123.036 57.5338 123.009 57.8076C122.982 58.1636 122.982 58.4922 123.009 58.8482V64.325C122.954 64.7084 122.954 65.0644 123.009 65.4478C123.064 65.6942 123.201 65.9407 123.392 66.105C123.611 66.2419 123.885 66.3241 124.159 66.3241C124.46 66.3514 124.761 66.2693 124.981 66.0502C125.145 65.8585 125.254 65.6121 125.282 65.3382V63.2297H127.445V64.2155C127.445 64.8727 127.363 65.5573 127.171 66.1871C126.98 66.7348 126.624 67.2003 126.158 67.5016C125.528 67.8028 124.816 67.8849 124.132 67.8028Z" fill="white"/>
<path d="M129.828 67.6386V56.9041H127.856V55.2336H134.045V56.9041H132.1V67.6386H129.828Z" fill="white"/>
<path d="M134.784 67.6386V55.2336H137.139V67.6386H134.784Z" fill="white"/>
<path d="M141.822 67.8029C141.083 67.8303 140.371 67.666 139.741 67.31C139.22 66.9814 138.837 66.4884 138.618 65.9134C138.399 65.2014 138.262 64.462 138.289 63.7227V59.0948C138.289 58.3554 138.372 57.616 138.618 56.9314C138.837 56.3564 139.22 55.8908 139.741 55.5622C140.371 55.2336 141.11 55.0693 141.822 55.0967C142.561 55.0693 143.301 55.2336 143.958 55.5622C144.478 55.8908 144.862 56.3564 145.081 56.9314C145.327 57.616 145.437 58.3554 145.409 59.0948V63.75C145.409 64.462 145.327 65.2014 145.081 65.886C144.862 66.4611 144.478 66.954 143.958 67.31C143.301 67.666 142.561 67.8303 141.822 67.8029ZM141.822 66.1324C142.397 66.2146 142.917 65.8312 143.027 65.2835C143.027 65.2835 143.027 65.2288 143.027 65.2014C143.054 64.9002 143.054 64.5716 143.027 64.2703V58.5745C143.054 58.2732 143.054 57.9446 143.027 57.6434C142.972 57.3969 142.862 57.1779 142.671 56.9862C142.424 56.7945 142.123 56.7123 141.822 56.7397C141.548 56.7397 141.247 56.7945 141.028 56.9862C140.836 57.1505 140.699 57.3969 140.644 57.6434C140.617 57.9446 140.617 58.2732 140.644 58.5745V64.2703C140.617 64.5716 140.617 64.9002 140.644 65.2014C140.672 65.4752 140.809 65.7217 141 65.886C141.247 66.0503 141.521 66.1598 141.822 66.1324Z" fill="white"/>
<path d="M146.614 67.6386V55.2336H148.093L151.105 62.2987V55.2336H152.967V67.6386H151.461L148.449 60.2175V67.6386H146.614Z" fill="white"/>
<path d="M128.349 88.2039C122.27 83.6581 114.63 81.796 107.154 83.0009H106.716C102.498 84.0141 95.762 85.7393 87.9301 95.4059V95.5702C87.9301 95.5702 87.9028 95.8166 87.9301 95.9262C87.9028 96.0357 87.9028 96.1453 87.9301 96.2548L88.0944 96.556C89.0803 98.2264 90.3399 100.335 91.3805 102.307C91.4901 102.526 91.7365 102.663 91.983 102.663C92.1473 102.663 92.339 102.608 92.4485 102.471C92.5033 102.416 92.558 102.361 92.5854 102.279C99.5684 92.6401 105.045 91.3257 108.769 90.422H109.208C114.356 89.7648 119.559 91.1066 123.748 94.1462C127.856 97.4049 129.965 102.58 129.965 109.536C129.965 121.229 124.269 125.802 119.504 127.555C114.712 129.116 109.536 128.787 104.99 126.596L104.689 126.459C100.609 124.707 94.5571 120.983 88.8612 109.563C77.3599 86.4787 67.7481 84.3153 61.4772 82.864H61.1212C53.7549 81.6865 46.1969 83.5486 40.2546 88.067C36.1196 91.353 31.2178 97.7609 31.2178 109.591C30.8618 115.67 32.7239 121.695 36.4756 126.514C42.6643 134.182 52.6869 137.659 62.2987 135.441C65.9955 134.675 69.4459 133.059 72.4308 130.731L76.0455 134.017C76.2645 134.236 76.6205 134.236 76.867 134.017C76.9765 133.908 77.0313 133.771 77.0313 133.634L79.6328 117.56V117.395C79.6328 117.231 79.578 117.067 79.4411 116.957C79.3316 116.875 79.1946 116.82 79.0577 116.82H78.7839L63.3667 121.119H63.0928C63.0928 121.119 62.8738 121.202 62.7916 121.284C62.5725 121.503 62.5725 121.859 62.7916 122.105L62.9559 122.297L66.4063 125.391C64.7085 126.542 62.7916 127.363 60.7652 127.801C54.1383 129.417 47.1553 127.171 42.7465 121.968C40.0355 118.491 38.7211 114.137 39.0497 109.728C39.0497 102.745 41.1035 97.5418 45.1563 94.3105C49.2639 91.2983 54.3847 89.9838 59.4234 90.6411H59.7794C64.9823 91.8186 72.1296 93.3795 81.9604 113.205C87.0812 123.447 93.4891 130.156 101.54 133.716C105.374 135.523 109.564 136.455 113.808 136.455C116.711 136.455 119.613 135.962 122.352 134.948C127.007 133.223 137.879 127.253 137.879 109.591C137.879 97.7883 132.895 91.3804 128.705 88.067" fill="white"/>
</g>
<defs>
<clipPath id="clip0_137_4833">
<rect width="170" height="170" fill="white"/>
</clipPath>
</defs>
</svg>
