<svg width="170" height="170" viewBox="0 0 170 170" fill="none" xmlns="http://www.w3.org/2000/svg">
<g clip-path="url(#clip0_137_4827)">
<path d="M170 0H0V170H170V0Z" fill="#E22B90"/>
<path d="M14.8253 21.1987C14.5245 21.1987 13.6765 21.6911 12.2541 22.1835C10.8318 22.6758 10.4215 22.8126 10.1479 22.9493V18.354C11.2694 17.889 12.3636 17.3693 13.4303 16.7402C14.4424 16.2205 15.3451 15.564 16.1656 14.7981H21.0072V47.2116H14.798V21.1987H14.8253Z" fill="white"/>
<path d="M26.4505 45.2147C24.8913 43.3 24.0981 40.8656 24.2349 38.4038V23.8793C24.0707 21.3628 24.864 18.8736 26.3958 16.8769C30.0611 13.4851 35.7232 13.4851 39.3885 16.8769C40.9203 18.8736 41.7135 21.3628 41.5494 23.8793V38.4038C41.6862 40.8656 40.8656 43.3 39.3065 45.1874C37.6653 46.9654 35.3129 47.9227 32.9058 47.7586C30.4714 47.8954 28.119 46.9654 26.4505 45.2147ZM35.2582 38.267V23.9887C35.2856 22.9766 35.1488 21.9372 34.8205 20.9798C34.3008 19.9131 33.0152 19.4754 31.9211 19.9951C31.4835 20.2139 31.1279 20.5695 30.9364 20.9798C30.6355 21.9645 30.4714 22.9766 30.4987 23.9887V38.2397C30.4987 40.975 31.3193 42.288 32.9058 42.288C34.4923 42.288 35.2582 40.975 35.2582 38.2397V38.267Z" fill="white"/>
<path d="M54.2688 27.2985V14.9075H57.2229C57.9341 14.9075 58.6727 14.9895 59.3565 15.2084C59.9036 15.3725 60.3686 15.7281 60.6694 16.2204C60.9977 16.8222 61.1344 17.4787 61.1071 18.1625C61.1071 18.6275 61.0524 19.0925 60.9703 19.5302C60.8883 19.8857 60.7242 20.2413 60.5053 20.5422C60.2591 20.8431 59.9583 21.0619 59.6027 21.1987L61.3259 27.2985H59.0556L57.5512 21.609H56.5118V27.2985H54.2688ZM56.5118 20.1866H57.2229C57.5785 20.1866 57.9341 20.1319 58.2624 19.9952C58.5359 19.8857 58.7274 19.6669 58.8368 19.3934C58.9462 19.0378 59.0009 18.6822 59.0009 18.2993C59.0283 17.8069 58.9188 17.3146 58.6453 16.9043C58.3171 16.5487 57.8247 16.3845 57.3597 16.4392H56.5118V20.1866Z" fill="white"/>
<path d="M62.4746 27.2985V14.9075H67.6717V16.3572H64.7176V19.9131H67.0426V21.4996H64.7176V25.6026H67.6991V27.2985H62.4746Z" fill="white"/>
<path d="M68.6565 27.2985V14.9075H71.5559C72.3765 14.8801 73.1698 15.0169 73.9357 15.3178C74.4827 15.5639 74.9204 16.029 75.1392 16.576C75.4127 17.2872 75.5221 18.0257 75.4948 18.7643V23.2775C75.4948 24.0434 75.4127 24.8093 75.1392 25.5205C74.9204 26.0949 74.4827 26.5873 73.9357 26.8608C73.2245 27.189 72.4586 27.3258 71.6653 27.2985H68.6565ZM70.8995 25.712H71.6106C71.9936 25.7393 72.3765 25.6573 72.7048 25.4384C72.9509 25.247 73.1151 24.9461 73.1151 24.6452C73.1424 24.2076 73.1424 23.7699 73.1151 23.3323V18.6002C73.1698 18.1899 73.1698 17.8069 73.1151 17.3966C73.0604 17.1231 72.9236 16.8769 72.6774 16.7128C72.3492 16.5487 71.9662 16.4666 71.5833 16.494H70.9268V25.712H70.8995Z" fill="white"/>
<path d="M80.1721 27.2985C79.4062 27.3532 78.6677 27.1617 78.0112 26.7788C77.5188 26.4506 77.1359 25.9309 76.9718 25.3564C76.753 24.6179 76.6709 23.8794 76.6709 23.1135V14.7434H78.8865V23.387C78.8591 23.7426 78.8591 24.1255 78.8865 24.4811C78.8865 24.782 79.0506 25.0829 79.2421 25.3017C79.4609 25.5206 79.7892 25.63 80.09 25.6026C80.3909 25.63 80.7192 25.5206 80.938 25.3017C81.1295 25.0556 81.2662 24.782 81.2936 24.4811C81.3209 24.1255 81.3209 23.7426 81.2936 23.387V14.7434H83.4818V23.1135C83.4818 23.8794 83.3998 24.6179 83.2083 25.3564C83.0442 25.9582 82.6612 26.4506 82.1415 26.7788C81.5398 27.1344 80.8559 27.3259 80.1721 27.2985Z" fill="white"/>
<path d="M88.3782 27.2985C87.6396 27.3532 86.8737 27.1618 86.2446 26.7515C85.7249 26.3959 85.342 25.8762 85.1505 25.3017C84.9317 24.6179 84.8496 23.8794 84.8496 23.1682V18.737C84.8496 17.9984 84.9317 17.2599 85.1505 16.5487C85.342 15.947 85.7249 15.4546 86.2446 15.099C86.9011 14.7434 87.6396 14.5519 88.3782 14.6066C89.062 14.5793 89.7732 14.7161 90.375 15.0443C90.8673 15.3178 91.2229 15.7555 91.4144 16.2752C91.6332 16.877 91.7153 17.5334 91.7153 18.1626V19.202H89.5544V17.1778C89.527 16.9317 89.4176 16.6855 89.2535 16.494C88.7611 16.1384 88.0773 16.1384 87.5849 16.494C87.3935 16.6855 87.284 16.9317 87.2567 17.2052C87.2293 17.5334 87.2293 17.889 87.2567 18.2173V23.6879C87.202 24.0708 87.202 24.4264 87.2567 24.8094C87.3114 25.0556 87.4482 25.3017 87.6396 25.4659C87.8585 25.63 88.132 25.6847 88.4055 25.6847C88.7064 25.712 89.0073 25.63 89.2261 25.4112C89.3902 25.2197 89.4723 24.9461 89.4997 24.7C89.527 24.3717 89.527 24.0435 89.4997 23.7153V22.5938H91.6605V23.5785C91.6605 24.235 91.5785 24.9188 91.3597 25.5479C91.1956 26.095 90.84 26.56 90.3476 26.8609C89.7458 27.1891 89.062 27.3532 88.3782 27.2985Z" fill="white"/>
<path d="M92.8914 27.2985V14.9075H98.0338V16.3572H95.2984V19.9131H97.5961V21.4996H95.2984V25.6026H98.0338V27.2985H92.8914Z" fill="white"/>
<path d="M99.0459 27.2985V14.9075H101.973C102.766 14.8801 103.587 15.0169 104.325 15.3178C104.872 15.5639 105.31 16.029 105.556 16.576C105.802 17.2872 105.939 18.0257 105.912 18.7643V23.2775C105.912 24.0434 105.802 24.8093 105.556 25.5205C105.31 26.0949 104.899 26.5599 104.352 26.8608C103.641 27.189 102.848 27.3258 102.055 27.2985H99.0459ZM101.316 25.712H102C102.383 25.7393 102.793 25.6573 103.122 25.4384C103.368 25.2196 103.504 24.8914 103.504 24.5631C103.532 24.1255 103.532 23.6878 103.504 23.2502V18.5181C103.532 18.1078 103.532 17.7248 103.504 17.3146C103.45 17.041 103.286 16.7948 103.067 16.6307C102.739 16.4666 102.356 16.3845 101.973 16.4119H101.316V25.712Z" fill="white"/>
<path d="M54.4055 47.403V35.012H56.6211V47.403H54.4055Z" fill="white"/>
<path d="M58.1528 47.403V35.012H59.7393L62.7755 42.0691V35.012H64.6355V47.403H63.1311L60.0949 39.9902V47.403H58.1528Z" fill="white"/>
<path d="M66.0852 47.403V35.012H71.2823V36.5984H68.3555V40.1544H70.6805V41.7408H68.3829V45.8438H71.337V47.403H66.0852Z" fill="white"/>
<path d="M78.2849 49.8648C77.984 49.7007 77.7105 49.5366 77.4643 49.3177C77.1634 49.0716 76.8625 48.7707 76.6164 48.4698C76.3428 48.1963 76.0966 47.868 75.8778 47.5398H75.6043C74.8657 47.5671 74.1272 47.403 73.4981 47.0474C72.9784 46.7192 72.5954 46.2268 72.404 45.6524C72.1578 44.9412 72.021 44.2027 72.0484 43.4642V38.8415C72.0484 38.1029 72.1578 37.3644 72.404 36.6806C72.5954 36.1061 73.0057 35.6411 73.4981 35.3129C74.8384 34.6838 76.3975 34.6838 77.7378 35.3129C78.2575 35.6411 78.6405 36.1061 78.8593 36.6806C79.1055 37.3644 79.2149 38.1029 79.1876 38.8415V43.4915C79.1876 44.0112 79.1328 44.5583 79.0234 45.078C78.914 45.5156 78.7499 45.9533 78.4764 46.3362C78.2028 46.6918 77.8746 46.9654 77.4643 47.1568L77.8746 47.5945L78.3122 48.0321C78.3122 48.0321 78.5858 48.2783 78.7226 48.3604L78.2849 49.8648ZM75.5496 45.8986C75.8505 45.8986 76.1514 45.8439 76.3975 45.6524C76.589 45.4883 76.7258 45.2421 76.7531 44.9686C76.8078 44.6677 76.8078 44.3395 76.7531 44.0386V38.2397C76.8078 37.9388 76.8078 37.6106 76.7531 37.3097C76.7258 37.0635 76.589 36.8173 76.3975 36.6532C76.1514 36.4617 75.8505 36.3797 75.5496 36.407C75.2487 36.407 74.9752 36.4891 74.729 36.6532C74.5375 36.8173 74.4007 37.0635 74.3734 37.3097C74.346 37.6106 74.346 37.9388 74.3734 38.2397V43.9292C74.346 44.23 74.346 44.5583 74.3734 44.8592C74.4007 45.1327 74.5375 45.3789 74.729 45.543C74.9752 45.7618 75.276 45.8986 75.6043 45.8986H75.5496Z" fill="white"/>
<path d="M83.8647 47.5671C83.1262 47.6218 82.3877 47.4303 81.7312 47.0747C81.2115 46.7191 80.8559 46.2268 80.6644 45.625C80.4729 44.8865 80.3635 44.1479 80.3909 43.382V35.012H82.5791V43.7103C82.5518 44.0659 82.5518 44.4488 82.5791 44.8044C82.6065 45.1053 82.7433 45.3788 82.9347 45.625C83.1536 45.8438 83.4818 45.9532 83.7827 45.9259C84.1109 45.9532 84.4392 45.8438 84.658 45.625C84.8495 45.3788 84.9589 45.1053 85.0136 44.8044C85.0409 44.4488 85.0409 44.0659 85.0136 43.7103V35.0667H87.2018V43.4367C87.2018 44.2026 87.1198 44.9412 86.9009 45.6797C86.7368 46.2541 86.3539 46.7738 85.8615 47.1294C85.2324 47.4577 84.5486 47.5944 83.8647 47.5671Z" fill="white"/>
<path d="M88.0498 47.403L90.5116 35.012H92.946L95.4078 47.403H93.329L92.8366 44.6676H90.6757L90.1834 47.403H88.0498ZM90.7851 43.1085H92.5631L91.7151 37.884L90.7851 43.1085Z" fill="white"/>
<path d="M96.2012 47.403V35.012H98.4715V45.9532H101.453V47.5124L96.2012 47.403Z" fill="white"/>
<path d="M102.246 47.403V35.012H104.489V47.403H102.246Z" fill="white"/>
<path d="M107.225 47.403V36.6805H105.255V35.012H111.437V36.6805H109.495V47.403H107.225Z" fill="white"/>
<path d="M112.23 47.403V35.012H114.446V47.403H112.23Z" fill="white"/>
<path d="M115.978 47.403V35.012H121.175V36.5984H118.248V40.1544H120.573V41.7408H118.248V45.8438H121.229V47.403H115.978Z" fill="white"/>
<path d="M125.387 47.5671C124.73 47.5945 124.101 47.4304 123.527 47.1295C123.035 46.8286 122.624 46.3909 122.405 45.8439C122.105 45.1874 121.968 44.5036 121.968 43.7924L123.91 43.4095C123.91 43.8197 123.992 44.2574 124.074 44.6677C124.129 44.9959 124.293 45.2968 124.539 45.5156C124.73 45.7345 125.031 45.8439 125.305 45.8165C125.606 45.8439 125.907 45.7345 126.098 45.4883C126.262 45.2421 126.344 44.9686 126.317 44.6677C126.317 44.2027 126.208 43.7377 125.961 43.3274C125.688 42.9444 125.36 42.5889 124.977 42.288L123.417 40.9203C123.007 40.5647 122.652 40.1271 122.378 39.6621C122.105 39.1424 121.968 38.5406 121.995 37.9388C121.94 37.0909 122.241 36.2703 122.843 35.6685C123.472 35.0941 124.32 34.8206 125.168 34.8753C125.688 34.8753 126.18 34.9573 126.645 35.1488C127.001 35.3129 127.329 35.5591 127.548 35.8873C127.794 36.1882 127.985 36.5712 128.068 36.9541C128.177 37.3644 128.259 37.8021 128.286 38.2397L126.344 38.5679C126.372 38.2124 126.372 37.8841 126.344 37.5285C126.29 37.255 126.153 37.0088 125.989 36.8173C125.797 36.6259 125.524 36.5165 125.25 36.5438C124.949 36.5438 124.648 36.6532 124.457 36.872C124.293 37.1182 124.211 37.3918 124.211 37.6926C124.211 38.0482 124.293 38.4038 124.457 38.7321C124.676 39.0329 124.922 39.3065 125.223 39.5527L126.755 40.9203C127.274 41.358 127.712 41.8503 128.068 42.4247C128.45 43.0539 128.642 43.7924 128.615 44.5309C128.615 45.078 128.478 45.5977 128.232 46.0901C127.958 46.5551 127.603 46.9107 127.138 47.1842C126.59 47.4577 125.989 47.5945 125.387 47.5671Z" fill="white"/>
<path d="M100.769 111.546H69.4772C69.2857 111.546 69.1216 111.71 69.1216 111.902C69.1216 111.902 69.1216 111.902 69.1216 111.929V121.339C69.1216 121.53 69.2583 121.694 69.4498 121.722C69.4498 121.722 69.4498 121.722 69.4772 121.722H100.769C100.961 121.722 101.125 121.557 101.125 121.366C101.125 121.366 101.125 121.366 101.125 121.339V111.929C101.125 111.738 100.988 111.573 100.797 111.546C100.797 111.546 100.797 111.546 100.769 111.546Z" fill="white"/>
<path d="M100.769 91.5237H69.4772C69.2857 91.5237 69.1216 91.6878 69.1216 91.8793C69.1216 91.8793 69.1216 91.8793 69.1216 91.9066V101.316C69.1216 101.508 69.2583 101.672 69.4498 101.699C69.4498 101.699 69.4498 101.699 69.4772 101.699H100.769C100.961 101.699 101.125 101.535 101.125 101.343C101.125 101.343 101.125 101.343 101.125 101.316V91.9066C101.125 91.7152 100.988 91.551 100.797 91.5237C100.797 91.5237 100.797 91.5237 100.769 91.5237Z" fill="white"/>
<path d="M100.331 77.3001L85.3145 62.2832C85.3145 62.2832 85.041 62.1738 84.9316 62.2832L69.9147 77.3001C69.9147 77.3001 69.7779 77.5463 69.86 77.6557C69.9147 77.7378 69.9967 77.7651 70.1061 77.7378H100.195C100.195 77.7378 100.441 77.601 100.413 77.4643C100.413 77.3822 100.386 77.3275 100.331 77.3001Z" fill="white"/>
<path d="M114.446 121.831L129.463 106.814C129.463 106.814 129.572 106.541 129.463 106.431L114.446 91.4144C114.446 91.4144 114.2 91.2777 114.09 91.3597C114.008 91.4144 113.981 91.4965 114.008 91.6059V121.694C114.008 121.694 114.145 121.941 114.282 121.913C114.364 121.913 114.418 121.886 114.446 121.831Z" fill="white"/>
<path d="M69.9147 135.945L84.9316 150.962C84.9316 150.962 85.2052 151.072 85.3146 150.962L100.331 135.945C100.331 135.945 100.468 135.699 100.386 135.59C100.331 135.508 100.249 135.48 100.14 135.508H70.0515C70.0515 135.508 69.8053 135.644 69.8327 135.781C69.8327 135.863 69.86 135.918 69.9147 135.945Z" fill="white"/>
<path d="M55.8004 91.4143L40.7835 106.431C40.7835 106.431 40.6741 106.705 40.7835 106.814L55.8004 121.831C55.8004 121.831 56.0466 121.968 56.156 121.886C56.238 121.831 56.2654 121.749 56.238 121.64V91.551C56.238 91.551 56.1013 91.3048 55.9645 91.3322C55.8824 91.3322 55.8277 91.3595 55.8004 91.4143Z" fill="white"/>
</g>
<defs>
<clipPath id="clip0_137_4827">
<rect width="170" height="170" fill="white"/>
</clipPath>
</defs>
</svg>
