<svg width="170" height="170" viewBox="0 0 170 170" fill="none" xmlns="http://www.w3.org/2000/svg">
<g clip-path="url(#clip0_137_4822)">
<path d="M170 0H0V170H170V0Z" fill="#43B75A"/>
<path d="M14.4886 21.1987C14.2147 21.3356 13.3383 21.6917 11.9415 22.1847C10.5447 22.6777 10.1064 22.8146 9.80518 22.9515V18.3503C10.9555 17.8847 12.051 17.3643 13.1192 16.7344C14.1325 16.214 15.0364 15.5567 15.858 14.7898H20.7058V47.1903H14.4886V21.1987Z" fill="white"/>
<path d="M27.4707 46.5329C26.2382 45.766 25.3344 44.5883 24.951 43.1915C24.4306 41.4112 24.2115 39.5762 24.2662 37.7138H30.2643C30.1821 39.0832 30.3739 40.4526 30.7847 41.7673C31.3872 42.9176 32.7841 43.3558 33.9344 42.7533C34.1809 42.6163 34.4 42.452 34.5917 42.2329C35.0025 41.5756 35.249 40.8087 35.2764 40.0418C35.386 38.7272 35.4407 37.3851 35.4133 36.0705C35.4681 34.5915 35.3038 33.0852 34.893 31.661C34.5917 30.7024 33.6605 30.0998 32.6745 30.182C31.2229 30.182 30.2917 31.168 29.9357 33.1125H24.5949L25.0605 14.7075H39.9872V20.0209H30.1274L29.7713 27.1966C30.2917 26.6489 30.949 26.2381 31.6885 26.0463C32.6471 25.7451 33.6331 25.5807 34.6191 25.5807C36.6732 25.4986 38.5904 26.5393 39.6038 28.3196C40.8636 30.6202 41.4388 33.2221 41.3019 35.8514C41.3566 37.9877 41.1101 40.1514 40.6171 42.2329C40.2337 43.8214 39.3299 45.2182 38.0426 46.2316C36.4267 47.2998 34.5095 47.8201 32.5649 47.6832C30.7847 47.7927 29.0318 47.3819 27.4707 46.5329Z" fill="white"/>
<path d="M54.2566 27.142V14.7625H56.5298V25.7178H59.5152V27.279L54.2566 27.142Z" fill="white"/>
<path d="M60.2271 27.142V14.7625H62.4729V27.142H60.2271Z" fill="white"/>
<path d="M63.9519 27.142V14.7625H69.0461V16.3236H66.3073V19.9389H68.6079V21.5H66.3073V27.142H63.9519Z" fill="white"/>
<path d="M69.731 27.142V14.7625H74.9074V16.351H71.9768V19.9115H74.2774V21.5H71.9768V25.5809H74.9074V27.142H69.731Z" fill="white"/>
<path d="M57.6252 47.5737C56.8857 47.6011 56.1462 47.4368 55.5162 47.0807C54.9959 46.7521 54.585 46.2317 54.3933 45.6565C54.1468 44.9718 54.0373 44.2323 54.0647 43.4929V38.8642C54.0647 38.1247 54.1468 37.3852 54.3933 36.7005C54.6124 36.1254 54.9959 35.6598 55.5162 35.3311C56.1736 35.0024 56.8857 34.8381 57.6252 34.8655C58.3646 34.8381 59.0767 35.0024 59.7341 35.3311C60.2544 35.6598 60.6379 36.1254 60.857 36.7005C61.1035 37.3852 61.213 38.1247 61.213 38.8642V43.5202C61.213 44.2597 61.1035 44.9718 60.857 45.6565C60.6653 46.2317 60.2544 46.7521 59.7341 47.0807C59.1041 47.4368 58.3646 47.6011 57.6252 47.5737ZM57.6252 45.903C57.9264 45.9304 58.2277 45.8483 58.4468 45.6565C58.6385 45.4922 58.7755 45.2457 58.8029 44.9718C58.8576 44.6706 58.8576 44.3419 58.8029 44.0406V38.3438C58.8576 38.0426 58.8576 37.7139 58.8029 37.4126C58.7755 37.1661 58.6385 36.9196 58.4468 36.7553C58.2277 36.5636 57.9264 36.4814 57.6252 36.5088C57.3239 36.5088 57.05 36.591 56.8035 36.7553C56.6118 36.9196 56.4748 37.1661 56.4475 37.4126C56.4201 37.7139 56.4201 38.0426 56.4475 38.3438V44.0406C56.3927 44.3419 56.3927 44.6706 56.4475 44.9718C56.4748 45.2457 56.6118 45.4922 56.8035 45.6565C57.0226 45.8483 57.3239 45.9304 57.6252 45.903Z" fill="white"/>
<path d="M62.4182 47.4094V35.0024H63.952L66.9647 42.0687V35.0024H68.8271V47.4094H67.3481L64.3354 39.9871V47.4094H62.4182Z" fill="white"/>
<path d="M73.5378 47.4094V35.0024H75.8111V45.9578H78.8238V47.519L73.5378 47.4094Z" fill="white"/>
<path d="M78.906 47.4094L81.371 35.0024H83.8085L86.2735 47.4094H84.192L83.699 44.5336H81.5353L81.0423 47.4094H78.906ZM81.6448 43.1094H83.3429L82.4939 37.9056L81.6448 43.1094Z" fill="white"/>
<path d="M87.0129 47.4094V35.0024H88.6015L91.6142 42.0687V35.0024H93.4766V47.4094H91.9976L88.9301 39.9871V47.4094H87.0129Z" fill="white"/>
<path d="M94.8735 47.4094V35.0024H97.8041C98.5984 34.9751 99.42 35.112 100.16 35.4133C100.707 35.6598 101.145 36.1254 101.365 36.7005C101.638 37.3852 101.775 38.1247 101.748 38.8642V43.3833C101.748 44.1502 101.638 44.9171 101.365 45.6292C101.145 46.2043 100.735 46.6973 100.187 46.9712C99.4748 47.2998 98.6805 47.4368 97.8863 47.4094H94.8735ZM97.1468 45.8209H97.8315C98.2149 45.8483 98.6258 45.7661 98.9544 45.547C99.1735 45.3553 99.3379 45.054 99.3652 44.7527C99.3926 44.3145 99.3926 43.8763 99.3652 43.4381V38.6999C99.3926 38.2891 99.3926 37.9056 99.3652 37.4948C99.3105 37.2209 99.1461 37.0018 98.927 36.8375C98.5984 36.6731 98.2149 36.591 97.8315 36.6184H97.1742V45.8209H97.1468Z" fill="white"/>
<path d="M70.3062 115.086H65.2941C65.0823 115.086 64.9106 115.258 64.9106 115.47V127.904C64.9106 128.116 65.0823 128.287 65.2941 128.287H70.3062C70.5179 128.287 70.6896 128.116 70.6896 127.904V115.47C70.6896 115.258 70.5179 115.086 70.3062 115.086Z" fill="white"/>
<path d="M125.603 133.601H42.6713C42.4522 133.601 42.2878 133.793 42.2878 134.012V139.079C42.2878 139.27 42.4522 139.435 42.6439 139.435C42.6439 139.435 42.6439 139.435 42.6713 139.435H125.603C125.795 139.435 125.96 139.27 125.987 139.079V134.012C125.987 133.793 125.823 133.628 125.603 133.601Z" fill="white"/>
<path d="M125.603 143.68H42.6713C42.4522 143.68 42.2878 143.844 42.2878 144.063V149.157C42.2878 149.349 42.4522 149.513 42.6439 149.513C42.6439 149.513 42.6439 149.513 42.6713 149.513H125.603C125.795 149.513 125.96 149.349 125.987 149.157V144.063C125.987 143.844 125.823 143.68 125.603 143.68Z" fill="white"/>
<path d="M109.828 101.31C107.774 99.6666 105.281 98.708 102.652 98.571C100.16 98.571 97.7767 99.557 95.9965 101.31C95.8322 101.447 95.75 101.639 95.75 101.83V102.268C95.75 102.488 95.8322 102.707 95.9965 102.844C96.1608 102.981 96.3799 103.035 96.5717 102.981H96.8181C96.9825 102.926 97.1194 102.816 97.229 102.707C98.2697 102.186 99.4201 101.967 100.57 102.022C103.775 102.077 106.815 103.364 109.116 105.582C109.307 105.774 109.581 105.884 109.855 105.884C110.074 105.911 110.321 105.856 110.512 105.719C112.786 103.474 115.853 102.186 119.058 102.132C120.208 102.077 121.358 102.296 122.399 102.816C122.536 102.953 122.7 103.035 122.865 103.09C123.029 103.145 123.166 103.145 123.33 103.09C123.631 103.008 123.851 102.734 123.851 102.405V101.995C123.851 101.803 123.768 101.611 123.631 101.474C121.851 99.6666 119.441 98.6258 116.894 98.571C114.265 98.6806 111.772 99.6392 109.745 101.31" fill="white"/>
<path d="M104.679 68.2519C104.487 68.3341 104.377 68.4984 104.323 68.6901V68.964C104.24 69.1557 104.24 69.4022 104.323 69.594C104.46 69.7583 104.651 69.8678 104.843 69.8678C104.843 69.8678 105.117 69.8678 105.254 69.8678C105.418 69.8404 105.582 69.8404 105.747 69.8678C108.267 70.0322 110.512 71.4838 111.663 73.7296C111.772 73.9213 111.991 74.0857 112.21 74.1404H112.457C112.594 74.1678 112.758 74.1678 112.895 74.1404C114.046 73.5653 115.305 73.2366 116.593 73.2366C117.962 73.1818 119.304 73.5927 120.372 74.4417C120.454 74.5513 120.537 74.6608 120.646 74.743L120.92 74.8799H121.112C121.112 74.8799 121.331 74.8799 121.44 74.8799C121.605 74.7978 121.742 74.6334 121.796 74.4417V74.1952C121.796 74.1952 121.796 74.0583 121.796 74.0035C121.824 73.8939 121.824 73.757 121.796 73.6474C120.728 71.5385 118.537 70.2513 116.182 70.2787C115.168 70.2787 114.155 70.4704 113.196 70.8264C112.019 68.9092 110.019 67.622 107.774 67.3755C106.705 67.3755 105.637 67.6494 104.679 68.1424" fill="white"/>
<path d="M87.1501 81.0698V81.4533C87.1774 81.8367 87.5335 82.138 87.9169 82.1106C87.9443 82.1106 87.9991 82.1106 88.0265 82.1106C88.0265 82.1106 88.273 81.9462 88.3825 81.8367C89.3411 81.3163 90.4367 81.0698 91.5322 81.1246C93.9424 81.152 96.2704 82.0284 98.1054 83.6169C98.2698 83.7539 98.5163 83.8634 98.7354 83.8634C98.9819 83.8634 99.2284 83.7265 99.3927 83.5348C101.255 81.4533 103.884 80.2208 106.678 80.166C107.418 80.1386 108.157 80.2756 108.842 80.5768C108.979 80.659 109.116 80.7412 109.253 80.7959H109.746C110.047 80.6864 110.239 80.4125 110.211 80.0838V79.7552C110.211 79.5635 110.129 79.3717 109.965 79.2622C108.513 77.9475 106.623 77.2081 104.651 77.1807C102.351 77.2902 100.16 78.194 98.4615 79.7552C96.8456 78.6323 94.9558 78.0023 92.9838 77.9202C90.7106 77.9202 88.5743 78.9335 87.0953 80.659C86.9583 80.7959 86.9036 80.9877 86.9036 81.1794" fill="white"/>
<path d="M45.1634 87.6704C45.1634 82.7131 49.2169 78.687 54.1742 78.687H54.7494C55.2424 71.9769 61.0761 66.9648 67.7589 67.4578C74.4691 67.9508 79.4812 73.7845 78.9882 80.4673C78.8786 82.001 78.4678 83.5074 77.7831 84.9042C85.0684 86.931 89.341 94.4902 87.3142 101.775C85.7257 107.445 80.7136 111.471 74.8251 111.772H56.6666C51.3532 111.772 47.0533 107.472 47.0533 102.159C47.0533 99.694 47.9845 97.3386 49.6825 95.5583C46.8615 93.9424 45.1087 90.9297 45.1361 87.6704H45.1634Z" fill="white"/>
</g>
<defs>
<clipPath id="clip0_137_4822">
<rect width="170" height="170" fill="white"/>
</clipPath>
</defs>
</svg>
