<svg width="112" height="91" viewBox="0 0 112 91" fill="none" xmlns="http://www.w3.org/2000/svg">
<g clip-path="url(#clip0_137_4696)">
<path d="M6.76 79.95H1.69V84.66H7.35V86.07H0V73.01H7.05V74.42H1.69V78.55H6.77V79.95H6.76Z" fill="#231F20"/>
<path d="M9.48002 79.23C9.48002 78.26 9.46002 77.47 9.40002 76.69H10.91L11.01 78.24H11.05C11.51 77.35 12.6 76.48 14.15 76.48C15.45 76.48 17.46 77.25 17.46 80.47V86.07H15.75V80.66C15.75 79.15 15.19 77.89 13.58 77.89C12.46 77.89 11.58 78.68 11.29 79.63C11.21 79.84 11.17 80.13 11.17 80.42V86.06H9.46002V79.22L9.48002 79.23Z" fill="#231F20"/>
<path d="M21.18 81.69C21.22 84 22.69 84.94 24.4 84.94C25.62 84.94 26.36 84.73 27 84.46L27.29 85.68C26.69 85.95 25.66 86.26 24.17 86.26C21.28 86.26 19.56 84.36 19.56 81.53C19.56 78.7 21.23 76.47 23.96 76.47C27.02 76.47 27.84 79.16 27.84 80.89C27.84 81.24 27.8 81.51 27.78 81.68H21.19L21.18 81.69ZM26.18 80.47C26.2 79.39 25.73 77.7 23.82 77.7C22.1 77.7 21.34 79.29 21.2 80.47H26.18Z" fill="#231F20"/>
<path d="M29.94 79.62C29.94 78.52 29.92 77.57 29.86 76.69H31.35L31.41 78.53H31.49C31.92 77.27 32.94 76.48 34.09 76.48C34.28 76.48 34.42 76.5 34.57 76.54V78.15C34.4 78.11 34.22 78.09 33.99 78.09C32.79 78.09 31.94 79 31.7 80.28C31.66 80.51 31.62 80.78 31.62 81.07V86.07H29.93V79.62H29.94Z" fill="#231F20"/>
<path d="M44.2 76.69C44.16 77.37 44.12 78.12 44.12 79.27V84.72C44.12 86.87 43.69 88.19 42.78 89C41.87 89.85 40.55 90.12 39.37 90.12C38.19 90.12 37.01 89.85 36.25 89.34L36.68 88.04C37.3 88.43 38.27 88.78 39.43 88.78C41.17 88.78 42.45 87.87 42.45 85.51V84.46H42.41C41.89 85.33 40.88 86.03 39.43 86.03C37.1 86.03 35.44 84.05 35.44 81.46C35.44 78.28 37.51 76.48 39.66 76.48C41.29 76.48 42.18 77.33 42.59 78.11H42.63L42.71 76.7H44.2V76.69ZM42.44 80.39C42.44 80.1 42.42 79.85 42.34 79.61C42.03 78.62 41.2 77.81 39.96 77.81C38.33 77.81 37.17 79.19 37.17 81.36C37.17 83.2 38.1 84.73 39.94 84.73C40.99 84.73 41.94 84.07 42.3 82.99C42.4 82.7 42.44 82.37 42.44 82.08V80.39Z" fill="#231F20"/>
<path d="M47.58 76.6899L49.63 82.2299C49.84 82.8499 50.08 83.5899 50.23 84.1499H50.27C50.44 83.5899 50.64 82.8699 50.87 82.1899L52.73 76.6899H54.53L51.97 83.3799C50.75 86.5999 49.92 88.2399 48.75 89.2499C47.92 89.9899 47.08 90.2799 46.66 90.3499L46.23 88.9199C46.66 88.7799 47.22 88.5099 47.72 88.0899C48.19 87.7199 48.77 87.0599 49.15 86.1899C49.23 86.0199 49.29 85.8799 49.29 85.7799C49.29 85.6799 49.25 85.5499 49.17 85.3299L45.7 76.6899H47.56H47.58Z" fill="#231F20"/>
<path d="M60.02 84.02C60.78 84.48 61.88 84.87 63.04 84.87C64.76 84.87 65.77 83.96 65.77 82.64C65.77 81.42 65.07 80.72 63.31 80.04C61.18 79.28 59.86 78.18 59.86 76.34C59.86 74.3 61.55 72.79 64.08 72.79C65.42 72.79 66.39 73.1 66.97 73.43L66.51 74.81C66.08 74.58 65.21 74.19 64.03 74.19C62.25 74.19 61.57 75.26 61.57 76.15C61.57 77.37 62.36 77.97 64.17 78.67C66.38 79.52 67.5 80.59 67.5 82.51C67.5 84.53 66.01 86.27 62.93 86.27C61.67 86.27 60.29 85.9 59.6 85.44L60.03 84.03L60.02 84.02Z" fill="#231F20"/>
<path d="M75 86.07L74.86 84.89H74.8C74.28 85.63 73.27 86.29 71.93 86.29C70.03 86.29 69.06 84.95 69.06 83.6C69.06 81.33 71.07 80.09 74.7 80.11V79.92C74.7 79.14 74.49 77.75 72.57 77.75C71.7 77.75 70.79 78.02 70.13 78.45L69.74 77.33C70.52 76.83 71.64 76.5 72.82 76.5C75.69 76.5 76.39 78.46 76.39 80.34V83.85C76.39 84.66 76.43 85.46 76.55 86.1H75V86.07ZM74.74 81.29C72.88 81.25 70.77 81.58 70.77 83.4C70.77 84.5 71.51 85.03 72.38 85.03C73.6 85.03 74.38 84.25 74.65 83.46C74.71 83.29 74.75 83.09 74.75 82.92V81.29H74.74Z" fill="#231F20"/>
<path d="M79.65 76.6899L81.49 81.9599C81.8 82.8099 82.05 83.5899 82.25 84.3599H82.31C82.52 83.5799 82.79 82.8099 83.1 81.9599L84.92 76.6899H86.7L83.02 86.0699H81.39L77.82 76.6899H79.64H79.65Z" fill="#231F20"/>
<path d="M90.21 74.06C90.23 74.64 89.8 75.11 89.13 75.11C88.53 75.11 88.1 74.64 88.1 74.06C88.1 73.48 88.55 72.99 89.17 72.99C89.79 72.99 90.22 73.45 90.22 74.06H90.21ZM88.31 86.07V76.69H90.02V86.07H88.31Z" fill="#231F20"/>
<path d="M92.84 79.23C92.84 78.26 92.82 77.47 92.76 76.69H94.27L94.37 78.24H94.41C94.87 77.35 95.96 76.48 97.51 76.48C98.81 76.48 100.82 77.25 100.82 80.47V86.07H99.11V80.66C99.11 79.15 98.55 77.89 96.94 77.89C95.82 77.89 94.94 78.68 94.65 79.63C94.57 79.84 94.53 80.13 94.53 80.42V86.06H92.82V79.22L92.84 79.23Z" fill="#231F20"/>
<path d="M111.68 76.69C111.64 77.37 111.6 78.12 111.6 79.27V84.72C111.6 86.87 111.17 88.19 110.26 89C109.35 89.85 108.03 90.12 106.85 90.12C105.67 90.12 104.49 89.85 103.73 89.34L104.16 88.04C104.78 88.43 105.75 88.78 106.91 88.78C108.65 88.78 109.93 87.87 109.93 85.51V84.46H109.89C109.37 85.33 108.36 86.03 106.91 86.03C104.58 86.03 102.92 84.05 102.92 81.46C102.92 78.28 104.99 76.48 107.14 76.48C108.77 76.48 109.66 77.33 110.07 78.11H110.11L110.19 76.7H111.68V76.69ZM109.92 80.39C109.92 80.1 109.9 79.85 109.82 79.61C109.51 78.62 108.68 77.81 107.44 77.81C105.81 77.81 104.65 79.19 104.65 81.36C104.65 83.2 105.58 84.73 107.42 84.73C108.47 84.73 109.42 84.07 109.78 82.99C109.88 82.7 109.92 82.37 109.92 82.08V80.39Z" fill="#231F20"/>
<path d="M52.32 62.6099C50.42 62.6099 48.52 62.4299 46.63 62.0699C40.06 60.8099 33.99 57.2899 29.56 52.1599C29.29 51.8499 29.32 51.3699 29.64 51.0999C29.95 50.8299 30.43 50.8599 30.7 51.1799C34.91 56.0599 40.67 59.3999 46.92 60.5999C53.47 61.8499 60.29 60.7899 66.12 57.5899C68.28 56.3999 70.3 54.9199 72.11 53.1799C72.41 52.8899 72.88 52.8999 73.17 53.1999C73.46 53.4999 73.45 53.9699 73.15 54.2599C71.24 56.0899 69.12 57.6499 66.85 58.8999C62.39 61.3499 57.39 62.6099 52.34 62.6099H52.32Z" fill="#6D6E71"/>
<path d="M31.47 60.8299C31.13 60.8299 30.82 60.5999 30.74 60.2499L28.8 52.1399C28.7 51.7099 28.81 51.2299 29.1 50.8899C29.36 50.5799 29.74 50.4299 30.13 50.4399L38.66 50.9799C39.07 51.0099 39.39 51.3599 39.36 51.7699C39.33 52.1799 38.98 52.5199 38.57 52.4699L30.28 51.9499L32.21 59.8999C32.31 60.2999 32.06 60.7099 31.65 60.7999C31.59 60.8099 31.53 60.8199 31.48 60.8199L31.47 60.8299Z" fill="#6D6E71"/>
<path d="M24.67 43.5C24.37 43.5 24.08 43.31 23.97 43.01C22.64 39.41 22 35.67 22.07 31.91C22.21 24.92 24.81 18.14 29.39 12.82C33.76 7.75001 39.83 4.25001 46.49 2.96001C46.9 2.87001 47.29 3.15001 47.37 3.55001C47.45 3.96001 47.18 4.35001 46.78 4.43001C40.45 5.65001 34.68 8.98001 30.53 13.79C26.17 18.85 23.7 25.29 23.57 31.93C23.5 35.5 24.11 39.05 25.37 42.48C25.51 42.87 25.32 43.3 24.93 43.44C24.84 43.47 24.76 43.49 24.67 43.49V43.5Z" fill="#6D6E71"/>
<path d="M42.38 11.7199C42.24 11.7199 42.09 11.6799 41.97 11.5999C41.62 11.3699 41.53 10.9099 41.76 10.5599L46.31 3.67995L38.74 1.46995C38.34 1.34995 38.12 0.929946 38.23 0.539946C38.35 0.139946 38.76 -0.0800538 39.16 0.0299462L46.87 2.30995C47.29 2.42995 47.65 2.76995 47.81 3.18995C47.95 3.56995 47.9 3.97995 47.68 4.30995L43 11.3899C42.86 11.6099 42.62 11.7299 42.37 11.7299L42.38 11.7199Z" fill="#6D6E71"/>
<path d="M78.28 45.7898C78.17 45.7898 78.06 45.7698 77.95 45.7098C77.58 45.5298 77.42 45.0798 77.61 44.7098C80.44 38.9198 81.24 32.2998 79.89 26.0898C78.47 19.5698 74.8 13.7198 69.57 9.62984C66.76 7.42984 63.55 5.77984 60.05 4.72984C59.65 4.60984 59.43 4.18984 59.55 3.79984C59.67 3.39984 60.08 3.16984 60.48 3.29984C64.16 4.39984 67.53 6.12984 70.49 8.44984C76 12.7598 79.85 18.9198 81.35 25.7798C82.78 32.3198 81.93 39.2798 78.95 45.3798C78.82 45.6498 78.55 45.7998 78.28 45.7998V45.7898Z" fill="#6D6E71"/>
<path d="M78.38 46.3499C78.24 46.3499 78.1 46.3299 77.97 46.2899C77.58 46.1699 77.29 45.8899 77.15 45.5099L74.23 37.2999C74.09 36.9099 74.3 36.4799 74.69 36.3399C75.08 36.1999 75.51 36.4099 75.65 36.7999L78.49 44.7899L85.31 39.6899C85.64 39.4399 86.11 39.5099 86.36 39.8399C86.61 40.1699 86.54 40.6399 86.21 40.8899L79.24 46.0699C78.99 46.2499 78.69 46.3499 78.38 46.3499Z" fill="#6D6E71"/>
<path d="M52.37 54.96C52.31 54.96 52.25 54.96 52.19 54.94C51.86 54.86 51.62 54.56 51.62 54.21V35.24H38.58C38.31 35.24 38.06 35.1 37.93 34.86C37.8 34.62 37.8 34.34 37.93 34.11L51.72 10.25C51.89 9.96004 52.24 9.81004 52.56 9.90004C52.89 9.99004 53.12 10.28 53.12 10.62V27.59H66.18C66.44 27.59 66.69 27.73 66.82 27.95C66.95 28.18 66.96 28.46 66.84 28.69L53.03 54.55C52.9 54.8 52.64 54.95 52.37 54.95V54.96ZM39.88 33.74H52.37C52.78 33.74 53.12 34.08 53.12 34.49V51.21L64.93 29.1H52.37C51.96 29.1 51.62 28.76 51.62 28.35V13.43L39.88 33.74Z" fill="#FAAF41"/>
</g>
<defs>
<clipPath id="clip0_137_4696">
<rect width="111.68" height="90.35" fill="white"/>
</clipPath>
</defs>
</svg>
