<svg width="84" height="81" viewBox="0 0 84 81" fill="none" xmlns="http://www.w3.org/2000/svg">
<g clip-path="url(#clip0_137_4705)">
<path d="M0 67.46H1.69V79.11H7.27V80.52H0V67.46Z" fill="#231F20"/>
<path d="M9.77003 76.1399C9.81003 78.4499 11.28 79.3999 12.99 79.3999C14.21 79.3999 14.95 79.1899 15.59 78.9199L15.88 80.1399C15.28 80.4099 14.25 80.7199 12.76 80.7199C9.87002 80.7199 8.15002 78.8199 8.15002 75.9899C8.15002 73.1599 9.82002 70.9299 12.55 70.9299C15.61 70.9299 16.43 73.6199 16.43 75.3499C16.43 75.6999 16.39 75.9699 16.37 76.1399H9.78002H9.77003ZM14.77 74.9199C14.79 73.8399 14.32 72.1499 12.41 72.1499C10.69 72.1499 9.93002 73.7399 9.79002 74.9199H14.77Z" fill="#231F20"/>
<path d="M18.29 78.7799C18.79 79.1099 19.69 79.4599 20.54 79.4599C21.78 79.4599 22.36 78.8399 22.36 78.0599C22.36 77.2499 21.88 76.7999 20.62 76.3399C18.93 75.7399 18.14 74.8099 18.14 73.6799C18.14 72.1699 19.36 70.9299 21.38 70.9299C22.33 70.9299 23.16 71.1999 23.69 71.5099L23.26 72.7499C22.89 72.5199 22.21 72.2099 21.34 72.2099C20.33 72.2099 19.77 72.7899 19.77 73.4899C19.77 74.2699 20.33 74.6099 21.55 75.0799C23.18 75.6999 24.01 76.5099 24.01 77.9099C24.01 79.5599 22.73 80.7199 20.5 80.7199C19.47 80.7199 18.52 80.4699 17.86 80.0799L18.29 78.7799Z" fill="#231F20"/>
<path d="M25.97 78.7799C26.47 79.1099 27.37 79.4599 28.22 79.4599C29.46 79.4599 30.04 78.8399 30.04 78.0599C30.04 77.2499 29.56 76.7999 28.3 76.3399C26.61 75.7399 25.82 74.8099 25.82 73.6799C25.82 72.1699 27.04 70.9299 29.06 70.9299C30.01 70.9299 30.84 71.1999 31.37 71.5099L30.94 72.7499C30.57 72.5199 29.89 72.2099 29.02 72.2099C28.01 72.2099 27.45 72.7899 27.45 73.4899C27.45 74.2699 28.01 74.6099 29.23 75.0799C30.86 75.6999 31.69 76.5099 31.69 77.9099C31.69 79.5599 30.41 80.7199 28.18 80.7199C27.15 80.7199 26.2 80.4699 25.54 80.0799L25.97 78.7799Z" fill="#231F20"/>
<path d="M39.47 80.52L36.16 67.46H37.94L39.49 74.07C39.88 75.7 40.23 77.33 40.46 78.59H40.5C40.71 77.29 41.12 75.74 41.57 74.06L43.31 67.47H45.07L46.66 74.1C47.03 75.65 47.38 77.2 47.57 78.58H47.61C47.88 77.15 48.25 75.69 48.66 74.06L50.38 67.47H52.1L48.4 80.53H46.64L44.99 73.73C44.58 72.06 44.31 70.78 44.14 69.47H44.1C43.87 70.77 43.58 72.05 43.09 73.73L41.23 80.53H39.47V80.52Z" fill="#231F20"/>
<path d="M58.23 80.52L58.09 79.34H58.03C57.51 80.08 56.5 80.74 55.16 80.74C53.26 80.74 52.29 79.4 52.29 78.05C52.29 75.78 54.3 74.54 57.93 74.56V74.37C57.93 73.6 57.72 72.2 55.8 72.2C54.93 72.2 54.02 72.47 53.36 72.9L52.97 71.78C53.75 71.28 54.87 70.95 56.05 70.95C58.92 70.95 59.62 72.91 59.62 74.79V78.3C59.62 79.11 59.66 79.91 59.78 80.55H58.23V80.52ZM57.98 75.74C56.12 75.7 54.01 76.03 54.01 77.85C54.01 78.95 54.75 79.48 55.62 79.48C56.84 79.48 57.62 78.7 57.89 77.91C57.95 77.74 57.99 77.54 57.99 77.37V75.74H57.98Z" fill="#231F20"/>
<path d="M62.15 78.7799C62.65 79.1099 63.55 79.4599 64.4 79.4599C65.64 79.4599 66.22 78.8399 66.22 78.0599C66.22 77.2499 65.74 76.7999 64.48 76.3399C62.79 75.7399 62 74.8099 62 73.6799C62 72.1699 63.22 70.9299 65.24 70.9299C66.19 70.9299 67.02 71.1999 67.55 71.5099L67.12 72.7499C66.75 72.5199 66.07 72.2099 65.2 72.2099C64.19 72.2099 63.63 72.7899 63.63 73.4899C63.63 74.2699 64.19 74.6099 65.41 75.0799C67.04 75.6999 67.87 76.5099 67.87 77.9099C67.87 79.5599 66.59 80.7199 64.36 80.7199C63.33 80.7199 62.38 80.4699 61.72 80.0799L62.15 78.7799Z" fill="#231F20"/>
<path d="M72.11 68.4499V71.1399H74.55V72.4399H72.11V77.4999C72.11 78.6599 72.44 79.3199 73.39 79.3199C73.84 79.3199 74.16 79.2599 74.38 79.1999L74.46 80.4799C74.13 80.6199 73.61 80.7099 72.95 80.7099C72.16 80.7099 71.52 80.4599 71.11 79.9899C70.63 79.4899 70.45 78.6499 70.45 77.5499V72.4299H69V71.1299H70.45V68.8799L72.12 68.4299L72.11 68.4499Z" fill="#231F20"/>
<path d="M77.3 76.1399C77.34 78.4499 78.81 79.3999 80.52 79.3999C81.74 79.3999 82.48 79.1899 83.12 78.9199L83.41 80.1399C82.81 80.4099 81.78 80.7199 80.29 80.7199C77.4 80.7199 75.68 78.8199 75.68 75.9899C75.68 73.1599 77.35 70.9299 80.08 70.9299C83.14 70.9299 83.96 73.6199 83.96 75.3499C83.96 75.6999 83.92 75.9699 83.9 76.1399H77.31H77.3ZM82.3 74.9199C82.32 73.8399 81.85 72.1499 79.94 72.1499C78.22 72.1499 77.46 73.7399 77.32 74.9199H82.3Z" fill="#231F20"/>
<path d="M41.22 58.92C38.26 58.92 35.33 58.47 32.46 57.58C28.66 56.4 25.21 54.51 22.21 51.96C19.3 49.5 16.93 46.54 15.15 43.15C13.37 39.76 12.28 36.13 11.91 32.33C11.52 28.41 11.93 24.49 13.11 20.7C13.23 20.3 13.65 20.08 14.05 20.21C14.45 20.33 14.67 20.75 14.54 21.15C13.42 24.75 13.03 28.47 13.4 32.19C13.75 35.79 14.79 39.24 16.48 42.45C18.17 45.66 20.42 48.48 23.18 50.81C26.04 53.23 29.31 55.02 32.91 56.14C36.51 57.26 40.23 57.65 43.95 57.28C47.55 56.93 51 55.89 54.21 54.21C57.42 52.52 60.24 50.27 62.57 47.51C62.84 47.19 63.31 47.15 63.63 47.42C63.95 47.69 63.99 48.16 63.72 48.48C61.26 51.39 58.3 53.76 54.91 55.54C51.52 57.32 47.88 58.41 44.09 58.78C43.13 58.87 42.17 58.92 41.22 58.92Z" fill="#6D6E71"/>
<path d="M68.63 38.7501C68.56 38.7501 68.48 38.7401 68.41 38.7201C68.01 38.6001 67.79 38.1801 67.92 37.7801C69.04 34.1801 69.43 30.4601 69.06 26.7401C68.71 23.1401 67.67 19.6901 65.99 16.4801C64.3 13.2601 62.05 10.4501 59.29 8.12011C56.43 5.70011 53.16 3.91011 49.56 2.79011C45.96 1.67011 42.24 1.28011 38.52 1.65011C34.92 2.00011 31.47 3.04011 28.26 4.72011C25.05 6.41011 22.23 8.66011 19.9 11.4201C19.63 11.7401 19.16 11.7701 18.84 11.5101C18.52 11.2401 18.48 10.7701 18.75 10.4501C21.21 7.54011 24.18 5.17011 27.56 3.39011C30.95 1.61011 34.58 0.520111 38.37 0.150111C42.29 -0.239889 46.21 0.170111 50 1.35011C53.79 2.53011 57.25 4.42011 60.25 6.97011C63.16 9.43011 65.53 12.3901 67.31 15.7801C69.09 19.1701 70.18 22.8101 70.55 26.5901C70.94 30.5101 70.53 34.4301 69.35 38.2201C69.25 38.5401 68.95 38.7501 68.63 38.7501Z" fill="#6D6E71"/>
<path d="M16.94 28.2501C16.66 28.2501 16.39 28.0901 16.26 27.8201L13.57 22.1201L8.74998 26.1801C8.42998 26.4501 7.95998 26.4101 7.68998 26.0901C7.41998 25.7701 7.45998 25.3001 7.77998 25.0301L13.35 20.3401C13.53 20.1901 13.77 20.1301 13.99 20.1801C14.22 20.2301 14.41 20.3801 14.51 20.5901L17.62 27.1701C17.8 27.5401 17.64 27.9901 17.26 28.1701C17.16 28.2201 17.05 28.2401 16.94 28.2401V28.2501Z" fill="#6D6E71"/>
<path d="M68.63 38.7501C68.58 38.7501 68.52 38.7501 68.47 38.7301C68.24 38.6801 68.05 38.5301 67.95 38.3201L64.84 31.7401C64.66 31.3701 64.82 30.9201 65.2 30.7401C65.58 30.5601 66.02 30.7201 66.2 31.1001L68.89 36.8001L73.71 32.7401C74.03 32.4701 74.5 32.5101 74.77 32.8301C75.04 33.1501 75 33.6201 74.68 33.8901L69.11 38.5801C68.97 38.6901 68.8 38.7601 68.63 38.7601V38.7501Z" fill="#6D6E71"/>
<path d="M41.23 45.9201C34.2 45.9201 28.49 40.2001 28.49 33.1801C28.16 23.4901 38.47 9.99012 40.7 7.83012C40.99 7.55012 41.45 7.55012 41.74 7.83012C43.95 9.96012 54.16 23.3201 53.96 33.0301C53.96 33.0601 53.96 33.1701 53.96 33.1801C53.96 40.2101 48.25 45.9201 41.22 45.9201H41.23ZM41.23 9.46012C38.38 12.6601 29.71 24.6901 29.99 33.1501C29.99 39.3701 35.03 44.4201 41.23 44.4201C47.43 44.4201 52.47 39.3801 52.47 33.1801V33.0301C52.47 33.0301 52.47 33.0201 52.47 33.0101C52.66 24.5501 44.06 12.6301 41.23 9.46012Z" fill="#8DC63F"/>
<path d="M41.23 52.6101C40.82 52.6101 40.48 52.2701 40.48 51.8601V8.37012C40.48 7.96012 40.82 7.62012 41.23 7.62012C41.64 7.62012 41.98 7.96012 41.98 8.37012V51.8701C41.98 52.2801 41.64 52.6201 41.23 52.6201V52.6101Z" fill="#8DC63F"/>
<path d="M41.23 39.6501C41.1 39.6501 40.98 39.6201 40.86 39.5501L28.87 32.7101C28.51 32.5001 28.39 32.0501 28.59 31.6901C28.8 31.3301 29.25 31.2001 29.61 31.4101L41.6 38.2501C41.96 38.4601 42.08 38.9101 41.88 39.2701C41.74 39.5101 41.49 39.6501 41.23 39.6501Z" fill="#8DC63F"/>
<path d="M41.23 39.6501C40.97 39.6501 40.72 39.5101 40.58 39.2701C40.37 38.9101 40.5 38.4501 40.86 38.2501L52.85 31.4101C53.21 31.2001 53.67 31.3301 53.87 31.6901C54.08 32.0501 53.95 32.5101 53.59 32.7101L41.6 39.5501C41.48 39.6201 41.35 39.6501 41.23 39.6501Z" fill="#8DC63F"/>
<path d="M41.2299 30.7701C41.0999 30.7701 40.9799 30.7401 40.86 30.6701L30.8199 24.9401C30.4599 24.7301 30.34 24.2801 30.54 23.9201C30.75 23.5601 31.1999 23.4301 31.5599 23.6401L41.5999 29.3701C41.9599 29.5801 42.08 30.0301 41.88 30.3901C41.74 30.6301 41.4899 30.7701 41.2299 30.7701Z" fill="#8DC63F"/>
<path d="M41.23 30.7701C40.97 30.7701 40.72 30.6301 40.58 30.3901C40.37 30.0301 40.5 29.5701 40.86 29.3701L50.9 23.6401C51.26 23.4301 51.72 23.5601 51.92 23.9201C52.13 24.2801 52 24.7401 51.64 24.9401L41.6 30.6701C41.48 30.7401 41.35 30.7701 41.23 30.7701Z" fill="#8DC63F"/>
<path d="M41.23 21.8902C41.1 21.8902 40.98 21.8602 40.86 21.7902L34.3 18.0502C33.94 17.8402 33.82 17.3902 34.02 17.0302C34.23 16.6702 34.68 16.5402 35.04 16.7502L41.6 20.4902C41.96 20.7002 42.08 21.1502 41.88 21.5102C41.74 21.7502 41.49 21.8902 41.23 21.8902Z" fill="#8DC63F"/>
<path d="M41.23 21.8902C40.97 21.8902 40.72 21.7502 40.58 21.5102C40.37 21.1502 40.5 20.6902 40.86 20.4902L47.42 16.7502C47.78 16.5402 48.24 16.6702 48.44 17.0302C48.65 17.3902 48.52 17.8502 48.16 18.0502L41.6 21.7902C41.48 21.8602 41.35 21.8902 41.23 21.8902Z" fill="#8DC63F"/>
</g>
<defs>
<clipPath id="clip0_137_4705">
<rect width="83.95" height="80.74" fill="white"/>
</clipPath>
</defs>
</svg>
