<svg width="95" height="103" viewBox="0 0 95 103" fill="none" xmlns="http://www.w3.org/2000/svg">
<g clip-path="url(#clip0_137_4697)">
<path d="M0 65.55H1.69V77.2H7.27V78.62H0V65.56V65.55Z" fill="#231F20"/>
<path d="M9.77003 74.23C9.81003 76.54 11.28 77.49 12.99 77.49C14.21 77.49 14.95 77.28 15.59 77.01L15.88 78.23C15.28 78.5 14.25 78.81 12.76 78.81C9.87002 78.81 8.15002 76.91 8.15002 74.08C8.15002 71.25 9.82002 69.02 12.55 69.02C15.61 69.02 16.43 71.71 16.43 73.44C16.43 73.79 16.39 74.06 16.37 74.23H9.78002H9.77003ZM14.77 73.01C14.79 71.93 14.32 70.24 12.41 70.24C10.69 70.24 9.93002 71.83 9.79002 73.01H14.77Z" fill="#231F20"/>
<path d="M18.29 76.87C18.79 77.2 19.69 77.55 20.54 77.55C21.78 77.55 22.36 76.93 22.36 76.15C22.36 75.34 21.88 74.89 20.62 74.43C18.93 73.83 18.14 72.9 18.14 71.77C18.14 70.26 19.36 69.02 21.38 69.02C22.33 69.02 23.16 69.29 23.69 69.6L23.26 70.84C22.89 70.61 22.21 70.3 21.34 70.3C20.33 70.3 19.77 70.88 19.77 71.58C19.77 72.35 20.33 72.7 21.55 73.17C23.18 73.79 24.01 74.6 24.01 76C24.01 77.65 22.73 78.81 20.5 78.81C19.47 78.81 18.52 78.56 17.86 78.17L18.29 76.87Z" fill="#231F20"/>
<path d="M25.97 76.87C26.47 77.2 27.37 77.55 28.22 77.55C29.46 77.55 30.04 76.93 30.04 76.15C30.04 75.34 29.56 74.89 28.3 74.43C26.61 73.83 25.82 72.9 25.82 71.77C25.82 70.26 27.04 69.02 29.06 69.02C30.01 69.02 30.84 69.29 31.37 69.6L30.94 70.84C30.57 70.61 29.89 70.3 29.02 70.3C28.01 70.3 27.45 70.88 27.45 71.58C27.45 72.35 28.01 72.7 29.23 73.17C30.86 73.79 31.69 74.6 31.69 76C31.69 77.65 30.41 78.81 28.18 78.81C27.15 78.81 26.2 78.56 25.54 78.17L25.97 76.87Z" fill="#231F20"/>
<path d="M47.17 78.1901C46.55 78.5001 45.31 78.8101 43.72 78.8101C40.04 78.8101 37.27 76.4801 37.27 72.2001C37.27 67.9201 40.04 65.3401 44.09 65.3401C45.72 65.3401 46.75 65.6901 47.19 65.9201L46.78 67.3001C46.14 66.9901 45.23 66.7601 44.14 66.7601C41.08 66.7601 39.04 68.7201 39.04 72.1501C39.04 75.3501 40.88 77.4001 44.06 77.4001C45.09 77.4001 46.13 77.1901 46.81 76.8601L47.16 78.2001L47.17 78.1901Z" fill="#231F20"/>
<path d="M54.28 78.61L54.14 77.43H54.08C53.56 78.17 52.55 78.82 51.21 78.82C49.31 78.82 48.34 77.48 48.34 76.13C48.34 73.86 50.35 72.62 53.98 72.64V72.45C53.98 71.67 53.77 70.28 51.85 70.28C50.98 70.28 50.07 70.55 49.41 70.98L49.02 69.86C49.8 69.36 50.92 69.03 52.1 69.03C54.97 69.03 55.67 70.99 55.67 72.87V76.38C55.67 77.19 55.71 77.99 55.83 78.63H54.28V78.61ZM54.03 73.83C52.17 73.79 50.06 74.12 50.06 75.94C50.06 77.04 50.8 77.57 51.67 77.57C52.89 77.57 53.67 76.8 53.94 76C54 75.83 54.04 75.63 54.04 75.46V73.83H54.03Z" fill="#231F20"/>
<path d="M58.43 72.16C58.43 71.06 58.41 70.11 58.35 69.23H59.84L59.9 71.07H59.98C60.41 69.81 61.43 69.02 62.58 69.02C62.77 69.02 62.91 69.04 63.06 69.08V70.69C62.89 70.65 62.71 70.63 62.48 70.63C61.28 70.63 60.43 71.54 60.19 72.82C60.15 73.05 60.11 73.32 60.11 73.61V78.61H58.42V72.16H58.43Z" fill="#231F20"/>
<path d="M64.76 78.6101C64.8 77.9701 64.84 77.0201 64.84 76.1901V64.8501H66.53V70.7401H66.57C67.17 69.6901 68.26 69.0201 69.77 69.0201C72.1 69.0201 73.74 70.9601 73.72 73.8101C73.72 77.1601 71.61 78.8301 69.51 78.8301C68.15 78.8301 67.07 78.3101 66.37 77.0701H66.31L66.23 78.6201H64.76V78.6101ZM66.53 74.8501C66.53 75.0601 66.57 75.2801 66.61 75.4701C66.94 76.6501 67.93 77.4701 69.17 77.4701C70.95 77.4701 72.02 76.0201 72.02 73.8701C72.02 71.9901 71.05 70.3801 69.23 70.3801C68.07 70.3801 66.98 71.1701 66.63 72.4701C66.59 72.6601 66.53 72.9001 66.53 73.1701V74.8601V74.8501Z" fill="#231F20"/>
<path d="M84.36 73.85C84.36 77.32 81.96 78.83 79.69 78.83C77.15 78.83 75.19 76.97 75.19 74C75.19 70.86 77.24 69.02 79.84 69.02C82.44 69.02 84.35 70.98 84.35 73.85H84.36ZM76.91 73.94C76.91 75.99 78.09 77.54 79.76 77.54C81.43 77.54 82.61 76.01 82.61 73.9C82.61 72.31 81.82 70.3 79.8 70.3C77.78 70.3 76.91 72.16 76.91 73.94Z" fill="#231F20"/>
<path d="M86.51 71.77C86.51 70.8 86.49 70.01 86.43 69.23H87.94L88.04 70.78H88.08C88.54 69.89 89.63 69.02 91.18 69.02C92.48 69.02 94.49 69.8 94.49 73.01V78.61H92.78V73.2C92.78 71.69 92.22 70.43 90.61 70.43C89.49 70.43 88.61 71.22 88.32 72.17C88.24 72.38 88.2 72.67 88.2 72.96V78.6H86.49V71.76L86.51 71.77Z" fill="#231F20"/>
<path d="M12.92 85.1401H19.95V86.5601H14.6V90.9001H19.54V92.3001H14.6V98.2101H12.91V85.1501L12.92 85.1401Z" fill="#231F20"/>
<path d="M30.18 93.4401C30.18 96.9101 27.78 98.4201 25.51 98.4201C22.97 98.4201 21.01 96.5601 21.01 93.5901C21.01 90.4501 23.06 88.6101 25.66 88.6101C28.26 88.6101 30.17 90.5701 30.17 93.4401H30.18ZM22.74 93.5401C22.74 95.5901 23.92 97.1401 25.59 97.1401C27.26 97.1401 28.44 95.6101 28.44 93.5001C28.44 91.9101 27.65 89.9001 25.63 89.9001C23.61 89.9001 22.74 91.7601 22.74 93.5401Z" fill="#231F20"/>
<path d="M40.82 93.4401C40.82 96.9101 38.42 98.4201 36.15 98.4201C33.61 98.4201 31.65 96.5601 31.65 93.5901C31.65 90.4501 33.7 88.6101 36.3 88.6101C38.9 88.6101 40.81 90.5701 40.81 93.4401H40.82ZM33.38 93.5401C33.38 95.5901 34.56 97.1401 36.23 97.1401C37.9 97.1401 39.08 95.6101 39.08 93.5001C39.08 91.9101 38.29 89.9001 36.27 89.9001C34.25 89.9001 33.38 91.7601 33.38 93.5401Z" fill="#231F20"/>
<path d="M45.03 86.1301V88.8201H47.47V90.1201H45.03V95.1801C45.03 96.3401 45.36 97.0001 46.31 97.0001C46.76 97.0001 47.08 96.9401 47.3 96.8801L47.38 98.1601C47.05 98.3001 46.53 98.3901 45.87 98.3901C45.08 98.3901 44.44 98.1401 44.03 97.6701C43.55 97.1701 43.37 96.3301 43.37 95.2301V90.1101H41.92V88.8101H43.37V86.5601L45.04 86.1101L45.03 86.1301Z" fill="#231F20"/>
<path d="M49.39 91.8901C49.39 90.6901 49.35 89.7201 49.31 88.8301H50.84L50.92 90.4401H50.96C51.66 89.3001 52.76 88.6201 54.29 88.6201C56.56 88.6201 58.26 90.5401 58.26 93.3901C58.26 96.7601 56.21 98.4301 54 98.4301C52.76 98.4301 51.67 97.8901 51.11 96.9601H51.07V102.06H49.38V91.9101L49.39 91.8901ZM51.07 94.3901C51.07 94.6401 51.11 94.8701 51.15 95.0901C51.46 96.2701 52.49 97.0901 53.71 97.0901C55.51 97.0901 56.56 95.6201 56.56 93.4701C56.56 91.5901 55.57 89.9801 53.77 89.9801C52.61 89.9801 51.52 90.8101 51.19 92.0901C51.13 92.3001 51.07 92.5601 51.07 92.7901V94.4001V94.3901Z" fill="#231F20"/>
<path d="M60.41 91.7501C60.41 90.6501 60.39 89.7001 60.33 88.8201H61.82L61.88 90.6601H61.96C62.39 89.4001 63.41 88.6101 64.56 88.6101C64.75 88.6101 64.89 88.6301 65.04 88.6701V90.2801C64.87 90.2401 64.69 90.2201 64.46 90.2201C63.26 90.2201 62.41 91.1301 62.17 92.4101C62.13 92.6401 62.09 92.9101 62.09 93.2001V98.2001H60.4V91.7501H60.41Z" fill="#231F20"/>
<path d="M68.73 86.1901C68.75 86.7701 68.32 87.2401 67.65 87.2401C67.05 87.2401 66.62 86.7801 66.62 86.1901C66.62 85.6001 67.07 85.1201 67.69 85.1201C68.31 85.1201 68.74 85.5901 68.74 86.1901H68.73ZM66.83 98.2101V88.8301H68.54V98.2101H66.83Z" fill="#231F20"/>
<path d="M71.36 91.3601C71.36 90.3901 71.34 89.6001 71.28 88.8201H72.79L72.89 90.3701H72.93C73.39 89.4801 74.48 88.6101 76.03 88.6101C77.33 88.6101 79.34 89.3901 79.34 92.6001V98.2001H77.63V92.7901C77.63 91.2801 77.07 90.0201 75.46 90.0201C74.34 90.0201 73.46 90.8101 73.17 91.7601C73.09 91.9701 73.05 92.2601 73.05 92.5501V98.1901H71.34V91.3501L71.36 91.3601Z" fill="#231F20"/>
<path d="M84.09 86.1301V88.8201H86.53V90.1201H84.09V95.1801C84.09 96.3401 84.42 97.0001 85.37 97.0001C85.82 97.0001 86.14 96.9401 86.36 96.8801L86.44 98.1601C86.11 98.3001 85.59 98.3901 84.93 98.3901C84.14 98.3901 83.5 98.1401 83.09 97.6701C82.61 97.1701 82.43 96.3301 82.43 95.2301V90.1101H80.98V88.8101H82.43V86.5601L84.1 86.1101L84.09 86.1301Z" fill="#231F20"/>
<path d="M43.24 43.62C38.11 43.62 33.93 38.89 33.93 33.07C33.93 27.25 38.1 22.52 43.24 22.52C48.38 22.52 52.55 27.25 52.55 33.07C52.55 38.89 48.38 43.62 43.24 43.62ZM43.24 23.73C38.78 23.73 35.15 27.92 35.15 33.07C35.15 38.22 38.78 42.41 43.24 42.41C47.7 42.41 51.33 38.22 51.33 33.07C51.33 27.92 47.7 23.73 43.24 23.73Z" fill="#6D6E71"/>
<path d="M29.57 43.62H24.3C20.02 43.62 16.53 40.23 16.53 36.05V30.08C16.53 25.91 20.01 22.51 24.3 22.51H29.57C29.9 22.51 30.18 22.78 30.18 23.12C30.18 23.46 29.91 23.73 29.57 23.73H24.3C20.69 23.73 17.74 26.58 17.74 30.08V36.05C17.74 39.55 20.68 42.4 24.3 42.4H29.57C29.9 42.4 30.18 42.67 30.18 43.01C30.18 43.35 29.91 43.62 29.57 43.62Z" fill="#6D6E71"/>
<path d="M61.8899 51.08H54.4299C54.1799 51.08 53.9599 50.9299 53.8699 50.7099C53.7799 50.4799 53.8299 50.2199 53.9999 50.0499L57.7299 46.32C58.6099 45.4399 61.2799 42.7699 61.2799 41.7799V41.16C61.2799 39.78 60.1599 38.66 58.7799 38.66C57.3999 38.66 56.2799 39.78 56.2799 41.16C56.2799 41.49 56.0099 41.77 55.6699 41.77C55.3299 41.77 55.0599 41.5 55.0599 41.16C55.0599 39.11 56.7299 37.45 58.7699 37.45C60.8099 37.45 62.4799 39.12 62.4799 41.16V41.7799C62.4799 43.1599 60.4599 45.29 58.5699 47.18L55.8799 49.8699H61.8699C62.1999 49.8699 62.4799 50.1399 62.4799 50.4799C62.4799 50.82 62.2099 51.09 61.8699 51.09L61.8899 51.08Z" fill="#6D6E71"/>
<path d="M68.1 51.22H66.86C66.45 51.22 66.11 50.88 66.11 50.47C66.11 50.06 66.45 49.72 66.86 49.72H68.1C73.17 49.72 77.29 45.6 77.29 40.53C77.29 35.46 73.17 31.34 68.1 31.34C66.99 31.34 65.87 31.56 64.77 31.99C64.49 32.1 64.17 32.03 63.96 31.82C63.75 31.6 63.69 31.29 63.8 31.01C64.5 29.32 64.86 27.51 64.86 25.63C64.86 17.82 58.51 11.46 50.69 11.46C49.26 11.46 47.82 11.68 46.42 12.11C46.1 12.21 45.77 12.09 45.59 11.82C41.08 5.35 33.69 1.5 25.84 1.5C12.55 1.5 1.72998 12.32 1.72998 25.61C1.72998 38.9 12.55 49.72 25.84 49.72H49.46C49.87 49.72 50.21 50.06 50.21 50.47C50.21 50.88 49.87 51.22 49.46 51.22H25.84C11.72 51.22 0.22998 39.73 0.22998 25.61C0.22998 11.49 11.72 0 25.84 0C34 0 41.69 3.92 46.51 10.51C47.89 10.13 49.3 9.94 50.7 9.94C59.34 9.94 66.37 16.97 66.37 25.61C66.37 27.16 66.15 28.67 65.71 30.12C66.51 29.93 67.31 29.83 68.1 29.83C74 29.83 78.79 34.63 78.79 40.52C78.79 46.41 73.99 51.21 68.1 51.21V51.22Z" fill="#27AAE1"/>
</g>
<defs>
<clipPath id="clip0_137_4697">
<rect width="94.49" height="102.04" fill="white"/>
</clipPath>
</defs>
</svg>
