<svg width="132" height="91" viewBox="0 0 132 91" fill="none" xmlns="http://www.w3.org/2000/svg">
<g clip-path="url(#clip0_137_4699)">
<path d="M11.36 84.3C11.26 82.48 11.15 80.29 11.17 78.66H11.11C10.66 80.19 10.12 81.82 9.46 83.62L7.15 89.96H5.87L3.76 83.74C3.14 81.9 2.62 80.21 2.25 78.66H2.21C2.17 80.29 2.07 82.48 1.96 84.43L1.61 90.03H0L0.91 76.97H3.06L5.29 83.29C5.83 84.9 6.28 86.33 6.61 87.69H6.67C7 86.37 7.46 84.94 8.05 83.29L10.38 76.97H12.53L13.34 90.03H11.69L11.36 84.29V84.3Z" fill="#231F20"/>
<path d="M24.47 85.2599C24.47 88.7299 22.07 90.2399 19.8 90.2399C17.26 90.2399 15.3 88.3799 15.3 85.4099C15.3 82.2699 17.35 80.4299 19.95 80.4299C22.55 80.4299 24.46 82.3899 24.46 85.2599H24.47ZM17.03 85.3599C17.03 87.4099 18.21 88.9599 19.88 88.9599C21.55 88.9599 22.73 87.4299 22.73 85.3199C22.73 83.7299 21.94 81.7199 19.92 81.7199C17.9 81.7199 17.03 83.5799 17.03 85.3599Z" fill="#231F20"/>
<path d="M26.63 83.5799C26.63 82.4799 26.61 81.5299 26.55 80.6499H28.04L28.1 82.4899H28.18C28.61 81.2299 29.63 80.4399 30.78 80.4399C30.97 80.4399 31.11 80.4599 31.26 80.4999V82.1099C31.09 82.0699 30.91 82.0499 30.68 82.0499C29.48 82.0499 28.63 82.9599 28.39 84.2399C28.35 84.4699 28.31 84.7399 28.31 85.0299V90.0299H26.62V83.5799H26.63Z" fill="#231F20"/>
<path d="M33.72 85.6499C33.76 87.9599 35.23 88.9099 36.94 88.9099C38.16 88.9099 38.9 88.6999 39.54 88.4299L39.83 89.6499C39.23 89.9199 38.2 90.2299 36.71 90.2299C33.82 90.2299 32.1 88.3299 32.1 85.4999C32.1 82.6699 33.77 80.4399 36.5 80.4399C39.56 80.4399 40.38 83.1299 40.38 84.8599C40.38 85.2099 40.34 85.4799 40.32 85.6499H33.73H33.72ZM38.72 84.4299C38.74 83.3499 38.27 81.6599 36.36 81.6599C34.64 81.6599 33.88 83.2499 33.74 84.4299H38.72Z" fill="#231F20"/>
<path d="M48.33 76.97V90.03H46.64V76.97H48.33Z" fill="#231F20"/>
<path d="M51.41 83.1899C51.41 82.2199 51.39 81.4299 51.33 80.6499H52.84L52.94 82.1999H52.98C53.44 81.3099 54.53 80.4399 56.08 80.4399C57.38 80.4399 59.39 81.2199 59.39 84.4299V90.0299H57.68V84.6199C57.68 83.1099 57.12 81.8499 55.51 81.8499C54.39 81.8499 53.51 82.6399 53.22 83.5899C53.14 83.7999 53.1 84.0899 53.1 84.3799V90.0199H51.39V83.1799L51.41 83.1899Z" fill="#231F20"/>
<path d="M62.17 83.1899C62.17 82.2199 62.15 81.4299 62.09 80.6499H63.6L63.7 82.1999H63.74C64.2 81.3099 65.29 80.4399 66.84 80.4399C68.14 80.4399 70.15 81.2199 70.15 84.4299V90.0299H68.44V84.6199C68.44 83.1099 67.88 81.8499 66.27 81.8499C65.15 81.8499 64.27 82.6399 63.98 83.5899C63.9 83.7999 63.86 84.0899 63.86 84.3799V90.0199H62.15V83.1799L62.17 83.1899Z" fill="#231F20"/>
<path d="M81.41 85.2599C81.41 88.7299 79.01 90.2399 76.74 90.2399C74.2 90.2399 72.24 88.3799 72.24 85.4099C72.24 82.2699 74.29 80.4299 76.89 80.4299C79.49 80.4299 81.4 82.3899 81.4 85.2599H81.41ZM73.97 85.3599C73.97 87.4099 75.15 88.9599 76.82 88.9599C78.49 88.9599 79.67 87.4299 79.67 85.3199C79.67 83.7299 78.88 81.7199 76.86 81.7199C74.84 81.7199 73.97 83.5799 73.97 85.3599Z" fill="#231F20"/>
<path d="M84.09 80.6499L85.93 85.9199C86.24 86.7699 86.49 87.5499 86.69 88.3199H86.75C86.96 87.5399 87.23 86.7699 87.54 85.9199L89.36 80.6499H91.14L87.46 90.0299H85.83L82.26 80.6499H84.08H84.09Z" fill="#231F20"/>
<path d="M97.86 90.03L97.73 88.85H97.67C97.15 89.59 96.14 90.24 94.8 90.24C92.9 90.24 91.93 88.9 91.93 87.55C91.93 85.28 93.95 84.04 97.57 84.06V83.87C97.57 83.09 97.36 81.7 95.44 81.7C94.57 81.7 93.66 81.97 93 82.4L92.61 81.28C93.39 80.78 94.51 80.45 95.69 80.45C98.56 80.45 99.26 82.41 99.26 84.29V87.8C99.26 88.61 99.3 89.41 99.42 90.05H97.87L97.86 90.03ZM97.61 85.25C95.75 85.21 93.64 85.54 93.64 87.36C93.64 88.46 94.38 88.99 95.25 88.99C96.47 88.99 97.25 88.22 97.52 87.42C97.58 87.25 97.62 87.05 97.62 86.88V85.25H97.61Z" fill="#231F20"/>
<path d="M103.99 77.9599V80.6499H106.43V81.9499H103.99V87.0099C103.99 88.1699 104.32 88.8299 105.27 88.8299C105.72 88.8299 106.05 88.7699 106.26 88.7099L106.34 89.9899C106.01 90.1299 105.49 90.2199 104.83 90.2199C104.04 90.2199 103.4 89.9699 102.99 89.4999C102.51 88.9999 102.33 88.1599 102.33 87.0599V81.9399H100.88V80.6399H102.33V78.3899L104 77.9399L103.99 77.9599Z" fill="#231F20"/>
<path d="M110.25 78.02C110.27 78.6 109.84 79.07 109.17 79.07C108.57 79.07 108.14 78.61 108.14 78.02C108.14 77.43 108.59 76.95 109.21 76.95C109.83 76.95 110.26 77.42 110.26 78.02H110.25ZM108.35 90.03V80.65H110.06V90.03H108.35Z" fill="#231F20"/>
<path d="M121.37 85.2599C121.37 88.7299 118.97 90.2399 116.7 90.2399C114.16 90.2399 112.2 88.3799 112.2 85.4099C112.2 82.2699 114.25 80.4299 116.85 80.4299C119.45 80.4299 121.36 82.3899 121.36 85.2599H121.37ZM113.93 85.3599C113.93 87.4099 115.11 88.9599 116.78 88.9599C118.45 88.9599 119.63 87.4299 119.63 85.3199C119.63 83.7299 118.84 81.7199 116.82 81.7199C114.8 81.7199 113.93 83.5799 113.93 85.3599Z" fill="#231F20"/>
<path d="M123.52 83.1899C123.52 82.2199 123.5 81.4299 123.44 80.6499H124.95L125.05 82.1999H125.09C125.55 81.3099 126.64 80.4399 128.19 80.4399C129.49 80.4399 131.5 81.2199 131.5 84.4299V90.0299H129.79V84.6199C129.79 83.1099 129.23 81.8499 127.62 81.8499C126.5 81.8499 125.62 82.6399 125.33 83.5899C125.25 83.7999 125.21 84.0899 125.21 84.3799V90.0199H123.5V83.1799L123.52 83.1899Z" fill="#231F20"/>
<path d="M91.84 53.39H41.1C31.57 53.39 23.82 45.64 23.82 36.11C23.82 26.58 31.57 18.83 41.1 18.83C41.91 18.83 42.72 18.89 43.53 19C45.8 7.95 55.49 0 66.86 0C79.99 0 90.67 10.68 90.67 23.81C90.67 24.46 90.64 25.13 90.58 25.81C98.75 25.04 105.66 31.53 105.66 39.57C105.66 47.19 99.46 53.39 91.84 53.39ZM41.11 20.33C32.41 20.33 25.33 27.41 25.33 36.11C25.33 44.81 32.41 51.89 41.11 51.89H91.85C98.64 51.89 104.17 46.36 104.17 39.57C104.17 32.78 98.64 27.25 91.85 27.25C91.2 27.25 90.53 27.31 89.86 27.41C89.63 27.45 89.39 27.37 89.22 27.21C89.05 27.05 88.97 26.81 89 26.58C89.12 25.64 89.18 24.71 89.18 23.81C89.18 11.51 79.17 1.5 66.87 1.5C55.98 1.5 46.74 9.28 44.89 20C44.86 20.2 44.74 20.37 44.58 20.49C44.42 20.6 44.21 20.65 44.01 20.61C43.05 20.43 42.08 20.34 41.12 20.34L41.11 20.33Z" fill="#6D6E71"/>
<path d="M61.7 45.54C61.64 45.54 61.58 45.54 61.51 45.52C58.77 44.82 56.26 43.38 54.24 41.37C48.05 35.18 48.05 25.11 54.24 18.93C56.25 16.92 58.77 15.48 61.51 14.78C61.91 14.68 62.32 14.92 62.42 15.32C62.52 15.72 62.28 16.13 61.88 16.23C59.4 16.86 57.12 18.16 55.3 19.99C49.7 25.59 49.7 34.71 55.3 40.31C57.12 42.13 59.4 43.43 61.88 44.07C62.28 44.17 62.52 44.58 62.42 44.98C62.33 45.32 62.03 45.54 61.69 45.54H61.7Z" fill="#FAAF41"/>
<path d="M54.08 47.8799C53.76 47.8799 53.46 47.6699 53.36 47.3499C53.24 46.9499 53.46 46.5299 53.86 46.4099L60.62 44.3299L57.16 37.4899C56.97 37.1199 57.12 36.6699 57.49 36.4799C57.86 36.2899 58.31 36.4399 58.5 36.8099L62.36 44.4499C62.46 44.6499 62.47 44.8799 62.38 45.0799C62.29 45.2799 62.12 45.4399 61.91 45.4999L54.29 47.8399C54.22 47.8599 54.14 47.8699 54.07 47.8699L54.08 47.8799Z" fill="#FAAF41"/>
<path d="M69.63 45.43C69.3 45.43 69 45.22 68.91 44.89C68.8 44.49 69.03 44.08 69.42 43.96C71.75 43.29 73.89 42.03 75.62 40.31C78.33 37.6 79.83 33.99 79.83 30.15C79.83 26.31 78.34 22.7 75.62 19.99C73.9 18.27 71.75 17 69.42 16.34C69.02 16.23 68.79 15.81 68.91 15.41C69.02 15.01 69.43 14.78 69.84 14.9C72.42 15.63 74.78 17.03 76.69 18.94C79.69 21.94 81.34 25.92 81.34 30.16C81.34 34.4 79.69 38.39 76.69 41.38C74.79 43.29 72.42 44.68 69.84 45.42C69.77 45.44 69.7 45.45 69.63 45.45V45.43Z" fill="#FAAF41"/>
<path d="M73.03 23.07C72.76 23.07 72.49 22.92 72.36 22.66L68.96 15.95C68.86 15.75 68.85 15.52 68.94 15.32C69.03 15.12 69.2 14.96 69.41 14.9L77.02 12.56C77.43 12.44 77.84 12.66 77.96 13.06C78.08 13.46 77.86 13.88 77.46 14L70.7 16.08L73.69 22C73.88 22.37 73.73 22.82 73.36 23.01C73.25 23.07 73.14 23.09 73.02 23.09L73.03 23.07Z" fill="#FAAF41"/>
</g>
<defs>
<clipPath id="clip0_137_4699">
<rect width="131.51" height="90.25" fill="white"/>
</clipPath>
</defs>
</svg>
