<svg width="260" height="260" viewBox="0 0 260 260" fill="none" xmlns="http://www.w3.org/2000/svg">
<g clip-path="url(#clip0_137_4629)">
<path d="M85.166 206.341C110.279 199.862 120.02 182.146 121.035 180.779C124.284 175.482 126.428 170.005 125.808 169.716C125.427 169.67 124.903 171.144 119.329 179.432C116.701 183.428 104.638 200.051 80.2901 204.325C68.526 206.487 54.3507 204.588 42.0238 197.387C29.6542 190.391 19.6674 177.926 15.6249 163.629C11.3901 149.365 13.3063 133.79 19.6033 121.495C25.9537 109.172 36.1827 100.268 46.2978 95.609C67.0657 86.1065 83.4956 91.4134 84.8811 91.4454C87.0964 91.88 89.1159 92.4427 90.5298 92.6991C89.3296 92.66 88.2361 92.6421 87.2424 92.635C85.0698 92.6101 83.5561 92.5175 83.3531 92.7169C82.5482 93.5183 81.4192 95.1175 83.3531 95.3454C83.8375 95.4024 85.4616 95.4274 87.6342 95.4274C88.7205 95.4274 93.2011 95.3739 93.2011 95.3739H93.4504L93.4824 95.3704H93.4896C94.152 95.032 94.7718 94.0276 94.7219 93.2405L94.7148 93.2263L93.8137 91.7517C90.9929 87.1287 87.5345 83.0008 86.8792 83.0684C85.9246 83.0578 85.2515 83.1753 85.9852 83.9517C86.092 83.8128 88.7205 87.4457 91.1282 91.9583C89.9956 91.5487 85.0876 90.2558 84.7885 90.1811C82.1564 89.515 66.8342 84.9312 46.6504 93.3189C35.8301 98.038 24.4079 107.224 17.5161 120.619C10.5531 133.854 8.65833 150.968 13.6909 166.372C18.5633 181.808 30.1315 194.872 43.9115 201.657C57.6523 208.748 73.0172 209.343 85.1553 206.344" fill="#61A60E"/>
<path d="M51.7541 148.275C51.7541 147.431 52.1459 146.768 52.9223 146.291C53.5741 145.946 54.2544 145.803 54.9703 145.867C55.6862 145.931 56.3451 146.159 56.9541 146.551C57.5596 146.897 58.1117 147.353 58.6139 147.915C59.1125 148.478 59.5577 149.083 59.9459 149.735C59.5541 149.953 59.0448 150.17 58.418 150.383C57.7875 150.601 57.1393 150.754 56.4697 150.839C55.8002 150.925 55.1377 150.936 54.4859 150.871C53.8377 150.807 53.2928 150.622 52.8618 150.319C52.1245 149.799 51.7577 149.116 51.7577 148.271M76.7141 188.215C75.8023 188.083 74.9369 187.695 74.1141 187.047C73.2914 186.395 72.5648 185.626 71.938 184.739C71.3075 183.852 70.8232 183.04 70.4741 182.303C69.6514 180.526 69.0103 178.716 68.558 176.875C68.1021 175.034 67.7032 173.16 67.3541 171.251C67.0514 169.517 66.77 167.754 66.51 165.955C66.25 164.156 65.9473 162.379 65.5982 160.623C65.2528 158.867 64.8182 157.136 64.2982 155.423C63.7782 153.71 63.1051 152.054 62.2823 150.451C64.1023 149.326 65.7478 148.004 67.2223 146.487C68.6969 144.97 69.9292 143.346 70.9265 141.611C72.9637 138.146 74.3171 134.427 74.9903 130.463C75.6634 126.499 75.6741 122.546 75.0223 118.599C74.7623 116.911 74.2637 115.276 73.5265 113.691C72.7892 112.11 71.8454 110.767 70.6985 109.663C69.5517 108.559 68.2054 107.768 66.6703 107.291C65.1317 106.814 63.3864 106.814 61.4382 107.291C59.7037 107.726 58.1544 108.427 56.7903 109.403C55.4262 110.379 54.201 111.537 53.1182 112.879C52.0355 114.222 51.0703 115.697 50.2262 117.299C49.3821 118.902 48.6341 120.526 47.9859 122.175C47.8969 119.793 47.7366 117.42 47.498 115.059C47.2593 112.698 46.9459 110.326 46.5541 107.943C46.5114 107.811 46.3262 107.551 46.0021 107.163C45.678 106.771 45.2221 106.383 44.638 105.995C44.0538 105.603 43.3273 105.268 42.4618 104.987C41.5928 104.705 40.5991 104.588 39.4736 104.631C39.0818 104.673 38.8111 104.869 38.6615 105.215C38.5084 105.56 38.4799 105.888 38.5654 106.191C39.4308 110.696 39.9936 115.205 40.2536 119.711C40.5136 124.216 40.5884 128.736 40.4815 133.263C40.3747 137.793 40.1681 142.331 39.8654 146.879C39.5626 151.431 39.3133 155.968 39.1174 160.495C38.9215 165.025 38.8574 169.552 38.9215 174.079C38.9856 178.61 39.3204 183.126 39.9295 187.631C40.0149 188.194 40.5029 188.789 41.3933 189.419C42.2802 190.046 43.2347 190.534 44.2533 190.883C45.2719 191.228 46.1588 191.328 46.9174 191.175C47.676 191.022 47.9681 190.427 47.7936 189.387C46.9708 184.187 46.5363 178.987 46.4936 173.787C46.4508 168.587 46.5577 163.376 46.8177 158.155C47.0777 152.934 47.3697 147.712 47.6939 142.491C48.018 137.27 48.1604 132.059 48.1177 126.859C49.8949 122.136 51.6473 118.571 53.3818 116.167C55.1163 113.763 56.7404 112.235 58.2577 111.586C59.7749 110.935 61.1818 111.002 62.4818 111.782C63.7818 112.562 64.9073 113.745 65.8618 115.326C66.8128 116.908 67.5607 118.738 68.1056 120.818C68.647 122.898 68.9604 124.914 69.0495 126.862C69.0922 128.511 68.9854 130.417 68.7254 132.582C68.4654 134.751 68.0095 136.896 67.3612 139.018C66.7095 141.141 65.8867 143.103 64.8895 144.899C63.8922 146.697 62.724 148.029 61.3812 148.898C60.7295 147.858 59.9708 146.893 59.1054 146.006C58.2363 145.119 57.1749 144.525 55.9212 144.218C54.4895 143.873 53.2785 143.969 52.2812 144.51C51.284 145.052 50.5574 145.789 50.1015 146.722C49.6456 147.655 49.4925 148.638 49.6456 149.678C49.7988 150.718 50.2974 151.552 51.1415 152.182C51.9856 152.813 53.2108 153.126 54.8136 153.126C56.4163 153.126 58.4322 152.52 60.8577 151.306C61.5095 152.78 62.0473 154.209 62.4818 155.598C63.4327 158.458 64.1059 161.35 64.4977 164.274C64.8895 167.198 65.3632 170.133 65.9295 173.082C66.1467 174.254 66.4067 175.486 66.7095 176.786C67.0122 178.086 67.3826 179.375 67.8136 180.654C68.2445 181.933 68.7788 183.158 69.4056 184.326C70.0325 185.494 70.7804 186.538 71.6495 187.446C72.2122 188.051 72.8854 188.55 73.6654 188.942C74.4454 189.334 75.2467 189.594 76.0695 189.722C76.8922 189.854 77.7043 189.818 78.5056 189.626C79.307 189.43 80.0336 189.027 80.6818 188.422C80.8991 188.247 80.9952 188.051 80.9739 187.838C80.9525 187.62 80.867 187.435 80.7138 187.286C80.5607 187.133 80.3684 187.036 80.1297 186.994C79.8911 186.951 79.6632 187.015 79.4459 187.19C78.5341 188.012 77.6259 188.358 76.7141 188.23" fill="#61A60E"/>
<path d="M88.4143 145.889C87.8943 147.189 87.1997 148.382 86.3343 149.465C85.4652 150.547 84.4502 151.427 83.2784 152.097C82.1102 152.77 80.8529 153.041 79.5102 152.909C79.9447 151.737 80.4611 150.59 81.0702 149.465C81.6756 148.339 82.3702 147.299 83.1502 146.345C83.9302 145.394 84.817 144.567 85.8143 143.873C86.8115 143.182 87.937 142.683 89.1943 142.377C89.1943 143.417 88.9343 144.589 88.4143 145.885M97.4501 155.085C96.8411 156.449 96.1181 157.781 95.274 159.081C94.4299 160.381 93.454 161.617 92.3499 162.785C91.2458 163.953 90.0419 164.929 88.7419 165.709C86.6619 167.009 84.8313 167.626 83.2499 167.561C81.665 167.497 80.4326 166.935 79.5458 165.87C78.6554 164.808 78.1496 163.302 78.0178 161.353C77.8896 159.405 78.1923 157.151 78.9296 154.593C80.7069 154.896 82.3523 154.668 83.8696 153.91C85.3869 153.151 86.7082 152.132 87.8337 150.854C88.9592 149.575 89.8354 148.136 90.4658 146.53C91.0926 144.927 91.3775 143.41 91.3099 141.978C91.2458 140.55 90.8006 139.346 89.9778 138.37C89.1551 137.394 87.8765 136.864 86.1419 136.778C84.8419 136.735 83.4458 137.017 81.9499 137.622C80.454 138.231 79.0258 139.225 77.6581 140.614C76.294 142 75.0581 143.787 73.954 145.978C72.8499 148.165 72.0378 150.775 71.5178 153.81C71.1723 155.979 71.0833 158.177 71.2578 160.406C71.4288 162.639 72.2088 164.687 73.5978 166.55C74.2033 167.419 74.9726 168.142 75.9058 168.726C76.8354 169.31 77.943 169.702 79.2217 169.894C80.5003 170.09 81.9285 170.026 83.5099 169.698C85.0913 169.374 86.8151 168.712 88.6778 167.715C91.7551 166.112 94.1913 163.978 95.9899 161.314C97.7885 158.65 99.3165 155.43 100.57 151.662C100.656 151.402 100.634 151.174 100.506 150.978C100.374 150.783 100.203 150.654 99.986 150.587C99.7688 150.523 99.5515 150.533 99.3378 150.619C99.1206 150.704 98.9674 150.879 98.8819 151.139C98.5365 152.396 98.0592 153.707 97.4537 155.071" fill="#61A60E"/>
<path d="M181.925 162.678C181.925 163.522 182.545 164.089 183.335 164.089C184.126 164.089 184.689 163.526 184.689 162.678V147.231C184.689 141.255 189.031 136.97 194.669 136.97C200.307 136.97 203.801 140.86 203.801 146.779V162.678C203.801 163.522 204.42 164.089 205.211 164.089C206.002 164.089 206.565 163.526 206.565 162.678V146.273C206.565 139.396 202.337 134.434 195.064 134.434C189.821 134.434 186.609 137.084 184.689 140.468V136.297C184.689 135.453 184.069 134.887 183.279 134.887C182.488 134.887 181.925 135.507 181.925 136.297V162.682V162.678ZM163.885 162.678C163.885 163.522 164.505 164.089 165.296 164.089C166.086 164.089 166.649 163.469 166.649 162.678V152.079C166.649 142.833 172.116 138.267 178.207 137.7C179.108 137.644 179.671 136.967 179.671 136.18C179.671 135.336 179.051 134.659 178.207 134.659C174.146 134.659 169.128 137.704 166.649 143.285V136.294C166.649 135.45 166.029 134.883 165.239 134.883C164.448 134.883 163.885 135.503 163.885 136.294V162.678ZM145.169 161.948C138.516 161.948 133.33 156.424 133.33 149.49V149.376C133.33 142.608 138.234 137.027 145.058 137.027C151.883 137.027 156.897 142.551 156.897 149.486V149.6C156.897 156.367 151.993 161.948 145.172 161.948M145.055 164.541C153.624 164.541 159.882 157.55 159.882 149.49V149.376C159.882 141.312 153.681 134.434 145.169 134.434C136.657 134.434 130.342 141.426 130.342 149.486V149.6C130.342 157.664 136.543 164.541 145.055 164.541ZM113.937 161.891C107.96 161.891 102.212 156.93 102.212 149.547V149.433C102.212 142.103 107.96 137.088 113.937 137.088C119.913 137.088 125.213 141.935 125.213 149.49V149.604C125.213 157.329 120.195 161.895 113.937 161.895M99.6155 162.678C99.6155 163.469 100.235 164.089 101.026 164.089C101.817 164.089 102.379 163.469 102.379 162.678V157.66C104.748 161.268 108.47 164.537 114.218 164.537C121.153 164.537 128.201 158.842 128.201 149.486V149.372C128.201 140.012 121.153 134.431 114.218 134.431C108.523 134.431 104.858 137.757 102.379 141.533V123.888C102.379 123.044 101.76 122.478 100.969 122.478C100.178 122.478 99.6155 123.041 99.6155 123.888V162.675V162.678Z" fill="#61A60E"/>
<path d="M144.895 106.693C144.663 106.693 144.435 106.693 144.204 106.696C131.77 106.824 122.357 112.705 121.687 113.125V120.223C122.357 119.828 131.766 113.951 144.204 113.819C144.371 113.819 144.539 113.819 144.702 113.819C157.432 113.819 170.553 117.955 173.028 118.51C174.499 118.831 179.72 120.889 186.22 120.889C190.947 120.889 196.346 119.803 201.482 116.17V109.04C196.343 112.676 190.929 113.766 186.199 113.766C179.706 113.766 174.496 111.715 173.028 111.387C170.567 110.838 157.563 106.693 144.895 106.693Z" fill="#774D28"/>
<path d="M144.759 58.6675C144.574 58.6675 144.389 58.6675 144.2 58.6675C131.766 58.8135 122.353 64.6867 121.687 65.0927V111.355C122.353 110.938 131.766 105.086 144.2 104.951C144.432 104.947 144.663 104.947 144.898 104.947C157.563 104.947 170.563 109.047 173.025 109.624C174.495 109.944 179.713 112.003 186.213 112.003C190.936 112.003 196.343 110.917 201.479 107.291V61.0431C196.35 64.6653 190.95 65.7516 186.228 65.7516C179.717 65.7516 174.492 63.6858 173.025 63.3475C170.556 62.8061 157.467 58.671 144.759 58.671M185.262 103.38C178.485 103.38 172.985 95.3595 172.985 85.4689C172.985 75.5782 178.485 67.5502 185.262 67.5502C187.77 67.5502 189.465 68.0488 191.634 69.8119L193.237 67.6784L195.588 67.6891L196.004 81.031H192.781C192.008 75.3324 189.768 71.1938 186.666 71.1938C181.832 71.1938 180.625 77.416 180.625 85.1341C180.625 92.8521 181.904 99.0957 186.666 99.0957C190.056 99.0957 191.894 95.5839 192.624 90.5905H196.218C195.31 97.9417 192.143 103.377 185.259 103.377M143.52 98.8036H147.89C150.294 98.622 151.014 95.7584 151.566 94.0845C154.436 85.3228 156.965 76.3724 159.622 67.5573H163.027C163.579 69.4023 167.728 83.7628 171.967 97.5143C172.383 98.7645 173.163 98.793 174.67 98.8036V102.632H162.001V98.8036H163.871C164.163 98.8036 164.491 98.6826 164.466 98.2836L162.934 92.5352H155.701C155.523 93.162 154.764 95.6979 154.764 96.542C154.764 98.2943 155.387 98.8001 158.112 98.8001V102.629H131.022V98.8001H132.789C132.821 98.7965 132.86 98.793 132.903 98.793C132.963 98.793 133.038 98.7965 133.123 98.8001C133.205 98.8036 133.298 98.8072 133.394 98.8072C133.679 98.8072 134.014 98.7752 134.309 98.6042C134.74 98.3228 134.577 97.6568 134.609 97.4787V71.9168C134.609 71.9168 133.273 71.9168 132.425 72.2836C131.592 72.6541 130.958 73.6015 130.043 75.9735C129.177 78.3313 129.177 81.9286 129.177 81.9286H125.968L126.809 68.2376H149.564L150.394 81.9286H147.192C147.192 81.9286 147.192 78.3278 146.302 75.9735C145.404 73.605 144.784 72.6576 143.933 72.2836C143.085 71.9168 141.736 71.9168 141.736 71.9168V97.525C141.736 98.6754 142.462 98.8001 143.516 98.8001M186.003 109.941C184.465 109.941 183.197 108.705 183.197 107.166C183.197 105.628 184.461 104.37 186.003 104.37C187.545 104.37 188.799 105.642 188.799 107.166C188.799 108.691 187.531 109.941 186.003 109.941ZM186.003 105.033C184.753 105.033 183.955 105.941 183.955 107.163C183.955 108.384 184.753 109.282 186.003 109.282C187.179 109.282 188.044 108.424 188.044 107.163C188.044 105.902 187.182 105.033 186.003 105.033ZM184.849 108.691V105.688H186.302C187.097 105.688 187.488 105.884 187.488 106.597C187.488 107.166 187.179 107.377 186.637 107.398L187.374 108.694H186.637L185.975 107.398H185.497V108.694H184.849V108.691ZM186.21 106.112H185.497V106.956H186.363C186.666 106.956 186.886 106.878 186.886 106.507C186.886 106.137 186.48 106.112 186.21 106.112Z" fill="#774D28"/>
<path d="M159.341 76.1196L156.363 90.238H162.176L159.341 76.1196Z" fill="#774D28"/>
<path d="M144.799 49.7883C144.599 49.7883 144.403 49.7883 144.204 49.7883C131.77 49.9379 122.357 55.8182 121.691 56.2349V63.3333C122.357 62.9201 131.77 57.0505 144.204 56.9223C144.421 56.9223 144.642 56.9223 144.859 56.9223C157.539 56.9223 170.567 61.0609 173.032 61.6059C174.503 61.9264 179.731 63.9922 186.245 63.9922C190.965 63.9922 196.357 62.9059 201.486 59.2837V52.1497C196.357 55.779 190.958 56.8653 186.238 56.8653C179.728 56.8653 174.503 54.7996 173.032 54.4826C170.564 53.927 157.496 49.7883 144.802 49.7883" fill="#774D28"/>
<path d="M127.696 186.349C127.696 180.027 132.529 175.318 139.1 175.318C145.671 175.318 150.472 179.998 150.472 186.349C150.472 192.699 145.607 197.379 139.1 197.379C132.593 197.379 127.696 192.667 127.696 186.349ZM148.182 186.349C148.182 181.174 144.307 177.363 139.104 177.363C133.9 177.363 129.961 181.174 129.961 186.349C129.961 191.524 133.864 195.335 139.104 195.335C144.343 195.335 148.182 191.524 148.182 186.349Z" fill="black"/>
<path d="M162.122 180.768V182.905C161.937 182.905 161.752 182.873 161.595 182.873C158.187 182.873 156.11 185.042 156.11 188.885V197.19H153.909V180.892H156.018V184.083C157.04 181.914 159.116 180.768 162.122 180.768Z" fill="black"/>
<path d="M179.785 180.892V195.21C179.785 200.82 177.028 203.359 171.635 203.359C168.661 203.359 165.748 202.462 164.042 200.848L165.157 199.174C166.706 200.57 169.06 201.404 171.571 201.404C175.692 201.404 177.583 199.513 177.583 195.484V193.408C176.219 195.484 173.897 196.567 171.229 196.567C166.581 196.567 163.048 193.312 163.048 188.635C163.048 183.959 166.581 180.764 171.229 180.764C173.958 180.764 176.312 181.879 177.676 184.019V180.889H179.785V180.892ZM177.648 188.639C177.648 185.106 175.044 182.687 171.45 182.687C167.857 182.687 165.285 185.106 165.285 188.639C165.285 192.172 167.857 194.619 171.45 194.619C175.044 194.619 177.648 192.172 177.648 188.639Z" fill="black"/>
<path d="M197.012 187.09V197.19H194.904V194.651C193.914 196.325 191.99 197.347 189.294 197.347C185.608 197.347 183.343 195.427 183.343 192.607C183.343 190.096 184.953 187.991 189.633 187.991H194.808V187.001C194.808 184.212 193.226 182.695 190.192 182.695C188.083 182.695 186.103 183.439 184.767 184.614L183.777 182.972C185.419 181.576 187.838 180.771 190.409 180.771C194.622 180.771 197.009 182.88 197.009 187.093L197.012 187.09ZM194.815 192.297V189.633H189.7C186.541 189.633 185.515 190.872 185.515 192.546C185.515 194.437 187.033 195.613 189.636 195.613C192.24 195.613 193.942 194.434 194.811 192.297H194.815Z" fill="black"/>
<path d="M216.751 187.741V197.194H214.55V187.959C214.55 184.518 212.751 182.751 209.653 182.751C206.151 182.751 203.95 184.92 203.95 188.639V197.19H201.749V180.892H203.858V183.898C205.037 181.914 207.234 180.768 210.055 180.768C214.023 180.768 216.747 183.061 216.747 187.741H216.751Z" fill="black"/>
<path d="M220.996 175.749C220.996 174.912 221.709 174.2 222.606 174.2C223.504 174.2 224.216 174.88 224.216 175.717C224.216 176.615 223.532 177.327 222.606 177.327C221.68 177.327 220.996 176.615 220.996 175.746V175.749ZM221.491 180.892H223.693V197.19H221.491V180.892Z" fill="black"/>
<path d="M226.944 189.045C226.944 184.18 230.477 180.771 235.343 180.771C238.099 180.771 240.425 181.858 241.725 183.995L240.083 185.109C238.968 183.467 237.234 182.691 235.343 182.691C231.777 182.691 229.177 185.23 229.177 189.045C229.177 192.859 231.781 195.399 235.343 195.399C237.234 195.399 238.968 194.655 240.083 193.013L241.725 194.127C240.425 196.236 238.099 197.351 235.343 197.351C230.477 197.351 226.944 193.91 226.944 189.045Z" fill="black"/>
</g>
<defs>
<clipPath id="clip0_137_4629">
<rect width="260" height="260" fill="white"/>
</clipPath>
</defs>
</svg>
