<svg width="263" height="263" viewBox="0 0 263 263" fill="none" xmlns="http://www.w3.org/2000/svg">
<g clip-path="url(#clip0_137_4621)">
<path d="M86.1487 208.721C111.552 202.168 121.405 184.248 122.432 182.864C125.718 177.507 127.886 171.966 127.26 171.674C126.874 171.627 126.344 173.119 120.706 181.502C118.047 185.545 105.845 202.359 81.2166 206.682C69.3167 208.869 54.9778 206.949 42.5087 199.664C29.9964 192.588 19.8943 179.978 15.8052 165.517C11.5216 151.088 13.4598 135.333 19.8295 122.897C26.2532 110.431 36.6002 101.424 46.832 96.712C67.8396 87.0998 84.459 92.4679 85.8605 92.5004C88.1014 92.9399 90.1441 93.5091 91.5744 93.7685C90.3603 93.7289 89.2543 93.7109 88.2491 93.7037C86.0514 93.6784 84.5203 93.5848 84.3149 93.7865C83.5007 94.5972 82.3586 96.2148 84.3149 96.4454C84.8049 96.503 86.4477 96.5282 88.6454 96.5282C89.7442 96.5282 94.2765 96.4742 94.2765 96.4742H94.5287L94.5611 96.4706H94.5683C95.2384 96.1283 95.8653 95.1123 95.8149 94.3161L95.8076 94.3017L94.8962 92.8102C92.0428 88.1338 88.5445 83.9583 87.8816 84.0267C86.9161 84.0159 86.2352 84.1348 86.9773 84.9202C87.0854 84.7797 89.7442 88.4545 92.1797 93.0191C91.034 92.6048 86.0694 91.297 85.7668 91.2214C83.1044 90.5477 67.6054 85.9109 47.1887 94.3954C36.2436 99.169 24.6896 108.46 17.7183 122.01C10.6749 135.398 8.75826 152.709 13.8489 168.291C18.7775 183.905 30.4792 197.12 44.4182 203.984C58.3175 211.157 73.8598 211.758 86.1379 208.725" fill="#61A60E"/>
<path d="M52.3514 149.986C52.3514 149.132 52.7477 148.462 53.5331 147.979C54.1924 147.63 54.8806 147.485 55.6047 147.55C56.3289 147.615 56.9954 147.846 57.6114 148.242C58.2239 148.591 58.7823 149.053 59.2903 149.622C59.7947 150.191 60.245 150.804 60.6377 151.463C60.2414 151.683 59.7262 151.902 59.0922 152.119C58.4545 152.338 57.7988 152.493 57.1215 152.58C56.4405 152.666 55.774 152.677 55.1147 152.612C54.459 152.547 53.9078 152.36 53.4719 152.054C52.7261 151.528 52.355 150.836 52.355 149.982M77.5994 190.387C76.6771 190.254 75.8017 189.861 74.9694 189.205C74.1372 188.546 73.4022 187.768 72.7682 186.871C72.1305 185.973 71.6405 185.152 71.2874 184.406C70.4552 182.609 69.8067 180.778 69.3492 178.916C68.888 177.053 68.4845 175.158 68.1314 173.227C67.8252 171.472 67.5406 169.689 67.2776 167.87C67.0146 166.05 66.7083 164.253 66.3553 162.476C66.0058 160.7 65.5663 158.949 65.0403 157.216C64.5143 155.483 63.8334 153.808 63.0011 152.187C64.8421 151.049 66.5066 149.712 67.9981 148.177C69.4897 146.642 70.7362 145 71.745 143.245C73.8057 139.74 75.1748 135.978 75.8557 131.968C76.5366 127.959 76.5474 123.96 75.8881 119.968C75.6251 118.26 75.1207 116.606 74.375 115.003C73.6292 113.403 72.6745 112.045 71.5144 110.928C70.3543 109.812 68.9925 109.012 67.4397 108.529C65.8833 108.046 64.118 108.046 62.1473 108.529C60.3927 108.969 58.8256 109.678 57.4457 110.665C56.0659 111.653 54.8265 112.823 53.7313 114.182C52.636 115.54 51.6597 117.031 50.8059 118.653C49.952 120.274 49.1954 121.917 48.5397 123.585C48.4497 121.175 48.2875 118.775 48.0462 116.387C47.8048 113.998 47.4877 111.599 47.0914 109.188C47.0482 109.055 46.8609 108.792 46.533 108.399C46.2052 108.003 45.744 107.61 45.1532 107.218C44.5623 106.821 43.8273 106.483 42.9519 106.198C42.0728 105.913 41.0676 105.795 39.9292 105.838C39.5329 105.881 39.2591 106.079 39.1078 106.429C38.9528 106.778 38.924 107.11 39.0105 107.416C39.8859 111.973 40.4552 116.534 40.7182 121.092C40.9812 125.649 41.0568 130.221 40.9488 134.8C40.8407 139.383 40.6317 143.973 40.3255 148.573C40.0193 153.178 39.7671 157.768 39.5689 162.347C39.3708 166.929 39.3059 171.508 39.3708 176.088C39.4356 180.67 39.7743 185.239 40.3903 189.796C40.4768 190.365 40.9704 190.967 41.8711 191.605C42.7681 192.239 43.7337 192.732 44.7641 193.085C45.7944 193.435 46.6915 193.536 47.4589 193.381C48.2263 193.226 48.5217 192.624 48.3452 191.572C47.5129 186.312 47.0734 181.052 47.0302 175.792C46.9869 170.532 47.095 165.261 47.358 159.98C47.621 154.698 47.9165 149.416 48.2443 144.135C48.5722 138.853 48.7163 133.582 48.673 128.322C50.4708 123.545 52.2433 119.939 53.9979 117.507C55.7524 115.075 57.3953 113.53 58.93 112.874C60.4648 112.215 61.8879 112.283 63.2029 113.072C64.5179 113.861 65.6563 115.057 66.6219 116.657C67.5838 118.256 68.3404 120.108 68.8916 122.212C69.4392 124.316 69.7563 126.355 69.8463 128.326C69.8896 129.994 69.7815 131.922 69.5185 134.112C69.2555 136.306 68.7943 138.475 68.1386 140.622C67.4793 142.769 66.6471 144.755 65.6383 146.57C64.6296 148.39 63.4479 149.737 62.0896 150.616C61.4303 149.564 60.6629 148.588 59.7875 147.691C58.9084 146.794 57.8348 146.192 56.5666 145.882C55.1183 145.533 53.8934 145.63 52.8846 146.178C51.8759 146.725 51.1409 147.471 50.6798 148.415C50.2186 149.359 50.0637 150.353 50.2186 151.405C50.3735 152.457 50.8779 153.3 51.7318 153.938C52.5856 154.576 53.8249 154.893 55.4462 154.893C57.0674 154.893 59.1066 154.28 61.56 153.052C62.2193 154.543 62.7633 155.988 63.2029 157.393C64.1648 160.286 64.8457 163.211 65.242 166.169C65.6383 169.127 66.1175 172.096 66.6903 175.079C66.9101 176.264 67.1731 177.511 67.4793 178.826C67.7856 180.141 68.1602 181.445 68.5962 182.738C69.0321 184.032 69.5725 185.271 70.2066 186.453C70.8407 187.634 71.5973 188.69 72.4763 189.609C73.0456 190.221 73.7265 190.725 74.5155 191.122C75.3045 191.518 76.1151 191.781 76.9473 191.911C77.7796 192.044 78.601 192.008 79.4116 191.813C80.2222 191.615 80.9572 191.208 81.6129 190.596C81.8326 190.419 81.9299 190.221 81.9083 190.005C81.8867 189.785 81.8002 189.598 81.6453 189.447C81.4904 189.292 81.2958 189.194 81.0545 189.151C80.8131 189.108 80.5825 189.173 80.3627 189.349C79.4404 190.181 78.5217 190.531 77.5994 190.401" fill="#61A60E"/>
<path d="M89.4345 147.572C88.9085 148.887 88.206 150.094 87.3305 151.189C86.4514 152.284 85.4247 153.174 84.2394 153.851C83.0577 154.532 81.7859 154.806 80.4277 154.673C80.8672 153.488 81.3896 152.328 82.0057 151.189C82.6181 150.051 83.3207 148.999 84.1097 148.033C84.8987 147.071 85.7958 146.235 86.8045 145.533C87.8133 144.834 88.9517 144.329 90.2235 144.02C90.2235 145.072 89.9605 146.257 89.4345 147.568M98.5747 156.874C97.9586 158.254 97.2272 159.601 96.3734 160.916C95.5195 162.231 94.5324 163.482 93.4155 164.663C92.2987 165.845 91.081 166.832 89.766 167.621C87.662 168.936 85.8102 169.559 84.2105 169.495C82.6073 169.43 81.3608 168.86 80.4637 167.783C79.563 166.71 79.0514 165.186 78.9181 163.215C78.7884 161.244 79.0947 158.964 79.8404 156.377C81.6382 156.683 83.3027 156.453 84.8374 155.685C86.3722 154.918 87.7088 153.887 88.8473 152.594C89.9857 151.301 90.872 149.845 91.5097 148.22C92.1438 146.599 92.432 145.064 92.3635 143.616C92.2987 142.171 91.8484 140.954 91.0161 139.967C90.1839 138.979 88.8905 138.443 87.136 138.356C85.821 138.313 84.4087 138.597 82.8955 139.21C81.3824 139.826 79.9377 140.831 78.5542 142.236C77.1744 143.638 75.9242 145.446 74.8074 147.662C73.6905 149.874 72.8691 152.515 72.3431 155.584C71.9937 157.778 71.9036 160.001 72.0801 162.257C72.2531 164.516 73.0421 166.587 74.4471 168.471C75.0596 169.35 75.8378 170.082 76.7817 170.673C77.722 171.264 78.8425 171.66 80.1358 171.854C81.4292 172.053 82.8739 171.988 84.4735 171.656C86.0732 171.328 87.8169 170.658 89.7011 169.649C92.8139 168.028 95.2782 165.87 97.0975 163.175C98.9169 160.481 100.463 157.224 101.731 153.412C101.817 153.149 101.796 152.918 101.666 152.72C101.533 152.522 101.36 152.392 101.14 152.324C100.92 152.259 100.7 152.27 100.484 152.356C100.264 152.443 100.109 152.619 100.023 152.882C99.6735 154.154 99.1907 155.48 98.5783 156.86" fill="#61A60E"/>
<path d="M184.024 164.555C184.024 165.409 184.651 165.982 185.451 165.982C186.251 165.982 186.82 165.413 186.82 164.555V148.93C186.82 142.885 191.212 138.551 196.915 138.551C202.618 138.551 206.152 142.485 206.152 148.473V164.555C206.152 165.409 206.779 165.982 207.579 165.982C208.379 165.982 208.948 165.413 208.948 164.555V147.961C208.948 141.004 204.672 135.986 197.315 135.986C192.012 135.986 188.762 138.666 186.82 142.089V137.87C186.82 137.016 186.193 136.443 185.394 136.443C184.594 136.443 184.024 137.07 184.024 137.87V164.559V164.555ZM165.777 164.555C165.777 165.409 166.403 165.982 167.203 165.982C168.003 165.982 168.572 165.355 168.572 164.555V153.833C168.572 144.481 174.103 139.862 180.263 139.289C181.175 139.232 181.744 138.547 181.744 137.751C181.744 136.897 181.117 136.212 180.263 136.212C176.156 136.212 171.08 139.293 168.572 144.938V137.866C168.572 137.012 167.945 136.439 167.146 136.439C166.346 136.439 165.777 137.066 165.777 137.866V164.555ZM146.844 163.817C140.114 163.817 134.869 158.229 134.869 151.214V151.099C134.869 144.254 139.83 138.608 146.732 138.608C153.635 138.608 158.708 144.196 158.708 151.211V151.326C158.708 158.171 153.747 163.817 146.848 163.817M146.729 166.439C155.397 166.439 161.727 159.367 161.727 151.214V151.099C161.727 142.942 155.455 135.986 146.844 135.986C138.234 135.986 131.846 143.058 131.846 151.211V151.326C131.846 159.483 138.118 166.439 146.729 166.439ZM115.252 163.759C109.206 163.759 103.392 158.74 103.392 151.272V151.157C103.392 143.742 109.206 138.67 115.252 138.67C121.297 138.67 126.658 143.573 126.658 151.214V151.33C126.658 159.144 121.582 163.763 115.252 163.763M100.765 164.555C100.765 165.355 101.392 165.982 102.192 165.982C102.992 165.982 103.561 165.355 103.561 164.555V159.479C105.957 163.129 109.722 166.436 115.536 166.436C122.551 166.436 129.681 160.675 129.681 151.211V151.095C129.681 141.627 122.551 135.982 115.536 135.982C109.776 135.982 106.068 139.347 103.561 143.166V125.318C103.561 124.464 102.934 123.891 102.134 123.891C101.334 123.891 100.765 124.46 100.765 125.318V164.552V164.555Z" fill="#61A60E"/>
<path d="M146.567 107.924C146.333 107.924 146.102 107.924 145.868 107.927C133.291 108.057 123.769 114.005 123.091 114.43V121.611C123.769 121.211 133.287 115.266 145.868 115.133C146.037 115.133 146.206 115.133 146.372 115.133C159.248 115.133 172.521 119.316 175.025 119.878C176.513 120.202 181.794 122.284 188.369 122.284C193.15 122.284 198.612 121.186 203.807 117.511V110.298C198.608 113.976 193.132 115.079 188.348 115.079C181.78 115.079 176.509 113.004 175.025 112.672C172.535 112.117 159.382 107.924 146.567 107.924Z" fill="#774D28"/>
<path d="M146.43 59.3445C146.243 59.3445 146.055 59.3445 145.864 59.3445C133.287 59.4922 123.765 65.4331 123.091 65.8438V112.64C123.765 112.218 133.287 106.299 145.864 106.162C146.098 106.158 146.333 106.158 146.57 106.158C159.382 106.158 172.532 110.305 175.021 110.889C176.509 111.213 181.787 113.296 188.362 113.296C193.139 113.296 198.608 112.197 203.803 108.529V61.7475C198.616 65.4115 193.154 66.5103 188.377 66.5103C181.791 66.5103 176.506 64.4207 175.021 64.0785C172.524 63.5309 159.284 59.3481 146.43 59.3481M187.4 104.573C180.544 104.573 174.982 96.4599 174.982 86.4551C174.982 76.4503 180.544 68.3297 187.4 68.3297C189.937 68.3297 191.651 68.8341 193.846 70.6175L195.467 68.4594L197.845 68.4702L198.266 81.9661H195.006C194.224 76.2017 191.958 72.0153 188.82 72.0153C183.931 72.0153 182.709 78.3093 182.709 86.1164C182.709 93.9236 184.003 100.239 188.82 100.239C192.249 100.239 194.109 96.6869 194.847 91.6358H198.482C197.564 99.0719 194.361 104.57 187.397 104.57M145.176 99.9438H149.597C152.029 99.76 152.756 96.8634 153.315 95.1701C156.218 86.3074 158.776 77.2537 161.464 68.3369H164.908C165.467 70.2031 169.664 84.7294 173.951 98.6396C174.373 99.9041 175.162 99.9329 176.686 99.9438V103.817H163.871V99.9438H165.762C166.058 99.9438 166.389 99.8213 166.364 99.4178L164.815 93.6029H157.497C157.317 94.237 156.55 96.8022 156.55 97.656C156.55 99.4286 157.18 99.9401 159.937 99.9401V103.813H132.534V99.9401H134.321C134.353 99.9365 134.393 99.9329 134.436 99.9329C134.498 99.9329 134.573 99.9365 134.66 99.9401C134.743 99.9438 134.836 99.9474 134.934 99.9474C135.222 99.9474 135.56 99.9149 135.859 99.742C136.295 99.4574 136.13 98.7837 136.162 98.6035V72.7467C136.162 72.7467 134.811 72.7467 133.954 73.1178C133.111 73.4924 132.469 74.4508 131.543 76.8502C130.668 79.2352 130.668 82.874 130.668 82.874H127.422L128.272 69.025H151.29L152.129 82.874H148.891C148.891 82.874 148.891 79.2316 147.99 76.8502C147.082 74.4544 146.455 73.496 145.594 73.1178C144.737 72.7467 143.371 72.7467 143.371 72.7467V98.6504C143.371 99.8141 144.106 99.9401 145.173 99.9401M188.15 111.21C186.593 111.21 185.311 109.959 185.311 108.403C185.311 106.847 186.59 105.575 188.15 105.575C189.71 105.575 190.978 106.861 190.978 108.403C190.978 109.945 189.695 111.21 188.15 111.21ZM188.15 106.245C186.885 106.245 186.078 107.164 186.078 108.399C186.078 109.635 186.885 110.543 188.15 110.543C189.338 110.543 190.214 109.675 190.214 108.399C190.214 107.124 189.342 106.245 188.15 106.245ZM186.982 109.945V106.908H188.452C189.256 106.908 189.652 107.106 189.652 107.827C189.652 108.403 189.338 108.616 188.791 108.637L189.537 109.949H188.791L188.121 108.637H187.638V109.949H186.982V109.945ZM188.359 107.337H187.638V108.19H188.513C188.82 108.19 189.043 108.111 189.043 107.736C189.043 107.362 188.632 107.337 188.359 107.337Z" fill="#774D28"/>
<path d="M161.179 76.9978L158.167 91.2791H164.047L161.179 76.9978Z" fill="#774D28"/>
<path d="M146.47 50.3628C146.268 50.3628 146.07 50.3628 145.868 50.3628C133.291 50.5141 123.769 56.4622 123.095 56.8838V64.064C123.769 63.6461 133.291 57.7088 145.868 57.5791C146.088 57.5791 146.311 57.5791 146.531 57.5791C159.357 57.5791 172.535 61.7655 175.028 62.3167C176.516 62.6409 181.805 64.7305 188.395 64.7305C193.168 64.7305 198.623 63.6317 203.811 59.9677V52.7514C198.623 56.4226 193.161 57.5214 188.387 57.5214C181.802 57.5214 176.516 55.4318 175.028 55.1112C172.532 54.5492 159.313 50.3628 146.473 50.3628" fill="#774D28"/>
<path d="M143.339 193.215V194.876H130.499V176.718H142.95V178.379H132.419V184.839H141.811V186.474H132.419V193.219H143.339V193.215Z" fill="black"/>
<path d="M144.845 188.052C144.845 183.981 147.803 181.124 151.874 181.124C154.183 181.124 156.129 182.032 157.217 183.823L155.84 184.756C154.907 183.38 153.455 182.731 151.87 182.731C148.887 182.731 146.707 184.86 146.707 188.049C146.707 191.237 148.887 193.366 151.87 193.366C153.452 193.366 154.904 192.743 155.84 191.37L157.217 192.304C156.129 194.069 154.183 195.002 151.874 195.002C147.799 195.002 144.845 192.123 144.845 188.049V188.052Z" fill="black"/>
<path d="M158.175 188.052C158.175 184.006 161.133 181.124 165.128 181.124C169.124 181.124 172.056 184.003 172.056 188.052C172.056 192.102 169.124 195.006 165.128 195.006C161.133 195.006 158.175 192.098 158.175 188.052ZM170.186 188.052C170.186 184.86 168.032 182.735 165.128 182.735C162.224 182.735 160.045 184.864 160.045 188.052C160.045 191.241 162.224 193.37 165.128 193.37C168.032 193.37 170.186 191.244 170.186 188.052Z" fill="black"/>
<path d="M187.231 175.626V194.876H185.465V192.177C184.349 194.018 182.457 195.006 180.198 195.006C176.307 195.006 173.4 192.177 173.4 188.052C173.4 183.927 176.304 181.124 180.198 181.124C182.378 181.124 184.244 182.057 185.386 183.823V175.626H187.227H187.231ZM185.415 188.052C185.415 184.86 183.235 182.735 180.357 182.735C177.478 182.735 175.273 184.864 175.273 188.052C175.273 191.241 177.453 193.37 180.357 193.37C183.261 193.37 185.415 191.244 185.415 188.052Z" fill="black"/>
<path d="M203.209 188.621H191.796C192.005 191.475 194.181 193.37 197.167 193.37C198.828 193.37 200.305 192.772 201.343 191.579L202.38 192.772C201.163 194.224 199.268 195.002 197.113 195.002C192.858 195.002 189.955 192.095 189.955 188.049C189.955 184.003 192.783 181.121 196.623 181.121C200.464 181.121 203.238 183.949 203.238 188.049C203.238 188.204 203.213 188.413 203.213 188.618L203.209 188.621ZM191.792 187.249H201.469C201.235 184.576 199.289 182.709 196.62 182.709C193.95 182.709 192.026 184.576 191.796 187.249H191.792Z" fill="black"/>
<path d="M204.063 193.32L204.892 191.868C205.98 192.725 207.824 193.399 209.741 193.399C212.335 193.399 213.398 192.516 213.398 191.169C213.398 187.613 204.553 190.416 204.553 185.019C204.553 182.789 206.473 181.128 209.95 181.128C211.715 181.128 213.632 181.622 214.774 182.4L213.97 183.877C212.778 183.048 211.351 182.71 209.95 182.71C207.485 182.71 206.394 183.668 206.394 184.965C206.394 188.65 215.239 185.873 215.239 191.115C215.239 193.474 213.163 195.006 209.607 195.006C207.352 195.006 205.173 194.278 204.056 193.32H204.063Z" fill="black"/>
<path d="M217.188 176.923C217.188 176.225 217.786 175.626 218.535 175.626C219.285 175.626 219.883 176.196 219.883 176.898C219.883 177.651 219.313 178.246 218.535 178.246C217.757 178.246 217.188 177.648 217.188 176.923ZM217.602 181.229H219.443V194.876H217.602V181.229Z" fill="black"/>
<path d="M236.178 181.229V193.215C236.178 197.909 233.868 200.039 229.354 200.039C226.865 200.039 224.425 199.286 222.999 197.938L223.932 196.537C225.229 197.704 227.2 198.403 229.304 198.403C232.755 198.403 234.337 196.821 234.337 193.449V191.709C233.195 193.449 231.249 194.354 229.019 194.354C225.128 194.354 222.17 191.63 222.17 187.714C222.17 183.798 225.128 181.124 229.019 181.124C231.303 181.124 233.274 182.057 234.416 183.848V181.229H236.181H236.178ZM234.387 187.714C234.387 184.756 232.207 182.731 229.199 182.731C226.191 182.731 224.036 184.756 224.036 187.714C224.036 190.672 226.191 192.721 229.199 192.721C232.207 192.721 234.387 190.672 234.387 187.714Z" fill="black"/>
<path d="M252.855 186.964V194.876H251.014V187.144C251.014 184.266 249.508 182.785 246.914 182.785C243.981 182.785 242.14 184.601 242.14 187.714V194.872H240.299V181.225H242.065V183.74C243.052 182.079 244.893 181.121 247.253 181.121C250.574 181.121 252.855 183.041 252.855 186.957V186.964Z" fill="black"/>
</g>
<defs>
<clipPath id="clip0_137_4621">
<rect width="263" height="263" fill="white"/>
</clipPath>
</defs>
</svg>
