<svg width="267" height="267" viewBox="0 0 267 267" fill="none" xmlns="http://www.w3.org/2000/svg">
<g clip-path="url(#clip0_137_4609)">
<path d="M96.665 211.896C122.454 205.243 132.458 187.05 133.5 185.646C136.836 180.207 139.038 174.582 138.401 174.286C138.01 174.238 137.472 175.752 131.748 184.263C129.049 188.367 116.661 205.437 91.6579 209.826C79.577 212.046 65.0201 210.096 52.3613 202.701C39.6587 195.518 29.403 182.716 25.2517 168.035C20.9029 153.386 22.8706 137.392 29.3371 124.766C35.8585 112.111 46.363 102.967 56.7504 98.1832C78.0775 88.4249 94.9497 93.8746 96.3724 93.9076C98.6474 94.3538 100.721 94.9317 102.173 95.195C100.941 95.1548 99.8178 95.1365 98.7974 95.1292C96.5663 95.1036 95.0118 95.0085 94.8034 95.2133C93.9768 96.0363 92.8173 97.6785 94.8034 97.9126C95.3008 97.9711 96.9686 97.9967 99.1997 97.9967C100.315 97.9967 104.916 97.9418 104.916 97.9418H105.172L105.205 97.9382H105.213C105.893 97.5907 106.529 96.5593 106.478 95.751L106.471 95.7363L105.546 94.2221C102.649 89.4746 99.0973 85.2355 98.4243 85.305C97.4441 85.2941 96.7528 85.4148 97.5063 86.2121C97.616 86.0695 100.315 89.8002 102.788 94.4342C101.625 94.0136 96.5846 92.6859 96.2773 92.6091C93.5744 91.9252 77.8397 87.2179 57.1125 95.8314C46.0009 100.678 34.2712 110.11 27.1938 123.866C20.0434 137.458 18.0975 155.032 23.2656 170.851C28.2691 186.703 40.1488 200.119 54.2998 207.086C68.4106 214.368 84.1892 214.979 96.6541 211.9" fill="#61A60E"/>
<path d="M62.35 152.267C62.35 151.4 62.7523 150.72 63.5497 150.23C64.219 149.875 64.9176 149.729 65.6527 149.795C66.3879 149.861 67.0646 150.095 67.69 150.497C68.3118 150.852 68.8787 151.32 69.3944 151.898C69.9065 152.476 70.3636 153.097 70.7623 153.767C70.36 153.99 69.837 154.213 69.1932 154.432C68.5458 154.656 67.8802 154.813 67.1926 154.901C66.5049 154.988 65.8246 154.999 65.1553 154.934C64.4896 154.868 63.93 154.677 63.4875 154.367C62.7304 153.833 62.3536 153.13 62.3536 152.264M87.982 193.283C87.0457 193.147 86.1569 192.749 85.312 192.083C84.4671 191.414 83.721 190.624 83.0772 189.713C82.4298 188.802 81.9324 187.968 81.574 187.211C80.7291 185.386 80.0707 183.528 79.6062 181.637C79.1381 179.746 78.7284 177.822 78.37 175.862C78.0591 174.081 77.7701 172.27 77.5031 170.423C77.2361 168.576 76.9253 166.751 76.5668 164.948C76.212 163.145 75.7658 161.367 75.2318 159.608C74.6978 157.849 74.0065 156.148 73.1617 154.502C75.0307 153.346 76.7204 151.989 78.2347 150.431C79.7489 148.873 81.0144 147.205 82.0385 145.424C84.1306 141.865 85.5205 138.047 86.2117 133.976C86.903 129.905 86.914 125.845 86.2447 121.793C85.9777 120.059 85.4656 118.38 84.7085 116.753C83.9514 115.129 82.9821 113.75 81.8044 112.616C80.6267 111.482 79.2441 110.67 77.6677 110.18C76.0877 109.69 74.2955 109.69 72.2948 110.18C70.5136 110.626 68.9226 111.347 67.5217 112.349C66.1209 113.351 64.8627 114.54 63.7508 115.919C62.6389 117.297 61.6477 118.812 60.7809 120.458C59.9141 122.103 59.146 123.771 58.4803 125.465C58.3889 123.018 58.2243 120.582 57.9792 118.157C57.7342 115.732 57.4123 113.296 57.01 110.849C56.9661 110.714 56.7759 110.447 56.4431 110.048C56.1102 109.646 55.6421 109.247 55.0422 108.849C54.4424 108.446 53.6963 108.102 52.8075 107.813C51.915 107.525 50.8946 107.404 49.7388 107.448C49.3365 107.492 49.0585 107.693 48.9049 108.048C48.7476 108.402 48.7184 108.739 48.8061 109.05C49.6949 113.677 50.2728 118.307 50.5398 122.934C50.8068 127.561 50.8836 132.202 50.7739 136.851C50.6642 141.503 50.452 146.163 50.1411 150.833C49.8302 155.508 49.5742 160.167 49.3731 164.816C49.1719 169.469 49.1061 174.117 49.1719 178.766C49.2377 183.418 49.5815 188.056 50.207 192.683C50.2948 193.261 50.7958 193.872 51.7102 194.519C52.6209 195.163 53.6012 195.664 54.6472 196.022C55.6933 196.377 56.604 196.479 57.3831 196.322C58.1621 196.165 58.462 195.554 58.2828 194.486C57.4379 189.146 56.9917 183.806 56.9478 178.466C56.9039 173.126 57.0136 167.775 57.2806 162.413C57.5476 157.051 57.8476 151.689 58.1804 146.327C58.5132 140.965 58.6595 135.614 58.6156 130.274C60.4408 125.425 62.2403 121.763 64.0215 119.294C65.8027 116.826 67.4705 115.257 69.0286 114.591C70.5868 113.922 72.0315 113.991 73.3665 114.792C74.7015 115.593 75.8573 116.807 76.8375 118.431C77.814 120.055 78.5821 121.935 79.1417 124.071C79.6977 126.207 80.0195 128.277 80.111 130.278C80.1549 131.972 80.0451 133.928 79.7781 136.152C79.5111 138.38 79.043 140.581 78.3773 142.761C77.708 144.941 76.8631 146.956 75.839 148.8C74.8149 150.647 73.6152 152.015 72.2363 152.907C71.567 151.839 70.7879 150.848 69.8991 149.937C69.0067 149.027 67.9168 148.416 66.6293 148.101C65.159 147.746 63.9154 147.845 62.8913 148.401C61.8672 148.957 61.1211 149.714 60.6529 150.672C60.1847 151.631 60.0275 152.64 60.1847 153.708C60.342 154.776 60.8541 155.632 61.7209 156.279C62.5877 156.927 63.8459 157.249 65.4918 157.249C67.1377 157.249 69.2079 156.627 71.6986 155.38C72.368 156.894 72.9203 158.361 73.3665 159.787C74.343 162.724 75.0343 165.694 75.4366 168.697C75.839 171.7 76.3254 174.713 76.907 177.742C77.1301 178.945 77.3971 180.211 77.708 181.546C78.0189 182.881 78.3992 184.205 78.8418 185.518C79.2844 186.831 79.833 188.089 80.4767 189.289C81.1204 190.488 81.8885 191.56 82.781 192.493C83.3589 193.114 84.0501 193.627 84.8511 194.029C85.6521 194.431 86.4751 194.698 87.32 194.83C88.1649 194.965 88.9988 194.929 89.8217 194.731C90.6447 194.53 91.3908 194.117 92.0565 193.495C92.2796 193.316 92.3783 193.115 92.3564 192.895C92.3344 192.672 92.2467 192.482 92.0894 192.328C91.9321 192.171 91.7346 192.072 91.4896 192.028C91.2445 191.984 91.0104 192.05 90.7873 192.229C89.851 193.074 88.9183 193.429 87.982 193.297" fill="#61A60E"/>
<path d="M99.9972 149.817C99.4632 151.152 98.7499 152.377 97.8612 153.489C96.9687 154.601 95.9263 155.504 94.723 156.192C93.5233 156.883 92.2322 157.161 90.8533 157.026C91.2995 155.823 91.8299 154.645 92.4553 153.489C93.0771 152.333 93.7903 151.265 94.5913 150.285C95.3923 149.308 96.3031 148.46 97.3272 147.747C98.3513 147.037 99.5071 146.525 100.798 146.211C100.798 147.279 100.531 148.482 99.9972 149.813M109.276 159.261C108.651 160.661 107.908 162.029 107.042 163.364C106.175 164.699 105.173 165.969 104.039 167.168C102.905 168.368 101.669 169.37 100.334 170.171C98.1977 171.506 96.3177 172.139 94.6937 172.073C93.0661 172.007 91.8006 171.429 90.8899 170.336C89.9755 169.246 89.4562 167.699 89.3208 165.698C89.1892 163.697 89.5 161.382 90.2572 158.756C92.0823 159.067 93.772 158.833 95.3302 158.054C96.8883 157.275 98.2452 156.229 99.401 154.915C100.557 153.602 101.457 152.125 102.104 150.475C102.748 148.829 103.04 147.271 102.971 145.801C102.905 144.334 102.448 143.098 101.603 142.096C100.758 141.094 99.4449 140.549 97.6637 140.461C96.3287 140.417 94.8949 140.706 93.3587 141.328C91.8226 141.953 90.3559 142.974 88.9514 144.4C87.5506 145.823 86.2814 147.659 85.1476 149.908C84.0137 152.154 83.1798 154.835 82.6458 157.951C82.291 160.179 82.1996 162.435 82.3788 164.725C82.5544 167.018 83.3554 169.121 84.7818 171.034C85.4036 171.927 86.1936 172.669 87.1519 173.269C88.1065 173.869 89.244 174.271 90.5571 174.469C91.8701 174.67 93.3368 174.604 94.9607 174.267C96.5847 173.935 98.3549 173.254 100.268 172.23C103.428 170.584 105.93 168.393 107.777 165.658C109.624 162.922 111.193 159.615 112.48 155.746C112.568 155.479 112.546 155.245 112.414 155.043C112.279 154.842 112.104 154.711 111.88 154.641C111.657 154.575 111.434 154.586 111.215 154.674C110.992 154.762 110.834 154.941 110.747 155.208C110.392 156.499 109.902 157.845 109.28 159.246" fill="#61A60E"/>
<path d="M196.029 167.058C196.029 167.925 196.666 168.507 197.478 168.507C198.29 168.507 198.868 167.929 198.868 167.058V151.196C198.868 145.058 203.326 140.658 209.116 140.658C214.906 140.658 218.494 144.652 218.494 150.731V167.058C218.494 167.925 219.13 168.507 219.942 168.507C220.754 168.507 221.332 167.929 221.332 167.058V150.212C221.332 143.149 216.991 138.054 209.522 138.054C204.138 138.054 200.839 140.775 198.868 144.25V139.967C198.868 139.1 198.231 138.519 197.419 138.519C196.607 138.519 196.029 139.155 196.029 139.967V167.062V167.058ZM177.5 167.058C177.5 167.925 178.137 168.507 178.949 168.507C179.761 168.507 180.338 167.87 180.338 167.058V156.174C180.338 146.679 185.953 141.99 192.207 141.408C193.133 141.35 193.71 140.655 193.71 139.846C193.71 138.98 193.074 138.285 192.207 138.285C188.038 138.285 182.884 141.412 180.338 147.143V139.963C180.338 139.097 179.702 138.515 178.89 138.515C178.078 138.515 177.5 139.151 177.5 139.963V167.058ZM158.28 166.309C151.448 166.309 146.122 160.636 146.122 153.515V153.398C146.122 146.448 151.159 140.717 158.166 140.717C165.174 140.717 170.324 146.39 170.324 153.511V153.628C170.324 160.577 165.288 166.309 158.284 166.309M158.166 168.971C166.967 168.971 173.393 161.792 173.393 153.515V153.398C173.393 145.117 167.025 138.054 158.284 138.054C149.542 138.054 143.057 145.234 143.057 153.511V153.628C143.057 161.909 149.425 168.971 158.166 168.971ZM126.207 166.25C120.07 166.25 114.166 161.155 114.166 153.573V153.456C114.166 145.929 120.07 140.779 126.207 140.779C132.344 140.779 137.787 145.757 137.787 153.515V153.632C137.787 161.565 132.633 166.254 126.207 166.254M111.504 167.058C111.504 167.87 112.14 168.507 112.952 168.507C113.764 168.507 114.342 167.87 114.342 167.058V161.905C116.774 165.61 120.596 168.968 126.5 168.968C133.621 168.968 140.859 163.119 140.859 153.511V153.394C140.859 143.782 133.621 138.051 126.5 138.051C120.651 138.051 116.888 141.467 114.342 145.344V127.224C114.342 126.357 113.706 125.776 112.894 125.776C112.082 125.776 111.504 126.354 111.504 127.224V167.055V167.058Z" fill="#61A60E"/>
<path d="M157.998 109.565C157.761 109.565 157.526 109.565 157.289 109.569C144.52 109.701 134.853 115.739 134.166 116.171V123.46C134.853 123.054 144.517 117.019 157.289 116.884C157.461 116.884 157.633 116.884 157.801 116.884C170.873 116.884 184.347 121.131 186.889 121.701C188.4 122.03 193.762 124.144 200.437 124.144C205.29 124.144 210.835 123.029 216.109 119.298V111.976C210.831 115.71 205.272 116.829 200.415 116.829C193.747 116.829 188.396 114.723 186.889 114.386C184.362 113.823 171.008 109.565 157.998 109.565Z" fill="#774D28"/>
<path d="M157.863 60.2471C157.673 60.2471 157.483 60.2471 157.289 60.2471C144.52 60.397 134.853 66.4283 134.169 66.8453V114.353C134.853 113.925 144.52 107.916 157.289 107.777C157.526 107.773 157.764 107.773 158.006 107.773C171.012 107.773 184.362 111.983 186.889 112.575C188.4 112.905 193.758 115.019 200.433 115.019C205.283 115.019 210.835 113.903 216.109 110.18V62.6866C210.842 66.4064 205.298 67.5219 200.448 67.5219C193.762 67.5219 188.396 65.4005 186.889 65.0531C184.354 64.4971 170.913 60.2507 157.863 60.2507M199.456 106.164C192.496 106.164 186.849 97.927 186.849 87.77C186.849 77.613 192.496 69.369 199.456 69.369C202.031 69.369 203.772 69.881 206 71.6915L207.646 69.5006L210.06 69.5116L210.488 83.2127H207.177C206.384 77.3607 204.083 73.1106 200.898 73.1106C195.934 73.1106 194.694 79.5003 194.694 87.4262C194.694 95.3521 196.007 101.764 200.898 101.764C204.379 101.764 206.267 98.1574 207.017 93.0295H210.707C209.774 100.579 206.523 106.16 199.453 106.16M156.586 101.464H161.074C163.543 101.277 164.282 98.3366 164.849 96.6176C167.797 87.6201 170.394 78.4287 173.122 69.3763H176.619C177.186 71.2709 181.447 86.0181 185.799 100.14C186.227 101.424 187.028 101.453 188.575 101.464V105.396H175.565V101.464H177.486C177.786 101.464 178.122 101.339 178.096 100.93L176.524 95.0266H169.095C168.912 95.6703 168.133 98.2745 168.133 99.1413C168.133 100.941 168.773 101.46 171.571 101.46V105.392H143.752V101.46H145.566C145.599 101.457 145.639 101.453 145.683 101.453C145.746 101.453 145.822 101.457 145.91 101.46C145.994 101.464 146.089 101.467 146.188 101.467C146.481 101.467 146.825 101.435 147.128 101.259C147.571 100.97 147.402 100.286 147.435 100.103V73.8531C147.435 73.8531 146.064 73.8531 145.193 74.2298C144.337 74.6102 143.686 75.5831 142.746 78.019C141.858 80.4403 141.858 84.1344 141.858 84.1344H138.562L139.425 70.0749H162.793L163.646 84.1344H160.357C160.357 84.1344 160.357 80.4367 159.443 78.019C158.521 75.5868 157.885 74.6139 157.011 74.2298C156.14 73.8531 154.754 73.8531 154.754 73.8531V100.151C154.754 101.332 155.5 101.46 156.583 101.46M200.214 112.901C198.633 112.901 197.331 111.632 197.331 110.052C197.331 108.472 198.63 107.181 200.214 107.181C201.797 107.181 203.085 108.486 203.085 110.052C203.085 111.617 201.783 112.901 200.214 112.901ZM200.214 107.861C198.93 107.861 198.11 108.794 198.11 110.048C198.11 111.303 198.93 112.224 200.214 112.224C201.421 112.224 202.309 111.343 202.309 110.048C202.309 108.753 201.424 107.861 200.214 107.861ZM199.028 111.617V108.534H200.521C201.336 108.534 201.739 108.735 201.739 109.467C201.739 110.052 201.421 110.268 200.865 110.289L201.622 111.621H200.865L200.184 110.289H199.694V111.621H199.028V111.617ZM200.426 108.969H199.694V109.836H200.583C200.894 109.836 201.121 109.755 201.121 109.375C201.121 108.995 200.704 108.969 200.426 108.969Z" fill="#774D28"/>
<path d="M172.833 78.1689L169.775 92.6674H175.744L172.833 78.1689Z" fill="#774D28"/>
<path d="M157.9 51.1289C157.695 51.1289 157.494 51.1289 157.289 51.1289C144.52 51.2825 134.853 57.3211 134.169 57.749V65.0385C134.853 64.6142 144.52 58.5866 157.289 58.455C157.512 58.455 157.739 58.455 157.962 58.455C170.983 58.455 184.362 62.705 186.893 63.2646C188.403 63.5938 193.773 65.7152 200.462 65.7152C205.308 65.7152 210.846 64.5996 216.113 60.8799V53.5539C210.846 57.2809 205.301 58.3964 200.455 58.3964C193.769 58.3964 188.403 56.2751 186.893 55.9495C184.358 55.379 170.939 51.1289 157.903 51.1289" fill="#774D28"/>
<path d="M159.066 199.435L153.975 192.273C153.401 192.335 152.83 192.368 152.194 192.368H146.21V199.435H143.854V177.16H152.19C157.856 177.16 161.29 180.024 161.29 184.797C161.29 188.297 159.443 190.748 156.199 191.798L161.641 199.435H159.063H159.066ZM158.938 184.797C158.938 181.231 156.583 179.197 152.128 179.197H146.21V190.368H152.128C156.583 190.368 158.938 188.297 158.938 184.797Z" fill="black"/>
<path d="M179.684 191.765H165.683C165.939 195.265 168.609 197.587 172.27 197.587C174.307 197.587 176.121 196.856 177.394 195.393L178.667 196.856C177.171 198.637 174.848 199.592 172.208 199.592C166.988 199.592 163.426 196.029 163.426 191.062C163.426 186.095 166.893 182.566 171.604 182.566C176.315 182.566 179.72 186.033 179.72 191.062C179.72 191.253 179.687 191.509 179.687 191.761L179.684 191.765ZM165.683 190.078H177.551C177.266 186.801 174.878 184.508 171.601 184.508C168.323 184.508 165.968 186.798 165.683 190.078Z" fill="black"/>
<path d="M181.37 191.066C181.37 186.07 184.998 182.569 189.994 182.569C192.825 182.569 195.214 183.685 196.549 185.879L194.863 187.024C193.718 185.338 191.936 184.541 189.994 184.541C186.333 184.541 183.663 187.149 183.663 191.066C183.663 194.983 186.337 197.591 189.994 197.591C191.936 197.591 193.718 196.826 194.863 195.14L196.549 196.285C195.214 198.45 192.825 199.595 189.994 199.595C184.998 199.595 181.37 196.062 181.37 191.066Z" fill="black"/>
<path d="M213.508 182.698L205.14 201.442C203.739 204.72 201.958 205.769 199.57 205.769C198.012 205.769 196.516 205.261 195.495 204.24L196.545 202.554C197.371 203.381 198.392 203.827 199.599 203.827C201.095 203.827 202.112 203.128 203.066 201.025L203.798 199.401L196.318 182.694H198.674L204.975 196.918L211.277 182.694H213.505L213.508 182.698Z" fill="black"/>
<path d="M213.252 191.066C213.252 186.07 216.881 182.569 221.877 182.569C224.708 182.569 227.096 183.685 228.431 185.879L226.745 187.024C225.6 185.338 223.819 184.541 221.877 184.541C218.216 184.541 215.546 187.149 215.546 191.066C215.546 194.983 218.219 197.591 221.877 197.591C223.819 197.591 225.6 196.826 226.745 195.14L228.431 196.285C227.096 198.45 224.708 199.595 221.877 199.595C216.881 199.595 213.252 196.062 213.252 191.066Z" fill="black"/>
<path d="M231.328 175.821H233.589V199.434H231.328V175.821Z" fill="black"/>
<path d="M253.189 191.765H239.188C239.444 195.265 242.114 197.587 245.775 197.587C247.813 197.587 249.627 196.856 250.9 195.393L252.172 196.856C250.676 198.637 248.354 199.592 245.713 199.592C240.494 199.592 236.931 196.029 236.931 191.062C236.931 186.095 240.399 182.566 245.11 182.566C249.821 182.566 253.226 186.033 253.226 191.062C253.226 191.253 253.193 191.509 253.193 191.761L253.189 191.765ZM239.188 190.078H251.057C250.772 186.801 248.383 184.508 245.106 184.508C241.829 184.508 239.473 186.798 239.188 190.078Z" fill="black"/>
</g>
<defs>
<clipPath id="clip0_137_4609">
<rect width="267" height="267" fill="white"/>
</clipPath>
</defs>
</svg>
