<svg width="105" height="82" viewBox="0 0 105 82" fill="none" xmlns="http://www.w3.org/2000/svg">
<g clip-path="url(#clip0_137_4703)">
<path d="M3.31 76.9899L0 63.9299H1.78L3.33 70.5399C3.72 72.1699 4.07 73.7999 4.3 75.0599H4.34C4.55 73.7599 4.96 72.2099 5.41 70.5299L7.15 63.9399H8.91L10.5 70.5699C10.87 72.1199 11.22 73.6699 11.41 75.0499H11.45C11.72 73.6199 12.09 72.1599 12.5 70.5299L14.22 63.9399H15.94L12.24 76.9999H10.48L8.83 70.1999C8.42 68.5299 8.15 67.2499 7.98 65.9399H7.94C7.71 67.2399 7.42 68.5199 6.93 70.1999L5.07 76.9999H3.31V76.9899Z" fill="#231F20"/>
<path d="M22.07 76.9899L21.93 75.8099H21.87C21.35 76.5499 20.34 77.2099 19 77.2099C17.1 77.2099 16.13 75.8699 16.13 74.5199C16.13 72.2499 18.14 71.0099 21.77 71.0299V70.8399C21.77 70.0699 21.56 68.6699 19.64 68.6699C18.77 68.6699 17.86 68.9399 17.2 69.3699L16.81 68.2499C17.59 67.7499 18.71 67.4199 19.89 67.4199C22.76 67.4199 23.46 69.3799 23.46 71.2599V74.7699C23.46 75.5799 23.5 76.3799 23.62 77.0199H22.07V76.9899ZM21.82 72.1999C19.96 72.1599 17.85 72.4899 17.85 74.3099C17.85 75.4099 18.59 75.9399 19.46 75.9399C20.68 75.9399 21.46 75.1599 21.73 74.3699C21.79 74.1999 21.83 73.9999 21.83 73.8299V72.1999H21.82Z" fill="#231F20"/>
<path d="M28.2 64.9199V67.6099H30.64V68.9099H28.2V73.9699C28.2 75.1299 28.53 75.7899 29.48 75.7899C29.93 75.7899 30.25 75.7299 30.47 75.6699L30.55 76.9499C30.22 77.0899 29.7 77.1799 29.04 77.1799C28.25 77.1799 27.61 76.9299 27.2 76.4599C26.72 75.9599 26.54 75.1199 26.54 74.0199V68.8999H25.09V67.5999H26.54V65.3499L28.21 64.8999L28.2 64.9199Z" fill="#231F20"/>
<path d="M33.39 72.6099C33.43 74.9199 34.9 75.8699 36.61 75.8699C37.83 75.8699 38.57 75.6599 39.21 75.3899L39.5 76.6099C38.9 76.8799 37.87 77.1899 36.38 77.1899C33.49 77.1899 31.77 75.2899 31.77 72.4599C31.77 69.6299 33.44 67.3999 36.17 67.3999C39.23 67.3999 40.05 70.0899 40.05 71.8199C40.05 72.1699 40.01 72.4399 39.99 72.6099H33.4H33.39ZM38.39 71.3899C38.41 70.3099 37.94 68.6199 36.03 68.6199C34.31 68.6199 33.55 70.2099 33.41 71.3899H38.39Z" fill="#231F20"/>
<path d="M42.1499 70.5399C42.1499 69.4399 42.1299 68.4899 42.0699 67.6099H43.5599L43.6199 69.4499H43.6999C44.1299 68.1899 45.1499 67.3999 46.2999 67.3999C46.4899 67.3999 46.6299 67.4199 46.7799 67.4599V69.0699C46.6099 69.0299 46.4299 69.0099 46.1999 69.0099C44.9999 69.0099 44.1499 69.9199 43.9099 71.1999C43.8699 71.4299 43.8299 71.6999 43.8299 71.9899V76.9899H42.1399V70.5399H42.1499Z" fill="#231F20"/>
<path d="M52.42 74.94C53.18 75.41 54.28 75.79 55.44 75.79C57.16 75.79 58.17 74.88 58.17 73.56C58.17 72.34 57.47 71.64 55.71 70.96C53.58 70.2 52.26 69.1 52.26 67.26C52.26 65.23 53.95 63.71 56.48 63.71C57.82 63.71 58.79 64.02 59.37 64.35L58.91 65.73C58.48 65.5 57.61 65.11 56.43 65.11C54.65 65.11 53.97 66.18 53.97 67.07C53.97 68.29 54.76 68.89 56.57 69.59C58.78 70.44 59.9 71.51 59.9 73.43C59.9 75.45 58.41 77.19 55.33 77.19C54.07 77.19 52.69 76.82 52 76.36L52.43 74.95L52.42 74.94Z" fill="#231F20"/>
<path d="M67.4 76.9899L67.26 75.8099H67.2C66.68 76.5499 65.67 77.2099 64.33 77.2099C62.43 77.2099 61.46 75.8699 61.46 74.5199C61.46 72.2499 63.47 71.0099 67.1 71.0299V70.8399C67.1 70.0699 66.89 68.6699 64.97 68.6699C64.1 68.6699 63.19 68.9399 62.53 69.3699L62.14 68.2499C62.92 67.7499 64.04 67.4199 65.22 67.4199C68.09 67.4199 68.79 69.3799 68.79 71.2599V74.7699C68.79 75.5799 68.83 76.3799 68.95 77.0199H67.4V76.9899ZM67.15 72.1999C65.29 72.1599 63.18 72.4899 63.18 74.3099C63.18 75.4099 63.92 75.9399 64.79 75.9399C66.01 75.9399 66.79 75.1599 67.06 74.3699C67.12 74.1999 67.16 73.9999 67.16 73.8299V72.1999H67.15Z" fill="#231F20"/>
<path d="M72.05 67.6099L73.89 72.8799C74.2 73.7299 74.45 74.5099 74.65 75.2799H74.71C74.92 74.4999 75.19 73.7299 75.5 72.8799L77.32 67.6099H79.1L75.42 76.9899H73.79L70.22 67.6099H72.04H72.05Z" fill="#231F20"/>
<path d="M82.61 64.9799C82.63 65.5599 82.2 66.0299 81.53 66.0299C80.93 66.0299 80.5 65.5599 80.5 64.9799C80.5 64.3999 80.95 63.9099 81.57 63.9099C82.19 63.9099 82.62 64.3699 82.62 64.9799H82.61ZM80.71 76.9899V67.6099H82.42V76.9899H80.71Z" fill="#231F20"/>
<path d="M85.25 70.1499C85.25 69.1799 85.23 68.3899 85.17 67.6099H86.68L86.78 69.1599H86.82C87.28 68.2699 88.37 67.3999 89.92 67.3999C91.22 67.3999 93.23 68.1699 93.23 71.3899V76.9899H91.52V71.5799C91.52 70.0699 90.96 68.8099 89.35 68.8099C88.23 68.8099 87.35 69.5999 87.06 70.5499C86.98 70.7599 86.94 71.0499 86.94 71.3399V76.9799H85.23V70.1399L85.25 70.1499Z" fill="#231F20"/>
<path d="M104.08 67.6099C104.04 68.2899 104 69.0399 104 70.1899V75.6399C104 77.7899 103.57 79.1099 102.66 79.9199C101.75 80.7699 100.43 81.0399 99.2499 81.0399C98.0699 81.0399 96.8899 80.7699 96.1299 80.2599L96.5599 78.9599C97.1799 79.3499 98.1499 79.6999 99.3099 79.6999C101.05 79.6999 102.33 78.7899 102.33 76.4299V75.3799H102.29C101.77 76.2499 100.76 76.9499 99.3099 76.9499C96.9799 76.9499 95.3199 74.9699 95.3199 72.3799C95.3199 69.1999 97.3899 67.3999 99.5399 67.3999C101.17 67.3999 102.06 68.2499 102.47 69.0299H102.51L102.59 67.6199H104.08V67.6099ZM102.32 71.3099C102.32 71.0199 102.3 70.7699 102.22 70.5299C101.91 69.5399 101.08 68.7299 99.8399 68.7299C98.2099 68.7299 97.0499 70.1099 97.0499 72.2799C97.0499 74.1199 97.9799 75.6499 99.8199 75.6499C100.87 75.6499 101.82 74.9899 102.18 73.9099C102.28 73.6199 102.32 73.2899 102.32 72.9999V71.3099Z" fill="#231F20"/>
<path d="M53.71 53.92C43.88 53.92 35.88 45.92 35.88 36.09C35.41 22.37 50.02 3.27 53.18 0.21C53.47 -0.07 53.93 -0.07 54.22 0.21C57.35 3.23 71.83 22.16 71.52 35.9L70.77 35.88L71.52 35.92C71.52 35.98 71.52 36.03 71.52 36.09C71.52 45.92 63.52 53.92 53.69 53.92H53.71ZM53.7 1.83C49.87 6.01 36.96 23.67 37.38 36.06C37.38 45.09 44.71 52.41 53.71 52.41C62.71 52.41 70.04 45.08 70.04 36.08C70.04 36.06 70.03 35.9 70.03 35.88V35.85C70.31 23.47 57.5 5.96 53.71 1.82L53.7 1.83Z" fill="#00AEEF"/>
<path d="M46.37 43.4899C46.22 43.4899 46.07 43.4299 45.97 43.3099C45.09 42.3099 44.41 41.1599 43.97 39.8999C43.53 38.6399 43.33 37.3199 43.4 35.9899C43.47 34.6099 43.81 33.2699 44.41 32.0199C45.01 30.7599 45.84 29.6599 46.88 28.7499C47.88 27.8699 49.03 27.1899 50.29 26.7499C51.55 26.3099 52.88 26.1099 54.2 26.1799C55.58 26.2499 56.92 26.5799 58.17 27.1899C58.44 27.3199 58.55 27.6399 58.42 27.9099C58.29 28.1799 57.97 28.2899 57.7 28.1599C56.58 27.6199 55.38 27.3199 54.14 27.2599C52.94 27.2099 51.77 27.3799 50.63 27.7699C49.5 28.1699 48.47 28.7699 47.57 29.5599C46.64 30.3799 45.9 31.3599 45.36 32.4899C44.82 33.6199 44.52 34.8099 44.46 36.0499C44.4 37.2399 44.58 38.4199 44.97 39.5599C45.37 40.6899 45.97 41.7199 46.76 42.6199C46.96 42.8399 46.94 43.1799 46.71 43.3799C46.61 43.4699 46.48 43.5099 46.35 43.5099L46.37 43.4899Z" fill="#00AEEF"/>
<path d="M53.7001 46.8C53.5301 46.8 53.3701 46.8 53.2001 46.79C51.8201 46.72 50.4801 46.39 49.2301 45.78C48.9601 45.65 48.8501 45.33 48.9801 45.06C49.1101 44.79 49.4301 44.68 49.7001 44.81C50.8201 45.35 52.0201 45.65 53.2601 45.71C54.4601 45.77 55.6301 45.59 56.7701 45.2C57.9001 44.8 58.9301 44.2 59.8301 43.41C60.7601 42.59 61.5001 41.61 62.0401 40.48C62.5801 39.36 62.8801 38.16 62.9401 36.92C63.0001 35.73 62.8201 34.55 62.4301 33.41C62.0301 32.28 61.4301 31.25 60.6401 30.35C60.4401 30.13 60.4601 29.79 60.6901 29.59C60.9101 29.39 61.2501 29.41 61.4501 29.64C62.3301 30.64 63.0101 31.79 63.4501 33.05C63.8901 34.31 64.0901 35.63 64.0201 36.96C63.9501 38.34 63.6101 39.68 63.0101 40.93C62.4101 42.18 61.5801 43.28 60.5401 44.2C59.5401 45.08 58.3901 45.76 57.1301 46.2C56.0201 46.59 54.8801 46.79 53.7101 46.79L53.7001 46.8Z" fill="#00AEEF"/>
<path d="M55.5601 28.9199C55.3301 28.9199 55.1201 28.7699 55.0501 28.5399C54.9601 28.2599 55.1201 27.9599 55.4101 27.8699L57.1101 27.3499L56.1701 25.8399C56.0101 25.5899 56.0901 25.2599 56.3401 25.0999C56.5901 24.9399 56.9201 25.0199 57.0801 25.2699L58.3901 27.3799C58.4801 27.5199 58.4901 27.6999 58.4401 27.8499C58.3901 27.9999 58.2501 28.1299 58.0901 28.1799L55.7201 28.8999C55.6701 28.9199 55.6101 28.9199 55.5601 28.9199Z" fill="#00AEEF"/>
<path d="M50.78 47.94C50.6 47.94 50.42 47.85 50.32 47.68L49.01 45.57C48.92 45.43 48.91 45.25 48.96 45.1C49.01 44.95 49.15 44.82 49.31 44.77L51.68 44.05C51.97 43.96 52.26 44.12 52.35 44.41C52.44 44.69 52.28 44.99 51.99 45.08L50.29 45.6L51.23 47.11C51.39 47.36 51.31 47.69 51.06 47.85C50.97 47.9 50.87 47.93 50.78 47.93V47.94Z" fill="#00AEEF"/>
</g>
<defs>
<clipPath id="clip0_137_4703">
<rect width="104.08" height="81.04" fill="white"/>
</clipPath>
</defs>
</svg>
