<?xml version="1.0" encoding="UTF-8"?>
<svg id="Layer_2" data-name="Layer 2" xmlns="http://www.w3.org/2000/svg" viewBox="0 0 746.67 121.32">
  <defs>
    <style>
      .cls-1 {
        stroke: #a7153d;
      }

      .cls-1, .cls-2 {
        fill: none;
        stroke-miterlimit: 10;
        stroke-width: 4px;
      }

      .cls-3 {
        fill: #fff;
        stroke-width: 0px;
      }

      .cls-2 {
        stroke: #9fc734;
      }
    </style>
  </defs>
  <g id="Layer_1-2" data-name="Layer 1">
    <g>
      <g>
        <path class="cls-3" d="M19.16,35.49h35.47v5.09h-15.01v39.81h-5.46v-39.81h-15.01v-5.09Z"/>
        <path class="cls-3" d="M52.69,57.94c0-13.75,9.92-23.08,23.01-23.08s23.01,9.32,23.01,23.08-9.92,23.11-23.01,23.11-23.01-9.36-23.01-23.11ZM75.7,75.96c10.05,0,17.29-7.24,17.29-18.02s-7.24-17.99-17.29-17.99-17.29,7.21-17.29,17.99,7.24,18.02,17.29,18.02Z"/>
        <path class="cls-3" d="M121.77,35.49c13.36,0,23.11,9.59,23.11,22.48s-9.75,22.42-23.11,22.42h-17.85v-44.9h17.85ZM121.77,75.4c10.45,0,17.39-7.6,17.39-17.42s-6.94-17.42-17.39-17.46l-12.4-.03v34.91h12.4Z"/>
        <path class="cls-3" d="M143.33,80.39l18.55-44.9h6.41l18.58,44.9h-5.79l-4.17-10.41h-23.64l-4.2,10.41h-5.75ZM175.2,65.31l-10.12-24.14-10.08,24.14h20.2Z"/>
        <path class="cls-3" d="M185.46,35.49l13.92,21.79,13.92-21.79h6.48l-17.65,27.38v17.52h-5.49v-17.52l-17.65-27.38h6.48Z"/>
        <path class="cls-3" d="M273.58,35.49v4.96h-25.49v14.48h20.4v4.93h-20.4v20.53h-5.45v-44.9h30.95Z"/>
        <path class="cls-3" d="M273.46,57.94c0-13.75,9.92-23.08,23.01-23.08s23.01,9.32,23.01,23.08-9.92,23.11-23.01,23.11-23.01-9.36-23.01-23.11ZM296.47,75.96c10.05,0,17.29-7.24,17.29-18.02s-7.24-17.99-17.29-17.99-17.29,7.21-17.29,17.99,7.24,18.02,17.29,18.02Z"/>
        <path class="cls-3" d="M343.85,35.49c9.09,0,15.01,5.13,15.01,13.32,0,6.45-3.74,11.04-9.82,12.66l11.11,18.91h-6.45l-10.55-18.25h-13.03v18.25h-5.45v-44.9h19.17ZM330.13,40.45v16.83h13.52c6.28,0,9.52-3.37,9.52-8.46s-3.24-8.37-9.52-8.37h-13.52Z"/>
        <path class="cls-3" d="M359.8,35.49h34.88v2.68h-15.9v42.22h-3.04v-42.22h-15.94v-2.68Z"/>
        <path class="cls-3" d="M416.47,34.83c13.46,0,22.98,9.59,22.98,23.11s-9.52,23.11-22.98,23.11-22.98-9.59-22.98-23.11,9.52-23.11,22.98-23.11ZM396.63,57.94c0,11.94,8.2,20.43,19.84,20.43s19.84-8.5,19.84-20.43-8.2-20.43-19.84-20.43-19.84,8.5-19.84,20.43Z"/>
        <path class="cls-3" d="M445.41,35.49h3.93l19.14,36.9,19.14-36.9h3.93v44.9h-3.04v-40.07l-18.68,35.61h-2.71l-18.68-35.61v40.07h-3.04v-44.9Z"/>
        <path class="cls-3" d="M520.5,34.83c13.46,0,22.98,9.59,22.98,23.11s-9.52,23.11-22.98,23.11-22.98-9.59-22.98-23.11,9.52-23.11,22.98-23.11ZM500.66,57.94c0,11.94,8.2,20.43,19.84,20.43s19.84-8.5,19.84-20.43-8.2-20.43-19.84-20.43-19.84,8.5-19.84,20.43Z"/>
        <path class="cls-3" d="M549.44,80.39v-44.9h18.88c8.5,0,13.98,4.76,13.98,12.46,0,6.38-4.2,10.94-10.98,12.3l11.7,20.13h-3.57l-11.34-19.94h-15.64v19.94h-3.04ZM552.48,57.74h15.64c7.27,0,11.04-3.93,11.04-9.79s-3.77-9.79-11.04-9.79h-15.64v19.57Z"/>
        <path class="cls-3" d="M587.96,80.39v-44.9h18.88c8.5,0,13.98,4.76,13.98,12.46,0,6.38-4.2,10.94-10.98,12.3l11.7,20.13h-3.57l-11.34-19.94h-15.64v19.94h-3.04ZM591,57.74h15.64c7.27,0,11.04-3.93,11.04-9.79s-3.77-9.79-11.04-9.79h-15.64v19.57Z"/>
        <path class="cls-3" d="M646.19,34.83c13.46,0,22.98,9.59,22.98,23.11s-9.52,23.11-22.98,23.11-22.98-9.59-22.98-23.11,9.52-23.11,22.98-23.11ZM626.35,57.94c0,11.94,8.2,20.43,19.84,20.43s19.84-8.5,19.84-20.43-8.2-20.43-19.84-20.43-19.84,8.5-19.84,20.43Z"/>
        <path class="cls-3" d="M673.17,35.49l12.96,41.66,14.09-41.66h3.8l14.08,41.66,12.93-41.66h3.27l-14.08,44.9h-4.17l-13.95-41.82-13.92,41.82h-4.2l-14.05-44.9h3.24Z"/>
      </g>
      <polyline class="cls-2" points="20.84 118.44 2 118.44 2 2"/>
      <polyline class="cls-1" points="744.67 121.32 744.67 2 727.29 2"/>
    </g>
  </g>
</svg>