<?xml version="1.0" encoding="UTF-8"?>
<svg id="Layer_2" data-name="Layer 2" xmlns="http://www.w3.org/2000/svg" xmlns:xlink="http://www.w3.org/1999/xlink" viewBox="0 0 841.89 167.95">
  <defs>
    <style>
      .cls-1 {
        fill: #68737a;
      }

      .cls-1, .cls-2 {
        stroke-width: 0px;
      }

      .cls-3 {
        clip-path: url(#clippath);
      }

      .cls-2 {
        fill: none;
      }

      .cls-4 {
        clip-path: url(#clippath-1);
      }

      .cls-5 {
        clip-path: url(#clippath-2);
      }
    </style>
    <clipPath id="clippath">
      <rect class="cls-2" width="841.89" height="167.95"/>
    </clipPath>
    <clipPath id="clippath-1">
      <rect class="cls-2" width="841.89" height="167.95"/>
    </clipPath>
    <clipPath id="clippath-2">
      <rect class="cls-2" width="841.89" height="167.95"/>
    </clipPath>
  </defs>
  <g id="Layer_1-2" data-name="Layer 1">
    <g>
      <polygon class="cls-1" points="99.84 116 146.16 39.26 64.73 39.26 64.73 60.93 103.36 60.93 56.77 137.66 141.07 137.66 141.07 116 99.84 116"/>
      <g class="cls-3">
        <path class="cls-1" d="M250.69,86.64c0-29.75-26.1-50.64-54.42-50.64s-54.42,20.88-54.42,50.64c0,7.71,1.34,14.86,3.81,21.28h0c7.75,20.11,26.67,33.01,50.61,33.01s42.86-12.9,50.61-33.01h-31.08c-5.03,5.15-11.94,8.21-19.52,8.21s-14.49-3.06-19.53-8.22c-5.1-5.23-8.27-12.61-8.27-21.15,0-13.57,12.53-25.97,27.8-25.97s27.8,12.4,27.8,25.97c0,8.54-3.17,15.92-8.27,21.15h31.08c2.47-6.42,3.81-13.57,3.81-21.28"/>
        <path class="cls-1" d="M281.63,58.84h2.48c8.35,0,17.75,1.57,17.75,12.27s-9.4,12.27-17.75,12.27h-2.48v-24.54ZM306.94,97.34c13.96-2.48,21.53-14.22,21.53-27.8,0-21.01-14.75-30.28-34.19-30.28h-38.24v98.4h25.58v-37.85h.26l24.14,37.85h31.84l-30.93-40.33Z"/>
      </g>
      <polygon class="cls-1" points="365.14 39.26 339.56 39.26 339.56 137.66 395.81 137.66 395.81 116 365.14 116 365.14 39.26"/>
      <g class="cls-4">
        <path class="cls-1" d="M457.4,39.26v51.81c0,12.79-.92,26.75-17.36,26.75s-17.36-13.96-17.36-26.75v-51.81h-25.58v55.33c0,12.66.52,25.19,10.31,34.71,8.22,8.09,21.14,10.96,32.62,10.96s24.4-2.87,32.63-10.96c9.79-9.53,10.31-22.06,10.31-34.71v-55.33h-25.58Z"/>
      </g>
      <polygon class="cls-1" points="535.32 60.93 556.46 60.93 556.46 39.26 488.6 39.26 488.6 60.93 509.74 60.93 509.74 137.66 535.32 137.66 535.32 60.93"/>
      <polygon class="cls-1" points="615.2 60.93 615.2 39.26 559.21 39.26 559.21 137.66 615.2 137.66 615.2 116 584.79 116 584.79 98.9 613.63 98.9 613.63 77.24 584.79 77.24 584.79 60.93 615.2 60.93"/>
      <polygon class="cls-1" points="650.3 79.85 650.04 79.85 650.04 39.26 624.46 39.26 624.46 137.66 650.04 137.66 650.04 94.99 650.3 94.99 683.32 137.66 716.47 137.66 673.79 85.85 712.94 39.26 681.23 39.26 650.3 79.85"/>
      <g class="cls-5">
        <path class="cls-1" d="M781.07,44.74c-8.74-4.96-20.88-8.09-30.8-8.09-19.71,0-33.93,13.05-33.93,33.02s10.57,23.23,26.62,27.8c5.48,1.57,15.53,4.05,15.53,11.22s-6.4,9.92-12.4,9.92c-8.74,0-16.31-4.57-22.71-10.18l-10.96,20.62c10.05,7.05,22.19,11.22,34.58,11.22,9.92,0,20.23-2.74,27.93-9.27,7.83-6.65,10.18-16.7,10.18-26.49,0-15.92-10.57-22.84-24.27-26.88l-6.52-1.96c-4.44-1.43-11.35-3.65-11.35-9.4s6.27-8.22,10.96-8.22c6.26,0,12.27,2.61,16.97,6.53l10.18-19.84Z"/>
      </g>
    </g>
  </g>
</svg>